999
Generated by Autodesk CAM - http://cam.autodesk.com
999
UNIT = MM
999
THICKNESS = 7.34
0
SECTION
2
HEADER
9
$ACADVER
1
AC1006
9
$ANGBASE
50
0
9
$ANGDIR
70
0
0
ENDSEC
0
SECTION
2
BLOCKS
0
ENDSEC
9
$EXTMIN
10
-7.928
20
-13.684
30
0
9
$EXTMAX
10
7.9
20
13.683
30
15
0
SECTION
2
ENTITIES
0
ARC
8
0
62
1
10
5.786
20
-9.64
30
0
40
1.012
50
161.321667
51
-18.678333
0
ARC
8
0
62
1
10
5.786
20
-9.64
30
0
40
1.012
50
-18.678333
51
161.321667
0
ARC
8
0
62
1
10
-0.186
20
-8.587
30
0
40
1.012
50
71.32151
51
-108.67849
0
ARC
8
0
62
1
10
-0.186
20
-8.587
30
0
40
1.012
50
-108.67849
51
71.32151
0
ARC
8
0
62
1
10
-1.48
20
-3.653
30
0
40
1.012
50
104.699001
51
-75.300999
0
ARC
8
0
62
1
10
-1.48
20
-3.653
30
0
40
1.012
50
-75.300999
51
104.699001
0
ARC
8
0
62
1
10
-2.774
20
1.28
30
0
40
1.012
50
104.69938
51
-75.30062
0
ARC
8
0
62
1
10
-2.774
20
1.28
30
0
40
1.012
50
-75.30062
51
104.69938
0
ARC
8
0
62
1
10
-4.068
20
6.213
30
0
40
1.012
50
-75.300605
51
104.699395
0
ARC
8
0
62
1
10
-4.068
20
6.213
30
0
40
1.012
50
104.699395
51
-75.300605
0
ARC
8
0
62
1
10
-5.362
20
11.146
30
0
40
1.012
50
-75.302547
51
104.697453
0
ARC
8
0
62
1
10
-5.362
20
11.146
30
0
40
1.012
50
104.697453
51
-75.302547
0
LINE
8
0
62
1
10
-7.561
20
9.523
30
0
11
-7.817
21
10.502
31
0
0
LINE
8
0
62
1
10
-7.817
20
10.502
30
0
11
-7.85
21
10.64
31
0
0
LINE
8
0
62
1
10
-7.85
20
10.64
30
0
11
-7.874
21
10.781
31
0
0
LINE
8
0
62
1
10
-7.874
20
10.781
30
0
11
-7.891
21
10.922
31
0
0
LINE
8
0
62
1
10
-7.891
20
10.922
30
0
11
-7.899
21
11.064
31
0
0
LINE
8
0
62
1
10
-7.899
20
11.064
30
0
11
-7.9
21
11.207
31
0
0
LINE
8
0
62
1
10
-7.9
20
11.207
30
0
11
-7.892
21
11.349
31
0
0
LINE
8
0
62
1
10
-7.892
20
11.349
30
0
11
-7.877
21
11.49
31
0
0
LINE
8
0
62
1
10
-7.877
20
11.49
30
0
11
-7.854
21
11.631
31
0
0
LINE
8
0
62
1
10
-7.854
20
11.631
30
0
11
-7.823
21
11.77
31
0
0
LINE
8
0
62
1
10
-7.823
20
11.77
30
0
11
-7.784
21
11.907
31
0
0
LINE
8
0
62
1
10
-7.784
20
11.907
30
0
11
-7.737
21
12.041
31
0
0
LINE
8
0
62
1
10
-7.737
20
12.041
30
0
11
-7.683
21
12.173
31
0
0
LINE
8
0
62
1
10
-7.683
20
12.173
30
0
11
-7.622
21
12.302
31
0
0
LINE
8
0
62
1
10
-7.622
20
12.302
30
0
11
-7.554
21
12.426
31
0
0
LINE
8
0
62
1
10
-7.554
20
12.426
30
0
11
-7.479
21
12.547
31
0
0
LINE
8
0
62
1
10
-7.479
20
12.547
30
0
11
-7.397
21
12.664
31
0
0
LINE
8
0
62
1
10
-7.397
20
12.664
30
0
11
-7.308
21
12.775
31
0
0
LINE
8
0
62
1
10
-7.308
20
12.775
30
0
11
-7.214
21
12.882
31
0
0
LINE
8
0
62
1
10
-7.214
20
12.882
30
0
11
-7.114
21
12.983
31
0
0
LINE
8
0
62
1
10
-7.114
20
12.983
30
0
11
-7.008
21
13.078
31
0
0
LINE
8
0
62
1
10
-7.008
20
13.078
30
0
11
-6.897
21
13.168
31
0
0
LINE
8
0
62
1
10
-6.897
20
13.168
30
0
11
-6.781
21
13.25
31
0
0
LINE
8
0
62
1
10
-6.781
20
13.25
30
0
11
-6.661
21
13.327
31
0
0
LINE
8
0
62
1
10
-6.661
20
13.327
30
0
11
-6.537
21
13.396
31
0
0
LINE
8
0
62
1
10
-6.537
20
13.396
30
0
11
-6.409
21
13.458
31
0
0
LINE
8
0
62
1
10
-6.409
20
13.458
30
0
11
-6.277
21
13.513
31
0
0
LINE
8
0
62
1
10
-6.277
20
13.513
30
0
11
-6.143
21
13.561
31
0
0
LINE
8
0
62
1
10
-6.143
20
13.561
30
0
11
-6.006
21
13.601
31
0
0
LINE
8
0
62
1
10
-6.006
20
13.601
30
0
11
-5.868
21
13.633
31
0
0
LINE
8
0
62
1
10
-5.868
20
13.633
30
0
11
-5.728
21
13.657
31
0
0
LINE
8
0
62
1
10
-5.728
20
13.657
30
0
11
-5.586
21
13.674
31
0
0
LINE
8
0
62
1
10
-5.586
20
13.674
30
0
11
-5.444
21
13.683
31
0
0
LINE
8
0
62
1
10
-5.444
20
13.683
30
0
11
-5.302
21
13.683
31
0
0
LINE
8
0
62
1
10
-5.302
20
13.683
30
0
11
-5.159
21
13.676
31
0
0
LINE
8
0
62
1
10
-5.159
20
13.676
30
0
11
-5.018
21
13.66
31
0
0
LINE
8
0
62
1
10
-5.018
20
13.66
30
0
11
-4.877
21
13.637
31
0
0
LINE
8
0
62
1
10
-4.877
20
13.637
30
0
11
-4.739
21
13.606
31
0
0
LINE
8
0
62
1
10
-4.739
20
13.606
30
0
11
-4.602
21
13.567
31
0
0
LINE
8
0
62
1
10
-4.602
20
13.567
30
0
11
-4.467
21
13.521
31
0
0
LINE
8
0
62
1
10
-4.467
20
13.521
30
0
11
-4.335
21
13.467
31
0
0
LINE
8
0
62
1
10
-4.335
20
13.467
30
0
11
-4.207
21
13.406
31
0
0
LINE
8
0
62
1
10
-4.207
20
13.406
30
0
11
-4.082
21
13.337
31
0
0
LINE
8
0
62
1
10
-4.082
20
13.337
30
0
11
-3.961
21
13.262
31
0
0
LINE
8
0
62
1
10
-3.961
20
13.262
30
0
11
-3.845
21
13.18
31
0
0
LINE
8
0
62
1
10
-3.845
20
13.18
30
0
11
-3.733
21
13.092
31
0
0
LINE
8
0
62
1
10
-3.733
20
13.092
30
0
11
-3.626
21
12.997
31
0
0
LINE
8
0
62
1
10
-3.626
20
12.997
30
0
11
-3.525
21
12.897
31
0
0
LINE
8
0
62
1
10
-3.525
20
12.897
30
0
11
-3.43
21
12.791
31
0
0
LINE
8
0
62
1
10
-3.43
20
12.791
30
0
11
-3.341
21
12.68
31
0
0
LINE
8
0
62
1
10
-3.341
20
12.68
30
0
11
-3.258
21
12.565
31
0
0
LINE
8
0
62
1
10
-3.258
20
12.565
30
0
11
-3.182
21
12.444
31
0
0
LINE
8
0
62
1
10
-3.182
20
12.444
30
0
11
-3.112
21
12.32
31
0
0
LINE
8
0
62
1
10
-3.112
20
12.32
30
0
11
-3.05
21
12.192
31
0
0
LINE
8
0
62
1
10
-3.05
20
12.192
30
0
11
-2.995
21
12.061
31
0
0
LINE
8
0
62
1
10
-2.995
20
12.061
30
0
11
-2.947
21
11.927
31
0
0
LINE
8
0
62
1
10
-2.947
20
11.927
30
0
11
-2.907
21
11.79
31
0
0
LINE
8
0
62
1
10
-2.907
20
11.79
30
0
11
2.108
21
-7.327
31
0
0
LINE
8
0
62
1
10
2.108
20
-7.327
30
0
11
4.192
21
-6.78
31
0
0
LINE
8
0
62
1
10
4.192
20
-6.78
30
0
11
4.338
21
-6.746
31
0
0
LINE
8
0
62
1
10
4.338
20
-6.746
30
0
11
4.485
21
-6.719
31
0
0
LINE
8
0
62
1
10
4.485
20
-6.719
30
0
11
4.634
21
-6.7
31
0
0
LINE
8
0
62
1
10
4.634
20
-6.7
30
0
11
4.783
21
-6.688
31
0
0
LINE
8
0
62
1
10
4.783
20
-6.688
30
0
11
4.933
21
-6.684
31
0
0
LINE
8
0
62
1
10
4.933
20
-6.684
30
0
11
5.083
21
-6.687
31
0
0
LINE
8
0
62
1
10
5.083
20
-6.687
30
0
11
5.232
21
-6.698
31
0
0
LINE
8
0
62
1
10
5.232
20
-6.698
30
0
11
5.381
21
-6.716
31
0
0
LINE
8
0
62
1
10
5.381
20
-6.716
30
0
11
5.529
21
-6.742
31
0
0
LINE
8
0
62
1
10
5.529
20
-6.742
30
0
11
5.675
21
-6.776
31
0
0
LINE
8
0
62
1
10
5.675
20
-6.776
30
0
11
5.819
21
-6.816
31
0
0
LINE
8
0
62
1
10
5.819
20
-6.816
30
0
11
5.961
21
-6.864
31
0
0
LINE
8
0
62
1
10
5.961
20
-6.864
30
0
11
6.1
21
-6.92
31
0
0
LINE
8
0
62
1
10
6.1
20
-6.92
30
0
11
6.237
21
-6.982
31
0
0
LINE
8
0
62
1
10
6.237
20
-6.982
30
0
11
6.37
21
-7.051
31
0
0
LINE
8
0
62
1
10
6.37
20
-7.051
30
0
11
6.499
21
-7.126
31
0
0
LINE
8
0
62
1
10
6.499
20
-7.126
30
0
11
6.625
21
-7.208
31
0
0
LINE
8
0
62
1
10
6.625
20
-7.208
30
0
11
6.746
21
-7.297
31
0
0
LINE
8
0
62
1
10
6.746
20
-7.297
30
0
11
6.862
21
-7.391
31
0
0
LINE
8
0
62
1
10
6.862
20
-7.391
30
0
11
6.974
21
-7.491
31
0
0
LINE
8
0
62
1
10
6.974
20
-7.491
30
0
11
7.08
21
-7.597
31
0
0
LINE
8
0
62
1
10
7.08
20
-7.597
30
0
11
7.181
21
-7.708
31
0
0
LINE
8
0
62
1
10
7.181
20
-7.708
30
0
11
7.276
21
-7.823
31
0
0
LINE
8
0
62
1
10
7.276
20
-7.823
30
0
11
7.365
21
-7.944
31
0
0
LINE
8
0
62
1
10
7.365
20
-7.944
30
0
11
7.448
21
-8.069
31
0
0
LINE
8
0
62
1
10
7.448
20
-8.069
30
0
11
7.524
21
-8.198
31
0
0
LINE
8
0
62
1
10
7.524
20
-8.198
30
0
11
7.594
21
-8.33
31
0
0
LINE
8
0
62
1
10
7.594
20
-8.33
30
0
11
7.657
21
-8.466
31
0
0
LINE
8
0
62
1
10
7.657
20
-8.466
30
0
11
7.713
21
-8.605
31
0
0
LINE
8
0
62
1
10
7.713
20
-8.605
30
0
11
7.762
21
-8.747
31
0
0
LINE
8
0
62
1
10
7.762
20
-8.747
30
0
11
7.804
21
-8.891
31
0
0
LINE
8
0
62
1
10
7.804
20
-8.891
30
0
11
7.838
21
-9.037
31
0
0
LINE
8
0
62
1
10
7.838
20
-9.037
30
0
11
7.865
21
-9.184
31
0
0
LINE
8
0
62
1
10
7.865
20
-9.184
30
0
11
7.884
21
-9.333
31
0
0
LINE
8
0
62
1
10
7.884
20
-9.333
30
0
11
7.896
21
-9.482
31
0
0
LINE
8
0
62
1
10
7.896
20
-9.482
30
0
11
7.901
21
-9.632
31
0
0
LINE
8
0
62
1
10
7.901
20
-9.632
30
0
11
7.897
21
-9.782
31
0
0
LINE
8
0
62
1
10
7.897
20
-9.782
30
0
11
7.886
21
-9.931
31
0
0
LINE
8
0
62
1
10
7.886
20
-9.931
30
0
11
7.868
21
-10.08
31
0
0
LINE
8
0
62
1
10
7.868
20
-10.08
30
0
11
7.842
21
-10.228
31
0
0
LINE
8
0
62
1
10
7.842
20
-10.228
30
0
11
7.808
21
-10.374
31
0
0
LINE
8
0
62
1
10
7.808
20
-10.374
30
0
11
7.768
21
-10.518
31
0
0
LINE
8
0
62
1
10
7.768
20
-10.518
30
0
11
7.72
21
-10.66
31
0
0
LINE
8
0
62
1
10
7.72
20
-10.66
30
0
11
7.665
21
-10.799
31
0
0
LINE
8
0
62
1
10
7.665
20
-10.799
30
0
11
7.602
21
-10.936
31
0
0
LINE
8
0
62
1
10
7.602
20
-10.936
30
0
11
7.533
21
-11.069
31
0
0
LINE
8
0
62
1
10
7.533
20
-11.069
30
0
11
7.458
21
-11.198
31
0
0
LINE
8
0
62
1
10
7.458
20
-11.198
30
0
11
7.376
21
-11.324
31
0
0
LINE
8
0
62
1
10
7.376
20
-11.324
30
0
11
7.287
21
-11.445
31
0
0
LINE
8
0
62
1
10
7.287
20
-11.445
30
0
11
7.193
21
-11.561
31
0
0
LINE
8
0
62
1
10
7.193
20
-11.561
30
0
11
7.093
21
-11.673
31
0
0
LINE
8
0
62
1
10
7.093
20
-11.673
30
0
11
6.987
21
-11.779
31
0
0
LINE
8
0
62
1
10
6.987
20
-11.779
30
0
11
6.876
21
-11.88
31
0
0
LINE
8
0
62
1
10
6.876
20
-11.88
30
0
11
6.761
21
-11.975
31
0
0
LINE
8
0
62
1
10
6.761
20
-11.975
30
0
11
6.64
21
-12.064
31
0
0
LINE
8
0
62
1
10
6.64
20
-12.064
30
0
11
6.515
21
-12.147
31
0
0
LINE
8
0
62
1
10
6.515
20
-12.147
30
0
11
6.386
21
-12.223
31
0
0
LINE
8
0
62
1
10
6.386
20
-12.223
30
0
11
6.254
21
-12.293
31
0
0
LINE
8
0
62
1
10
6.254
20
-12.293
30
0
11
6.118
21
-12.356
31
0
0
LINE
8
0
62
1
10
6.118
20
-12.356
30
0
11
5.979
21
-12.412
31
0
0
LINE
8
0
62
1
10
5.979
20
-12.412
30
0
11
5.837
21
-12.461
31
0
0
LINE
8
0
62
1
10
5.837
20
-12.461
30
0
11
5.693
21
-12.503
31
0
0
LINE
8
0
62
1
10
5.693
20
-12.503
30
0
11
1.56
21
-13.587
31
0
0
LINE
8
0
62
1
10
1.56
20
-13.587
30
0
11
1.414
21
-13.621
31
0
0
LINE
8
0
62
1
10
1.414
20
-13.621
30
0
11
1.267
21
-13.648
31
0
0
LINE
8
0
62
1
10
1.267
20
-13.648
30
0
11
1.118
21
-13.668
31
0
0
LINE
8
0
62
1
10
1.118
20
-13.668
30
0
11
0.969
21
-13.68
31
0
0
LINE
8
0
62
1
10
0.969
20
-13.68
30
0
11
0.819
21
-13.684
31
0
0
LINE
8
0
62
1
10
0.819
20
-13.684
30
0
11
0.669
21
-13.681
31
0
0
LINE
8
0
62
1
10
0.669
20
-13.681
30
0
11
0.52
21
-13.67
31
0
0
LINE
8
0
62
1
10
0.52
20
-13.67
30
0
11
0.371
21
-13.651
31
0
0
LINE
8
0
62
1
10
0.371
20
-13.651
30
0
11
0.223
21
-13.625
31
0
0
LINE
8
0
62
1
10
0.223
20
-13.625
30
0
11
0.077
21
-13.592
31
0
0
LINE
8
0
62
1
10
0.077
20
-13.592
30
0
11
-0.067
21
-13.551
31
0
0
LINE
8
0
62
1
10
-0.067
20
-13.551
30
0
11
-0.209
21
-13.503
31
0
0
LINE
8
0
62
1
10
-0.209
20
-13.503
30
0
11
-0.348
21
-13.448
31
0
0
LINE
8
0
62
1
10
-0.348
20
-13.448
30
0
11
-0.485
21
-13.386
31
0
0
LINE
8
0
62
1
10
-0.485
20
-13.386
30
0
11
-0.618
21
-13.317
31
0
0
LINE
8
0
62
1
10
-0.618
20
-13.317
30
0
11
-0.747
21
-13.241
31
0
0
LINE
8
0
62
1
10
-0.747
20
-13.241
30
0
11
-0.873
21
-13.159
31
0
0
LINE
8
0
62
1
10
-0.873
20
-13.159
30
0
11
-0.994
21
-13.071
31
0
0
LINE
8
0
62
1
10
-0.994
20
-13.071
30
0
11
-1.11
21
-12.976
31
0
0
LINE
8
0
62
1
10
-1.11
20
-12.976
30
0
11
-1.222
21
-12.876
31
0
0
LINE
8
0
62
1
10
-1.222
20
-12.876
30
0
11
-1.328
21
-12.771
31
0
0
LINE
8
0
62
1
10
-1.328
20
-12.771
30
0
11
-1.429
21
-12.66
31
0
0
LINE
8
0
62
1
10
-1.429
20
-12.66
30
0
11
-1.524
21
-12.544
31
0
0
LINE
8
0
62
1
10
-1.524
20
-12.544
30
0
11
-1.613
21
-12.423
31
0
0
LINE
8
0
62
1
10
-1.613
20
-12.423
30
0
11
-1.696
21
-12.299
31
0
0
LINE
8
0
62
1
10
-1.696
20
-12.299
30
0
11
-1.772
21
-12.17
31
0
0
LINE
8
0
62
1
10
-1.772
20
-12.17
30
0
11
-1.842
21
-12.037
31
0
0
LINE
8
0
62
1
10
-1.842
20
-12.037
30
0
11
-1.905
21
-11.901
31
0
0
LINE
8
0
62
1
10
-1.905
20
-11.901
30
0
11
-1.961
21
-11.762
31
0
0
LINE
8
0
62
1
10
-1.961
20
-11.762
30
0
11
-2.01
21
-11.62
31
0
0
LINE
8
0
62
1
10
-2.01
20
-11.62
30
0
11
-2.052
21
-11.476
31
0
0
LINE
8
0
62
1
10
-2.052
20
-11.476
30
0
11
-7.561
21
9.523
31
0
0
ENDSEC
0
EOF
