999
Generated by Autodesk CAM - http://cam.autodesk.com
999
UNIT = MM
999
THICKNESS = 7.34
0
SECTION
2
HEADER
9
$ACADVER
1
AC1006
9
$ANGBASE
50
0
9
$ANGDIR
70
0
0
ENDSEC
0
SECTION
2
BLOCKS
0
ENDSEC
9
$EXTMIN
10
-2.868
20
-6.388
30
0
9
$EXTMAX
10
2.538
20
6.388
30
15
0
SECTION
2
ENTITIES
0
LINE
8
0
62
1
10
0
20
2.484
30
0
11
-0.092
21
2.488
31
0
0
LINE
8
0
62
1
10
-0.092
20
2.488
30
0
11
-0.184
21
2.499
31
0
0
LINE
8
0
62
1
10
-0.184
20
2.499
30
0
11
-0.274
21
2.519
31
0
0
LINE
8
0
62
1
10
-0.274
20
2.519
30
0
11
-0.362
21
2.546
31
0
0
LINE
8
0
62
1
10
-0.362
20
2.546
30
0
11
-0.448
21
2.58
31
0
0
LINE
8
0
62
1
10
-0.448
20
2.58
30
0
11
-0.531
21
2.622
31
0
0
LINE
8
0
62
1
10
-0.531
20
2.622
30
0
11
-0.609
21
2.67
31
0
0
LINE
8
0
62
1
10
-0.609
20
2.67
30
0
11
-0.684
21
2.725
31
0
0
LINE
8
0
62
1
10
-0.684
20
2.725
30
0
11
-0.753
21
2.786
31
0
0
LINE
8
0
62
1
10
-0.753
20
2.786
30
0
11
-0.817
21
2.853
31
0
0
LINE
8
0
62
1
10
-0.817
20
2.853
30
0
11
-0.875
21
2.925
31
0
0
LINE
8
0
62
1
10
-0.875
20
2.925
30
0
11
-0.927
21
3.001
31
0
0
LINE
8
0
62
1
10
-0.927
20
3.001
30
0
11
-0.972
21
3.082
31
0
0
LINE
8
0
62
1
10
-0.972
20
3.082
30
0
11
-1.01
21
3.166
31
0
0
LINE
8
0
62
1
10
-1.01
20
3.166
30
0
11
-1.04
21
3.253
31
0
0
LINE
8
0
62
1
10
-1.04
20
3.253
30
0
11
-1.064
21
3.343
31
0
0
LINE
8
0
62
1
10
-1.064
20
3.343
30
0
11
-1.079
21
3.434
31
0
0
LINE
8
0
62
1
10
-1.079
20
3.434
30
0
11
-1.087
21
3.526
31
0
0
LINE
8
0
62
1
10
-1.087
20
3.526
30
0
11
-1.087
21
3.618
31
0
0
LINE
8
0
62
1
10
-1.087
20
3.618
30
0
11
-1.079
21
3.71
31
0
0
LINE
8
0
62
1
10
-1.079
20
3.71
30
0
11
-1.064
21
3.801
31
0
0
LINE
8
0
62
1
10
-1.064
20
3.801
30
0
11
-1.04
21
3.891
31
0
0
LINE
8
0
62
1
10
-1.04
20
3.891
30
0
11
-1.01
21
3.978
31
0
0
LINE
8
0
62
1
10
-1.01
20
3.978
30
0
11
-0.972
21
4.062
31
0
0
LINE
8
0
62
1
10
-0.972
20
4.062
30
0
11
-0.927
21
4.142
31
0
0
LINE
8
0
62
1
10
-0.927
20
4.142
30
0
11
-0.875
21
4.219
31
0
0
LINE
8
0
62
1
10
-0.875
20
4.219
30
0
11
-0.817
21
4.291
31
0
0
LINE
8
0
62
1
10
-0.817
20
4.291
30
0
11
-0.753
21
4.357
31
0
0
LINE
8
0
62
1
10
-0.753
20
4.357
30
0
11
-0.684
21
4.418
31
0
0
LINE
8
0
62
1
10
-0.684
20
4.418
30
0
11
-0.609
21
4.473
31
0
0
LINE
8
0
62
1
10
-0.609
20
4.473
30
0
11
-0.531
21
4.522
31
0
0
LINE
8
0
62
1
10
-0.531
20
4.522
30
0
11
-0.448
21
4.563
31
0
0
LINE
8
0
62
1
10
-0.448
20
4.563
30
0
11
-0.362
21
4.598
31
0
0
LINE
8
0
62
1
10
-0.362
20
4.598
30
0
11
-0.274
21
4.625
31
0
0
LINE
8
0
62
1
10
-0.274
20
4.625
30
0
11
-0.184
21
4.644
31
0
0
LINE
8
0
62
1
10
-0.184
20
4.644
30
0
11
-0.092
21
4.656
31
0
0
LINE
8
0
62
1
10
-0.092
20
4.656
30
0
11
0
21
4.66
31
0
0
LINE
8
0
62
1
10
0
20
4.66
30
0
11
0.092
21
4.656
31
0
0
LINE
8
0
62
1
10
0.092
20
4.656
30
0
11
0.184
21
4.644
31
0
0
LINE
8
0
62
1
10
0.184
20
4.644
30
0
11
0.274
21
4.625
31
0
0
LINE
8
0
62
1
10
0.274
20
4.625
30
0
11
0.362
21
4.598
31
0
0
LINE
8
0
62
1
10
0.362
20
4.598
30
0
11
0.448
21
4.563
31
0
0
LINE
8
0
62
1
10
0.448
20
4.563
30
0
11
0.531
21
4.522
31
0
0
LINE
8
0
62
1
10
0.531
20
4.522
30
0
11
0.609
21
4.473
31
0
0
LINE
8
0
62
1
10
0.609
20
4.473
30
0
11
0.684
21
4.418
31
0
0
LINE
8
0
62
1
10
0.684
20
4.418
30
0
11
0.753
21
4.357
31
0
0
LINE
8
0
62
1
10
0.753
20
4.357
30
0
11
0.817
21
4.291
31
0
0
LINE
8
0
62
1
10
0.817
20
4.291
30
0
11
0.875
21
4.219
31
0
0
LINE
8
0
62
1
10
0.875
20
4.219
30
0
11
0.927
21
4.142
31
0
0
LINE
8
0
62
1
10
0.927
20
4.142
30
0
11
0.972
21
4.062
31
0
0
LINE
8
0
62
1
10
0.972
20
4.062
30
0
11
1.01
21
3.978
31
0
0
LINE
8
0
62
1
10
1.01
20
3.978
30
0
11
1.04
21
3.891
31
0
0
LINE
8
0
62
1
10
1.04
20
3.891
30
0
11
1.064
21
3.801
31
0
0
LINE
8
0
62
1
10
1.064
20
3.801
30
0
11
1.079
21
3.71
31
0
0
LINE
8
0
62
1
10
1.079
20
3.71
30
0
11
1.087
21
3.618
31
0
0
LINE
8
0
62
1
10
1.087
20
3.618
30
0
11
1.087
21
3.526
31
0
0
LINE
8
0
62
1
10
1.087
20
3.526
30
0
11
1.079
21
3.434
31
0
0
LINE
8
0
62
1
10
1.079
20
3.434
30
0
11
1.064
21
3.343
31
0
0
LINE
8
0
62
1
10
1.064
20
3.343
30
0
11
1.04
21
3.253
31
0
0
LINE
8
0
62
1
10
1.04
20
3.253
30
0
11
1.01
21
3.166
31
0
0
LINE
8
0
62
1
10
1.01
20
3.166
30
0
11
0.972
21
3.082
31
0
0
LINE
8
0
62
1
10
0.972
20
3.082
30
0
11
0.927
21
3.001
31
0
0
LINE
8
0
62
1
10
0.927
20
3.001
30
0
11
0.875
21
2.925
31
0
0
LINE
8
0
62
1
10
0.875
20
2.925
30
0
11
0.817
21
2.853
31
0
0
LINE
8
0
62
1
10
0.817
20
2.853
30
0
11
0.753
21
2.786
31
0
0
LINE
8
0
62
1
10
0.753
20
2.786
30
0
11
0.684
21
2.725
31
0
0
LINE
8
0
62
1
10
0.684
20
2.725
30
0
11
0.609
21
2.67
31
0
0
LINE
8
0
62
1
10
0.609
20
2.67
30
0
11
0.531
21
2.622
31
0
0
LINE
8
0
62
1
10
0.531
20
2.622
30
0
11
0.448
21
2.58
31
0
0
LINE
8
0
62
1
10
0.448
20
2.58
30
0
11
0.362
21
2.546
31
0
0
LINE
8
0
62
1
10
0.362
20
2.546
30
0
11
0.274
21
2.519
31
0
0
LINE
8
0
62
1
10
0.274
20
2.519
30
0
11
0.184
21
2.499
31
0
0
LINE
8
0
62
1
10
0.184
20
2.499
30
0
11
0.092
21
2.488
31
0
0
LINE
8
0
62
1
10
0.092
20
2.488
30
0
11
0
21
2.484
31
0
0
LINE
8
0
62
1
10
0
20
1.088
30
0
11
0.092
21
1.084
31
0
0
LINE
8
0
62
1
10
0.092
20
1.084
30
0
11
0.184
21
1.072
31
0
0
LINE
8
0
62
1
10
0.184
20
1.072
30
0
11
0.274
21
1.053
31
0
0
LINE
8
0
62
1
10
0.274
20
1.053
30
0
11
0.362
21
1.026
31
0
0
LINE
8
0
62
1
10
0.362
20
1.026
30
0
11
0.448
21
0.992
31
0
0
LINE
8
0
62
1
10
0.448
20
0.992
30
0
11
0.531
21
0.95
31
0
0
LINE
8
0
62
1
10
0.531
20
0.95
30
0
11
0.609
21
0.902
31
0
0
LINE
8
0
62
1
10
0.609
20
0.902
30
0
11
0.684
21
0.847
31
0
0
LINE
8
0
62
1
10
0.684
20
0.847
30
0
11
0.753
21
0.786
31
0
0
LINE
8
0
62
1
10
0.753
20
0.786
30
0
11
0.817
21
0.719
31
0
0
LINE
8
0
62
1
10
0.817
20
0.719
30
0
11
0.875
21
0.647
31
0
0
LINE
8
0
62
1
10
0.875
20
0.647
30
0
11
0.927
21
0.57
31
0
0
LINE
8
0
62
1
10
0.927
20
0.57
30
0
11
0.972
21
0.49
31
0
0
LINE
8
0
62
1
10
0.972
20
0.49
30
0
11
1.01
21
0.406
31
0
0
LINE
8
0
62
1
10
1.01
20
0.406
30
0
11
1.04
21
0.319
31
0
0
LINE
8
0
62
1
10
1.04
20
0.319
30
0
11
1.064
21
0.229
31
0
0
LINE
8
0
62
1
10
1.064
20
0.229
30
0
11
1.079
21
0.138
31
0
0
LINE
8
0
62
1
10
1.079
20
0.138
30
0
11
1.087
21
0.046
31
0
0
LINE
8
0
62
1
10
1.087
20
0.046
30
0
11
1.087
21
-0.046
31
0
0
LINE
8
0
62
1
10
1.087
20
-0.046
30
0
11
1.079
21
-0.138
31
0
0
LINE
8
0
62
1
10
1.079
20
-0.138
30
0
11
1.064
21
-0.229
31
0
0
LINE
8
0
62
1
10
1.064
20
-0.229
30
0
11
1.04
21
-0.319
31
0
0
LINE
8
0
62
1
10
1.04
20
-0.319
30
0
11
1.01
21
-0.406
31
0
0
LINE
8
0
62
1
10
1.01
20
-0.406
30
0
11
0.972
21
-0.49
31
0
0
LINE
8
0
62
1
10
0.972
20
-0.49
30
0
11
0.927
21
-0.57
31
0
0
LINE
8
0
62
1
10
0.927
20
-0.57
30
0
11
0.875
21
-0.647
31
0
0
LINE
8
0
62
1
10
0.875
20
-0.647
30
0
11
0.817
21
-0.719
31
0
0
LINE
8
0
62
1
10
0.817
20
-0.719
30
0
11
0.753
21
-0.786
31
0
0
LINE
8
0
62
1
10
0.753
20
-0.786
30
0
11
0.684
21
-0.847
31
0
0
LINE
8
0
62
1
10
0.684
20
-0.847
30
0
11
0.609
21
-0.902
31
0
0
LINE
8
0
62
1
10
0.609
20
-0.902
30
0
11
0.531
21
-0.95
31
0
0
LINE
8
0
62
1
10
0.531
20
-0.95
30
0
11
0.448
21
-0.992
31
0
0
LINE
8
0
62
1
10
0.448
20
-0.992
30
0
11
0.362
21
-1.026
31
0
0
LINE
8
0
62
1
10
0.362
20
-1.026
30
0
11
0.274
21
-1.053
31
0
0
LINE
8
0
62
1
10
0.274
20
-1.053
30
0
11
0.184
21
-1.072
31
0
0
LINE
8
0
62
1
10
0.184
20
-1.072
30
0
11
0.092
21
-1.084
31
0
0
LINE
8
0
62
1
10
0.092
20
-1.084
30
0
11
0
21
-1.088
31
0
0
LINE
8
0
62
1
10
0
20
-1.088
30
0
11
-0.092
21
-1.084
31
0
0
LINE
8
0
62
1
10
-0.092
20
-1.084
30
0
11
-0.184
21
-1.072
31
0
0
LINE
8
0
62
1
10
-0.184
20
-1.072
30
0
11
-0.274
21
-1.053
31
0
0
LINE
8
0
62
1
10
-0.274
20
-1.053
30
0
11
-0.362
21
-1.026
31
0
0
LINE
8
0
62
1
10
-0.362
20
-1.026
30
0
11
-0.448
21
-0.992
31
0
0
LINE
8
0
62
1
10
-0.448
20
-0.992
30
0
11
-0.531
21
-0.95
31
0
0
LINE
8
0
62
1
10
-0.531
20
-0.95
30
0
11
-0.609
21
-0.902
31
0
0
LINE
8
0
62
1
10
-0.609
20
-0.902
30
0
11
-0.684
21
-0.847
31
0
0
LINE
8
0
62
1
10
-0.684
20
-0.847
30
0
11
-0.753
21
-0.786
31
0
0
LINE
8
0
62
1
10
-0.753
20
-0.786
30
0
11
-0.817
21
-0.719
31
0
0
LINE
8
0
62
1
10
-0.817
20
-0.719
30
0
11
-0.875
21
-0.647
31
0
0
LINE
8
0
62
1
10
-0.875
20
-0.647
30
0
11
-0.927
21
-0.57
31
0
0
LINE
8
0
62
1
10
-0.927
20
-0.57
30
0
11
-0.972
21
-0.49
31
0
0
LINE
8
0
62
1
10
-0.972
20
-0.49
30
0
11
-1.01
21
-0.406
31
0
0
LINE
8
0
62
1
10
-1.01
20
-0.406
30
0
11
-1.04
21
-0.319
31
0
0
LINE
8
0
62
1
10
-1.04
20
-0.319
30
0
11
-1.064
21
-0.229
31
0
0
LINE
8
0
62
1
10
-1.064
20
-0.229
30
0
11
-1.079
21
-0.138
31
0
0
LINE
8
0
62
1
10
-1.079
20
-0.138
30
0
11
-1.087
21
-0.046
31
0
0
LINE
8
0
62
1
10
-1.087
20
-0.046
30
0
11
-1.087
21
0.046
31
0
0
LINE
8
0
62
1
10
-1.087
20
0.046
30
0
11
-1.079
21
0.138
31
0
0
LINE
8
0
62
1
10
-1.079
20
0.138
30
0
11
-1.064
21
0.229
31
0
0
LINE
8
0
62
1
10
-1.064
20
0.229
30
0
11
-1.04
21
0.319
31
0
0
LINE
8
0
62
1
10
-1.04
20
0.319
30
0
11
-1.01
21
0.406
31
0
0
LINE
8
0
62
1
10
-1.01
20
0.406
30
0
11
-0.972
21
0.49
31
0
0
LINE
8
0
62
1
10
-0.972
20
0.49
30
0
11
-0.927
21
0.57
31
0
0
LINE
8
0
62
1
10
-0.927
20
0.57
30
0
11
-0.875
21
0.647
31
0
0
LINE
8
0
62
1
10
-0.875
20
0.647
30
0
11
-0.817
21
0.719
31
0
0
LINE
8
0
62
1
10
-0.817
20
0.719
30
0
11
-0.753
21
0.786
31
0
0
LINE
8
0
62
1
10
-0.753
20
0.786
30
0
11
-0.684
21
0.847
31
0
0
LINE
8
0
62
1
10
-0.684
20
0.847
30
0
11
-0.609
21
0.902
31
0
0
LINE
8
0
62
1
10
-0.609
20
0.902
30
0
11
-0.531
21
0.95
31
0
0
LINE
8
0
62
1
10
-0.531
20
0.95
30
0
11
-0.448
21
0.992
31
0
0
LINE
8
0
62
1
10
-0.448
20
0.992
30
0
11
-0.362
21
1.026
31
0
0
LINE
8
0
62
1
10
-0.362
20
1.026
30
0
11
-0.274
21
1.053
31
0
0
LINE
8
0
62
1
10
-0.274
20
1.053
30
0
11
-0.184
21
1.072
31
0
0
LINE
8
0
62
1
10
-0.184
20
1.072
30
0
11
-0.092
21
1.084
31
0
0
LINE
8
0
62
1
10
-0.092
20
1.084
30
0
11
0
21
1.088
31
0
0
LINE
8
0
62
1
10
0
20
-2.484
30
0
11
0.092
21
-2.488
31
0
0
LINE
8
0
62
1
10
0.092
20
-2.488
30
0
11
0.184
21
-2.499
31
0
0
LINE
8
0
62
1
10
0.184
20
-2.499
30
0
11
0.274
21
-2.519
31
0
0
LINE
8
0
62
1
10
0.274
20
-2.519
30
0
11
0.362
21
-2.546
31
0
0
LINE
8
0
62
1
10
0.362
20
-2.546
30
0
11
0.448
21
-2.58
31
0
0
LINE
8
0
62
1
10
0.448
20
-2.58
30
0
11
0.531
21
-2.622
31
0
0
LINE
8
0
62
1
10
0.531
20
-2.622
30
0
11
0.609
21
-2.67
31
0
0
LINE
8
0
62
1
10
0.609
20
-2.67
30
0
11
0.684
21
-2.725
31
0
0
LINE
8
0
62
1
10
0.684
20
-2.725
30
0
11
0.753
21
-2.786
31
0
0
LINE
8
0
62
1
10
0.753
20
-2.786
30
0
11
0.817
21
-2.853
31
0
0
LINE
8
0
62
1
10
0.817
20
-2.853
30
0
11
0.875
21
-2.925
31
0
0
LINE
8
0
62
1
10
0.875
20
-2.925
30
0
11
0.927
21
-3.001
31
0
0
LINE
8
0
62
1
10
0.927
20
-3.001
30
0
11
0.972
21
-3.082
31
0
0
LINE
8
0
62
1
10
0.972
20
-3.082
30
0
11
1.01
21
-3.166
31
0
0
LINE
8
0
62
1
10
1.01
20
-3.166
30
0
11
1.04
21
-3.253
31
0
0
LINE
8
0
62
1
10
1.04
20
-3.253
30
0
11
1.064
21
-3.343
31
0
0
LINE
8
0
62
1
10
1.064
20
-3.343
30
0
11
1.079
21
-3.434
31
0
0
LINE
8
0
62
1
10
1.079
20
-3.434
30
0
11
1.087
21
-3.526
31
0
0
LINE
8
0
62
1
10
1.087
20
-3.526
30
0
11
1.087
21
-3.618
31
0
0
LINE
8
0
62
1
10
1.087
20
-3.618
30
0
11
1.079
21
-3.71
31
0
0
LINE
8
0
62
1
10
1.079
20
-3.71
30
0
11
1.064
21
-3.801
31
0
0
LINE
8
0
62
1
10
1.064
20
-3.801
30
0
11
1.04
21
-3.89
31
0
0
LINE
8
0
62
1
10
1.04
20
-3.89
30
0
11
1.01
21
-3.978
31
0
0
LINE
8
0
62
1
10
1.01
20
-3.978
30
0
11
0.972
21
-4.062
31
0
0
LINE
8
0
62
1
10
0.972
20
-4.062
30
0
11
0.927
21
-4.142
31
0
0
LINE
8
0
62
1
10
0.927
20
-4.142
30
0
11
0.875
21
-4.219
31
0
0
LINE
8
0
62
1
10
0.875
20
-4.219
30
0
11
0.817
21
-4.291
31
0
0
LINE
8
0
62
1
10
0.817
20
-4.291
30
0
11
0.753
21
-4.357
31
0
0
LINE
8
0
62
1
10
0.753
20
-4.357
30
0
11
0.684
21
-4.418
31
0
0
LINE
8
0
62
1
10
0.684
20
-4.418
30
0
11
0.609
21
-4.473
31
0
0
LINE
8
0
62
1
10
0.609
20
-4.473
30
0
11
0.531
21
-4.522
31
0
0
LINE
8
0
62
1
10
0.531
20
-4.522
30
0
11
0.448
21
-4.563
31
0
0
LINE
8
0
62
1
10
0.448
20
-4.563
30
0
11
0.362
21
-4.598
31
0
0
LINE
8
0
62
1
10
0.362
20
-4.598
30
0
11
0.274
21
-4.625
31
0
0
LINE
8
0
62
1
10
0.274
20
-4.625
30
0
11
0.184
21
-4.644
31
0
0
LINE
8
0
62
1
10
0.184
20
-4.644
30
0
11
0.092
21
-4.656
31
0
0
LINE
8
0
62
1
10
0.092
20
-4.656
30
0
11
0
21
-4.66
31
0
0
LINE
8
0
62
1
10
0
20
-4.66
30
0
11
-0.092
21
-4.656
31
0
0
LINE
8
0
62
1
10
-0.092
20
-4.656
30
0
11
-0.184
21
-4.644
31
0
0
LINE
8
0
62
1
10
-0.184
20
-4.644
30
0
11
-0.274
21
-4.625
31
0
0
LINE
8
0
62
1
10
-0.274
20
-4.625
30
0
11
-0.362
21
-4.598
31
0
0
LINE
8
0
62
1
10
-0.362
20
-4.598
30
0
11
-0.448
21
-4.563
31
0
0
LINE
8
0
62
1
10
-0.448
20
-4.563
30
0
11
-0.531
21
-4.522
31
0
0
LINE
8
0
62
1
10
-0.531
20
-4.522
30
0
11
-0.609
21
-4.473
31
0
0
LINE
8
0
62
1
10
-0.609
20
-4.473
30
0
11
-0.684
21
-4.418
31
0
0
LINE
8
0
62
1
10
-0.684
20
-4.418
30
0
11
-0.753
21
-4.357
31
0
0
LINE
8
0
62
1
10
-0.753
20
-4.357
30
0
11
-0.817
21
-4.291
31
0
0
LINE
8
0
62
1
10
-0.817
20
-4.291
30
0
11
-0.875
21
-4.219
31
0
0
LINE
8
0
62
1
10
-0.875
20
-4.219
30
0
11
-0.927
21
-4.142
31
0
0
LINE
8
0
62
1
10
-0.927
20
-4.142
30
0
11
-0.972
21
-4.062
31
0
0
LINE
8
0
62
1
10
-0.972
20
-4.062
30
0
11
-1.01
21
-3.978
31
0
0
LINE
8
0
62
1
10
-1.01
20
-3.978
30
0
11
-1.04
21
-3.891
31
0
0
LINE
8
0
62
1
10
-1.04
20
-3.891
30
0
11
-1.064
21
-3.801
31
0
0
LINE
8
0
62
1
10
-1.064
20
-3.801
30
0
11
-1.079
21
-3.71
31
0
0
LINE
8
0
62
1
10
-1.079
20
-3.71
30
0
11
-1.087
21
-3.618
31
0
0
LINE
8
0
62
1
10
-1.087
20
-3.618
30
0
11
-1.087
21
-3.526
31
0
0
LINE
8
0
62
1
10
-1.087
20
-3.526
30
0
11
-1.079
21
-3.434
31
0
0
LINE
8
0
62
1
10
-1.079
20
-3.434
30
0
11
-1.064
21
-3.343
31
0
0
LINE
8
0
62
1
10
-1.064
20
-3.343
30
0
11
-1.04
21
-3.253
31
0
0
LINE
8
0
62
1
10
-1.04
20
-3.253
30
0
11
-1.01
21
-3.166
31
0
0
LINE
8
0
62
1
10
-1.01
20
-3.166
30
0
11
-0.972
21
-3.082
31
0
0
LINE
8
0
62
1
10
-0.972
20
-3.082
30
0
11
-0.927
21
-3.001
31
0
0
LINE
8
0
62
1
10
-0.927
20
-3.001
30
0
11
-0.875
21
-2.925
31
0
0
LINE
8
0
62
1
10
-0.875
20
-2.925
30
0
11
-0.817
21
-2.853
31
0
0
LINE
8
0
62
1
10
-0.817
20
-2.853
30
0
11
-0.753
21
-2.786
31
0
0
LINE
8
0
62
1
10
-0.753
20
-2.786
30
0
11
-0.684
21
-2.725
31
0
0
LINE
8
0
62
1
10
-0.684
20
-2.725
30
0
11
-0.609
21
-2.67
31
0
0
LINE
8
0
62
1
10
-0.609
20
-2.67
30
0
11
-0.531
21
-2.622
31
0
0
LINE
8
0
62
1
10
-0.531
20
-2.622
30
0
11
-0.448
21
-2.58
31
0
0
LINE
8
0
62
1
10
-0.448
20
-2.58
30
0
11
-0.362
21
-2.546
31
0
0
LINE
8
0
62
1
10
-0.362
20
-2.546
30
0
11
-0.274
21
-2.519
31
0
0
LINE
8
0
62
1
10
-0.274
20
-2.519
30
0
11
-0.184
21
-2.499
31
0
0
LINE
8
0
62
1
10
-0.184
20
-2.499
30
0
11
-0.092
21
-2.488
31
0
0
LINE
8
0
62
1
10
-0.092
20
-2.488
30
0
11
0
21
-2.484
31
0
0
LINE
8
0
62
1
10
-2.538
20
-2.484
30
0
11
-2.538
21
6.35
31
0
0
LINE
8
0
62
1
10
-2.538
20
6.35
30
0
11
-2.535
21
6.365
31
0
0
LINE
8
0
62
1
10
-2.535
20
6.365
30
0
11
-2.527
21
6.377
31
0
0
LINE
8
0
62
1
10
-2.527
20
6.377
30
0
11
-2.515
21
6.385
31
0
0
LINE
8
0
62
1
10
-2.515
20
6.385
30
0
11
-2.5
21
6.388
31
0
0
LINE
8
0
62
1
10
-2.5
20
6.388
30
0
11
2.5
21
6.388
31
0
0
LINE
8
0
62
1
10
2.5
20
6.388
30
0
11
2.515
21
6.385
31
0
0
LINE
8
0
62
1
10
2.515
20
6.385
30
0
11
2.527
21
6.377
31
0
0
LINE
8
0
62
1
10
2.527
20
6.377
30
0
11
2.535
21
6.365
31
0
0
LINE
8
0
62
1
10
2.535
20
6.365
30
0
11
2.538
21
6.35
31
0
0
LINE
8
0
62
1
10
2.538
20
6.35
30
0
11
2.538
21
-6.35
31
0
0
LINE
8
0
62
1
10
2.538
20
-6.35
30
0
11
2.535
21
-6.365
31
0
0
LINE
8
0
62
1
10
2.535
20
-6.365
30
0
11
2.527
21
-6.377
31
0
0
LINE
8
0
62
1
10
2.527
20
-6.377
30
0
11
2.515
21
-6.385
31
0
0
LINE
8
0
62
1
10
2.515
20
-6.385
30
0
11
2.5
21
-6.388
31
0
0
LINE
8
0
62
1
10
2.5
20
-6.388
30
0
11
-2.5
21
-6.388
31
0
0
LINE
8
0
62
1
10
-2.5
20
-6.388
30
0
11
-2.515
21
-6.385
31
0
0
LINE
8
0
62
1
10
-2.515
20
-6.385
30
0
11
-2.527
21
-6.377
31
0
0
LINE
8
0
62
1
10
-2.527
20
-6.377
30
0
11
-2.535
21
-6.365
31
0
0
LINE
8
0
62
1
10
-2.535
20
-6.365
30
0
11
-2.538
21
-6.35
31
0
0
LINE
8
0
62
1
10
-2.538
20
-6.35
30
0
11
-2.538
21
-2.484
31
0
0
ENDSEC
0
EOF
