999
Generated by Autodesk CAM - http://cam.autodesk.com
999
UNIT = MM
999
THICKNESS = 7.34
0
SECTION
2
HEADER
9
$ACADVER
1
AC1006
9
$ANGBASE
50
0
9
$ANGDIR
70
0
0
ENDSEC
0
SECTION
2
BLOCKS
0
ENDSEC
9
$EXTMIN
10
-75.318
20
-64.018
30
0
9
$EXTMAX
10
75.318
20
64.018
30
15
0
SECTION
2
ENTITIES
0
LINE
8
0
62
1
10
59.11
20
-25.587
30
0
11
59.125
21
-25.59
31
0
0
LINE
8
0
62
1
10
59.125
20
-25.59
30
0
11
59.137
21
-25.598
31
0
0
LINE
8
0
62
1
10
59.137
20
-25.598
30
0
11
59.145
21
-25.61
31
0
0
LINE
8
0
62
1
10
59.145
20
-25.61
30
0
11
59.148
21
-25.625
31
0
0
LINE
8
0
62
1
10
59.148
20
-25.625
30
0
11
59.148
21
-29.375
31
0
0
LINE
8
0
62
1
10
59.148
20
-29.375
30
0
11
59.145
21
-29.39
31
0
0
LINE
8
0
62
1
10
59.145
20
-29.39
30
0
11
59.137
21
-29.402
31
0
0
LINE
8
0
62
1
10
59.137
20
-29.402
30
0
11
59.125
21
-29.41
31
0
0
LINE
8
0
62
1
10
59.125
20
-29.41
30
0
11
59.11
21
-29.413
31
0
0
LINE
8
0
62
1
10
59.11
20
-29.413
30
0
11
52.77
21
-29.413
31
0
0
LINE
8
0
62
1
10
52.77
20
-29.413
30
0
11
52.755
21
-29.41
31
0
0
LINE
8
0
62
1
10
52.755
20
-29.41
30
0
11
52.743
21
-29.402
31
0
0
LINE
8
0
62
1
10
52.743
20
-29.402
30
0
11
52.735
21
-29.39
31
0
0
LINE
8
0
62
1
10
52.735
20
-29.39
30
0
11
52.732
21
-29.375
31
0
0
LINE
8
0
62
1
10
52.732
20
-29.375
30
0
11
52.732
21
-25.625
31
0
0
LINE
8
0
62
1
10
52.732
20
-25.625
30
0
11
52.735
21
-25.61
31
0
0
LINE
8
0
62
1
10
52.735
20
-25.61
30
0
11
52.743
21
-25.598
31
0
0
LINE
8
0
62
1
10
52.743
20
-25.598
30
0
11
52.755
21
-25.59
31
0
0
LINE
8
0
62
1
10
52.755
20
-25.59
30
0
11
52.77
21
-25.587
31
0
0
LINE
8
0
62
1
10
52.77
20
-25.587
30
0
11
59.11
21
-25.587
31
0
0
LINE
8
0
62
1
10
52.77
20
-18.163
30
0
11
52.755
21
-18.16
31
0
0
LINE
8
0
62
1
10
52.755
20
-18.16
30
0
11
52.743
21
-18.152
31
0
0
LINE
8
0
62
1
10
52.743
20
-18.152
30
0
11
52.735
21
-18.14
31
0
0
LINE
8
0
62
1
10
52.735
20
-18.14
30
0
11
52.732
21
-18.125
31
0
0
LINE
8
0
62
1
10
52.732
20
-18.125
30
0
11
52.732
21
-14.375
31
0
0
LINE
8
0
62
1
10
52.732
20
-14.375
30
0
11
52.735
21
-14.36
31
0
0
LINE
8
0
62
1
10
52.735
20
-14.36
30
0
11
52.743
21
-14.348
31
0
0
LINE
8
0
62
1
10
52.743
20
-14.348
30
0
11
52.755
21
-14.34
31
0
0
LINE
8
0
62
1
10
52.755
20
-14.34
30
0
11
52.77
21
-14.337
31
0
0
LINE
8
0
62
1
10
52.77
20
-14.337
30
0
11
59.11
21
-14.337
31
0
0
LINE
8
0
62
1
10
59.11
20
-14.337
30
0
11
59.125
21
-14.34
31
0
0
LINE
8
0
62
1
10
59.125
20
-14.34
30
0
11
59.137
21
-14.348
31
0
0
LINE
8
0
62
1
10
59.137
20
-14.348
30
0
11
59.145
21
-14.36
31
0
0
LINE
8
0
62
1
10
59.145
20
-14.36
30
0
11
59.148
21
-14.375
31
0
0
LINE
8
0
62
1
10
59.148
20
-14.375
30
0
11
59.148
21
-18.125
31
0
0
LINE
8
0
62
1
10
59.148
20
-18.125
30
0
11
59.145
21
-18.14
31
0
0
LINE
8
0
62
1
10
59.145
20
-18.14
30
0
11
59.137
21
-18.152
31
0
0
LINE
8
0
62
1
10
59.137
20
-18.152
30
0
11
59.125
21
-18.16
31
0
0
LINE
8
0
62
1
10
59.125
20
-18.16
30
0
11
59.11
21
-18.163
31
0
0
LINE
8
0
62
1
10
59.11
20
-18.163
30
0
11
52.77
21
-18.163
31
0
0
LINE
8
0
62
1
10
45.148
20
-7.5
30
0
11
45.148
21
-13
31
0
0
LINE
8
0
62
1
10
45.148
20
-13
30
0
11
45.145
21
-13.015
31
0
0
LINE
8
0
62
1
10
45.145
20
-13.015
30
0
11
45.137
21
-13.027
31
0
0
LINE
8
0
62
1
10
45.137
20
-13.027
30
0
11
45.125
21
-13.035
31
0
0
LINE
8
0
62
1
10
45.125
20
-13.035
30
0
11
45.11
21
-13.038
31
0
0
LINE
8
0
62
1
10
45.11
20
-13.038
30
0
11
38.77
21
-13.038
31
0
0
LINE
8
0
62
1
10
38.77
20
-13.038
30
0
11
38.755
21
-13.035
31
0
0
LINE
8
0
62
1
10
38.755
20
-13.035
30
0
11
38.743
21
-13.027
31
0
0
LINE
8
0
62
1
10
38.743
20
-13.027
30
0
11
38.735
21
-13.015
31
0
0
LINE
8
0
62
1
10
38.735
20
-13.015
30
0
11
38.732
21
-13
31
0
0
LINE
8
0
62
1
10
38.732
20
-13
30
0
11
38.732
21
-7.5
31
0
0
LINE
8
0
62
1
10
38.732
20
-7.5
30
0
11
38.735
21
-7.485
31
0
0
LINE
8
0
62
1
10
38.735
20
-7.485
30
0
11
38.743
21
-7.473
31
0
0
LINE
8
0
62
1
10
38.743
20
-7.473
30
0
11
38.755
21
-7.465
31
0
0
LINE
8
0
62
1
10
38.755
20
-7.465
30
0
11
38.77
21
-7.462
31
0
0
LINE
8
0
62
1
10
38.77
20
-7.462
30
0
11
45.11
21
-7.462
31
0
0
LINE
8
0
62
1
10
45.11
20
-7.462
30
0
11
45.125
21
-7.465
31
0
0
LINE
8
0
62
1
10
45.125
20
-7.465
30
0
11
45.137
21
-7.473
31
0
0
LINE
8
0
62
1
10
45.137
20
-7.473
30
0
11
45.145
21
-7.485
31
0
0
LINE
8
0
62
1
10
45.145
20
-7.485
30
0
11
45.148
21
-7.5
31
0
0
LINE
8
0
62
1
10
45.11
20
7.462
30
0
11
38.77
21
7.462
31
0
0
LINE
8
0
62
1
10
38.77
20
7.462
30
0
11
38.755
21
7.465
31
0
0
LINE
8
0
62
1
10
38.755
20
7.465
30
0
11
38.743
21
7.473
31
0
0
LINE
8
0
62
1
10
38.743
20
7.473
30
0
11
38.735
21
7.485
31
0
0
LINE
8
0
62
1
10
38.735
20
7.485
30
0
11
38.732
21
7.5
31
0
0
LINE
8
0
62
1
10
38.732
20
7.5
30
0
11
38.732
21
13
31
0
0
LINE
8
0
62
1
10
38.732
20
13
30
0
11
38.735
21
13.015
31
0
0
LINE
8
0
62
1
10
38.735
20
13.015
30
0
11
38.743
21
13.027
31
0
0
LINE
8
0
62
1
10
38.743
20
13.027
30
0
11
38.755
21
13.035
31
0
0
LINE
8
0
62
1
10
38.755
20
13.035
30
0
11
38.77
21
13.038
31
0
0
LINE
8
0
62
1
10
38.77
20
13.038
30
0
11
45.11
21
13.038
31
0
0
LINE
8
0
62
1
10
45.11
20
13.038
30
0
11
45.125
21
13.035
31
0
0
LINE
8
0
62
1
10
45.125
20
13.035
30
0
11
45.137
21
13.027
31
0
0
LINE
8
0
62
1
10
45.137
20
13.027
30
0
11
45.145
21
13.015
31
0
0
LINE
8
0
62
1
10
45.145
20
13.015
30
0
11
45.148
21
13
31
0
0
LINE
8
0
62
1
10
45.148
20
13
30
0
11
45.148
21
7.5
31
0
0
LINE
8
0
62
1
10
45.148
20
7.5
30
0
11
45.145
21
7.485
31
0
0
LINE
8
0
62
1
10
45.145
20
7.485
30
0
11
45.137
21
7.473
31
0
0
LINE
8
0
62
1
10
45.137
20
7.473
30
0
11
45.125
21
7.465
31
0
0
LINE
8
0
62
1
10
45.125
20
7.465
30
0
11
45.11
21
7.462
31
0
0
LINE
8
0
62
1
10
69.283
20
7.538
30
0
11
75.28
21
7.538
31
0
0
LINE
8
0
62
1
10
75.28
20
7.538
30
0
11
75.295
21
7.535
31
0
0
LINE
8
0
62
1
10
75.295
20
7.535
30
0
11
75.307
21
7.527
31
0
0
LINE
8
0
62
1
10
75.307
20
7.527
30
0
11
75.315
21
7.515
31
0
0
LINE
8
0
62
1
10
75.315
20
7.515
30
0
11
75.318
21
7.5
31
0
0
LINE
8
0
62
1
10
75.318
20
7.5
30
0
11
75.318
21
-7.5
31
0
0
LINE
8
0
62
1
10
75.318
20
-7.5
30
0
11
75.315
21
-7.515
31
0
0
LINE
8
0
62
1
10
75.315
20
-7.515
30
0
11
75.307
21
-7.527
31
0
0
LINE
8
0
62
1
10
75.307
20
-7.527
30
0
11
75.295
21
-7.535
31
0
0
LINE
8
0
62
1
10
75.295
20
-7.535
30
0
11
75.28
21
-7.538
31
0
0
LINE
8
0
62
1
10
75.28
20
-7.538
30
0
11
68.978
21
-7.538
31
0
0
LINE
8
0
62
1
10
68.978
20
-7.538
30
0
11
68.978
21
-22.462
31
0
0
LINE
8
0
62
1
10
68.978
20
-22.462
30
0
11
75.28
21
-22.462
31
0
0
LINE
8
0
62
1
10
75.28
20
-22.462
30
0
11
75.295
21
-22.465
31
0
0
LINE
8
0
62
1
10
75.295
20
-22.465
30
0
11
75.307
21
-22.473
31
0
0
LINE
8
0
62
1
10
75.307
20
-22.473
30
0
11
75.315
21
-22.485
31
0
0
LINE
8
0
62
1
10
75.315
20
-22.485
30
0
11
75.318
21
-22.5
31
0
0
LINE
8
0
62
1
10
75.318
20
-22.5
30
0
11
75.318
21
-37.5
31
0
0
LINE
8
0
62
1
10
75.318
20
-37.5
30
0
11
75.315
21
-37.515
31
0
0
LINE
8
0
62
1
10
75.315
20
-37.515
30
0
11
75.307
21
-37.527
31
0
0
LINE
8
0
62
1
10
75.307
20
-37.527
30
0
11
75.295
21
-37.535
31
0
0
LINE
8
0
62
1
10
75.295
20
-37.535
30
0
11
75.28
21
-37.538
31
0
0
LINE
8
0
62
1
10
75.28
20
-37.538
30
0
11
68.978
21
-37.538
31
0
0
LINE
8
0
62
1
10
68.978
20
-37.538
30
0
11
68.978
21
-51.3
31
0
0
LINE
8
0
62
1
10
68.978
20
-51.3
30
0
11
68.975
21
-51.315
31
0
0
LINE
8
0
62
1
10
68.975
20
-51.315
30
0
11
68.967
21
-51.327
31
0
0
LINE
8
0
62
1
10
68.967
20
-51.327
30
0
11
68.955
21
-51.335
31
0
0
LINE
8
0
62
1
10
68.955
20
-51.335
30
0
11
68.94
21
-51.338
31
0
0
LINE
8
0
62
1
10
68.94
20
-51.338
30
0
11
64.368
21
-51.338
31
0
0
LINE
8
0
62
1
10
64.368
20
-51.338
30
0
11
64.368
21
-63.98
31
0
0
LINE
8
0
62
1
10
64.368
20
-63.98
30
0
11
64.365
21
-63.995
31
0
0
LINE
8
0
62
1
10
64.365
20
-63.995
30
0
11
64.357
21
-64.007
31
0
0
LINE
8
0
62
1
10
64.357
20
-64.007
30
0
11
64.345
21
-64.015
31
0
0
LINE
8
0
62
1
10
64.345
20
-64.015
30
0
11
64.33
21
-64.018
31
0
0
LINE
8
0
62
1
10
64.33
20
-64.018
30
0
11
49.33
21
-64.018
31
0
0
LINE
8
0
62
1
10
49.33
20
-64.018
30
0
11
49.315
21
-64.015
31
0
0
LINE
8
0
62
1
10
49.315
20
-64.015
30
0
11
49.303
21
-64.007
31
0
0
LINE
8
0
62
1
10
49.303
20
-64.007
30
0
11
49.295
21
-63.995
31
0
0
LINE
8
0
62
1
10
49.295
20
-63.995
30
0
11
49.292
21
-63.98
31
0
0
LINE
8
0
62
1
10
49.292
20
-63.98
30
0
11
49.292
21
-51.338
31
0
0
LINE
8
0
62
1
10
49.292
20
-51.338
30
0
11
34.368
21
-51.338
31
0
0
LINE
8
0
62
1
10
34.368
20
-51.338
30
0
11
34.368
21
-63.98
31
0
0
LINE
8
0
62
1
10
34.368
20
-63.98
30
0
11
34.365
21
-63.995
31
0
0
LINE
8
0
62
1
10
34.365
20
-63.995
30
0
11
34.357
21
-64.007
31
0
0
LINE
8
0
62
1
10
34.357
20
-64.007
30
0
11
34.345
21
-64.015
31
0
0
LINE
8
0
62
1
10
34.345
20
-64.015
30
0
11
34.33
21
-64.018
31
0
0
LINE
8
0
62
1
10
34.33
20
-64.018
30
0
11
19.33
21
-64.018
31
0
0
LINE
8
0
62
1
10
19.33
20
-64.018
30
0
11
19.315
21
-64.015
31
0
0
LINE
8
0
62
1
10
19.315
20
-64.015
30
0
11
19.303
21
-64.007
31
0
0
LINE
8
0
62
1
10
19.303
20
-64.007
30
0
11
19.295
21
-63.995
31
0
0
LINE
8
0
62
1
10
19.295
20
-63.995
30
0
11
19.292
21
-63.98
31
0
0
LINE
8
0
62
1
10
19.292
20
-63.98
30
0
11
19.292
21
-51.338
31
0
0
LINE
8
0
62
1
10
19.292
20
-51.338
30
0
11
4.368
21
-51.338
31
0
0
LINE
8
0
62
1
10
4.368
20
-51.338
30
0
11
4.368
21
-63.98
31
0
0
LINE
8
0
62
1
10
4.368
20
-63.98
30
0
11
4.365
21
-63.995
31
0
0
LINE
8
0
62
1
10
4.365
20
-63.995
30
0
11
4.357
21
-64.007
31
0
0
LINE
8
0
62
1
10
4.357
20
-64.007
30
0
11
4.345
21
-64.015
31
0
0
LINE
8
0
62
1
10
4.345
20
-64.015
30
0
11
4.33
21
-64.018
31
0
0
LINE
8
0
62
1
10
4.33
20
-64.018
30
0
11
-10.67
21
-64.018
31
0
0
LINE
8
0
62
1
10
-10.67
20
-64.018
30
0
11
-10.685
21
-64.015
31
0
0
LINE
8
0
62
1
10
-10.685
20
-64.015
30
0
11
-10.697
21
-64.007
31
0
0
LINE
8
0
62
1
10
-10.697
20
-64.007
30
0
11
-10.705
21
-63.995
31
0
0
LINE
8
0
62
1
10
-10.705
20
-63.995
30
0
11
-10.708
21
-63.98
31
0
0
LINE
8
0
62
1
10
-10.708
20
-63.98
30
0
11
-10.708
21
-51.338
31
0
0
LINE
8
0
62
1
10
-10.708
20
-51.338
30
0
11
-25.632
21
-51.338
31
0
0
LINE
8
0
62
1
10
-25.632
20
-51.338
30
0
11
-25.632
21
-63.98
31
0
0
LINE
8
0
62
1
10
-25.632
20
-63.98
30
0
11
-25.635
21
-63.995
31
0
0
LINE
8
0
62
1
10
-25.635
20
-63.995
30
0
11
-25.643
21
-64.007
31
0
0
LINE
8
0
62
1
10
-25.643
20
-64.007
30
0
11
-25.655
21
-64.015
31
0
0
LINE
8
0
62
1
10
-25.655
20
-64.015
30
0
11
-25.67
21
-64.018
31
0
0
LINE
8
0
62
1
10
-25.67
20
-64.018
30
0
11
-40.67
21
-64.018
31
0
0
LINE
8
0
62
1
10
-40.67
20
-64.018
30
0
11
-40.685
21
-64.015
31
0
0
LINE
8
0
62
1
10
-40.685
20
-64.015
30
0
11
-40.697
21
-64.007
31
0
0
LINE
8
0
62
1
10
-40.697
20
-64.007
30
0
11
-40.705
21
-63.995
31
0
0
LINE
8
0
62
1
10
-40.705
20
-63.995
30
0
11
-40.708
21
-63.98
31
0
0
LINE
8
0
62
1
10
-40.708
20
-63.98
30
0
11
-40.708
21
-51.338
31
0
0
LINE
8
0
62
1
10
-40.708
20
-51.338
30
0
11
-55.632
21
-51.338
31
0
0
LINE
8
0
62
1
10
-55.632
20
-51.338
30
0
11
-55.632
21
-63.98
31
0
0
LINE
8
0
62
1
10
-55.632
20
-63.98
30
0
11
-55.635
21
-63.995
31
0
0
LINE
8
0
62
1
10
-55.635
20
-63.995
30
0
11
-55.643
21
-64.007
31
0
0
LINE
8
0
62
1
10
-55.643
20
-64.007
30
0
11
-55.655
21
-64.015
31
0
0
LINE
8
0
62
1
10
-55.655
20
-64.015
30
0
11
-55.67
21
-64.018
31
0
0
LINE
8
0
62
1
10
-55.67
20
-64.018
30
0
11
-70.67
21
-64.018
31
0
0
LINE
8
0
62
1
10
-70.67
20
-64.018
30
0
11
-70.685
21
-64.015
31
0
0
LINE
8
0
62
1
10
-70.685
20
-64.015
30
0
11
-70.697
21
-64.007
31
0
0
LINE
8
0
62
1
10
-70.697
20
-64.007
30
0
11
-70.705
21
-63.995
31
0
0
LINE
8
0
62
1
10
-70.705
20
-63.995
30
0
11
-70.708
21
-63.98
31
0
0
LINE
8
0
62
1
10
-70.708
20
-63.98
30
0
11
-70.708
21
-51.338
31
0
0
LINE
8
0
62
1
10
-70.708
20
-51.338
30
0
11
-75.28
21
-51.338
31
0
0
LINE
8
0
62
1
10
-75.28
20
-51.338
30
0
11
-75.295
21
-51.335
31
0
0
LINE
8
0
62
1
10
-75.295
20
-51.335
30
0
11
-75.307
21
-51.327
31
0
0
LINE
8
0
62
1
10
-75.307
20
-51.327
30
0
11
-75.315
21
-51.315
31
0
0
LINE
8
0
62
1
10
-75.315
20
-51.315
30
0
11
-75.318
21
-51.3
31
0
0
LINE
8
0
62
1
10
-75.318
20
-51.3
30
0
11
-75.318
21
-47.985
31
0
0
LINE
8
0
62
1
10
-75.318
20
-47.985
30
0
11
-75.315
21
-47.97
31
0
0
LINE
8
0
62
1
10
-75.315
20
-47.97
30
0
11
-75.307
21
-47.958
31
0
0
LINE
8
0
62
1
10
-75.307
20
-47.958
30
0
11
-75.295
21
-47.95
31
0
0
LINE
8
0
62
1
10
-75.295
20
-47.95
30
0
11
-75.28
21
-47.947
31
0
0
LINE
8
0
62
1
10
-75.28
20
-47.947
30
0
11
18.822
21
-47.947
31
0
0
LINE
8
0
62
1
10
18.822
20
-47.947
30
0
11
18.822
21
47.947
31
0
0
LINE
8
0
62
1
10
18.822
20
47.947
30
0
11
-75.28
21
47.947
31
0
0
LINE
8
0
62
1
10
-75.28
20
47.947
30
0
11
-75.295
21
47.95
31
0
0
LINE
8
0
62
1
10
-75.295
20
47.95
30
0
11
-75.307
21
47.958
31
0
0
LINE
8
0
62
1
10
-75.307
20
47.958
30
0
11
-75.315
21
47.97
31
0
0
LINE
8
0
62
1
10
-75.315
20
47.97
30
0
11
-75.318
21
47.985
31
0
0
LINE
8
0
62
1
10
-75.318
20
47.985
30
0
11
-75.318
21
51.3
31
0
0
LINE
8
0
62
1
10
-75.318
20
51.3
30
0
11
-75.315
21
51.315
31
0
0
LINE
8
0
62
1
10
-75.315
20
51.315
30
0
11
-75.307
21
51.327
31
0
0
LINE
8
0
62
1
10
-75.307
20
51.327
30
0
11
-75.295
21
51.335
31
0
0
LINE
8
0
62
1
10
-75.295
20
51.335
30
0
11
-75.28
21
51.338
31
0
0
LINE
8
0
62
1
10
-75.28
20
51.338
30
0
11
-70.708
21
51.338
31
0
0
LINE
8
0
62
1
10
-70.708
20
51.338
30
0
11
-70.708
21
63.98
31
0
0
LINE
8
0
62
1
10
-70.708
20
63.98
30
0
11
-70.705
21
63.995
31
0
0
LINE
8
0
62
1
10
-70.705
20
63.995
30
0
11
-70.697
21
64.007
31
0
0
LINE
8
0
62
1
10
-70.697
20
64.007
30
0
11
-70.685
21
64.015
31
0
0
LINE
8
0
62
1
10
-70.685
20
64.015
30
0
11
-70.67
21
64.018
31
0
0
LINE
8
0
62
1
10
-70.67
20
64.018
30
0
11
-55.67
21
64.018
31
0
0
LINE
8
0
62
1
10
-55.67
20
64.018
30
0
11
-55.655
21
64.015
31
0
0
LINE
8
0
62
1
10
-55.655
20
64.015
30
0
11
-55.643
21
64.007
31
0
0
LINE
8
0
62
1
10
-55.643
20
64.007
30
0
11
-55.635
21
63.995
31
0
0
LINE
8
0
62
1
10
-55.635
20
63.995
30
0
11
-55.632
21
63.98
31
0
0
LINE
8
0
62
1
10
-55.632
20
63.98
30
0
11
-55.632
21
51.338
31
0
0
LINE
8
0
62
1
10
-55.632
20
51.338
30
0
11
-40.708
21
51.338
31
0
0
LINE
8
0
62
1
10
-40.708
20
51.338
30
0
11
-40.708
21
63.98
31
0
0
LINE
8
0
62
1
10
-40.708
20
63.98
30
0
11
-40.705
21
63.995
31
0
0
LINE
8
0
62
1
10
-40.705
20
63.995
30
0
11
-40.697
21
64.007
31
0
0
LINE
8
0
62
1
10
-40.697
20
64.007
30
0
11
-40.685
21
64.015
31
0
0
LINE
8
0
62
1
10
-40.685
20
64.015
30
0
11
-40.67
21
64.018
31
0
0
LINE
8
0
62
1
10
-40.67
20
64.018
30
0
11
-25.67
21
64.018
31
0
0
LINE
8
0
62
1
10
-25.67
20
64.018
30
0
11
-25.655
21
64.015
31
0
0
LINE
8
0
62
1
10
-25.655
20
64.015
30
0
11
-25.643
21
64.007
31
0
0
LINE
8
0
62
1
10
-25.643
20
64.007
30
0
11
-25.635
21
63.995
31
0
0
LINE
8
0
62
1
10
-25.635
20
63.995
30
0
11
-25.632
21
63.98
31
0
0
LINE
8
0
62
1
10
-25.632
20
63.98
30
0
11
-25.632
21
51.338
31
0
0
LINE
8
0
62
1
10
-25.632
20
51.338
30
0
11
-10.708
21
51.338
31
0
0
LINE
8
0
62
1
10
-10.708
20
51.338
30
0
11
-10.708
21
63.98
31
0
0
LINE
8
0
62
1
10
-10.708
20
63.98
30
0
11
-10.705
21
63.995
31
0
0
LINE
8
0
62
1
10
-10.705
20
63.995
30
0
11
-10.697
21
64.007
31
0
0
LINE
8
0
62
1
10
-10.697
20
64.007
30
0
11
-10.685
21
64.015
31
0
0
LINE
8
0
62
1
10
-10.685
20
64.015
30
0
11
-10.67
21
64.018
31
0
0
LINE
8
0
62
1
10
-10.67
20
64.018
30
0
11
4.33
21
64.018
31
0
0
LINE
8
0
62
1
10
4.33
20
64.018
30
0
11
4.345
21
64.015
31
0
0
LINE
8
0
62
1
10
4.345
20
64.015
30
0
11
4.357
21
64.007
31
0
0
LINE
8
0
62
1
10
4.357
20
64.007
30
0
11
4.365
21
63.995
31
0
0
LINE
8
0
62
1
10
4.365
20
63.995
30
0
11
4.368
21
63.98
31
0
0
LINE
8
0
62
1
10
4.368
20
63.98
30
0
11
4.368
21
51.338
31
0
0
LINE
8
0
62
1
10
4.368
20
51.338
30
0
11
19.292
21
51.338
31
0
0
LINE
8
0
62
1
10
19.292
20
51.338
30
0
11
19.292
21
63.98
31
0
0
LINE
8
0
62
1
10
19.292
20
63.98
30
0
11
19.295
21
63.995
31
0
0
LINE
8
0
62
1
10
19.295
20
63.995
30
0
11
19.303
21
64.007
31
0
0
LINE
8
0
62
1
10
19.303
20
64.007
30
0
11
19.315
21
64.015
31
0
0
LINE
8
0
62
1
10
19.315
20
64.015
30
0
11
19.33
21
64.018
31
0
0
LINE
8
0
62
1
10
19.33
20
64.018
30
0
11
34.33
21
64.018
31
0
0
LINE
8
0
62
1
10
34.33
20
64.018
30
0
11
34.345
21
64.015
31
0
0
LINE
8
0
62
1
10
34.345
20
64.015
30
0
11
34.357
21
64.007
31
0
0
LINE
8
0
62
1
10
34.357
20
64.007
30
0
11
34.365
21
63.995
31
0
0
LINE
8
0
62
1
10
34.365
20
63.995
30
0
11
34.368
21
63.98
31
0
0
LINE
8
0
62
1
10
34.368
20
63.98
30
0
11
34.368
21
51.338
31
0
0
LINE
8
0
62
1
10
34.368
20
51.338
30
0
11
49.292
21
51.338
31
0
0
LINE
8
0
62
1
10
49.292
20
51.338
30
0
11
49.292
21
63.98
31
0
0
LINE
8
0
62
1
10
49.292
20
63.98
30
0
11
49.295
21
63.995
31
0
0
LINE
8
0
62
1
10
49.295
20
63.995
30
0
11
49.303
21
64.007
31
0
0
LINE
8
0
62
1
10
49.303
20
64.007
30
0
11
49.315
21
64.015
31
0
0
LINE
8
0
62
1
10
49.315
20
64.015
30
0
11
49.33
21
64.018
31
0
0
LINE
8
0
62
1
10
49.33
20
64.018
30
0
11
64.33
21
64.018
31
0
0
LINE
8
0
62
1
10
64.33
20
64.018
30
0
11
64.345
21
64.015
31
0
0
LINE
8
0
62
1
10
64.345
20
64.015
30
0
11
64.357
21
64.007
31
0
0
LINE
8
0
62
1
10
64.357
20
64.007
30
0
11
64.365
21
63.995
31
0
0
LINE
8
0
62
1
10
64.365
20
63.995
30
0
11
64.368
21
63.98
31
0
0
LINE
8
0
62
1
10
64.368
20
63.98
30
0
11
64.368
21
51.338
31
0
0
LINE
8
0
62
1
10
64.368
20
51.338
30
0
11
68.94
21
51.338
31
0
0
LINE
8
0
62
1
10
68.94
20
51.338
30
0
11
68.955
21
51.335
31
0
0
LINE
8
0
62
1
10
68.955
20
51.335
30
0
11
68.967
21
51.327
31
0
0
LINE
8
0
62
1
10
68.967
20
51.327
30
0
11
68.975
21
51.315
31
0
0
LINE
8
0
62
1
10
68.975
20
51.315
30
0
11
68.978
21
51.3
31
0
0
LINE
8
0
62
1
10
68.978
20
51.3
30
0
11
68.978
21
37.538
31
0
0
LINE
8
0
62
1
10
68.978
20
37.538
30
0
11
75.28
21
37.538
31
0
0
LINE
8
0
62
1
10
75.28
20
37.538
30
0
11
75.295
21
37.535
31
0
0
LINE
8
0
62
1
10
75.295
20
37.535
30
0
11
75.307
21
37.527
31
0
0
LINE
8
0
62
1
10
75.307
20
37.527
30
0
11
75.315
21
37.515
31
0
0
LINE
8
0
62
1
10
75.315
20
37.515
30
0
11
75.318
21
37.5
31
0
0
LINE
8
0
62
1
10
75.318
20
37.5
30
0
11
75.318
21
22.5
31
0
0
LINE
8
0
62
1
10
75.318
20
22.5
30
0
11
75.315
21
22.485
31
0
0
LINE
8
0
62
1
10
75.315
20
22.485
30
0
11
75.307
21
22.473
31
0
0
LINE
8
0
62
1
10
75.307
20
22.473
30
0
11
75.295
21
22.465
31
0
0
LINE
8
0
62
1
10
75.295
20
22.465
30
0
11
75.28
21
22.462
31
0
0
LINE
8
0
62
1
10
75.28
20
22.462
30
0
11
68.978
21
22.462
31
0
0
LINE
8
0
62
1
10
68.978
20
22.462
30
0
11
68.978
21
7.614
31
0
0
LINE
8
0
62
1
10
68.978
20
7.614
30
0
11
68.978
21
7.538
31
0
0
LINE
8
0
62
1
10
68.978
20
7.538
30
0
11
69.283
21
7.538
31
0
0
ENDSEC
0
EOF
