999
Generated by Autodesk CAM - http://cam.autodesk.com
999
UNIT = MM
999
THICKNESS = 7.34
0
SECTION
2
HEADER
9
$ACADVER
1
AC1006
9
$ANGBASE
50
0
9
$ANGDIR
70
0
0
ENDSEC
0
SECTION
2
BLOCKS
0
ENDSEC
9
$EXTMIN
10
-106.705
20
-64.018
30
0
9
$EXTMAX
10
106.705
20
64.018
30
15
0
SECTION
2
ENTITIES
0
LINE
8
0
62
1
10
85.517
20
-41.922
30
0
11
85.531
21
-41.925
31
0
0
LINE
8
0
62
1
10
85.531
20
-41.925
30
0
11
85.544
21
-41.933
31
0
0
LINE
8
0
62
1
10
85.544
20
-41.933
30
0
11
85.552
21
-41.945
31
0
0
LINE
8
0
62
1
10
85.552
20
-41.945
30
0
11
85.555
21
-41.96
31
0
0
LINE
8
0
62
1
10
85.555
20
-41.96
30
0
11
85.555
21
-48.3
31
0
0
LINE
8
0
62
1
10
85.555
20
-48.3
30
0
11
85.552
21
-48.315
31
0
0
LINE
8
0
62
1
10
85.552
20
-48.315
30
0
11
85.544
21
-48.327
31
0
0
LINE
8
0
62
1
10
85.544
20
-48.327
30
0
11
85.531
21
-48.335
31
0
0
LINE
8
0
62
1
10
85.531
20
-48.335
30
0
11
85.517
21
-48.338
31
0
0
LINE
8
0
62
1
10
85.517
20
-48.338
30
0
11
82.5
21
-48.338
31
0
0
LINE
8
0
62
1
10
82.5
20
-48.338
30
0
11
82.485
21
-48.335
31
0
0
LINE
8
0
62
1
10
82.485
20
-48.335
30
0
11
82.473
21
-48.327
31
0
0
LINE
8
0
62
1
10
82.473
20
-48.327
30
0
11
82.465
21
-48.315
31
0
0
LINE
8
0
62
1
10
82.465
20
-48.315
30
0
11
82.462
21
-48.3
31
0
0
LINE
8
0
62
1
10
82.462
20
-48.3
30
0
11
82.462
21
-41.96
31
0
0
LINE
8
0
62
1
10
82.462
20
-41.96
30
0
11
82.465
21
-41.945
31
0
0
LINE
8
0
62
1
10
82.465
20
-41.945
30
0
11
82.473
21
-41.933
31
0
0
LINE
8
0
62
1
10
82.473
20
-41.933
30
0
11
82.485
21
-41.925
31
0
0
LINE
8
0
62
1
10
82.485
20
-41.925
30
0
11
82.5
21
-41.922
31
0
0
LINE
8
0
62
1
10
82.5
20
-41.922
30
0
11
85.517
21
-41.922
31
0
0
LINE
8
0
62
1
10
85.517
20
-51.338
30
0
11
82.538
21
-51.338
31
0
0
LINE
8
0
62
1
10
82.538
20
-51.338
30
0
11
82.538
21
-63.98
31
0
0
LINE
8
0
62
1
10
82.538
20
-63.98
30
0
11
82.535
21
-63.995
31
0
0
LINE
8
0
62
1
10
82.535
20
-63.995
30
0
11
82.527
21
-64.007
31
0
0
LINE
8
0
62
1
10
82.527
20
-64.007
30
0
11
82.515
21
-64.015
31
0
0
LINE
8
0
62
1
10
82.515
20
-64.015
30
0
11
82.5
21
-64.018
31
0
0
LINE
8
0
62
1
10
82.5
20
-64.018
30
0
11
67.5
21
-64.018
31
0
0
LINE
8
0
62
1
10
67.5
20
-64.018
30
0
11
67.485
21
-64.015
31
0
0
LINE
8
0
62
1
10
67.485
20
-64.015
30
0
11
67.473
21
-64.007
31
0
0
LINE
8
0
62
1
10
67.473
20
-64.007
30
0
11
67.465
21
-63.995
31
0
0
LINE
8
0
62
1
10
67.465
20
-63.995
30
0
11
67.462
21
-63.98
31
0
0
LINE
8
0
62
1
10
67.462
20
-63.98
30
0
11
67.462
21
-51.338
31
0
0
LINE
8
0
62
1
10
67.462
20
-51.338
30
0
11
52.538
21
-51.338
31
0
0
LINE
8
0
62
1
10
52.538
20
-51.338
30
0
11
52.538
21
-63.98
31
0
0
LINE
8
0
62
1
10
52.538
20
-63.98
30
0
11
52.535
21
-63.995
31
0
0
LINE
8
0
62
1
10
52.535
20
-63.995
30
0
11
52.527
21
-64.007
31
0
0
LINE
8
0
62
1
10
52.527
20
-64.007
30
0
11
52.515
21
-64.015
31
0
0
LINE
8
0
62
1
10
52.515
20
-64.015
30
0
11
52.5
21
-64.018
31
0
0
LINE
8
0
62
1
10
52.5
20
-64.018
30
0
11
37.5
21
-64.018
31
0
0
LINE
8
0
62
1
10
37.5
20
-64.018
30
0
11
37.485
21
-64.015
31
0
0
LINE
8
0
62
1
10
37.485
20
-64.015
30
0
11
37.473
21
-64.007
31
0
0
LINE
8
0
62
1
10
37.473
20
-64.007
30
0
11
37.465
21
-63.995
31
0
0
LINE
8
0
62
1
10
37.465
20
-63.995
30
0
11
37.462
21
-63.98
31
0
0
LINE
8
0
62
1
10
37.462
20
-63.98
30
0
11
37.462
21
-51.338
31
0
0
LINE
8
0
62
1
10
37.462
20
-51.338
30
0
11
22.538
21
-51.338
31
0
0
LINE
8
0
62
1
10
22.538
20
-51.338
30
0
11
22.538
21
-63.98
31
0
0
LINE
8
0
62
1
10
22.538
20
-63.98
30
0
11
22.535
21
-63.995
31
0
0
LINE
8
0
62
1
10
22.535
20
-63.995
30
0
11
22.527
21
-64.007
31
0
0
LINE
8
0
62
1
10
22.527
20
-64.007
30
0
11
22.515
21
-64.015
31
0
0
LINE
8
0
62
1
10
22.515
20
-64.015
30
0
11
22.5
21
-64.018
31
0
0
LINE
8
0
62
1
10
22.5
20
-64.018
30
0
11
7.5
21
-64.018
31
0
0
LINE
8
0
62
1
10
7.5
20
-64.018
30
0
11
7.485
21
-64.015
31
0
0
LINE
8
0
62
1
10
7.485
20
-64.015
30
0
11
7.473
21
-64.007
31
0
0
LINE
8
0
62
1
10
7.473
20
-64.007
30
0
11
7.465
21
-63.995
31
0
0
LINE
8
0
62
1
10
7.465
20
-63.995
30
0
11
7.462
21
-63.98
31
0
0
LINE
8
0
62
1
10
7.462
20
-63.98
30
0
11
7.462
21
-51.338
31
0
0
LINE
8
0
62
1
10
7.462
20
-51.338
30
0
11
-7.462
21
-51.338
31
0
0
LINE
8
0
62
1
10
-7.462
20
-51.338
30
0
11
-7.462
21
-63.98
31
0
0
LINE
8
0
62
1
10
-7.462
20
-63.98
30
0
11
-7.465
21
-63.995
31
0
0
LINE
8
0
62
1
10
-7.465
20
-63.995
30
0
11
-7.473
21
-64.007
31
0
0
LINE
8
0
62
1
10
-7.473
20
-64.007
30
0
11
-7.485
21
-64.015
31
0
0
LINE
8
0
62
1
10
-7.485
20
-64.015
30
0
11
-7.5
21
-64.018
31
0
0
LINE
8
0
62
1
10
-7.5
20
-64.018
30
0
11
-22.5
21
-64.018
31
0
0
LINE
8
0
62
1
10
-22.5
20
-64.018
30
0
11
-22.515
21
-64.015
31
0
0
LINE
8
0
62
1
10
-22.515
20
-64.015
30
0
11
-22.527
21
-64.007
31
0
0
LINE
8
0
62
1
10
-22.527
20
-64.007
30
0
11
-22.535
21
-63.995
31
0
0
LINE
8
0
62
1
10
-22.535
20
-63.995
30
0
11
-22.538
21
-63.98
31
0
0
LINE
8
0
62
1
10
-22.538
20
-63.98
30
0
11
-22.538
21
-51.338
31
0
0
LINE
8
0
62
1
10
-22.538
20
-51.338
30
0
11
-37.462
21
-51.338
31
0
0
LINE
8
0
62
1
10
-37.462
20
-51.338
30
0
11
-37.462
21
-63.98
31
0
0
LINE
8
0
62
1
10
-37.462
20
-63.98
30
0
11
-37.465
21
-63.995
31
0
0
LINE
8
0
62
1
10
-37.465
20
-63.995
30
0
11
-37.473
21
-64.007
31
0
0
LINE
8
0
62
1
10
-37.473
20
-64.007
30
0
11
-37.485
21
-64.015
31
0
0
LINE
8
0
62
1
10
-37.485
20
-64.015
30
0
11
-37.5
21
-64.018
31
0
0
LINE
8
0
62
1
10
-37.5
20
-64.018
30
0
11
-52.5
21
-64.018
31
0
0
LINE
8
0
62
1
10
-52.5
20
-64.018
30
0
11
-52.515
21
-64.015
31
0
0
LINE
8
0
62
1
10
-52.515
20
-64.015
30
0
11
-52.527
21
-64.007
31
0
0
LINE
8
0
62
1
10
-52.527
20
-64.007
30
0
11
-52.535
21
-63.995
31
0
0
LINE
8
0
62
1
10
-52.535
20
-63.995
30
0
11
-52.538
21
-63.98
31
0
0
LINE
8
0
62
1
10
-52.538
20
-63.98
30
0
11
-52.538
21
-51.338
31
0
0
LINE
8
0
62
1
10
-52.538
20
-51.338
30
0
11
-67.462
21
-51.338
31
0
0
LINE
8
0
62
1
10
-67.462
20
-51.338
30
0
11
-67.462
21
-63.98
31
0
0
LINE
8
0
62
1
10
-67.462
20
-63.98
30
0
11
-67.465
21
-63.995
31
0
0
LINE
8
0
62
1
10
-67.465
20
-63.995
30
0
11
-67.473
21
-64.007
31
0
0
LINE
8
0
62
1
10
-67.473
20
-64.007
30
0
11
-67.485
21
-64.015
31
0
0
LINE
8
0
62
1
10
-67.485
20
-64.015
30
0
11
-67.5
21
-64.018
31
0
0
LINE
8
0
62
1
10
-67.5
20
-64.018
30
0
11
-82.5
21
-64.018
31
0
0
LINE
8
0
62
1
10
-82.5
20
-64.018
30
0
11
-82.515
21
-64.015
31
0
0
LINE
8
0
62
1
10
-82.515
20
-64.015
30
0
11
-82.527
21
-64.007
31
0
0
LINE
8
0
62
1
10
-82.527
20
-64.007
30
0
11
-82.535
21
-63.995
31
0
0
LINE
8
0
62
1
10
-82.535
20
-63.995
30
0
11
-82.538
21
-63.98
31
0
0
LINE
8
0
62
1
10
-82.538
20
-63.98
30
0
11
-82.538
21
-51.338
31
0
0
LINE
8
0
62
1
10
-82.538
20
-51.338
30
0
11
-97.462
21
-51.338
31
0
0
LINE
8
0
62
1
10
-97.462
20
-51.338
30
0
11
-97.462
21
-63.98
31
0
0
LINE
8
0
62
1
10
-97.462
20
-63.98
30
0
11
-97.465
21
-63.995
31
0
0
LINE
8
0
62
1
10
-97.465
20
-63.995
30
0
11
-97.473
21
-64.007
31
0
0
LINE
8
0
62
1
10
-97.473
20
-64.007
30
0
11
-97.485
21
-64.015
31
0
0
LINE
8
0
62
1
10
-97.485
20
-64.015
30
0
11
-97.5
21
-64.018
31
0
0
LINE
8
0
62
1
10
-97.5
20
-64.018
30
0
11
-106.667
21
-64.018
31
0
0
LINE
8
0
62
1
10
-106.667
20
-64.018
30
0
11
-106.682
21
-64.015
31
0
0
LINE
8
0
62
1
10
-106.682
20
-64.015
30
0
11
-106.694
21
-64.007
31
0
0
LINE
8
0
62
1
10
-106.694
20
-64.007
30
0
11
-106.702
21
-63.995
31
0
0
LINE
8
0
62
1
10
-106.702
20
-63.995
30
0
11
-106.705
21
-63.98
31
0
0
LINE
8
0
62
1
10
-106.705
20
-63.98
30
0
11
-106.705
21
63.98
31
0
0
LINE
8
0
62
1
10
-106.705
20
63.98
30
0
11
-106.702
21
63.995
31
0
0
LINE
8
0
62
1
10
-106.702
20
63.995
30
0
11
-106.694
21
64.007
31
0
0
LINE
8
0
62
1
10
-106.694
20
64.007
30
0
11
-106.682
21
64.015
31
0
0
LINE
8
0
62
1
10
-106.682
20
64.015
30
0
11
-106.667
21
64.018
31
0
0
LINE
8
0
62
1
10
-106.667
20
64.018
30
0
11
-97.5
21
64.018
31
0
0
LINE
8
0
62
1
10
-97.5
20
64.018
30
0
11
-97.485
21
64.015
31
0
0
LINE
8
0
62
1
10
-97.485
20
64.015
30
0
11
-97.473
21
64.007
31
0
0
LINE
8
0
62
1
10
-97.473
20
64.007
30
0
11
-97.465
21
63.995
31
0
0
LINE
8
0
62
1
10
-97.465
20
63.995
30
0
11
-97.462
21
63.98
31
0
0
LINE
8
0
62
1
10
-97.462
20
63.98
30
0
11
-97.462
21
51.338
31
0
0
LINE
8
0
62
1
10
-97.462
20
51.338
30
0
11
-82.538
21
51.338
31
0
0
LINE
8
0
62
1
10
-82.538
20
51.338
30
0
11
-82.538
21
63.98
31
0
0
LINE
8
0
62
1
10
-82.538
20
63.98
30
0
11
-82.535
21
63.995
31
0
0
LINE
8
0
62
1
10
-82.535
20
63.995
30
0
11
-82.527
21
64.007
31
0
0
LINE
8
0
62
1
10
-82.527
20
64.007
30
0
11
-82.515
21
64.015
31
0
0
LINE
8
0
62
1
10
-82.515
20
64.015
30
0
11
-82.5
21
64.018
31
0
0
LINE
8
0
62
1
10
-82.5
20
64.018
30
0
11
-67.5
21
64.018
31
0
0
LINE
8
0
62
1
10
-67.5
20
64.018
30
0
11
-67.485
21
64.015
31
0
0
LINE
8
0
62
1
10
-67.485
20
64.015
30
0
11
-67.473
21
64.007
31
0
0
LINE
8
0
62
1
10
-67.473
20
64.007
30
0
11
-67.465
21
63.995
31
0
0
LINE
8
0
62
1
10
-67.465
20
63.995
30
0
11
-67.462
21
63.98
31
0
0
LINE
8
0
62
1
10
-67.462
20
63.98
30
0
11
-67.462
21
51.338
31
0
0
LINE
8
0
62
1
10
-67.462
20
51.338
30
0
11
-52.538
21
51.338
31
0
0
LINE
8
0
62
1
10
-52.538
20
51.338
30
0
11
-52.538
21
63.98
31
0
0
LINE
8
0
62
1
10
-52.538
20
63.98
30
0
11
-52.535
21
63.995
31
0
0
LINE
8
0
62
1
10
-52.535
20
63.995
30
0
11
-52.527
21
64.007
31
0
0
LINE
8
0
62
1
10
-52.527
20
64.007
30
0
11
-52.515
21
64.015
31
0
0
LINE
8
0
62
1
10
-52.515
20
64.015
30
0
11
-52.5
21
64.018
31
0
0
LINE
8
0
62
1
10
-52.5
20
64.018
30
0
11
-37.5
21
64.018
31
0
0
LINE
8
0
62
1
10
-37.5
20
64.018
30
0
11
-37.485
21
64.015
31
0
0
LINE
8
0
62
1
10
-37.485
20
64.015
30
0
11
-37.473
21
64.007
31
0
0
LINE
8
0
62
1
10
-37.473
20
64.007
30
0
11
-37.465
21
63.995
31
0
0
LINE
8
0
62
1
10
-37.465
20
63.995
30
0
11
-37.462
21
63.98
31
0
0
LINE
8
0
62
1
10
-37.462
20
63.98
30
0
11
-37.462
21
51.338
31
0
0
LINE
8
0
62
1
10
-37.462
20
51.338
30
0
11
-22.538
21
51.338
31
0
0
LINE
8
0
62
1
10
-22.538
20
51.338
30
0
11
-22.538
21
63.98
31
0
0
LINE
8
0
62
1
10
-22.538
20
63.98
30
0
11
-22.535
21
63.995
31
0
0
LINE
8
0
62
1
10
-22.535
20
63.995
30
0
11
-22.527
21
64.007
31
0
0
LINE
8
0
62
1
10
-22.527
20
64.007
30
0
11
-22.515
21
64.015
31
0
0
LINE
8
0
62
1
10
-22.515
20
64.015
30
0
11
-22.5
21
64.018
31
0
0
LINE
8
0
62
1
10
-22.5
20
64.018
30
0
11
-7.5
21
64.018
31
0
0
LINE
8
0
62
1
10
-7.5
20
64.018
30
0
11
-7.485
21
64.015
31
0
0
LINE
8
0
62
1
10
-7.485
20
64.015
30
0
11
-7.473
21
64.007
31
0
0
LINE
8
0
62
1
10
-7.473
20
64.007
30
0
11
-7.465
21
63.995
31
0
0
LINE
8
0
62
1
10
-7.465
20
63.995
30
0
11
-7.462
21
63.98
31
0
0
LINE
8
0
62
1
10
-7.462
20
63.98
30
0
11
-7.462
21
51.338
31
0
0
LINE
8
0
62
1
10
-7.462
20
51.338
30
0
11
7.462
21
51.338
31
0
0
LINE
8
0
62
1
10
7.462
20
51.338
30
0
11
7.462
21
63.98
31
0
0
LINE
8
0
62
1
10
7.462
20
63.98
30
0
11
7.465
21
63.995
31
0
0
LINE
8
0
62
1
10
7.465
20
63.995
30
0
11
7.473
21
64.007
31
0
0
LINE
8
0
62
1
10
7.473
20
64.007
30
0
11
7.485
21
64.015
31
0
0
LINE
8
0
62
1
10
7.485
20
64.015
30
0
11
7.5
21
64.018
31
0
0
LINE
8
0
62
1
10
7.5
20
64.018
30
0
11
22.5
21
64.018
31
0
0
LINE
8
0
62
1
10
22.5
20
64.018
30
0
11
22.515
21
64.015
31
0
0
LINE
8
0
62
1
10
22.515
20
64.015
30
0
11
22.527
21
64.007
31
0
0
LINE
8
0
62
1
10
22.527
20
64.007
30
0
11
22.535
21
63.995
31
0
0
LINE
8
0
62
1
10
22.535
20
63.995
30
0
11
22.538
21
63.98
31
0
0
LINE
8
0
62
1
10
22.538
20
63.98
30
0
11
22.538
21
51.338
31
0
0
LINE
8
0
62
1
10
22.538
20
51.338
30
0
11
37.462
21
51.338
31
0
0
LINE
8
0
62
1
10
37.462
20
51.338
30
0
11
37.462
21
63.98
31
0
0
LINE
8
0
62
1
10
37.462
20
63.98
30
0
11
37.465
21
63.995
31
0
0
LINE
8
0
62
1
10
37.465
20
63.995
30
0
11
37.473
21
64.007
31
0
0
LINE
8
0
62
1
10
37.473
20
64.007
30
0
11
37.485
21
64.015
31
0
0
LINE
8
0
62
1
10
37.485
20
64.015
30
0
11
37.5
21
64.018
31
0
0
LINE
8
0
62
1
10
37.5
20
64.018
30
0
11
52.5
21
64.018
31
0
0
LINE
8
0
62
1
10
52.5
20
64.018
30
0
11
52.515
21
64.015
31
0
0
LINE
8
0
62
1
10
52.515
20
64.015
30
0
11
52.527
21
64.007
31
0
0
LINE
8
0
62
1
10
52.527
20
64.007
30
0
11
52.535
21
63.995
31
0
0
LINE
8
0
62
1
10
52.535
20
63.995
30
0
11
52.538
21
63.98
31
0
0
LINE
8
0
62
1
10
52.538
20
63.98
30
0
11
52.538
21
51.338
31
0
0
LINE
8
0
62
1
10
52.538
20
51.338
30
0
11
67.462
21
51.338
31
0
0
LINE
8
0
62
1
10
67.462
20
51.338
30
0
11
67.462
21
63.98
31
0
0
LINE
8
0
62
1
10
67.462
20
63.98
30
0
11
67.465
21
63.995
31
0
0
LINE
8
0
62
1
10
67.465
20
63.995
30
0
11
67.473
21
64.007
31
0
0
LINE
8
0
62
1
10
67.473
20
64.007
30
0
11
67.485
21
64.015
31
0
0
LINE
8
0
62
1
10
67.485
20
64.015
30
0
11
67.5
21
64.018
31
0
0
LINE
8
0
62
1
10
67.5
20
64.018
30
0
11
82.5
21
64.018
31
0
0
LINE
8
0
62
1
10
82.5
20
64.018
30
0
11
82.515
21
64.015
31
0
0
LINE
8
0
62
1
10
82.515
20
64.015
30
0
11
82.527
21
64.007
31
0
0
LINE
8
0
62
1
10
82.527
20
64.007
30
0
11
82.535
21
63.995
31
0
0
LINE
8
0
62
1
10
82.535
20
63.995
30
0
11
82.538
21
63.98
31
0
0
LINE
8
0
62
1
10
82.538
20
63.98
30
0
11
82.538
21
51.338
31
0
0
LINE
8
0
62
1
10
82.538
20
51.338
30
0
11
97.462
21
51.338
31
0
0
LINE
8
0
62
1
10
97.462
20
51.338
30
0
11
97.462
21
63.98
31
0
0
LINE
8
0
62
1
10
97.462
20
63.98
30
0
11
97.465
21
63.995
31
0
0
LINE
8
0
62
1
10
97.465
20
63.995
30
0
11
97.473
21
64.007
31
0
0
LINE
8
0
62
1
10
97.473
20
64.007
30
0
11
97.485
21
64.015
31
0
0
LINE
8
0
62
1
10
97.485
20
64.015
30
0
11
97.5
21
64.018
31
0
0
LINE
8
0
62
1
10
97.5
20
64.018
30
0
11
106.667
21
64.018
31
0
0
LINE
8
0
62
1
10
106.667
20
64.018
30
0
11
106.682
21
64.015
31
0
0
LINE
8
0
62
1
10
106.682
20
64.015
30
0
11
106.694
21
64.007
31
0
0
LINE
8
0
62
1
10
106.694
20
64.007
30
0
11
106.702
21
63.995
31
0
0
LINE
8
0
62
1
10
106.702
20
63.995
30
0
11
106.705
21
63.98
31
0
0
LINE
8
0
62
1
10
106.705
20
63.98
30
0
11
106.705
21
-63.98
31
0
0
LINE
8
0
62
1
10
106.705
20
-63.98
30
0
11
106.702
21
-63.995
31
0
0
LINE
8
0
62
1
10
106.702
20
-63.995
30
0
11
106.694
21
-64.007
31
0
0
LINE
8
0
62
1
10
106.694
20
-64.007
30
0
11
106.682
21
-64.015
31
0
0
LINE
8
0
62
1
10
106.682
20
-64.015
30
0
11
106.667
21
-64.018
31
0
0
LINE
8
0
62
1
10
106.667
20
-64.018
30
0
11
97.5
21
-64.018
31
0
0
LINE
8
0
62
1
10
97.5
20
-64.018
30
0
11
97.485
21
-64.015
31
0
0
LINE
8
0
62
1
10
97.485
20
-64.015
30
0
11
97.473
21
-64.007
31
0
0
LINE
8
0
62
1
10
97.473
20
-64.007
30
0
11
97.465
21
-63.995
31
0
0
LINE
8
0
62
1
10
97.465
20
-63.995
30
0
11
97.462
21
-63.98
31
0
0
LINE
8
0
62
1
10
97.462
20
-63.98
30
0
11
97.462
21
-51.338
31
0
0
LINE
8
0
62
1
10
97.462
20
-51.338
30
0
11
85.517
21
-51.338
31
0
0
ENDSEC
0
EOF
