999
Generated by Autodesk CAM - http://cam.autodesk.com
999
UNIT = MM
999
THICKNESS = 7.35
0
SECTION
2
HEADER
9
$ACADVER
1
AC1006
9
$ANGBASE
50
0
9
$ANGDIR
70
0
0
ENDSEC
0
SECTION
2
BLOCKS
0
ENDSEC
9
$EXTMIN
10
-11.481
20
-57.178
30
0
9
$EXTMAX
10
11.151
20
57.331
30
15
0
SECTION
2
ENTITIES
0
LINE
8
0
62
1
10
-11.151
20
57.14
30
0
11
-11.148
21
57.155
31
0
0
LINE
8
0
62
1
10
-11.148
20
57.155
30
0
11
-11.139
21
57.167
31
0
0
LINE
8
0
62
1
10
-11.139
20
57.167
30
0
11
-11.127
21
57.175
31
0
0
LINE
8
0
62
1
10
-11.127
20
57.175
30
0
11
-11.113
21
57.178
31
0
0
LINE
8
0
62
1
10
-11.113
20
57.178
30
0
11
-9.613
21
57.178
31
0
0
LINE
8
0
62
1
10
-9.613
20
57.178
30
0
11
-9.598
21
57.175
31
0
0
LINE
8
0
62
1
10
-9.598
20
57.175
30
0
11
-9.586
21
57.167
31
0
0
LINE
8
0
62
1
10
-9.586
20
57.167
30
0
11
-9.577
21
57.155
31
0
0
LINE
8
0
62
1
10
-9.577
20
57.155
30
0
11
-9.574
21
57.14
31
0
0
LINE
8
0
62
1
10
-9.574
20
57.14
30
0
11
-9.574
21
50.838
31
0
0
LINE
8
0
62
1
10
-9.574
20
50.838
30
0
11
8.074
21
50.838
31
0
0
LINE
8
0
62
1
10
8.074
20
50.838
30
0
11
8.074
21
57.14
31
0
0
LINE
8
0
62
1
10
8.074
20
57.14
30
0
11
8.077
21
57.155
31
0
0
LINE
8
0
62
1
10
8.077
20
57.155
30
0
11
8.086
21
57.167
31
0
0
LINE
8
0
62
1
10
8.086
20
57.167
30
0
11
8.098
21
57.175
31
0
0
LINE
8
0
62
1
10
8.098
20
57.175
30
0
11
8.113
21
57.178
31
0
0
LINE
8
0
62
1
10
8.113
20
57.178
30
0
11
9.613
21
57.178
31
0
0
LINE
8
0
62
1
10
9.613
20
57.178
30
0
11
9.627
21
57.175
31
0
0
LINE
8
0
62
1
10
9.627
20
57.175
30
0
11
9.639
21
57.167
31
0
0
LINE
8
0
62
1
10
9.639
20
57.167
30
0
11
9.648
21
57.155
31
0
0
LINE
8
0
62
1
10
9.648
20
57.155
30
0
11
9.651
21
57.14
31
0
0
LINE
8
0
62
1
10
9.651
20
57.14
30
0
11
9.651
21
50.838
31
0
0
LINE
8
0
62
1
10
9.651
20
50.838
30
0
11
11.113
21
50.838
31
0
0
LINE
8
0
62
1
10
11.113
20
50.838
30
0
11
11.127
21
50.835
31
0
0
LINE
8
0
62
1
10
11.127
20
50.835
30
0
11
11.139
21
50.827
31
0
0
LINE
8
0
62
1
10
11.139
20
50.827
30
0
11
11.148
21
50.815
31
0
0
LINE
8
0
62
1
10
11.148
20
50.815
30
0
11
11.151
21
50.8
31
0
0
LINE
8
0
62
1
10
11.151
20
50.8
30
0
11
11.151
21
-50.8
31
0
0
LINE
8
0
62
1
10
11.151
20
-50.8
30
0
11
11.148
21
-50.815
31
0
0
LINE
8
0
62
1
10
11.148
20
-50.815
30
0
11
11.139
21
-50.827
31
0
0
LINE
8
0
62
1
10
11.139
20
-50.827
30
0
11
11.127
21
-50.835
31
0
0
LINE
8
0
62
1
10
11.127
20
-50.835
30
0
11
11.113
21
-50.838
31
0
0
LINE
8
0
62
1
10
11.113
20
-50.838
30
0
11
9.651
21
-50.838
31
0
0
LINE
8
0
62
1
10
9.651
20
-50.838
30
0
11
9.651
21
-57.14
31
0
0
LINE
8
0
62
1
10
9.651
20
-57.14
30
0
11
9.648
21
-57.155
31
0
0
LINE
8
0
62
1
10
9.648
20
-57.155
30
0
11
9.639
21
-57.167
31
0
0
LINE
8
0
62
1
10
9.639
20
-57.167
30
0
11
9.627
21
-57.175
31
0
0
LINE
8
0
62
1
10
9.627
20
-57.175
30
0
11
9.613
21
-57.178
31
0
0
LINE
8
0
62
1
10
9.613
20
-57.178
30
0
11
8.113
21
-57.178
31
0
0
LINE
8
0
62
1
10
8.113
20
-57.178
30
0
11
8.098
21
-57.175
31
0
0
LINE
8
0
62
1
10
8.098
20
-57.175
30
0
11
8.086
21
-57.167
31
0
0
LINE
8
0
62
1
10
8.086
20
-57.167
30
0
11
8.077
21
-57.155
31
0
0
LINE
8
0
62
1
10
8.077
20
-57.155
30
0
11
8.074
21
-57.14
31
0
0
LINE
8
0
62
1
10
8.074
20
-57.14
30
0
11
8.074
21
-50.838
31
0
0
LINE
8
0
62
1
10
8.074
20
-50.838
30
0
11
-9.574
21
-50.838
31
0
0
LINE
8
0
62
1
10
-9.574
20
-50.838
30
0
11
-9.574
21
-57.14
31
0
0
LINE
8
0
62
1
10
-9.574
20
-57.14
30
0
11
-9.577
21
-57.155
31
0
0
LINE
8
0
62
1
10
-9.577
20
-57.155
30
0
11
-9.586
21
-57.167
31
0
0
LINE
8
0
62
1
10
-9.586
20
-57.167
30
0
11
-9.598
21
-57.175
31
0
0
LINE
8
0
62
1
10
-9.598
20
-57.175
30
0
11
-9.613
21
-57.178
31
0
0
LINE
8
0
62
1
10
-9.613
20
-57.178
30
0
11
-11.113
21
-57.178
31
0
0
LINE
8
0
62
1
10
-11.113
20
-57.178
30
0
11
-11.127
21
-57.175
31
0
0
LINE
8
0
62
1
10
-11.127
20
-57.175
30
0
11
-11.139
21
-57.167
31
0
0
LINE
8
0
62
1
10
-11.139
20
-57.167
30
0
11
-11.148
21
-57.155
31
0
0
LINE
8
0
62
1
10
-11.148
20
-57.155
30
0
11
-11.151
21
-57.14
31
0
0
LINE
8
0
62
1
10
-11.151
20
-57.14
30
0
11
-11.151
21
57.14
31
0
0
LINE
8
0
62
5
10
-6.889
20
-26.378
30
0
11
6.891
21
-26.378
31
0
0
LINE
8
0
62
5
10
6.891
20
-26.378
30
0
11
6.906
21
-26.381
31
0
0
LINE
8
0
62
5
10
6.906
20
-26.381
30
0
11
6.918
21
-26.389
31
0
0
LINE
8
0
62
5
10
6.918
20
-26.389
30
0
11
6.926
21
-26.401
31
0
0
LINE
8
0
62
5
10
6.926
20
-26.401
30
0
11
6.929
21
-26.416
31
0
0
LINE
8
0
62
5
10
6.929
20
-26.416
30
0
11
6.929
21
-46.736
31
0
0
LINE
8
0
62
5
10
6.929
20
-46.736
30
0
11
6.926
21
-46.751
31
0
0
LINE
8
0
62
5
10
6.926
20
-46.751
30
0
11
6.918
21
-46.763
31
0
0
LINE
8
0
62
5
10
6.918
20
-46.763
30
0
11
6.906
21
-46.771
31
0
0
LINE
8
0
62
5
10
6.906
20
-46.771
30
0
11
6.891
21
-46.774
31
0
0
LINE
8
0
62
5
10
6.891
20
-46.774
30
0
11
-6.889
21
-46.774
31
0
0
LINE
8
0
62
5
10
-6.889
20
-46.774
30
0
11
-6.904
21
-46.771
31
0
0
LINE
8
0
62
5
10
-6.904
20
-46.771
30
0
11
-6.916
21
-46.763
31
0
0
LINE
8
0
62
5
10
-6.916
20
-46.763
30
0
11
-6.924
21
-46.751
31
0
0
LINE
8
0
62
5
10
-6.924
20
-46.751
30
0
11
-6.927
21
-46.736
31
0
0
LINE
8
0
62
5
10
-6.927
20
-46.736
30
0
11
-6.927
21
-26.416
31
0
0
LINE
8
0
62
5
10
-6.927
20
-26.416
30
0
11
-6.924
21
-26.401
31
0
0
LINE
8
0
62
5
10
-6.924
20
-26.401
30
0
11
-6.916
21
-26.389
31
0
0
LINE
8
0
62
5
10
-6.916
20
-26.389
30
0
11
-6.904
21
-26.381
31
0
0
LINE
8
0
62
5
10
-6.904
20
-26.381
30
0
11
-6.889
21
-26.378
31
0
0
LINE
8
0
62
5
10
-6.889
20
-1.994
30
0
11
6.891
21
-1.994
31
0
0
LINE
8
0
62
5
10
6.891
20
-1.994
30
0
11
6.906
21
-1.997
31
0
0
LINE
8
0
62
5
10
6.906
20
-1.997
30
0
11
6.918
21
-2.005
31
0
0
LINE
8
0
62
5
10
6.918
20
-2.005
30
0
11
6.926
21
-2.017
31
0
0
LINE
8
0
62
5
10
6.926
20
-2.017
30
0
11
6.929
21
-2.032
31
0
0
LINE
8
0
62
5
10
6.929
20
-2.032
30
0
11
6.929
21
-22.352
31
0
0
LINE
8
0
62
5
10
6.929
20
-22.352
30
0
11
6.926
21
-22.367
31
0
0
LINE
8
0
62
5
10
6.926
20
-22.367
30
0
11
6.918
21
-22.379
31
0
0
LINE
8
0
62
5
10
6.918
20
-22.379
30
0
11
6.906
21
-22.387
31
0
0
LINE
8
0
62
5
10
6.906
20
-22.387
30
0
11
6.891
21
-22.39
31
0
0
LINE
8
0
62
5
10
6.891
20
-22.39
30
0
11
-6.889
21
-22.39
31
0
0
LINE
8
0
62
5
10
-6.889
20
-22.39
30
0
11
-6.904
21
-22.387
31
0
0
LINE
8
0
62
5
10
-6.904
20
-22.387
30
0
11
-6.916
21
-22.379
31
0
0
LINE
8
0
62
5
10
-6.916
20
-22.379
30
0
11
-6.924
21
-22.367
31
0
0
LINE
8
0
62
5
10
-6.924
20
-22.367
30
0
11
-6.927
21
-22.352
31
0
0
LINE
8
0
62
5
10
-6.927
20
-22.352
30
0
11
-6.927
21
-2.032
31
0
0
LINE
8
0
62
5
10
-6.927
20
-2.032
30
0
11
-6.924
21
-2.017
31
0
0
LINE
8
0
62
5
10
-6.924
20
-2.017
30
0
11
-6.916
21
-2.005
31
0
0
LINE
8
0
62
5
10
-6.916
20
-2.005
30
0
11
-6.904
21
-1.997
31
0
0
LINE
8
0
62
5
10
-6.904
20
-1.997
30
0
11
-6.889
21
-1.994
31
0
0
LINE
8
0
62
5
10
-6.889
20
22.39
30
0
11
6.891
21
22.39
31
0
0
LINE
8
0
62
5
10
6.891
20
22.39
30
0
11
6.906
21
22.387
31
0
0
LINE
8
0
62
5
10
6.906
20
22.387
30
0
11
6.918
21
22.379
31
0
0
LINE
8
0
62
5
10
6.918
20
22.379
30
0
11
6.926
21
22.367
31
0
0
LINE
8
0
62
5
10
6.926
20
22.367
30
0
11
6.929
21
22.352
31
0
0
LINE
8
0
62
5
10
6.929
20
22.352
30
0
11
6.929
21
2.032
31
0
0
LINE
8
0
62
5
10
6.929
20
2.032
30
0
11
6.926
21
2.017
31
0
0
LINE
8
0
62
5
10
6.926
20
2.017
30
0
11
6.918
21
2.005
31
0
0
LINE
8
0
62
5
10
6.918
20
2.005
30
0
11
6.906
21
1.997
31
0
0
LINE
8
0
62
5
10
6.906
20
1.997
30
0
11
6.891
21
1.994
31
0
0
LINE
8
0
62
5
10
6.891
20
1.994
30
0
11
-6.889
21
1.994
31
0
0
LINE
8
0
62
5
10
-6.889
20
1.994
30
0
11
-6.904
21
1.997
31
0
0
LINE
8
0
62
5
10
-6.904
20
1.997
30
0
11
-6.916
21
2.005
31
0
0
LINE
8
0
62
5
10
-6.916
20
2.005
30
0
11
-6.924
21
2.017
31
0
0
LINE
8
0
62
5
10
-6.924
20
2.017
30
0
11
-6.927
21
2.032
31
0
0
LINE
8
0
62
5
10
-6.927
20
2.032
30
0
11
-6.927
21
22.352
31
0
0
LINE
8
0
62
5
10
-6.927
20
22.352
30
0
11
-6.924
21
22.367
31
0
0
LINE
8
0
62
5
10
-6.924
20
22.367
30
0
11
-6.916
21
22.379
31
0
0
LINE
8
0
62
5
10
-6.916
20
22.379
30
0
11
-6.904
21
22.387
31
0
0
LINE
8
0
62
5
10
-6.904
20
22.387
30
0
11
-6.889
21
22.39
31
0
0
LINE
8
0
62
5
10
-6.889
20
26.378
30
0
11
-6.904
21
26.381
31
0
0
LINE
8
0
62
5
10
-6.904
20
26.381
30
0
11
-6.916
21
26.389
31
0
0
LINE
8
0
62
5
10
-6.916
20
26.389
30
0
11
-6.924
21
26.401
31
0
0
LINE
8
0
62
5
10
-6.924
20
26.401
30
0
11
-6.927
21
26.416
31
0
0
LINE
8
0
62
5
10
-6.927
20
26.416
30
0
11
-6.927
21
46.736
31
0
0
LINE
8
0
62
5
10
-6.927
20
46.736
30
0
11
-6.924
21
46.751
31
0
0
LINE
8
0
62
5
10
-6.924
20
46.751
30
0
11
-6.916
21
46.763
31
0
0
LINE
8
0
62
5
10
-6.916
20
46.763
30
0
11
-6.904
21
46.771
31
0
0
LINE
8
0
62
5
10
-6.904
20
46.771
30
0
11
-6.889
21
46.774
31
0
0
LINE
8
0
62
5
10
-6.889
20
46.774
30
0
11
6.891
21
46.774
31
0
0
LINE
8
0
62
5
10
6.891
20
46.774
30
0
11
6.906
21
46.771
31
0
0
LINE
8
0
62
5
10
6.906
20
46.771
30
0
11
6.918
21
46.763
31
0
0
LINE
8
0
62
5
10
6.918
20
46.763
30
0
11
6.926
21
46.751
31
0
0
LINE
8
0
62
5
10
6.926
20
46.751
30
0
11
6.929
21
46.736
31
0
0
LINE
8
0
62
5
10
6.929
20
46.736
30
0
11
6.929
21
26.416
31
0
0
LINE
8
0
62
5
10
6.929
20
26.416
30
0
11
6.926
21
26.401
31
0
0
LINE
8
0
62
5
10
6.926
20
26.401
30
0
11
6.918
21
26.389
31
0
0
LINE
8
0
62
5
10
6.918
20
26.389
30
0
11
6.906
21
26.381
31
0
0
LINE
8
0
62
5
10
6.906
20
26.381
30
0
11
6.891
21
26.378
31
0
0
LINE
8
0
62
5
10
6.891
20
26.378
30
0
11
-6.889
21
26.378
31
0
0
ENDSEC
0
EOF
