999
Generated by Autodesk CAM - http://cam.autodesk.com
999
UNIT = MM
999
THICKNESS = 7.34
0
SECTION
2
HEADER
9
$ACADVER
1
AC1006
9
$ANGBASE
50
0
9
$ANGDIR
70
0
0
ENDSEC
0
SECTION
2
BLOCKS
0
ENDSEC
9
$EXTMIN
10
-57.328
20
-62.178
30
0
9
$EXTMAX
10
57.658
20
62.178
30
15
0
SECTION
2
ENTITIES
0
LINE
8
0
62
1
10
40.572
20
-57.14
30
0
11
40.572
21
-34.915
31
0
0
LINE
8
0
62
1
10
40.572
20
-34.915
30
0
11
40.575
21
-34.9
31
0
0
LINE
8
0
62
1
10
40.575
20
-34.9
30
0
11
40.583
21
-34.888
31
0
0
LINE
8
0
62
1
10
40.583
20
-34.888
30
0
11
40.595
21
-34.88
31
0
0
LINE
8
0
62
1
10
40.595
20
-34.88
30
0
11
40.61
21
-34.877
31
0
0
LINE
8
0
62
1
10
40.61
20
-34.877
30
0
11
46.95
21
-34.877
31
0
0
LINE
8
0
62
1
10
46.95
20
-34.877
30
0
11
46.965
21
-34.88
31
0
0
LINE
8
0
62
1
10
46.965
20
-34.88
30
0
11
46.977
21
-34.888
31
0
0
LINE
8
0
62
1
10
46.977
20
-34.888
30
0
11
46.985
21
-34.9
31
0
0
LINE
8
0
62
1
10
46.985
20
-34.9
30
0
11
46.988
21
-34.915
31
0
0
LINE
8
0
62
1
10
46.988
20
-34.915
30
0
11
46.988
21
-57.14
31
0
0
LINE
8
0
62
1
10
46.988
20
-57.14
30
0
11
46.985
21
-57.155
31
0
0
LINE
8
0
62
1
10
46.985
20
-57.155
30
0
11
46.977
21
-57.167
31
0
0
LINE
8
0
62
1
10
46.977
20
-57.167
30
0
11
46.965
21
-57.175
31
0
0
LINE
8
0
62
1
10
46.965
20
-57.175
30
0
11
46.95
21
-57.178
31
0
0
LINE
8
0
62
1
10
46.95
20
-57.178
30
0
11
40.61
21
-57.178
31
0
0
LINE
8
0
62
1
10
40.61
20
-57.178
30
0
11
40.595
21
-57.175
31
0
0
LINE
8
0
62
1
10
40.595
20
-57.175
30
0
11
40.583
21
-57.167
31
0
0
LINE
8
0
62
1
10
40.583
20
-57.167
30
0
11
40.575
21
-57.155
31
0
0
LINE
8
0
62
1
10
40.575
20
-57.155
30
0
11
40.572
21
-57.14
31
0
0
LINE
8
0
62
1
10
40.61
20
3.132
30
0
11
36.648
21
3.132
31
0
0
LINE
8
0
62
1
10
36.648
20
3.132
30
0
11
36.648
21
-3.132
31
0
0
LINE
8
0
62
1
10
36.648
20
-3.132
30
0
11
46.61
21
-3.132
31
0
0
LINE
8
0
62
1
10
46.61
20
-3.132
30
0
11
46.625
21
-3.135
31
0
0
LINE
8
0
62
1
10
46.625
20
-3.135
30
0
11
46.637
21
-3.143
31
0
0
LINE
8
0
62
1
10
46.637
20
-3.143
30
0
11
46.645
21
-3.155
31
0
0
LINE
8
0
62
1
10
46.645
20
-3.155
30
0
11
46.648
21
-3.17
31
0
0
LINE
8
0
62
1
10
46.648
20
-3.17
30
0
11
46.648
21
-9.51
31
0
0
LINE
8
0
62
1
10
46.648
20
-9.51
30
0
11
46.645
21
-9.525
31
0
0
LINE
8
0
62
1
10
46.645
20
-9.525
30
0
11
46.637
21
-9.537
31
0
0
LINE
8
0
62
1
10
46.637
20
-9.537
30
0
11
46.625
21
-9.545
31
0
0
LINE
8
0
62
1
10
46.625
20
-9.545
30
0
11
46.61
21
-9.548
31
0
0
LINE
8
0
62
1
10
46.61
20
-9.548
30
0
11
36.648
21
-9.548
31
0
0
LINE
8
0
62
1
10
36.648
20
-9.548
30
0
11
36.648
21
-57.14
31
0
0
LINE
8
0
62
1
10
36.648
20
-57.14
30
0
11
36.645
21
-57.155
31
0
0
LINE
8
0
62
1
10
36.645
20
-57.155
30
0
11
36.637
21
-57.167
31
0
0
LINE
8
0
62
1
10
36.637
20
-57.167
30
0
11
36.625
21
-57.175
31
0
0
LINE
8
0
62
1
10
36.625
20
-57.175
30
0
11
36.61
21
-57.178
31
0
0
LINE
8
0
62
1
10
36.61
20
-57.178
30
0
11
35.11
21
-57.178
31
0
0
LINE
8
0
62
1
10
35.11
20
-57.178
30
0
11
35.095
21
-57.175
31
0
0
LINE
8
0
62
1
10
35.095
20
-57.175
30
0
11
35.083
21
-57.167
31
0
0
LINE
8
0
62
1
10
35.083
20
-57.167
30
0
11
35.075
21
-57.155
31
0
0
LINE
8
0
62
1
10
35.075
20
-57.155
30
0
11
35.072
21
-57.14
31
0
0
LINE
8
0
62
1
10
35.072
20
-57.14
30
0
11
35.072
21
-50.838
31
0
0
LINE
8
0
62
1
10
35.072
20
-50.838
30
0
11
14.423
21
-50.838
31
0
0
LINE
8
0
62
1
10
14.423
20
-50.838
30
0
11
14.423
21
-57.14
31
0
0
LINE
8
0
62
1
10
14.423
20
-57.14
30
0
11
14.42
21
-57.155
31
0
0
LINE
8
0
62
1
10
14.42
20
-57.155
30
0
11
14.412
21
-57.167
31
0
0
LINE
8
0
62
1
10
14.412
20
-57.167
30
0
11
14.4
21
-57.175
31
0
0
LINE
8
0
62
1
10
14.4
20
-57.175
30
0
11
14.385
21
-57.178
31
0
0
LINE
8
0
62
1
10
14.385
20
-57.178
30
0
11
12.885
21
-57.178
31
0
0
LINE
8
0
62
1
10
12.885
20
-57.178
30
0
11
12.87
21
-57.175
31
0
0
LINE
8
0
62
1
10
12.87
20
-57.175
30
0
11
12.858
21
-57.167
31
0
0
LINE
8
0
62
1
10
12.858
20
-57.167
30
0
11
12.85
21
-57.155
31
0
0
LINE
8
0
62
1
10
12.85
20
-57.155
30
0
11
12.847
21
-57.14
31
0
0
LINE
8
0
62
1
10
12.847
20
-57.14
30
0
11
12.847
21
-50.838
31
0
0
LINE
8
0
62
1
10
12.847
20
-50.838
30
0
11
-7.802
21
-50.838
31
0
0
LINE
8
0
62
1
10
-7.802
20
-50.838
30
0
11
-7.802
21
-57.14
31
0
0
LINE
8
0
62
1
10
-7.802
20
-57.14
30
0
11
-7.805
21
-57.155
31
0
0
LINE
8
0
62
1
10
-7.805
20
-57.155
30
0
11
-7.813
21
-57.167
31
0
0
LINE
8
0
62
1
10
-7.813
20
-57.167
30
0
11
-7.825
21
-57.175
31
0
0
LINE
8
0
62
1
10
-7.825
20
-57.175
30
0
11
-7.84
21
-57.178
31
0
0
LINE
8
0
62
1
10
-7.84
20
-57.178
30
0
11
-9.34
21
-57.178
31
0
0
LINE
8
0
62
1
10
-9.34
20
-57.178
30
0
11
-9.355
21
-57.175
31
0
0
LINE
8
0
62
1
10
-9.355
20
-57.175
30
0
11
-9.367
21
-57.167
31
0
0
LINE
8
0
62
1
10
-9.367
20
-57.167
30
0
11
-9.375
21
-57.155
31
0
0
LINE
8
0
62
1
10
-9.375
20
-57.155
30
0
11
-9.378
21
-57.14
31
0
0
LINE
8
0
62
1
10
-9.378
20
-57.14
30
0
11
-9.378
21
-50.838
31
0
0
LINE
8
0
62
1
10
-9.378
20
-50.838
30
0
11
-30.027
21
-50.838
31
0
0
LINE
8
0
62
1
10
-30.027
20
-50.838
30
0
11
-30.027
21
-57.14
31
0
0
LINE
8
0
62
1
10
-30.027
20
-57.14
30
0
11
-30.03
21
-57.155
31
0
0
LINE
8
0
62
1
10
-30.03
20
-57.155
30
0
11
-30.038
21
-57.167
31
0
0
LINE
8
0
62
1
10
-30.038
20
-57.167
30
0
11
-30.05
21
-57.175
31
0
0
LINE
8
0
62
1
10
-30.05
20
-57.175
30
0
11
-30.065
21
-57.178
31
0
0
LINE
8
0
62
1
10
-30.065
20
-57.178
30
0
11
-31.565
21
-57.178
31
0
0
LINE
8
0
62
1
10
-31.565
20
-57.178
30
0
11
-31.58
21
-57.175
31
0
0
LINE
8
0
62
1
10
-31.58
20
-57.175
30
0
11
-31.592
21
-57.167
31
0
0
LINE
8
0
62
1
10
-31.592
20
-57.167
30
0
11
-31.6
21
-57.155
31
0
0
LINE
8
0
62
1
10
-31.6
20
-57.155
30
0
11
-31.603
21
-57.14
31
0
0
LINE
8
0
62
1
10
-31.603
20
-57.14
30
0
11
-31.603
21
-50.838
31
0
0
LINE
8
0
62
1
10
-31.603
20
-50.838
30
0
11
-49.252
21
-50.838
31
0
0
LINE
8
0
62
1
10
-49.252
20
-50.838
30
0
11
-49.252
21
-57.14
31
0
0
LINE
8
0
62
1
10
-49.252
20
-57.14
30
0
11
-49.255
21
-57.155
31
0
0
LINE
8
0
62
1
10
-49.255
20
-57.155
30
0
11
-49.263
21
-57.167
31
0
0
LINE
8
0
62
1
10
-49.263
20
-57.167
30
0
11
-49.275
21
-57.175
31
0
0
LINE
8
0
62
1
10
-49.275
20
-57.175
30
0
11
-49.29
21
-57.178
31
0
0
LINE
8
0
62
1
10
-49.29
20
-57.178
30
0
11
-50.79
21
-57.178
31
0
0
LINE
8
0
62
1
10
-50.79
20
-57.178
30
0
11
-50.805
21
-57.175
31
0
0
LINE
8
0
62
1
10
-50.805
20
-57.175
30
0
11
-50.817
21
-57.167
31
0
0
LINE
8
0
62
1
10
-50.817
20
-57.167
30
0
11
-50.825
21
-57.155
31
0
0
LINE
8
0
62
1
10
-50.825
20
-57.155
30
0
11
-50.828
21
-57.14
31
0
0
LINE
8
0
62
1
10
-50.828
20
-57.14
30
0
11
-50.828
21
-50.838
31
0
0
LINE
8
0
62
1
10
-50.828
20
-50.838
30
0
11
-52.29
21
-50.838
31
0
0
LINE
8
0
62
1
10
-52.29
20
-50.838
30
0
11
-52.305
21
-50.835
31
0
0
LINE
8
0
62
1
10
-52.305
20
-50.835
30
0
11
-52.317
21
-50.827
31
0
0
LINE
8
0
62
1
10
-52.317
20
-50.827
30
0
11
-52.325
21
-50.815
31
0
0
LINE
8
0
62
1
10
-52.325
20
-50.815
30
0
11
-52.328
21
-50.8
31
0
0
LINE
8
0
62
1
10
-52.328
20
-50.8
30
0
11
-52.328
21
50.8
31
0
0
LINE
8
0
62
1
10
-52.328
20
50.8
30
0
11
-52.325
21
50.815
31
0
0
LINE
8
0
62
1
10
-52.325
20
50.815
30
0
11
-52.317
21
50.827
31
0
0
LINE
8
0
62
1
10
-52.317
20
50.827
30
0
11
-52.305
21
50.835
31
0
0
LINE
8
0
62
1
10
-52.305
20
50.835
30
0
11
-52.29
21
50.838
31
0
0
LINE
8
0
62
1
10
-52.29
20
50.838
30
0
11
-50.828
21
50.838
31
0
0
LINE
8
0
62
1
10
-50.828
20
50.838
30
0
11
-50.828
21
57.14
31
0
0
LINE
8
0
62
1
10
-50.828
20
57.14
30
0
11
-50.825
21
57.155
31
0
0
LINE
8
0
62
1
10
-50.825
20
57.155
30
0
11
-50.817
21
57.167
31
0
0
LINE
8
0
62
1
10
-50.817
20
57.167
30
0
11
-50.805
21
57.175
31
0
0
LINE
8
0
62
1
10
-50.805
20
57.175
30
0
11
-50.79
21
57.178
31
0
0
LINE
8
0
62
1
10
-50.79
20
57.178
30
0
11
-49.29
21
57.178
31
0
0
LINE
8
0
62
1
10
-49.29
20
57.178
30
0
11
-49.275
21
57.175
31
0
0
LINE
8
0
62
1
10
-49.275
20
57.175
30
0
11
-49.263
21
57.167
31
0
0
LINE
8
0
62
1
10
-49.263
20
57.167
30
0
11
-49.255
21
57.155
31
0
0
LINE
8
0
62
1
10
-49.255
20
57.155
30
0
11
-49.252
21
57.14
31
0
0
LINE
8
0
62
1
10
-49.252
20
57.14
30
0
11
-49.252
21
50.838
31
0
0
LINE
8
0
62
1
10
-49.252
20
50.838
30
0
11
-31.603
21
50.838
31
0
0
LINE
8
0
62
1
10
-31.603
20
50.838
30
0
11
-31.603
21
57.14
31
0
0
LINE
8
0
62
1
10
-31.603
20
57.14
30
0
11
-31.6
21
57.155
31
0
0
LINE
8
0
62
1
10
-31.6
20
57.155
30
0
11
-31.592
21
57.167
31
0
0
LINE
8
0
62
1
10
-31.592
20
57.167
30
0
11
-31.58
21
57.175
31
0
0
LINE
8
0
62
1
10
-31.58
20
57.175
30
0
11
-31.565
21
57.178
31
0
0
LINE
8
0
62
1
10
-31.565
20
57.178
30
0
11
-30.065
21
57.178
31
0
0
LINE
8
0
62
1
10
-30.065
20
57.178
30
0
11
-30.05
21
57.175
31
0
0
LINE
8
0
62
1
10
-30.05
20
57.175
30
0
11
-30.038
21
57.167
31
0
0
LINE
8
0
62
1
10
-30.038
20
57.167
30
0
11
-30.03
21
57.155
31
0
0
LINE
8
0
62
1
10
-30.03
20
57.155
30
0
11
-30.027
21
57.14
31
0
0
LINE
8
0
62
1
10
-30.027
20
57.14
30
0
11
-30.027
21
50.838
31
0
0
LINE
8
0
62
1
10
-30.027
20
50.838
30
0
11
-9.378
21
50.838
31
0
0
LINE
8
0
62
1
10
-9.378
20
50.838
30
0
11
-9.378
21
57.14
31
0
0
LINE
8
0
62
1
10
-9.378
20
57.14
30
0
11
-9.375
21
57.155
31
0
0
LINE
8
0
62
1
10
-9.375
20
57.155
30
0
11
-9.367
21
57.167
31
0
0
LINE
8
0
62
1
10
-9.367
20
57.167
30
0
11
-9.355
21
57.175
31
0
0
LINE
8
0
62
1
10
-9.355
20
57.175
30
0
11
-9.34
21
57.178
31
0
0
LINE
8
0
62
1
10
-9.34
20
57.178
30
0
11
-7.84
21
57.178
31
0
0
LINE
8
0
62
1
10
-7.84
20
57.178
30
0
11
-7.825
21
57.175
31
0
0
LINE
8
0
62
1
10
-7.825
20
57.175
30
0
11
-7.813
21
57.167
31
0
0
LINE
8
0
62
1
10
-7.813
20
57.167
30
0
11
-7.805
21
57.155
31
0
0
LINE
8
0
62
1
10
-7.805
20
57.155
30
0
11
-7.802
21
57.14
31
0
0
LINE
8
0
62
1
10
-7.802
20
57.14
30
0
11
-7.802
21
50.838
31
0
0
LINE
8
0
62
1
10
-7.802
20
50.838
30
0
11
12.847
21
50.838
31
0
0
LINE
8
0
62
1
10
12.847
20
50.838
30
0
11
12.847
21
57.14
31
0
0
LINE
8
0
62
1
10
12.847
20
57.14
30
0
11
12.85
21
57.155
31
0
0
LINE
8
0
62
1
10
12.85
20
57.155
30
0
11
12.858
21
57.167
31
0
0
LINE
8
0
62
1
10
12.858
20
57.167
30
0
11
12.87
21
57.175
31
0
0
LINE
8
0
62
1
10
12.87
20
57.175
30
0
11
12.885
21
57.178
31
0
0
LINE
8
0
62
1
10
12.885
20
57.178
30
0
11
14.385
21
57.178
31
0
0
LINE
8
0
62
1
10
14.385
20
57.178
30
0
11
14.4
21
57.175
31
0
0
LINE
8
0
62
1
10
14.4
20
57.175
30
0
11
14.412
21
57.167
31
0
0
LINE
8
0
62
1
10
14.412
20
57.167
30
0
11
14.42
21
57.155
31
0
0
LINE
8
0
62
1
10
14.42
20
57.155
30
0
11
14.423
21
57.14
31
0
0
LINE
8
0
62
1
10
14.423
20
57.14
30
0
11
14.423
21
50.838
31
0
0
LINE
8
0
62
1
10
14.423
20
50.838
30
0
11
35.072
21
50.838
31
0
0
LINE
8
0
62
1
10
35.072
20
50.838
30
0
11
35.072
21
57.14
31
0
0
LINE
8
0
62
1
10
35.072
20
57.14
30
0
11
35.075
21
57.155
31
0
0
LINE
8
0
62
1
10
35.075
20
57.155
30
0
11
35.083
21
57.167
31
0
0
LINE
8
0
62
1
10
35.083
20
57.167
30
0
11
35.095
21
57.175
31
0
0
LINE
8
0
62
1
10
35.095
20
57.175
30
0
11
35.11
21
57.178
31
0
0
LINE
8
0
62
1
10
35.11
20
57.178
30
0
11
36.61
21
57.178
31
0
0
LINE
8
0
62
1
10
36.61
20
57.178
30
0
11
36.625
21
57.175
31
0
0
LINE
8
0
62
1
10
36.625
20
57.175
30
0
11
36.637
21
57.167
31
0
0
LINE
8
0
62
1
10
36.637
20
57.167
30
0
11
36.645
21
57.155
31
0
0
LINE
8
0
62
1
10
36.645
20
57.155
30
0
11
36.648
21
57.14
31
0
0
LINE
8
0
62
1
10
36.648
20
57.14
30
0
11
36.648
21
9.548
31
0
0
LINE
8
0
62
1
10
36.648
20
9.548
30
0
11
46.61
21
9.548
31
0
0
LINE
8
0
62
1
10
46.61
20
9.548
30
0
11
46.625
21
9.545
31
0
0
LINE
8
0
62
1
10
46.625
20
9.545
30
0
11
46.637
21
9.537
31
0
0
LINE
8
0
62
1
10
46.637
20
9.537
30
0
11
46.645
21
9.525
31
0
0
LINE
8
0
62
1
10
46.645
20
9.525
30
0
11
46.648
21
9.51
31
0
0
LINE
8
0
62
1
10
46.648
20
9.51
30
0
11
46.648
21
3.17
31
0
0
LINE
8
0
62
1
10
46.648
20
3.17
30
0
11
46.645
21
3.155
31
0
0
LINE
8
0
62
1
10
46.645
20
3.155
30
0
11
46.637
21
3.143
31
0
0
LINE
8
0
62
1
10
46.637
20
3.143
30
0
11
46.625
21
3.135
31
0
0
LINE
8
0
62
1
10
46.625
20
3.135
30
0
11
46.61
21
3.132
31
0
0
LINE
8
0
62
1
10
46.61
20
3.132
30
0
11
40.61
21
3.132
31
0
0
LINE
8
0
62
1
10
40.61
20
36.178
30
0
11
53.29
21
36.178
31
0
0
LINE
8
0
62
1
10
53.29
20
36.178
30
0
11
53.305
21
36.175
31
0
0
LINE
8
0
62
1
10
53.305
20
36.175
30
0
11
53.317
21
36.167
31
0
0
LINE
8
0
62
1
10
53.317
20
36.167
30
0
11
53.325
21
36.155
31
0
0
LINE
8
0
62
1
10
53.325
20
36.155
30
0
11
53.328
21
36.14
31
0
0
LINE
8
0
62
1
10
53.328
20
36.14
30
0
11
53.328
21
26.14
31
0
0
LINE
8
0
62
1
10
53.328
20
26.14
30
0
11
53.325
21
26.125
31
0
0
LINE
8
0
62
1
10
53.325
20
26.125
30
0
11
53.317
21
26.113
31
0
0
LINE
8
0
62
1
10
53.317
20
26.113
30
0
11
53.305
21
26.105
31
0
0
LINE
8
0
62
1
10
53.305
20
26.105
30
0
11
53.29
21
26.102
31
0
0
LINE
8
0
62
1
10
53.29
20
26.102
30
0
11
40.61
21
26.102
31
0
0
LINE
8
0
62
1
10
40.61
20
26.102
30
0
11
40.595
21
26.105
31
0
0
LINE
8
0
62
1
10
40.595
20
26.105
30
0
11
40.583
21
26.113
31
0
0
LINE
8
0
62
1
10
40.583
20
26.113
30
0
11
40.575
21
26.125
31
0
0
LINE
8
0
62
1
10
40.575
20
26.125
30
0
11
40.572
21
26.14
31
0
0
LINE
8
0
62
1
10
40.572
20
26.14
30
0
11
40.572
21
36.14
31
0
0
LINE
8
0
62
1
10
40.572
20
36.14
30
0
11
40.575
21
36.155
31
0
0
LINE
8
0
62
1
10
40.575
20
36.155
30
0
11
40.583
21
36.167
31
0
0
LINE
8
0
62
1
10
40.583
20
36.167
30
0
11
40.595
21
36.175
31
0
0
LINE
8
0
62
1
10
40.595
20
36.175
30
0
11
40.61
21
36.178
31
0
0
LINE
8
0
62
1
10
40.61
20
40.102
30
0
11
40.595
21
40.105
31
0
0
LINE
8
0
62
1
10
40.595
20
40.105
30
0
11
40.583
21
40.113
31
0
0
LINE
8
0
62
1
10
40.583
20
40.113
30
0
11
40.575
21
40.125
31
0
0
LINE
8
0
62
1
10
40.575
20
40.125
30
0
11
40.572
21
40.14
31
0
0
LINE
8
0
62
1
10
40.572
20
40.14
30
0
11
40.572
21
50.14
31
0
0
LINE
8
0
62
1
10
40.572
20
50.14
30
0
11
40.575
21
50.155
31
0
0
LINE
8
0
62
1
10
40.575
20
50.155
30
0
11
40.583
21
50.167
31
0
0
LINE
8
0
62
1
10
40.583
20
50.167
30
0
11
40.595
21
50.175
31
0
0
LINE
8
0
62
1
10
40.595
20
50.175
30
0
11
40.61
21
50.178
31
0
0
LINE
8
0
62
1
10
40.61
20
50.178
30
0
11
53.29
21
50.178
31
0
0
LINE
8
0
62
1
10
53.29
20
50.178
30
0
11
53.305
21
50.175
31
0
0
LINE
8
0
62
1
10
53.305
20
50.175
30
0
11
53.317
21
50.167
31
0
0
LINE
8
0
62
1
10
53.317
20
50.167
30
0
11
53.325
21
50.155
31
0
0
LINE
8
0
62
1
10
53.325
20
50.155
30
0
11
53.328
21
50.14
31
0
0
LINE
8
0
62
1
10
53.328
20
50.14
30
0
11
53.328
21
40.14
31
0
0
LINE
8
0
62
1
10
53.328
20
40.14
30
0
11
53.325
21
40.125
31
0
0
LINE
8
0
62
1
10
53.325
20
40.125
30
0
11
53.317
21
40.113
31
0
0
LINE
8
0
62
1
10
53.317
20
40.113
30
0
11
53.305
21
40.105
31
0
0
LINE
8
0
62
1
10
53.305
20
40.105
30
0
11
53.29
21
40.102
31
0
0
LINE
8
0
62
1
10
53.29
20
40.102
30
0
11
40.61
21
40.102
31
0
0
LINE
8
0
62
1
10
57.328
20
40.102
30
0
11
57.328
21
-62.14
31
0
0
LINE
8
0
62
1
10
57.328
20
-62.14
30
0
11
57.325
21
-62.155
31
0
0
LINE
8
0
62
1
10
57.325
20
-62.155
30
0
11
57.317
21
-62.167
31
0
0
LINE
8
0
62
1
10
57.317
20
-62.167
30
0
11
57.305
21
-62.175
31
0
0
LINE
8
0
62
1
10
57.305
20
-62.175
30
0
11
57.29
21
-62.178
31
0
0
LINE
8
0
62
1
10
57.29
20
-62.178
30
0
11
-57.29
21
-62.178
31
0
0
LINE
8
0
62
1
10
-57.29
20
-62.178
30
0
11
-57.305
21
-62.175
31
0
0
LINE
8
0
62
1
10
-57.305
20
-62.175
30
0
11
-57.317
21
-62.167
31
0
0
LINE
8
0
62
1
10
-57.317
20
-62.167
30
0
11
-57.325
21
-62.155
31
0
0
LINE
8
0
62
1
10
-57.325
20
-62.155
30
0
11
-57.328
21
-62.14
31
0
0
LINE
8
0
62
1
10
-57.328
20
-62.14
30
0
11
-57.328
21
62.14
31
0
0
LINE
8
0
62
1
10
-57.328
20
62.14
30
0
11
-57.325
21
62.155
31
0
0
LINE
8
0
62
1
10
-57.325
20
62.155
30
0
11
-57.317
21
62.167
31
0
0
LINE
8
0
62
1
10
-57.317
20
62.167
30
0
11
-57.305
21
62.175
31
0
0
LINE
8
0
62
1
10
-57.305
20
62.175
30
0
11
-57.29
21
62.178
31
0
0
LINE
8
0
62
1
10
-57.29
20
62.178
30
0
11
57.29
21
62.178
31
0
0
LINE
8
0
62
1
10
57.29
20
62.178
30
0
11
57.305
21
62.175
31
0
0
LINE
8
0
62
1
10
57.305
20
62.175
30
0
11
57.317
21
62.167
31
0
0
LINE
8
0
62
1
10
57.317
20
62.167
30
0
11
57.325
21
62.155
31
0
0
LINE
8
0
62
1
10
57.325
20
62.155
30
0
11
57.328
21
62.14
31
0
0
LINE
8
0
62
1
10
57.328
20
62.14
30
0
11
57.328
21
40.102
31
0
0
ENDSEC
0
EOF
