999
Generated by Autodesk CAM - http://cam.autodesk.com
999
UNIT = MM
999
THICKNESS = 7.35
0
SECTION
2
HEADER
9
$ACADVER
1
AC1006
9
$ANGBASE
50
0
9
$ANGDIR
70
0
0
ENDSEC
0
SECTION
2
BLOCKS
0
ENDSEC
9
$EXTMIN
10
-44.785
20
-57.178
30
0
9
$EXTMAX
10
0
20
57.554
30
15
0
SECTION
2
ENTITIES
0
LINE
8
0
62
1
10
-44.467
20
57.174
30
0
11
-44.459
21
57.177
31
0
0
LINE
8
0
62
1
10
-44.459
20
57.177
30
0
11
-44.45
21
57.178
31
0
0
LINE
8
0
62
1
10
-44.45
20
57.178
30
0
11
-42.95
21
57.178
31
0
0
LINE
8
0
62
1
10
-42.95
20
57.178
30
0
11
-42.935
21
57.175
31
0
0
LINE
8
0
62
1
10
-42.935
20
57.175
30
0
11
-42.923
21
57.167
31
0
0
LINE
8
0
62
1
10
-42.923
20
57.167
30
0
11
-42.915
21
57.155
31
0
0
LINE
8
0
62
1
10
-42.915
20
57.155
30
0
11
-42.912
21
57.14
31
0
0
LINE
8
0
62
1
10
-42.912
20
57.14
30
0
11
-42.912
21
50.838
31
0
0
LINE
8
0
62
1
10
-42.912
20
50.838
30
0
11
-22.225
21
50.838
31
0
0
LINE
8
0
62
1
10
-22.225
20
50.838
30
0
11
-22.21
21
50.835
31
0
0
LINE
8
0
62
1
10
-22.21
20
50.835
30
0
11
-22.198
21
50.827
31
0
0
LINE
8
0
62
1
10
-22.198
20
50.827
30
0
11
-22.19
21
50.815
31
0
0
LINE
8
0
62
1
10
-22.19
20
50.815
30
0
11
-22.187
21
50.8
31
0
0
LINE
8
0
62
1
10
-22.187
20
50.8
30
0
11
-22.187
21
-50.8
31
0
0
LINE
8
0
62
1
10
-22.187
20
-50.8
30
0
11
-22.19
21
-50.815
31
0
0
LINE
8
0
62
1
10
-22.19
20
-50.815
30
0
11
-22.198
21
-50.827
31
0
0
LINE
8
0
62
1
10
-22.198
20
-50.827
30
0
11
-22.21
21
-50.835
31
0
0
LINE
8
0
62
1
10
-22.21
20
-50.835
30
0
11
-22.225
21
-50.838
31
0
0
LINE
8
0
62
1
10
-22.225
20
-50.838
30
0
11
-42.912
21
-50.838
31
0
0
LINE
8
0
62
1
10
-42.912
20
-50.838
30
0
11
-42.912
21
-57.14
31
0
0
LINE
8
0
62
1
10
-42.912
20
-57.14
30
0
11
-42.915
21
-57.155
31
0
0
LINE
8
0
62
1
10
-42.915
20
-57.155
30
0
11
-42.923
21
-57.167
31
0
0
LINE
8
0
62
1
10
-42.923
20
-57.167
30
0
11
-42.935
21
-57.175
31
0
0
LINE
8
0
62
1
10
-42.935
20
-57.175
30
0
11
-42.95
21
-57.178
31
0
0
LINE
8
0
62
1
10
-42.95
20
-57.178
30
0
11
-44.45
21
-57.178
31
0
0
LINE
8
0
62
1
10
-44.45
20
-57.178
30
0
11
-44.465
21
-57.175
31
0
0
LINE
8
0
62
1
10
-44.465
20
-57.175
30
0
11
-44.477
21
-57.167
31
0
0
LINE
8
0
62
1
10
-44.477
20
-57.167
30
0
11
-44.485
21
-57.155
31
0
0
LINE
8
0
62
1
10
-44.485
20
-57.155
30
0
11
-44.488
21
-57.14
31
0
0
LINE
8
0
62
1
10
-44.488
20
-57.14
30
0
11
-44.488
21
57.14
31
0
0
LINE
8
0
62
1
10
-44.488
20
57.14
30
0
11
-44.486
21
57.154
31
0
0
LINE
8
0
62
1
10
-44.486
20
57.154
30
0
11
-44.478
21
57.166
31
0
0
LINE
8
0
62
1
10
-44.478
20
57.166
30
0
11
-44.467
21
57.174
31
0
0
LINE
8
0
62
5
10
-26.448
20
26.378
30
0
11
-40.228
21
26.378
31
0
0
LINE
8
0
62
5
10
-40.228
20
26.378
30
0
11
-40.242
21
26.381
31
0
0
LINE
8
0
62
5
10
-40.242
20
26.381
30
0
11
-40.254
21
26.389
31
0
0
LINE
8
0
62
5
10
-40.254
20
26.389
30
0
11
-40.263
21
26.401
31
0
0
LINE
8
0
62
5
10
-40.263
20
26.401
30
0
11
-40.266
21
26.416
31
0
0
LINE
8
0
62
5
10
-40.266
20
26.416
30
0
11
-40.266
21
46.736
31
0
0
LINE
8
0
62
5
10
-40.266
20
46.736
30
0
11
-40.263
21
46.751
31
0
0
LINE
8
0
62
5
10
-40.263
20
46.751
30
0
11
-40.254
21
46.763
31
0
0
LINE
8
0
62
5
10
-40.254
20
46.763
30
0
11
-40.242
21
46.771
31
0
0
LINE
8
0
62
5
10
-40.242
20
46.771
30
0
11
-40.228
21
46.774
31
0
0
LINE
8
0
62
5
10
-40.228
20
46.774
30
0
11
-26.448
21
46.774
31
0
0
LINE
8
0
62
5
10
-26.448
20
46.774
30
0
11
-26.433
21
46.771
31
0
0
LINE
8
0
62
5
10
-26.433
20
46.771
30
0
11
-26.421
21
46.763
31
0
0
LINE
8
0
62
5
10
-26.421
20
46.763
30
0
11
-26.412
21
46.751
31
0
0
LINE
8
0
62
5
10
-26.412
20
46.751
30
0
11
-26.409
21
46.736
31
0
0
LINE
8
0
62
5
10
-26.409
20
46.736
30
0
11
-26.409
21
26.416
31
0
0
LINE
8
0
62
5
10
-26.409
20
26.416
30
0
11
-26.412
21
26.401
31
0
0
LINE
8
0
62
5
10
-26.412
20
26.401
30
0
11
-26.421
21
26.389
31
0
0
LINE
8
0
62
5
10
-26.421
20
26.389
30
0
11
-26.433
21
26.381
31
0
0
LINE
8
0
62
5
10
-26.433
20
26.381
30
0
11
-26.448
21
26.378
31
0
0
LINE
8
0
62
5
10
-26.448
20
1.994
30
0
11
-40.228
21
1.994
31
0
0
LINE
8
0
62
5
10
-40.228
20
1.994
30
0
11
-40.242
21
1.997
31
0
0
LINE
8
0
62
5
10
-40.242
20
1.997
30
0
11
-40.254
21
2.005
31
0
0
LINE
8
0
62
5
10
-40.254
20
2.005
30
0
11
-40.263
21
2.017
31
0
0
LINE
8
0
62
5
10
-40.263
20
2.017
30
0
11
-40.266
21
2.032
31
0
0
LINE
8
0
62
5
10
-40.266
20
2.032
30
0
11
-40.266
21
22.352
31
0
0
LINE
8
0
62
5
10
-40.266
20
22.352
30
0
11
-40.263
21
22.367
31
0
0
LINE
8
0
62
5
10
-40.263
20
22.367
30
0
11
-40.254
21
22.379
31
0
0
LINE
8
0
62
5
10
-40.254
20
22.379
30
0
11
-40.242
21
22.387
31
0
0
LINE
8
0
62
5
10
-40.242
20
22.387
30
0
11
-40.228
21
22.39
31
0
0
LINE
8
0
62
5
10
-40.228
20
22.39
30
0
11
-26.448
21
22.39
31
0
0
LINE
8
0
62
5
10
-26.448
20
22.39
30
0
11
-26.433
21
22.387
31
0
0
LINE
8
0
62
5
10
-26.433
20
22.387
30
0
11
-26.421
21
22.379
31
0
0
LINE
8
0
62
5
10
-26.421
20
22.379
30
0
11
-26.412
21
22.367
31
0
0
LINE
8
0
62
5
10
-26.412
20
22.367
30
0
11
-26.409
21
22.352
31
0
0
LINE
8
0
62
5
10
-26.409
20
22.352
30
0
11
-26.409
21
2.032
31
0
0
LINE
8
0
62
5
10
-26.409
20
2.032
30
0
11
-26.412
21
2.017
31
0
0
LINE
8
0
62
5
10
-26.412
20
2.017
30
0
11
-26.421
21
2.005
31
0
0
LINE
8
0
62
5
10
-26.421
20
2.005
30
0
11
-26.433
21
1.997
31
0
0
LINE
8
0
62
5
10
-26.433
20
1.997
30
0
11
-26.448
21
1.994
31
0
0
LINE
8
0
62
5
10
-26.448
20
-22.39
30
0
11
-40.228
21
-22.39
31
0
0
LINE
8
0
62
5
10
-40.228
20
-22.39
30
0
11
-40.242
21
-22.387
31
0
0
LINE
8
0
62
5
10
-40.242
20
-22.387
30
0
11
-40.254
21
-22.379
31
0
0
LINE
8
0
62
5
10
-40.254
20
-22.379
30
0
11
-40.263
21
-22.367
31
0
0
LINE
8
0
62
5
10
-40.263
20
-22.367
30
0
11
-40.266
21
-22.352
31
0
0
LINE
8
0
62
5
10
-40.266
20
-22.352
30
0
11
-40.266
21
-2.032
31
0
0
LINE
8
0
62
5
10
-40.266
20
-2.032
30
0
11
-40.263
21
-2.017
31
0
0
LINE
8
0
62
5
10
-40.263
20
-2.017
30
0
11
-40.254
21
-2.005
31
0
0
LINE
8
0
62
5
10
-40.254
20
-2.005
30
0
11
-40.242
21
-1.997
31
0
0
LINE
8
0
62
5
10
-40.242
20
-1.997
30
0
11
-40.228
21
-1.994
31
0
0
LINE
8
0
62
5
10
-40.228
20
-1.994
30
0
11
-26.448
21
-1.994
31
0
0
LINE
8
0
62
5
10
-26.448
20
-1.994
30
0
11
-26.433
21
-1.997
31
0
0
LINE
8
0
62
5
10
-26.433
20
-1.997
30
0
11
-26.421
21
-2.005
31
0
0
LINE
8
0
62
5
10
-26.421
20
-2.005
30
0
11
-26.412
21
-2.017
31
0
0
LINE
8
0
62
5
10
-26.412
20
-2.017
30
0
11
-26.409
21
-2.032
31
0
0
LINE
8
0
62
5
10
-26.409
20
-2.032
30
0
11
-26.409
21
-22.352
31
0
0
LINE
8
0
62
5
10
-26.409
20
-22.352
30
0
11
-26.412
21
-22.367
31
0
0
LINE
8
0
62
5
10
-26.412
20
-22.367
30
0
11
-26.421
21
-22.379
31
0
0
LINE
8
0
62
5
10
-26.421
20
-22.379
30
0
11
-26.433
21
-22.387
31
0
0
LINE
8
0
62
5
10
-26.433
20
-22.387
30
0
11
-26.448
21
-22.39
31
0
0
LINE
8
0
62
5
10
-26.448
20
-26.378
30
0
11
-26.433
21
-26.381
31
0
0
LINE
8
0
62
5
10
-26.433
20
-26.381
30
0
11
-26.421
21
-26.389
31
0
0
LINE
8
0
62
5
10
-26.421
20
-26.389
30
0
11
-26.412
21
-26.401
31
0
0
LINE
8
0
62
5
10
-26.412
20
-26.401
30
0
11
-26.409
21
-26.416
31
0
0
LINE
8
0
62
5
10
-26.409
20
-26.416
30
0
11
-26.409
21
-46.736
31
0
0
LINE
8
0
62
5
10
-26.409
20
-46.736
30
0
11
-26.412
21
-46.751
31
0
0
LINE
8
0
62
5
10
-26.412
20
-46.751
30
0
11
-26.421
21
-46.763
31
0
0
LINE
8
0
62
5
10
-26.421
20
-46.763
30
0
11
-26.433
21
-46.771
31
0
0
LINE
8
0
62
5
10
-26.433
20
-46.771
30
0
11
-26.448
21
-46.774
31
0
0
LINE
8
0
62
5
10
-26.448
20
-46.774
30
0
11
-40.228
21
-46.774
31
0
0
LINE
8
0
62
5
10
-40.228
20
-46.774
30
0
11
-40.242
21
-46.771
31
0
0
LINE
8
0
62
5
10
-40.242
20
-46.771
30
0
11
-40.254
21
-46.763
31
0
0
LINE
8
0
62
5
10
-40.254
20
-46.763
30
0
11
-40.263
21
-46.751
31
0
0
LINE
8
0
62
5
10
-40.263
20
-46.751
30
0
11
-40.266
21
-46.736
31
0
0
LINE
8
0
62
5
10
-40.266
20
-46.736
30
0
11
-40.266
21
-26.416
31
0
0
LINE
8
0
62
5
10
-40.266
20
-26.416
30
0
11
-40.263
21
-26.401
31
0
0
LINE
8
0
62
5
10
-40.263
20
-26.401
30
0
11
-40.254
21
-26.389
31
0
0
LINE
8
0
62
5
10
-40.254
20
-26.389
30
0
11
-40.242
21
-26.381
31
0
0
LINE
8
0
62
5
10
-40.242
20
-26.381
30
0
11
-40.228
21
-26.378
31
0
0
LINE
8
0
62
5
10
-40.228
20
-26.378
30
0
11
-26.448
21
-26.378
31
0
0
ENDSEC
0
EOF
