999
Generated by Autodesk CAM - http://cam.autodesk.com
999
UNIT = MM
999
THICKNESS = 7.34
0
SECTION
2
HEADER
9
$ACADVER
1
AC1006
9
$ANGBASE
50
0
9
$ANGDIR
70
0
0
ENDSEC
0
SECTION
2
BLOCKS
0
ENDSEC
9
$EXTMIN
10
-5.538
20
-12.208
30
0
9
$EXTMAX
10
5.538
20
12.538
30
15
0
SECTION
2
ENTITIES
0
LINE
8
0
62
1
10
0
20
10.708
30
0
11
0.153
21
10.704
31
0
0
LINE
8
0
62
1
10
0.153
20
10.704
30
0
11
0.305
21
10.693
31
0
0
LINE
8
0
62
1
10
0.305
20
10.693
30
0
11
0.456
21
10.674
31
0
0
LINE
8
0
62
1
10
0.456
20
10.674
30
0
11
0.607
21
10.647
31
0
0
LINE
8
0
62
1
10
0.607
20
10.647
30
0
11
0.756
21
10.613
31
0
0
LINE
8
0
62
1
10
0.756
20
10.613
30
0
11
0.902
21
10.571
31
0
0
LINE
8
0
62
1
10
0.902
20
10.571
30
0
11
1.047
21
10.522
31
0
0
LINE
8
0
62
1
10
1.047
20
10.522
30
0
11
1.189
21
10.466
31
0
0
LINE
8
0
62
1
10
1.189
20
10.466
30
0
11
1.328
21
10.402
31
0
0
LINE
8
0
62
1
10
1.328
20
10.402
30
0
11
1.464
21
10.332
31
0
0
LINE
8
0
62
1
10
1.464
20
10.332
30
0
11
1.596
21
10.255
31
0
0
LINE
8
0
62
1
10
1.596
20
10.255
30
0
11
1.723
21
10.172
31
0
0
LINE
8
0
62
1
10
1.723
20
10.172
30
0
11
1.847
21
10.082
31
0
0
LINE
8
0
62
1
10
1.847
20
10.082
30
0
11
1.966
21
9.986
31
0
0
LINE
8
0
62
1
10
1.966
20
9.986
30
0
11
2.08
21
9.885
31
0
0
LINE
8
0
62
1
10
2.08
20
9.885
30
0
11
2.188
21
9.777
31
0
0
LINE
8
0
62
1
10
2.188
20
9.777
30
0
11
2.292
21
9.665
31
0
0
LINE
8
0
62
1
10
2.292
20
9.665
30
0
11
2.389
21
9.547
31
0
0
LINE
8
0
62
1
10
2.389
20
9.547
30
0
11
2.48
21
9.425
31
0
0
LINE
8
0
62
1
10
2.48
20
9.425
30
0
11
2.565
21
9.298
31
0
0
LINE
8
0
62
1
10
2.565
20
9.298
30
0
11
2.644
21
9.167
31
0
0
LINE
8
0
62
1
10
2.644
20
9.167
30
0
11
2.716
21
9.032
31
0
0
LINE
8
0
62
1
10
2.716
20
9.032
30
0
11
2.781
21
8.894
31
0
0
LINE
8
0
62
1
10
2.781
20
8.894
30
0
11
2.839
21
8.753
31
0
0
LINE
8
0
62
1
10
2.839
20
8.753
30
0
11
2.889
21
8.609
31
0
0
LINE
8
0
62
1
10
2.889
20
8.609
30
0
11
2.933
21
8.462
31
0
0
LINE
8
0
62
1
10
2.933
20
8.462
30
0
11
2.969
21
8.314
31
0
0
LINE
8
0
62
1
10
2.969
20
8.314
30
0
11
2.998
21
8.164
31
0
0
LINE
8
0
62
1
10
2.998
20
8.164
30
0
11
3.019
21
8.013
31
0
0
LINE
8
0
62
1
10
3.019
20
8.013
30
0
11
3.032
21
7.861
31
0
0
LINE
8
0
62
1
10
3.032
20
7.861
30
0
11
3.038
21
7.708
31
0
0
LINE
8
0
62
1
10
3.038
20
7.708
30
0
11
3.5
21
7.708
31
0
0
LINE
8
0
62
1
10
3.5
20
7.708
30
0
11
3.515
21
7.705
31
0
0
LINE
8
0
62
1
10
3.515
20
7.705
30
0
11
3.527
21
7.697
31
0
0
LINE
8
0
62
1
10
3.527
20
7.697
30
0
11
3.535
21
7.685
31
0
0
LINE
8
0
62
1
10
3.535
20
7.685
30
0
11
3.538
21
7.67
31
0
0
LINE
8
0
62
1
10
3.538
20
7.67
30
0
11
3.538
21
4.67
31
0
0
LINE
8
0
62
1
10
3.538
20
4.67
30
0
11
3.535
21
4.655
31
0
0
LINE
8
0
62
1
10
3.535
20
4.655
30
0
11
3.527
21
4.643
31
0
0
LINE
8
0
62
1
10
3.527
20
4.643
30
0
11
3.515
21
4.635
31
0
0
LINE
8
0
62
1
10
3.515
20
4.635
30
0
11
3.5
21
4.632
31
0
0
LINE
8
0
62
1
10
3.5
20
4.632
30
0
11
-3.5
21
4.632
31
0
0
LINE
8
0
62
1
10
-3.5
20
4.632
30
0
11
-3.515
21
4.635
31
0
0
LINE
8
0
62
1
10
-3.515
20
4.635
30
0
11
-3.527
21
4.643
31
0
0
LINE
8
0
62
1
10
-3.527
20
4.643
30
0
11
-3.535
21
4.655
31
0
0
LINE
8
0
62
1
10
-3.535
20
4.655
30
0
11
-3.538
21
4.67
31
0
0
LINE
8
0
62
1
10
-3.538
20
4.67
30
0
11
-3.538
21
7.67
31
0
0
LINE
8
0
62
1
10
-3.538
20
7.67
30
0
11
-3.535
21
7.685
31
0
0
LINE
8
0
62
1
10
-3.535
20
7.685
30
0
11
-3.527
21
7.697
31
0
0
LINE
8
0
62
1
10
-3.527
20
7.697
30
0
11
-3.515
21
7.705
31
0
0
LINE
8
0
62
1
10
-3.515
20
7.705
30
0
11
-3.5
21
7.708
31
0
0
LINE
8
0
62
1
10
-3.5
20
7.708
30
0
11
-3.038
21
7.708
31
0
0
LINE
8
0
62
1
10
-3.038
20
7.708
30
0
11
-3.032
21
7.861
31
0
0
LINE
8
0
62
1
10
-3.032
20
7.861
30
0
11
-3.019
21
8.013
31
0
0
LINE
8
0
62
1
10
-3.019
20
8.013
30
0
11
-2.998
21
8.164
31
0
0
LINE
8
0
62
1
10
-2.998
20
8.164
30
0
11
-2.969
21
8.314
31
0
0
LINE
8
0
62
1
10
-2.969
20
8.314
30
0
11
-2.933
21
8.462
31
0
0
LINE
8
0
62
1
10
-2.933
20
8.462
30
0
11
-2.889
21
8.609
31
0
0
LINE
8
0
62
1
10
-2.889
20
8.609
30
0
11
-2.839
21
8.753
31
0
0
LINE
8
0
62
1
10
-2.839
20
8.753
30
0
11
-2.781
21
8.894
31
0
0
LINE
8
0
62
1
10
-2.781
20
8.894
30
0
11
-2.716
21
9.032
31
0
0
LINE
8
0
62
1
10
-2.716
20
9.032
30
0
11
-2.644
21
9.167
31
0
0
LINE
8
0
62
1
10
-2.644
20
9.167
30
0
11
-2.565
21
9.298
31
0
0
LINE
8
0
62
1
10
-2.565
20
9.298
30
0
11
-2.48
21
9.425
31
0
0
LINE
8
0
62
1
10
-2.48
20
9.425
30
0
11
-2.389
21
9.547
31
0
0
LINE
8
0
62
1
10
-2.389
20
9.547
30
0
11
-2.292
21
9.665
31
0
0
LINE
8
0
62
1
10
-2.292
20
9.665
30
0
11
-2.188
21
9.777
31
0
0
LINE
8
0
62
1
10
-2.188
20
9.777
30
0
11
-2.08
21
9.885
31
0
0
LINE
8
0
62
1
10
-2.08
20
9.885
30
0
11
-1.966
21
9.986
31
0
0
LINE
8
0
62
1
10
-1.966
20
9.986
30
0
11
-1.847
21
10.082
31
0
0
LINE
8
0
62
1
10
-1.847
20
10.082
30
0
11
-1.723
21
10.172
31
0
0
LINE
8
0
62
1
10
-1.723
20
10.172
30
0
11
-1.596
21
10.255
31
0
0
LINE
8
0
62
1
10
-1.596
20
10.255
30
0
11
-1.464
21
10.332
31
0
0
LINE
8
0
62
1
10
-1.464
20
10.332
30
0
11
-1.328
21
10.402
31
0
0
LINE
8
0
62
1
10
-1.328
20
10.402
30
0
11
-1.189
21
10.466
31
0
0
LINE
8
0
62
1
10
-1.189
20
10.466
30
0
11
-1.047
21
10.522
31
0
0
LINE
8
0
62
1
10
-1.047
20
10.522
30
0
11
-0.902
21
10.571
31
0
0
LINE
8
0
62
1
10
-0.902
20
10.571
30
0
11
-0.756
21
10.613
31
0
0
LINE
8
0
62
1
10
-0.756
20
10.613
30
0
11
-0.607
21
10.647
31
0
0
LINE
8
0
62
1
10
-0.607
20
10.647
30
0
11
-0.456
21
10.674
31
0
0
LINE
8
0
62
1
10
-0.456
20
10.674
30
0
11
-0.305
21
10.693
31
0
0
LINE
8
0
62
1
10
-0.305
20
10.693
30
0
11
-0.153
21
10.704
31
0
0
LINE
8
0
62
1
10
-0.153
20
10.704
30
0
11
0
21
10.708
31
0
0
LINE
8
0
62
1
10
0
20
12.208
30
0
11
2.5
21
12.208
31
0
0
LINE
8
0
62
1
10
2.5
20
12.208
30
0
11
2.654
21
12.204
31
0
0
LINE
8
0
62
1
10
2.654
20
12.204
30
0
11
2.807
21
12.193
31
0
0
LINE
8
0
62
1
10
2.807
20
12.193
30
0
11
2.96
21
12.173
31
0
0
LINE
8
0
62
1
10
2.96
20
12.173
30
0
11
3.112
21
12.146
31
0
0
LINE
8
0
62
1
10
3.112
20
12.146
30
0
11
3.262
21
12.111
31
0
0
LINE
8
0
62
1
10
3.262
20
12.111
30
0
11
3.409
21
12.069
31
0
0
LINE
8
0
62
1
10
3.409
20
12.069
30
0
11
3.555
21
12.019
31
0
0
LINE
8
0
62
1
10
3.555
20
12.019
30
0
11
3.698
21
11.962
31
0
0
LINE
8
0
62
1
10
3.698
20
11.962
30
0
11
3.838
21
11.898
31
0
0
LINE
8
0
62
1
10
3.838
20
11.898
30
0
11
3.974
21
11.826
31
0
0
LINE
8
0
62
1
10
3.974
20
11.826
30
0
11
4.107
21
11.748
31
0
0
LINE
8
0
62
1
10
4.107
20
11.748
30
0
11
4.236
21
11.664
31
0
0
LINE
8
0
62
1
10
4.236
20
11.664
30
0
11
4.36
21
11.572
31
0
0
LINE
8
0
62
1
10
4.36
20
11.572
30
0
11
4.479
21
11.475
31
0
0
LINE
8
0
62
1
10
4.479
20
11.475
30
0
11
4.593
21
11.372
31
0
0
LINE
8
0
62
1
10
4.593
20
11.372
30
0
11
4.702
21
11.263
31
0
0
LINE
8
0
62
1
10
4.702
20
11.263
30
0
11
4.805
21
11.149
31
0
0
LINE
8
0
62
1
10
4.805
20
11.149
30
0
11
4.902
21
11.03
31
0
0
LINE
8
0
62
1
10
4.902
20
11.03
30
0
11
4.994
21
10.906
31
0
0
LINE
8
0
62
1
10
4.994
20
10.906
30
0
11
5.078
21
10.777
31
0
0
LINE
8
0
62
1
10
5.078
20
10.777
30
0
11
5.156
21
10.644
31
0
0
LINE
8
0
62
1
10
5.156
20
10.644
30
0
11
5.228
21
10.508
31
0
0
LINE
8
0
62
1
10
5.228
20
10.508
30
0
11
5.292
21
10.368
31
0
0
LINE
8
0
62
1
10
5.292
20
10.368
30
0
11
5.349
21
10.225
31
0
0
LINE
8
0
62
1
10
5.349
20
10.225
30
0
11
5.399
21
10.079
31
0
0
LINE
8
0
62
1
10
5.399
20
10.079
30
0
11
5.441
21
9.932
31
0
0
LINE
8
0
62
1
10
5.441
20
9.932
30
0
11
5.476
21
9.782
31
0
0
LINE
8
0
62
1
10
5.476
20
9.782
30
0
11
5.503
21
9.63
31
0
0
LINE
8
0
62
1
10
5.503
20
9.63
30
0
11
5.523
21
9.477
31
0
0
LINE
8
0
62
1
10
5.523
20
9.477
30
0
11
5.534
21
9.324
31
0
0
LINE
8
0
62
1
10
5.534
20
9.324
30
0
11
5.538
21
9.17
31
0
0
LINE
8
0
62
1
10
5.538
20
9.17
30
0
11
5.538
21
-12.17
31
0
0
LINE
8
0
62
1
10
5.538
20
-12.17
30
0
11
5.535
21
-12.185
31
0
0
LINE
8
0
62
1
10
5.535
20
-12.185
30
0
11
5.527
21
-12.197
31
0
0
LINE
8
0
62
1
10
5.527
20
-12.197
30
0
11
5.515
21
-12.205
31
0
0
LINE
8
0
62
1
10
5.515
20
-12.205
30
0
11
5.5
21
-12.208
31
0
0
LINE
8
0
62
1
10
5.5
20
-12.208
30
0
11
2.483
21
-12.208
31
0
0
LINE
8
0
62
1
10
2.483
20
-12.208
30
0
11
2.469
21
-12.205
31
0
0
LINE
8
0
62
1
10
2.469
20
-12.205
30
0
11
2.456
21
-12.197
31
0
0
LINE
8
0
62
1
10
2.456
20
-12.197
30
0
11
2.448
21
-12.185
31
0
0
LINE
8
0
62
1
10
2.448
20
-12.185
30
0
11
2.445
21
-12.17
31
0
0
LINE
8
0
62
1
10
2.445
20
-12.17
30
0
11
2.445
21
-5.868
31
0
0
LINE
8
0
62
1
10
2.445
20
-5.868
30
0
11
-5.5
21
-5.868
31
0
0
LINE
8
0
62
1
10
-5.5
20
-5.868
30
0
11
-5.515
21
-5.865
31
0
0
LINE
8
0
62
1
10
-5.515
20
-5.865
30
0
11
-5.527
21
-5.857
31
0
0
LINE
8
0
62
1
10
-5.527
20
-5.857
30
0
11
-5.535
21
-5.845
31
0
0
LINE
8
0
62
1
10
-5.535
20
-5.845
30
0
11
-5.538
21
-5.83
31
0
0
LINE
8
0
62
1
10
-5.538
20
-5.83
30
0
11
-5.538
21
12.17
31
0
0
LINE
8
0
62
1
10
-5.538
20
12.17
30
0
11
-5.535
21
12.185
31
0
0
LINE
8
0
62
1
10
-5.535
20
12.185
30
0
11
-5.527
21
12.197
31
0
0
LINE
8
0
62
1
10
-5.527
20
12.197
30
0
11
-5.515
21
12.205
31
0
0
LINE
8
0
62
1
10
-5.515
20
12.205
30
0
11
-5.5
21
12.208
31
0
0
LINE
8
0
62
1
10
-5.5
20
12.208
30
0
11
0
21
12.208
31
0
0
ENDSEC
0
EOF
