999
Generated by Autodesk CAM - http://cam.autodesk.com
999
UNIT = MM
999
THICKNESS = 7.34
0
SECTION
2
HEADER
9
$ACADVER
1
AC1006
9
$ANGBASE
50
0
9
$ANGDIR
70
0
0
ENDSEC
0
SECTION
2
BLOCKS
0
ENDSEC
9
$EXTMIN
10
-106.705
20
-78.488
30
0
9
$EXTMAX
10
106.705
20
78.488
30
15
0
SECTION
2
ENTITIES
0
LINE
8
0
62
1
10
50.606
20
-9.785
30
0
11
50.603
21
-9.8
31
0
0
LINE
8
0
62
1
10
50.603
20
-9.8
30
0
11
50.595
21
-9.812
31
0
0
LINE
8
0
62
1
10
50.595
20
-9.812
30
0
11
50.582
21
-9.82
31
0
0
LINE
8
0
62
1
10
50.582
20
-9.82
30
0
11
50.568
21
-9.823
31
0
0
LINE
8
0
62
1
10
50.568
20
-9.823
30
0
11
40.992
21
-9.823
31
0
0
LINE
8
0
62
1
10
40.992
20
-9.823
30
0
11
40.977
21
-9.82
31
0
0
LINE
8
0
62
1
10
40.977
20
-9.82
30
0
11
40.965
21
-9.812
31
0
0
LINE
8
0
62
1
10
40.965
20
-9.812
30
0
11
40.957
21
-9.8
31
0
0
LINE
8
0
62
1
10
40.957
20
-9.8
30
0
11
40.954
21
-9.785
31
0
0
LINE
8
0
62
1
10
40.954
20
-9.785
30
0
11
40.954
21
7.265
31
0
0
LINE
8
0
62
1
10
40.954
20
7.265
30
0
11
40.957
21
7.28
31
0
0
LINE
8
0
62
1
10
40.957
20
7.28
30
0
11
40.965
21
7.292
31
0
0
LINE
8
0
62
1
10
40.965
20
7.292
30
0
11
40.977
21
7.3
31
0
0
LINE
8
0
62
1
10
40.977
20
7.3
30
0
11
40.992
21
7.303
31
0
0
LINE
8
0
62
1
10
40.992
20
7.303
30
0
11
50.568
21
7.303
31
0
0
LINE
8
0
62
1
10
50.568
20
7.303
30
0
11
50.582
21
7.3
31
0
0
LINE
8
0
62
1
10
50.582
20
7.3
30
0
11
50.595
21
7.292
31
0
0
LINE
8
0
62
1
10
50.595
20
7.292
30
0
11
50.603
21
7.28
31
0
0
LINE
8
0
62
1
10
50.603
20
7.28
30
0
11
50.606
21
7.265
31
0
0
LINE
8
0
62
1
10
50.606
20
7.265
30
0
11
50.606
21
-9.785
31
0
0
LINE
8
0
62
1
10
52.53
20
-9.785
30
0
11
52.53
21
7.265
31
0
0
LINE
8
0
62
1
10
52.53
20
7.265
30
0
11
52.533
21
7.28
31
0
0
LINE
8
0
62
1
10
52.533
20
7.28
30
0
11
52.541
21
7.292
31
0
0
LINE
8
0
62
1
10
52.541
20
7.292
30
0
11
52.553
21
7.3
31
0
0
LINE
8
0
62
1
10
52.553
20
7.3
30
0
11
52.568
21
7.303
31
0
0
LINE
8
0
62
1
10
52.568
20
7.303
30
0
11
62.144
21
7.303
31
0
0
LINE
8
0
62
1
10
62.144
20
7.303
30
0
11
62.159
21
7.3
31
0
0
LINE
8
0
62
1
10
62.159
20
7.3
30
0
11
62.171
21
7.292
31
0
0
LINE
8
0
62
1
10
62.171
20
7.292
30
0
11
62.179
21
7.28
31
0
0
LINE
8
0
62
1
10
62.179
20
7.28
30
0
11
62.182
21
7.265
31
0
0
LINE
8
0
62
1
10
62.182
20
7.265
30
0
11
62.182
21
-9.785
31
0
0
LINE
8
0
62
1
10
62.182
20
-9.785
30
0
11
62.179
21
-9.8
31
0
0
LINE
8
0
62
1
10
62.179
20
-9.8
30
0
11
62.171
21
-9.812
31
0
0
LINE
8
0
62
1
10
62.171
20
-9.812
30
0
11
62.159
21
-9.82
31
0
0
LINE
8
0
62
1
10
62.159
20
-9.82
30
0
11
62.144
21
-9.823
31
0
0
LINE
8
0
62
1
10
62.144
20
-9.823
30
0
11
52.568
21
-9.823
31
0
0
LINE
8
0
62
1
10
52.568
20
-9.823
30
0
11
52.553
21
-9.82
31
0
0
LINE
8
0
62
1
10
52.553
20
-9.82
30
0
11
52.541
21
-9.812
31
0
0
LINE
8
0
62
1
10
52.541
20
-9.812
30
0
11
52.533
21
-9.8
31
0
0
LINE
8
0
62
1
10
52.533
20
-9.8
30
0
11
52.53
21
-9.785
31
0
0
LINE
8
0
62
1
10
52.53
20
-11.785
30
0
11
52.533
21
-11.77
31
0
0
LINE
8
0
62
1
10
52.533
20
-11.77
30
0
11
52.541
21
-11.758
31
0
0
LINE
8
0
62
1
10
52.541
20
-11.758
30
0
11
52.553
21
-11.75
31
0
0
LINE
8
0
62
1
10
52.553
20
-11.75
30
0
11
52.568
21
-11.747
31
0
0
LINE
8
0
62
1
10
52.568
20
-11.747
30
0
11
62.144
21
-11.747
31
0
0
LINE
8
0
62
1
10
62.144
20
-11.747
30
0
11
62.159
21
-11.75
31
0
0
LINE
8
0
62
1
10
62.159
20
-11.75
30
0
11
62.171
21
-11.758
31
0
0
LINE
8
0
62
1
10
62.171
20
-11.758
30
0
11
62.179
21
-11.77
31
0
0
LINE
8
0
62
1
10
62.179
20
-11.77
30
0
11
62.182
21
-11.785
31
0
0
LINE
8
0
62
1
10
62.182
20
-11.785
30
0
11
62.182
21
-28.835
31
0
0
LINE
8
0
62
1
10
62.182
20
-28.835
30
0
11
62.179
21
-28.85
31
0
0
LINE
8
0
62
1
10
62.179
20
-28.85
30
0
11
62.171
21
-28.862
31
0
0
LINE
8
0
62
1
10
62.171
20
-28.862
30
0
11
62.159
21
-28.87
31
0
0
LINE
8
0
62
1
10
62.159
20
-28.87
30
0
11
62.144
21
-28.873
31
0
0
LINE
8
0
62
1
10
62.144
20
-28.873
30
0
11
52.568
21
-28.873
31
0
0
LINE
8
0
62
1
10
52.568
20
-28.873
30
0
11
52.553
21
-28.87
31
0
0
LINE
8
0
62
1
10
52.553
20
-28.87
30
0
11
52.541
21
-28.862
31
0
0
LINE
8
0
62
1
10
52.541
20
-28.862
30
0
11
52.533
21
-28.85
31
0
0
LINE
8
0
62
1
10
52.533
20
-28.85
30
0
11
52.53
21
-28.835
31
0
0
LINE
8
0
62
1
10
52.53
20
-28.835
30
0
11
52.53
21
-11.785
31
0
0
LINE
8
0
62
1
10
50.606
20
-11.785
30
0
11
50.606
21
-28.835
31
0
0
LINE
8
0
62
1
10
50.606
20
-28.835
30
0
11
50.603
21
-28.85
31
0
0
LINE
8
0
62
1
10
50.603
20
-28.85
30
0
11
50.595
21
-28.862
31
0
0
LINE
8
0
62
1
10
50.595
20
-28.862
30
0
11
50.582
21
-28.87
31
0
0
LINE
8
0
62
1
10
50.582
20
-28.87
30
0
11
50.568
21
-28.873
31
0
0
LINE
8
0
62
1
10
50.568
20
-28.873
30
0
11
40.992
21
-28.873
31
0
0
LINE
8
0
62
1
10
40.992
20
-28.873
30
0
11
40.977
21
-28.87
31
0
0
LINE
8
0
62
1
10
40.977
20
-28.87
30
0
11
40.965
21
-28.862
31
0
0
LINE
8
0
62
1
10
40.965
20
-28.862
30
0
11
40.957
21
-28.85
31
0
0
LINE
8
0
62
1
10
40.957
20
-28.85
30
0
11
40.954
21
-28.835
31
0
0
LINE
8
0
62
1
10
40.954
20
-28.835
30
0
11
40.954
21
-11.785
31
0
0
LINE
8
0
62
1
10
40.954
20
-11.785
30
0
11
40.957
21
-11.77
31
0
0
LINE
8
0
62
1
10
40.957
20
-11.77
30
0
11
40.965
21
-11.758
31
0
0
LINE
8
0
62
1
10
40.965
20
-11.758
30
0
11
40.977
21
-11.75
31
0
0
LINE
8
0
62
1
10
40.977
20
-11.75
30
0
11
40.992
21
-11.747
31
0
0
LINE
8
0
62
1
10
40.992
20
-11.747
30
0
11
50.568
21
-11.747
31
0
0
LINE
8
0
62
1
10
50.568
20
-11.747
30
0
11
50.582
21
-11.75
31
0
0
LINE
8
0
62
1
10
50.582
20
-11.75
30
0
11
50.595
21
-11.758
31
0
0
LINE
8
0
62
1
10
50.595
20
-11.758
30
0
11
50.603
21
-11.77
31
0
0
LINE
8
0
62
1
10
50.603
20
-11.77
30
0
11
50.606
21
-11.785
31
0
0
LINE
8
0
62
1
10
100.67
20
-7.462
30
0
11
106.667
21
-7.462
31
0
0
LINE
8
0
62
1
10
106.667
20
-7.462
30
0
11
106.682
21
-7.465
31
0
0
LINE
8
0
62
1
10
106.682
20
-7.465
30
0
11
106.694
21
-7.473
31
0
0
LINE
8
0
62
1
10
106.694
20
-7.473
30
0
11
106.702
21
-7.485
31
0
0
LINE
8
0
62
1
10
106.702
20
-7.485
30
0
11
106.705
21
-7.5
31
0
0
LINE
8
0
62
1
10
106.705
20
-7.5
30
0
11
106.705
21
-22.5
31
0
0
LINE
8
0
62
1
10
106.705
20
-22.5
30
0
11
106.702
21
-22.515
31
0
0
LINE
8
0
62
1
10
106.702
20
-22.515
30
0
11
106.694
21
-22.527
31
0
0
LINE
8
0
62
1
10
106.694
20
-22.527
30
0
11
106.682
21
-22.535
31
0
0
LINE
8
0
62
1
10
106.682
20
-22.535
30
0
11
106.667
21
-22.538
31
0
0
LINE
8
0
62
1
10
106.667
20
-22.538
30
0
11
100.365
21
-22.538
31
0
0
LINE
8
0
62
1
10
100.365
20
-22.538
30
0
11
100.365
21
-37.462
31
0
0
LINE
8
0
62
1
10
100.365
20
-37.462
30
0
11
106.667
21
-37.462
31
0
0
LINE
8
0
62
1
10
106.667
20
-37.462
30
0
11
106.682
21
-37.465
31
0
0
LINE
8
0
62
1
10
106.682
20
-37.465
30
0
11
106.694
21
-37.473
31
0
0
LINE
8
0
62
1
10
106.694
20
-37.473
30
0
11
106.702
21
-37.485
31
0
0
LINE
8
0
62
1
10
106.702
20
-37.485
30
0
11
106.705
21
-37.5
31
0
0
LINE
8
0
62
1
10
106.705
20
-37.5
30
0
11
106.705
21
-52.5
31
0
0
LINE
8
0
62
1
10
106.705
20
-52.5
30
0
11
106.702
21
-52.515
31
0
0
LINE
8
0
62
1
10
106.702
20
-52.515
30
0
11
106.694
21
-52.527
31
0
0
LINE
8
0
62
1
10
106.694
20
-52.527
30
0
11
106.682
21
-52.535
31
0
0
LINE
8
0
62
1
10
106.682
20
-52.535
30
0
11
106.667
21
-52.538
31
0
0
LINE
8
0
62
1
10
106.667
20
-52.538
30
0
11
100.365
21
-52.538
31
0
0
LINE
8
0
62
1
10
100.365
20
-52.538
30
0
11
100.365
21
-67.462
31
0
0
LINE
8
0
62
1
10
100.365
20
-67.462
30
0
11
106.667
21
-67.462
31
0
0
LINE
8
0
62
1
10
106.667
20
-67.462
30
0
11
106.682
21
-67.465
31
0
0
LINE
8
0
62
1
10
106.682
20
-67.465
30
0
11
106.694
21
-67.473
31
0
0
LINE
8
0
62
1
10
106.694
20
-67.473
30
0
11
106.702
21
-67.485
31
0
0
LINE
8
0
62
1
10
106.702
20
-67.485
30
0
11
106.705
21
-67.5
31
0
0
LINE
8
0
62
1
10
106.705
20
-67.5
30
0
11
106.705
21
-72.11
31
0
0
LINE
8
0
62
1
10
106.705
20
-72.11
30
0
11
106.702
21
-72.125
31
0
0
LINE
8
0
62
1
10
106.702
20
-72.125
30
0
11
106.694
21
-72.137
31
0
0
LINE
8
0
62
1
10
106.694
20
-72.137
30
0
11
106.682
21
-72.145
31
0
0
LINE
8
0
62
1
10
106.682
20
-72.145
30
0
11
106.667
21
-72.148
31
0
0
LINE
8
0
62
1
10
106.667
20
-72.148
30
0
11
97.538
21
-72.148
31
0
0
LINE
8
0
62
1
10
97.538
20
-72.148
30
0
11
97.538
21
-78.45
31
0
0
LINE
8
0
62
1
10
97.538
20
-78.45
30
0
11
97.535
21
-78.465
31
0
0
LINE
8
0
62
1
10
97.535
20
-78.465
30
0
11
97.527
21
-78.477
31
0
0
LINE
8
0
62
1
10
97.527
20
-78.477
30
0
11
97.515
21
-78.485
31
0
0
LINE
8
0
62
1
10
97.515
20
-78.485
30
0
11
97.5
21
-78.488
31
0
0
LINE
8
0
62
1
10
97.5
20
-78.488
30
0
11
82.5
21
-78.488
31
0
0
LINE
8
0
62
1
10
82.5
20
-78.488
30
0
11
82.485
21
-78.485
31
0
0
LINE
8
0
62
1
10
82.485
20
-78.485
30
0
11
82.473
21
-78.477
31
0
0
LINE
8
0
62
1
10
82.473
20
-78.477
30
0
11
82.465
21
-78.465
31
0
0
LINE
8
0
62
1
10
82.465
20
-78.465
30
0
11
82.462
21
-78.45
31
0
0
LINE
8
0
62
1
10
82.462
20
-78.45
30
0
11
82.462
21
-72.148
31
0
0
LINE
8
0
62
1
10
82.462
20
-72.148
30
0
11
67.538
21
-72.148
31
0
0
LINE
8
0
62
1
10
67.538
20
-72.148
30
0
11
67.538
21
-78.45
31
0
0
LINE
8
0
62
1
10
67.538
20
-78.45
30
0
11
67.535
21
-78.465
31
0
0
LINE
8
0
62
1
10
67.535
20
-78.465
30
0
11
67.527
21
-78.477
31
0
0
LINE
8
0
62
1
10
67.527
20
-78.477
30
0
11
67.515
21
-78.485
31
0
0
LINE
8
0
62
1
10
67.515
20
-78.485
30
0
11
67.5
21
-78.488
31
0
0
LINE
8
0
62
1
10
67.5
20
-78.488
30
0
11
52.5
21
-78.488
31
0
0
LINE
8
0
62
1
10
52.5
20
-78.488
30
0
11
52.485
21
-78.485
31
0
0
LINE
8
0
62
1
10
52.485
20
-78.485
30
0
11
52.473
21
-78.477
31
0
0
LINE
8
0
62
1
10
52.473
20
-78.477
30
0
11
52.465
21
-78.465
31
0
0
LINE
8
0
62
1
10
52.465
20
-78.465
30
0
11
52.462
21
-78.45
31
0
0
LINE
8
0
62
1
10
52.462
20
-78.45
30
0
11
52.462
21
-72.148
31
0
0
LINE
8
0
62
1
10
52.462
20
-72.148
30
0
11
37.538
21
-72.148
31
0
0
LINE
8
0
62
1
10
37.538
20
-72.148
30
0
11
37.538
21
-78.45
31
0
0
LINE
8
0
62
1
10
37.538
20
-78.45
30
0
11
37.535
21
-78.465
31
0
0
LINE
8
0
62
1
10
37.535
20
-78.465
30
0
11
37.527
21
-78.477
31
0
0
LINE
8
0
62
1
10
37.527
20
-78.477
30
0
11
37.515
21
-78.485
31
0
0
LINE
8
0
62
1
10
37.515
20
-78.485
30
0
11
37.5
21
-78.488
31
0
0
LINE
8
0
62
1
10
37.5
20
-78.488
30
0
11
22.5
21
-78.488
31
0
0
LINE
8
0
62
1
10
22.5
20
-78.488
30
0
11
22.485
21
-78.485
31
0
0
LINE
8
0
62
1
10
22.485
20
-78.485
30
0
11
22.473
21
-78.477
31
0
0
LINE
8
0
62
1
10
22.473
20
-78.477
30
0
11
22.465
21
-78.465
31
0
0
LINE
8
0
62
1
10
22.465
20
-78.465
30
0
11
22.462
21
-78.45
31
0
0
LINE
8
0
62
1
10
22.462
20
-78.45
30
0
11
22.462
21
-72.148
31
0
0
LINE
8
0
62
1
10
22.462
20
-72.148
30
0
11
7.538
21
-72.148
31
0
0
LINE
8
0
62
1
10
7.538
20
-72.148
30
0
11
7.538
21
-78.45
31
0
0
LINE
8
0
62
1
10
7.538
20
-78.45
30
0
11
7.535
21
-78.465
31
0
0
LINE
8
0
62
1
10
7.535
20
-78.465
30
0
11
7.527
21
-78.477
31
0
0
LINE
8
0
62
1
10
7.527
20
-78.477
30
0
11
7.515
21
-78.485
31
0
0
LINE
8
0
62
1
10
7.515
20
-78.485
30
0
11
7.5
21
-78.488
31
0
0
LINE
8
0
62
1
10
7.5
20
-78.488
30
0
11
-7.5
21
-78.488
31
0
0
LINE
8
0
62
1
10
-7.5
20
-78.488
30
0
11
-7.515
21
-78.485
31
0
0
LINE
8
0
62
1
10
-7.515
20
-78.485
30
0
11
-7.527
21
-78.477
31
0
0
LINE
8
0
62
1
10
-7.527
20
-78.477
30
0
11
-7.535
21
-78.465
31
0
0
LINE
8
0
62
1
10
-7.535
20
-78.465
30
0
11
-7.538
21
-78.45
31
0
0
LINE
8
0
62
1
10
-7.538
20
-78.45
30
0
11
-7.538
21
-72.148
31
0
0
LINE
8
0
62
1
10
-7.538
20
-72.148
30
0
11
-22.462
21
-72.148
31
0
0
LINE
8
0
62
1
10
-22.462
20
-72.148
30
0
11
-22.462
21
-78.45
31
0
0
LINE
8
0
62
1
10
-22.462
20
-78.45
30
0
11
-22.465
21
-78.465
31
0
0
LINE
8
0
62
1
10
-22.465
20
-78.465
30
0
11
-22.473
21
-78.477
31
0
0
LINE
8
0
62
1
10
-22.473
20
-78.477
30
0
11
-22.485
21
-78.485
31
0
0
LINE
8
0
62
1
10
-22.485
20
-78.485
30
0
11
-22.5
21
-78.488
31
0
0
LINE
8
0
62
1
10
-22.5
20
-78.488
30
0
11
-37.5
21
-78.488
31
0
0
LINE
8
0
62
1
10
-37.5
20
-78.488
30
0
11
-37.515
21
-78.485
31
0
0
LINE
8
0
62
1
10
-37.515
20
-78.485
30
0
11
-37.527
21
-78.477
31
0
0
LINE
8
0
62
1
10
-37.527
20
-78.477
30
0
11
-37.535
21
-78.465
31
0
0
LINE
8
0
62
1
10
-37.535
20
-78.465
30
0
11
-37.538
21
-78.45
31
0
0
LINE
8
0
62
1
10
-37.538
20
-78.45
30
0
11
-37.538
21
-72.148
31
0
0
LINE
8
0
62
1
10
-37.538
20
-72.148
30
0
11
-52.462
21
-72.148
31
0
0
LINE
8
0
62
1
10
-52.462
20
-72.148
30
0
11
-52.462
21
-78.45
31
0
0
LINE
8
0
62
1
10
-52.462
20
-78.45
30
0
11
-52.465
21
-78.465
31
0
0
LINE
8
0
62
1
10
-52.465
20
-78.465
30
0
11
-52.473
21
-78.477
31
0
0
LINE
8
0
62
1
10
-52.473
20
-78.477
30
0
11
-52.485
21
-78.485
31
0
0
LINE
8
0
62
1
10
-52.485
20
-78.485
30
0
11
-52.5
21
-78.488
31
0
0
LINE
8
0
62
1
10
-52.5
20
-78.488
30
0
11
-67.5
21
-78.488
31
0
0
LINE
8
0
62
1
10
-67.5
20
-78.488
30
0
11
-67.515
21
-78.485
31
0
0
LINE
8
0
62
1
10
-67.515
20
-78.485
30
0
11
-67.527
21
-78.477
31
0
0
LINE
8
0
62
1
10
-67.527
20
-78.477
30
0
11
-67.535
21
-78.465
31
0
0
LINE
8
0
62
1
10
-67.535
20
-78.465
30
0
11
-67.538
21
-78.45
31
0
0
LINE
8
0
62
1
10
-67.538
20
-78.45
30
0
11
-67.538
21
-72.148
31
0
0
LINE
8
0
62
1
10
-67.538
20
-72.148
30
0
11
-82.462
21
-72.148
31
0
0
LINE
8
0
62
1
10
-82.462
20
-72.148
30
0
11
-82.462
21
-78.45
31
0
0
LINE
8
0
62
1
10
-82.462
20
-78.45
30
0
11
-82.465
21
-78.465
31
0
0
LINE
8
0
62
1
10
-82.465
20
-78.465
30
0
11
-82.473
21
-78.477
31
0
0
LINE
8
0
62
1
10
-82.473
20
-78.477
30
0
11
-82.485
21
-78.485
31
0
0
LINE
8
0
62
1
10
-82.485
20
-78.485
30
0
11
-82.5
21
-78.488
31
0
0
LINE
8
0
62
1
10
-82.5
20
-78.488
30
0
11
-97.5
21
-78.488
31
0
0
LINE
8
0
62
1
10
-97.5
20
-78.488
30
0
11
-97.515
21
-78.485
31
0
0
LINE
8
0
62
1
10
-97.515
20
-78.485
30
0
11
-97.527
21
-78.477
31
0
0
LINE
8
0
62
1
10
-97.527
20
-78.477
30
0
11
-97.535
21
-78.465
31
0
0
LINE
8
0
62
1
10
-97.535
20
-78.465
30
0
11
-97.538
21
-78.45
31
0
0
LINE
8
0
62
1
10
-97.538
20
-78.45
30
0
11
-97.538
21
-72.148
31
0
0
LINE
8
0
62
1
10
-97.538
20
-72.148
30
0
11
-106.667
21
-72.148
31
0
0
LINE
8
0
62
1
10
-106.667
20
-72.148
30
0
11
-106.682
21
-72.145
31
0
0
LINE
8
0
62
1
10
-106.682
20
-72.145
30
0
11
-106.694
21
-72.137
31
0
0
LINE
8
0
62
1
10
-106.694
20
-72.137
30
0
11
-106.702
21
-72.125
31
0
0
LINE
8
0
62
1
10
-106.702
20
-72.125
30
0
11
-106.705
21
-72.11
31
0
0
LINE
8
0
62
1
10
-106.705
20
-72.11
30
0
11
-106.705
21
-67.5
31
0
0
LINE
8
0
62
1
10
-106.705
20
-67.5
30
0
11
-106.702
21
-67.485
31
0
0
LINE
8
0
62
1
10
-106.702
20
-67.485
30
0
11
-106.694
21
-67.473
31
0
0
LINE
8
0
62
1
10
-106.694
20
-67.473
30
0
11
-106.682
21
-67.465
31
0
0
LINE
8
0
62
1
10
-106.682
20
-67.465
30
0
11
-106.667
21
-67.462
31
0
0
LINE
8
0
62
1
10
-106.667
20
-67.462
30
0
11
-100.365
21
-67.462
31
0
0
LINE
8
0
62
1
10
-100.365
20
-67.462
30
0
11
-100.365
21
-52.538
31
0
0
LINE
8
0
62
1
10
-100.365
20
-52.538
30
0
11
-106.667
21
-52.538
31
0
0
LINE
8
0
62
1
10
-106.667
20
-52.538
30
0
11
-106.682
21
-52.535
31
0
0
LINE
8
0
62
1
10
-106.682
20
-52.535
30
0
11
-106.694
21
-52.527
31
0
0
LINE
8
0
62
1
10
-106.694
20
-52.527
30
0
11
-106.702
21
-52.515
31
0
0
LINE
8
0
62
1
10
-106.702
20
-52.515
30
0
11
-106.705
21
-52.5
31
0
0
LINE
8
0
62
1
10
-106.705
20
-52.5
30
0
11
-106.705
21
-37.5
31
0
0
LINE
8
0
62
1
10
-106.705
20
-37.5
30
0
11
-106.702
21
-37.485
31
0
0
LINE
8
0
62
1
10
-106.702
20
-37.485
30
0
11
-106.694
21
-37.473
31
0
0
LINE
8
0
62
1
10
-106.694
20
-37.473
30
0
11
-106.682
21
-37.465
31
0
0
LINE
8
0
62
1
10
-106.682
20
-37.465
30
0
11
-106.667
21
-37.462
31
0
0
LINE
8
0
62
1
10
-106.667
20
-37.462
30
0
11
-100.365
21
-37.462
31
0
0
LINE
8
0
62
1
10
-100.365
20
-37.462
30
0
11
-100.365
21
-22.538
31
0
0
LINE
8
0
62
1
10
-100.365
20
-22.538
30
0
11
-106.667
21
-22.538
31
0
0
LINE
8
0
62
1
10
-106.667
20
-22.538
30
0
11
-106.682
21
-22.535
31
0
0
LINE
8
0
62
1
10
-106.682
20
-22.535
30
0
11
-106.694
21
-22.527
31
0
0
LINE
8
0
62
1
10
-106.694
20
-22.527
30
0
11
-106.702
21
-22.515
31
0
0
LINE
8
0
62
1
10
-106.702
20
-22.515
30
0
11
-106.705
21
-22.5
31
0
0
LINE
8
0
62
1
10
-106.705
20
-22.5
30
0
11
-106.705
21
-7.5
31
0
0
LINE
8
0
62
1
10
-106.705
20
-7.5
30
0
11
-106.702
21
-7.485
31
0
0
LINE
8
0
62
1
10
-106.702
20
-7.485
30
0
11
-106.694
21
-7.473
31
0
0
LINE
8
0
62
1
10
-106.694
20
-7.473
30
0
11
-106.682
21
-7.465
31
0
0
LINE
8
0
62
1
10
-106.682
20
-7.465
30
0
11
-106.667
21
-7.462
31
0
0
LINE
8
0
62
1
10
-106.667
20
-7.462
30
0
11
-100.365
21
-7.462
31
0
0
LINE
8
0
62
1
10
-100.365
20
-7.462
30
0
11
-100.365
21
7.462
31
0
0
LINE
8
0
62
1
10
-100.365
20
7.462
30
0
11
-106.667
21
7.462
31
0
0
LINE
8
0
62
1
10
-106.667
20
7.462
30
0
11
-106.682
21
7.465
31
0
0
LINE
8
0
62
1
10
-106.682
20
7.465
30
0
11
-106.694
21
7.473
31
0
0
LINE
8
0
62
1
10
-106.694
20
7.473
30
0
11
-106.702
21
7.485
31
0
0
LINE
8
0
62
1
10
-106.702
20
7.485
30
0
11
-106.705
21
7.5
31
0
0
LINE
8
0
62
1
10
-106.705
20
7.5
30
0
11
-106.705
21
22.5
31
0
0
LINE
8
0
62
1
10
-106.705
20
22.5
30
0
11
-106.702
21
22.515
31
0
0
LINE
8
0
62
1
10
-106.702
20
22.515
30
0
11
-106.694
21
22.527
31
0
0
LINE
8
0
62
1
10
-106.694
20
22.527
30
0
11
-106.682
21
22.535
31
0
0
LINE
8
0
62
1
10
-106.682
20
22.535
30
0
11
-106.667
21
22.538
31
0
0
LINE
8
0
62
1
10
-106.667
20
22.538
30
0
11
-100.365
21
22.538
31
0
0
LINE
8
0
62
1
10
-100.365
20
22.538
30
0
11
-100.365
21
37.462
31
0
0
LINE
8
0
62
1
10
-100.365
20
37.462
30
0
11
-106.667
21
37.462
31
0
0
LINE
8
0
62
1
10
-106.667
20
37.462
30
0
11
-106.682
21
37.465
31
0
0
LINE
8
0
62
1
10
-106.682
20
37.465
30
0
11
-106.694
21
37.473
31
0
0
LINE
8
0
62
1
10
-106.694
20
37.473
30
0
11
-106.702
21
37.485
31
0
0
LINE
8
0
62
1
10
-106.702
20
37.485
30
0
11
-106.705
21
37.5
31
0
0
LINE
8
0
62
1
10
-106.705
20
37.5
30
0
11
-106.705
21
52.5
31
0
0
LINE
8
0
62
1
10
-106.705
20
52.5
30
0
11
-106.702
21
52.515
31
0
0
LINE
8
0
62
1
10
-106.702
20
52.515
30
0
11
-106.694
21
52.527
31
0
0
LINE
8
0
62
1
10
-106.694
20
52.527
30
0
11
-106.682
21
52.535
31
0
0
LINE
8
0
62
1
10
-106.682
20
52.535
30
0
11
-106.667
21
52.538
31
0
0
LINE
8
0
62
1
10
-106.667
20
52.538
30
0
11
-100.365
21
52.538
31
0
0
LINE
8
0
62
1
10
-100.365
20
52.538
30
0
11
-100.365
21
67.462
31
0
0
LINE
8
0
62
1
10
-100.365
20
67.462
30
0
11
-106.667
21
67.462
31
0
0
LINE
8
0
62
1
10
-106.667
20
67.462
30
0
11
-106.682
21
67.465
31
0
0
LINE
8
0
62
1
10
-106.682
20
67.465
30
0
11
-106.694
21
67.473
31
0
0
LINE
8
0
62
1
10
-106.694
20
67.473
30
0
11
-106.702
21
67.485
31
0
0
LINE
8
0
62
1
10
-106.702
20
67.485
30
0
11
-106.705
21
67.5
31
0
0
LINE
8
0
62
1
10
-106.705
20
67.5
30
0
11
-106.705
21
72.11
31
0
0
LINE
8
0
62
1
10
-106.705
20
72.11
30
0
11
-106.702
21
72.125
31
0
0
LINE
8
0
62
1
10
-106.702
20
72.125
30
0
11
-106.694
21
72.137
31
0
0
LINE
8
0
62
1
10
-106.694
20
72.137
30
0
11
-106.682
21
72.145
31
0
0
LINE
8
0
62
1
10
-106.682
20
72.145
30
0
11
-106.667
21
72.148
31
0
0
LINE
8
0
62
1
10
-106.667
20
72.148
30
0
11
-97.538
21
72.148
31
0
0
LINE
8
0
62
1
10
-97.538
20
72.148
30
0
11
-97.538
21
78.45
31
0
0
LINE
8
0
62
1
10
-97.538
20
78.45
30
0
11
-97.535
21
78.465
31
0
0
LINE
8
0
62
1
10
-97.535
20
78.465
30
0
11
-97.527
21
78.477
31
0
0
LINE
8
0
62
1
10
-97.527
20
78.477
30
0
11
-97.515
21
78.485
31
0
0
LINE
8
0
62
1
10
-97.515
20
78.485
30
0
11
-97.5
21
78.488
31
0
0
LINE
8
0
62
1
10
-97.5
20
78.488
30
0
11
-82.5
21
78.488
31
0
0
LINE
8
0
62
1
10
-82.5
20
78.488
30
0
11
-82.485
21
78.485
31
0
0
LINE
8
0
62
1
10
-82.485
20
78.485
30
0
11
-82.473
21
78.477
31
0
0
LINE
8
0
62
1
10
-82.473
20
78.477
30
0
11
-82.465
21
78.465
31
0
0
LINE
8
0
62
1
10
-82.465
20
78.465
30
0
11
-82.462
21
78.45
31
0
0
LINE
8
0
62
1
10
-82.462
20
78.45
30
0
11
-82.462
21
72.148
31
0
0
LINE
8
0
62
1
10
-82.462
20
72.148
30
0
11
-67.538
21
72.148
31
0
0
LINE
8
0
62
1
10
-67.538
20
72.148
30
0
11
-67.538
21
78.45
31
0
0
LINE
8
0
62
1
10
-67.538
20
78.45
30
0
11
-67.535
21
78.465
31
0
0
LINE
8
0
62
1
10
-67.535
20
78.465
30
0
11
-67.527
21
78.477
31
0
0
LINE
8
0
62
1
10
-67.527
20
78.477
30
0
11
-67.515
21
78.485
31
0
0
LINE
8
0
62
1
10
-67.515
20
78.485
30
0
11
-67.5
21
78.488
31
0
0
LINE
8
0
62
1
10
-67.5
20
78.488
30
0
11
-52.5
21
78.488
31
0
0
LINE
8
0
62
1
10
-52.5
20
78.488
30
0
11
-52.485
21
78.485
31
0
0
LINE
8
0
62
1
10
-52.485
20
78.485
30
0
11
-52.473
21
78.477
31
0
0
LINE
8
0
62
1
10
-52.473
20
78.477
30
0
11
-52.465
21
78.465
31
0
0
LINE
8
0
62
1
10
-52.465
20
78.465
30
0
11
-52.462
21
78.45
31
0
0
LINE
8
0
62
1
10
-52.462
20
78.45
30
0
11
-52.462
21
72.148
31
0
0
LINE
8
0
62
1
10
-52.462
20
72.148
30
0
11
-37.538
21
72.148
31
0
0
LINE
8
0
62
1
10
-37.538
20
72.148
30
0
11
-37.538
21
78.45
31
0
0
LINE
8
0
62
1
10
-37.538
20
78.45
30
0
11
-37.535
21
78.465
31
0
0
LINE
8
0
62
1
10
-37.535
20
78.465
30
0
11
-37.527
21
78.477
31
0
0
LINE
8
0
62
1
10
-37.527
20
78.477
30
0
11
-37.515
21
78.485
31
0
0
LINE
8
0
62
1
10
-37.515
20
78.485
30
0
11
-37.5
21
78.488
31
0
0
LINE
8
0
62
1
10
-37.5
20
78.488
30
0
11
-22.5
21
78.488
31
0
0
LINE
8
0
62
1
10
-22.5
20
78.488
30
0
11
-22.485
21
78.485
31
0
0
LINE
8
0
62
1
10
-22.485
20
78.485
30
0
11
-22.473
21
78.477
31
0
0
LINE
8
0
62
1
10
-22.473
20
78.477
30
0
11
-22.465
21
78.465
31
0
0
LINE
8
0
62
1
10
-22.465
20
78.465
30
0
11
-22.462
21
78.45
31
0
0
LINE
8
0
62
1
10
-22.462
20
78.45
30
0
11
-22.462
21
72.148
31
0
0
LINE
8
0
62
1
10
-22.462
20
72.148
30
0
11
-7.538
21
72.148
31
0
0
LINE
8
0
62
1
10
-7.538
20
72.148
30
0
11
-7.538
21
78.45
31
0
0
LINE
8
0
62
1
10
-7.538
20
78.45
30
0
11
-7.535
21
78.465
31
0
0
LINE
8
0
62
1
10
-7.535
20
78.465
30
0
11
-7.527
21
78.477
31
0
0
LINE
8
0
62
1
10
-7.527
20
78.477
30
0
11
-7.515
21
78.485
31
0
0
LINE
8
0
62
1
10
-7.515
20
78.485
30
0
11
-7.5
21
78.488
31
0
0
LINE
8
0
62
1
10
-7.5
20
78.488
30
0
11
7.5
21
78.488
31
0
0
LINE
8
0
62
1
10
7.5
20
78.488
30
0
11
7.515
21
78.485
31
0
0
LINE
8
0
62
1
10
7.515
20
78.485
30
0
11
7.527
21
78.477
31
0
0
LINE
8
0
62
1
10
7.527
20
78.477
30
0
11
7.535
21
78.465
31
0
0
LINE
8
0
62
1
10
7.535
20
78.465
30
0
11
7.538
21
78.45
31
0
0
LINE
8
0
62
1
10
7.538
20
78.45
30
0
11
7.538
21
72.148
31
0
0
LINE
8
0
62
1
10
7.538
20
72.148
30
0
11
22.462
21
72.148
31
0
0
LINE
8
0
62
1
10
22.462
20
72.148
30
0
11
22.462
21
78.45
31
0
0
LINE
8
0
62
1
10
22.462
20
78.45
30
0
11
22.465
21
78.465
31
0
0
LINE
8
0
62
1
10
22.465
20
78.465
30
0
11
22.473
21
78.477
31
0
0
LINE
8
0
62
1
10
22.473
20
78.477
30
0
11
22.485
21
78.485
31
0
0
LINE
8
0
62
1
10
22.485
20
78.485
30
0
11
22.5
21
78.488
31
0
0
LINE
8
0
62
1
10
22.5
20
78.488
30
0
11
37.5
21
78.488
31
0
0
LINE
8
0
62
1
10
37.5
20
78.488
30
0
11
37.515
21
78.485
31
0
0
LINE
8
0
62
1
10
37.515
20
78.485
30
0
11
37.527
21
78.477
31
0
0
LINE
8
0
62
1
10
37.527
20
78.477
30
0
11
37.535
21
78.465
31
0
0
LINE
8
0
62
1
10
37.535
20
78.465
30
0
11
37.538
21
78.45
31
0
0
LINE
8
0
62
1
10
37.538
20
78.45
30
0
11
37.538
21
72.148
31
0
0
LINE
8
0
62
1
10
37.538
20
72.148
30
0
11
52.462
21
72.148
31
0
0
LINE
8
0
62
1
10
52.462
20
72.148
30
0
11
52.462
21
78.45
31
0
0
LINE
8
0
62
1
10
52.462
20
78.45
30
0
11
52.465
21
78.465
31
0
0
LINE
8
0
62
1
10
52.465
20
78.465
30
0
11
52.473
21
78.477
31
0
0
LINE
8
0
62
1
10
52.473
20
78.477
30
0
11
52.485
21
78.485
31
0
0
LINE
8
0
62
1
10
52.485
20
78.485
30
0
11
52.5
21
78.488
31
0
0
LINE
8
0
62
1
10
52.5
20
78.488
30
0
11
67.5
21
78.488
31
0
0
LINE
8
0
62
1
10
67.5
20
78.488
30
0
11
67.515
21
78.485
31
0
0
LINE
8
0
62
1
10
67.515
20
78.485
30
0
11
67.527
21
78.477
31
0
0
LINE
8
0
62
1
10
67.527
20
78.477
30
0
11
67.535
21
78.465
31
0
0
LINE
8
0
62
1
10
67.535
20
78.465
30
0
11
67.538
21
78.45
31
0
0
LINE
8
0
62
1
10
67.538
20
78.45
30
0
11
67.538
21
72.148
31
0
0
LINE
8
0
62
1
10
67.538
20
72.148
30
0
11
82.462
21
72.148
31
0
0
LINE
8
0
62
1
10
82.462
20
72.148
30
0
11
82.462
21
78.45
31
0
0
LINE
8
0
62
1
10
82.462
20
78.45
30
0
11
82.465
21
78.465
31
0
0
LINE
8
0
62
1
10
82.465
20
78.465
30
0
11
82.473
21
78.477
31
0
0
LINE
8
0
62
1
10
82.473
20
78.477
30
0
11
82.485
21
78.485
31
0
0
LINE
8
0
62
1
10
82.485
20
78.485
30
0
11
82.5
21
78.488
31
0
0
LINE
8
0
62
1
10
82.5
20
78.488
30
0
11
97.5
21
78.488
31
0
0
LINE
8
0
62
1
10
97.5
20
78.488
30
0
11
97.515
21
78.485
31
0
0
LINE
8
0
62
1
10
97.515
20
78.485
30
0
11
97.527
21
78.477
31
0
0
LINE
8
0
62
1
10
97.527
20
78.477
30
0
11
97.535
21
78.465
31
0
0
LINE
8
0
62
1
10
97.535
20
78.465
30
0
11
97.538
21
78.45
31
0
0
LINE
8
0
62
1
10
97.538
20
78.45
30
0
11
97.538
21
72.148
31
0
0
LINE
8
0
62
1
10
97.538
20
72.148
30
0
11
106.667
21
72.148
31
0
0
LINE
8
0
62
1
10
106.667
20
72.148
30
0
11
106.682
21
72.145
31
0
0
LINE
8
0
62
1
10
106.682
20
72.145
30
0
11
106.694
21
72.137
31
0
0
LINE
8
0
62
1
10
106.694
20
72.137
30
0
11
106.702
21
72.125
31
0
0
LINE
8
0
62
1
10
106.702
20
72.125
30
0
11
106.705
21
72.11
31
0
0
LINE
8
0
62
1
10
106.705
20
72.11
30
0
11
106.705
21
67.5
31
0
0
LINE
8
0
62
1
10
106.705
20
67.5
30
0
11
106.702
21
67.485
31
0
0
LINE
8
0
62
1
10
106.702
20
67.485
30
0
11
106.694
21
67.473
31
0
0
LINE
8
0
62
1
10
106.694
20
67.473
30
0
11
106.682
21
67.465
31
0
0
LINE
8
0
62
1
10
106.682
20
67.465
30
0
11
106.667
21
67.462
31
0
0
LINE
8
0
62
1
10
106.667
20
67.462
30
0
11
100.365
21
67.462
31
0
0
LINE
8
0
62
1
10
100.365
20
67.462
30
0
11
100.365
21
52.538
31
0
0
LINE
8
0
62
1
10
100.365
20
52.538
30
0
11
106.667
21
52.538
31
0
0
LINE
8
0
62
1
10
106.667
20
52.538
30
0
11
106.682
21
52.535
31
0
0
LINE
8
0
62
1
10
106.682
20
52.535
30
0
11
106.694
21
52.527
31
0
0
LINE
8
0
62
1
10
106.694
20
52.527
30
0
11
106.702
21
52.515
31
0
0
LINE
8
0
62
1
10
106.702
20
52.515
30
0
11
106.705
21
52.5
31
0
0
LINE
8
0
62
1
10
106.705
20
52.5
30
0
11
106.705
21
37.5
31
0
0
LINE
8
0
62
1
10
106.705
20
37.5
30
0
11
106.702
21
37.485
31
0
0
LINE
8
0
62
1
10
106.702
20
37.485
30
0
11
106.694
21
37.473
31
0
0
LINE
8
0
62
1
10
106.694
20
37.473
30
0
11
106.682
21
37.465
31
0
0
LINE
8
0
62
1
10
106.682
20
37.465
30
0
11
106.667
21
37.462
31
0
0
LINE
8
0
62
1
10
106.667
20
37.462
30
0
11
100.365
21
37.462
31
0
0
LINE
8
0
62
1
10
100.365
20
37.462
30
0
11
100.365
21
22.538
31
0
0
LINE
8
0
62
1
10
100.365
20
22.538
30
0
11
106.667
21
22.538
31
0
0
LINE
8
0
62
1
10
106.667
20
22.538
30
0
11
106.682
21
22.535
31
0
0
LINE
8
0
62
1
10
106.682
20
22.535
30
0
11
106.694
21
22.527
31
0
0
LINE
8
0
62
1
10
106.694
20
22.527
30
0
11
106.702
21
22.515
31
0
0
LINE
8
0
62
1
10
106.702
20
22.515
30
0
11
106.705
21
22.5
31
0
0
LINE
8
0
62
1
10
106.705
20
22.5
30
0
11
106.705
21
7.5
31
0
0
LINE
8
0
62
1
10
106.705
20
7.5
30
0
11
106.702
21
7.485
31
0
0
LINE
8
0
62
1
10
106.702
20
7.485
30
0
11
106.694
21
7.473
31
0
0
LINE
8
0
62
1
10
106.694
20
7.473
30
0
11
106.682
21
7.465
31
0
0
LINE
8
0
62
1
10
106.682
20
7.465
30
0
11
106.667
21
7.462
31
0
0
LINE
8
0
62
1
10
106.667
20
7.462
30
0
11
100.365
21
7.462
31
0
0
LINE
8
0
62
1
10
100.365
20
7.462
30
0
11
100.365
21
-7.386
31
0
0
LINE
8
0
62
1
10
100.365
20
-7.386
30
0
11
100.365
21
-7.462
31
0
0
LINE
8
0
62
1
10
100.365
20
-7.462
30
0
11
100.67
21
-7.462
31
0
0
LINE
8
0
62
5
10
49.541
20
-65.768
30
0
11
49.941
21
-65.768
31
0
0
LINE
8
0
62
5
10
49.941
20
-65.768
30
0
11
49.941
21
-38.353
31
0
0
LINE
8
0
62
5
10
49.941
20
-38.353
30
0
11
40.042
21
-38.353
31
0
0
LINE
8
0
62
5
10
40.042
20
-38.353
30
0
11
40.042
21
-65.768
31
0
0
LINE
8
0
62
5
10
40.042
20
-65.768
30
0
11
49.541
21
-65.768
31
0
0
LINE
8
0
62
5
10
63.224
20
-38.768
30
0
11
63.224
21
-38.353
31
0
0
LINE
8
0
62
5
10
63.224
20
-38.353
30
0
11
54.276
21
-38.353
31
0
0
LINE
8
0
62
5
10
54.276
20
-38.353
30
0
11
54.276
21
-65.768
31
0
0
LINE
8
0
62
5
10
54.276
20
-65.768
30
0
11
63.224
21
-65.768
31
0
0
LINE
8
0
62
5
10
63.224
20
-65.768
30
0
11
63.224
21
-38.768
31
0
0
ARC
8
0
62
5
10
65.709
20
-34.068
30
0
40
0.955
50
-90
51
90
0
ARC
8
0
62
5
10
65.709
20
-34.068
30
0
40
0.955
50
90
51
-90
0
LINE
8
0
62
5
10
68.618
20
-33.443
30
0
11
68.618
21
-71.11
31
0
0
LINE
8
0
62
5
10
68.618
20
-71.11
30
0
11
68.614
21
-71.129
31
0
0
LINE
8
0
62
5
10
68.614
20
-71.129
30
0
11
68.603
21
-71.146
31
0
0
LINE
8
0
62
5
10
68.603
20
-71.146
30
0
11
68.586
21
-71.157
31
0
0
LINE
8
0
62
5
10
68.586
20
-71.157
30
0
11
68.567
21
-71.161
31
0
0
LINE
8
0
62
5
10
68.567
20
-71.161
30
0
11
34.7
21
-71.161
31
0
0
LINE
8
0
62
5
10
34.7
20
-71.161
30
0
11
34.681
21
-71.157
31
0
0
LINE
8
0
62
5
10
34.681
20
-71.157
30
0
11
34.664
21
-71.146
31
0
0
LINE
8
0
62
5
10
34.664
20
-71.146
30
0
11
34.653
21
-71.129
31
0
0
LINE
8
0
62
5
10
34.653
20
-71.129
30
0
11
34.649
21
-71.11
31
0
0
LINE
8
0
62
5
10
34.649
20
-71.11
30
0
11
34.649
21
13.557
31
0
0
LINE
8
0
62
5
10
34.649
20
13.557
30
0
11
34.653
21
13.576
31
0
0
LINE
8
0
62
5
10
34.653
20
13.576
30
0
11
34.664
21
13.593
31
0
0
LINE
8
0
62
5
10
34.664
20
13.593
30
0
11
34.681
21
13.604
31
0
0
LINE
8
0
62
5
10
34.681
20
13.604
30
0
11
34.7
21
13.608
31
0
0
LINE
8
0
62
5
10
34.7
20
13.608
30
0
11
68.567
21
13.608
31
0
0
LINE
8
0
62
5
10
68.567
20
13.608
30
0
11
68.586
21
13.604
31
0
0
LINE
8
0
62
5
10
68.586
20
13.604
30
0
11
68.603
21
13.593
31
0
0
LINE
8
0
62
5
10
68.603
20
13.593
30
0
11
68.614
21
13.576
31
0
0
LINE
8
0
62
5
10
68.614
20
13.576
30
0
11
68.618
21
13.557
31
0
0
LINE
8
0
62
5
10
68.618
20
13.557
30
0
11
68.618
21
-33.443
31
0
0
LINE
8
0
62
5
10
62.688
20
-29.784
30
0
11
63.093
21
-29.784
31
0
0
LINE
8
0
62
5
10
63.093
20
-29.784
30
0
11
63.093
21
8.214
31
0
0
LINE
8
0
62
5
10
63.093
20
8.214
30
0
11
40.042
21
8.214
31
0
0
LINE
8
0
62
5
10
40.042
20
8.214
30
0
11
40.042
21
-29.784
31
0
0
LINE
8
0
62
5
10
40.042
20
-29.784
30
0
11
62.688
21
-29.784
31
0
0
ENDSEC
0
EOF
