999
Generated by Autodesk CAM - http://cam.autodesk.com
999
UNIT = MM
999
THICKNESS = 7.34
0
SECTION
2
HEADER
9
$ACADVER
1
AC1006
9
$ANGBASE
50
0
9
$ANGDIR
70
0
0
ENDSEC
0
SECTION
2
BLOCKS
0
ENDSEC
9
$EXTMIN
10
-106.705
20
-78.488
30
0
9
$EXTMAX
10
106.705
20
78.488
30
15
0
SECTION
2
ENTITIES
0
LINE
8
0
62
1
10
81.855
20
-56.11
30
0
11
81.855
21
-61.11
31
0
0
LINE
8
0
62
1
10
81.855
20
-61.11
30
0
11
81.852
21
-61.125
31
0
0
LINE
8
0
62
1
10
81.852
20
-61.125
30
0
11
81.844
21
-61.137
31
0
0
LINE
8
0
62
1
10
81.844
20
-61.137
30
0
11
81.831
21
-61.145
31
0
0
LINE
8
0
62
1
10
81.831
20
-61.145
30
0
11
81.817
21
-61.148
31
0
0
LINE
8
0
62
1
10
81.817
20
-61.148
30
0
11
76.855
21
-61.148
31
0
0
LINE
8
0
62
1
10
76.855
20
-61.148
30
0
11
76.855
21
-69.61
31
0
0
LINE
8
0
62
1
10
76.855
20
-69.61
30
0
11
76.852
21
-69.625
31
0
0
LINE
8
0
62
1
10
76.852
20
-69.625
30
0
11
76.844
21
-69.637
31
0
0
LINE
8
0
62
1
10
76.844
20
-69.637
30
0
11
76.831
21
-69.645
31
0
0
LINE
8
0
62
1
10
76.831
20
-69.645
30
0
11
76.817
21
-69.648
31
0
0
LINE
8
0
62
1
10
76.817
20
-69.648
30
0
11
39.817
21
-69.648
31
0
0
LINE
8
0
62
1
10
39.817
20
-69.648
30
0
11
39.802
21
-69.645
31
0
0
LINE
8
0
62
1
10
39.802
20
-69.645
30
0
11
39.79
21
-69.637
31
0
0
LINE
8
0
62
1
10
39.79
20
-69.637
30
0
11
39.781
21
-69.625
31
0
0
LINE
8
0
62
1
10
39.781
20
-69.625
30
0
11
39.779
21
-69.61
31
0
0
LINE
8
0
62
1
10
39.779
20
-69.61
30
0
11
39.779
21
-53.61
31
0
0
LINE
8
0
62
1
10
39.779
20
-53.61
30
0
11
39.781
21
-53.595
31
0
0
LINE
8
0
62
1
10
39.781
20
-53.595
30
0
11
39.79
21
-53.583
31
0
0
LINE
8
0
62
1
10
39.79
20
-53.583
30
0
11
39.802
21
-53.575
31
0
0
LINE
8
0
62
1
10
39.802
20
-53.575
30
0
11
39.817
21
-53.572
31
0
0
LINE
8
0
62
1
10
39.817
20
-53.572
30
0
11
76.817
21
-53.572
31
0
0
LINE
8
0
62
1
10
76.817
20
-53.572
30
0
11
76.831
21
-53.575
31
0
0
LINE
8
0
62
1
10
76.831
20
-53.575
30
0
11
76.844
21
-53.583
31
0
0
LINE
8
0
62
1
10
76.844
20
-53.583
30
0
11
76.852
21
-53.595
31
0
0
LINE
8
0
62
1
10
76.852
20
-53.595
30
0
11
76.855
21
-53.61
31
0
0
LINE
8
0
62
1
10
76.855
20
-53.61
30
0
11
76.855
21
-56.072
31
0
0
LINE
8
0
62
1
10
76.855
20
-56.072
30
0
11
81.817
21
-56.072
31
0
0
LINE
8
0
62
1
10
81.817
20
-56.072
30
0
11
81.831
21
-56.075
31
0
0
LINE
8
0
62
1
10
81.831
20
-56.075
30
0
11
81.844
21
-56.083
31
0
0
LINE
8
0
62
1
10
81.844
20
-56.083
30
0
11
81.852
21
-56.095
31
0
0
LINE
8
0
62
1
10
81.852
20
-56.095
30
0
11
81.855
21
-56.11
31
0
0
LINE
8
0
62
1
10
89.779
20
-45.61
30
0
11
89.779
21
12.956
31
0
0
ARC
8
0
62
1
10
75.99
20
12.956
30
0
40
13.789
50
0
51
90
0
LINE
8
0
62
1
10
75.99
20
26.745
30
0
11
-19.25
21
26.745
31
0
0
LINE
8
0
62
1
10
-19.25
20
26.745
30
0
11
-19.265
21
26.748
31
0
0
LINE
8
0
62
1
10
-19.265
20
26.748
30
0
11
-19.277
21
26.756
31
0
0
LINE
8
0
62
1
10
-19.277
20
26.756
30
0
11
-19.285
21
26.768
31
0
0
LINE
8
0
62
1
10
-19.285
20
26.768
30
0
11
-19.288
21
26.783
31
0
0
LINE
8
0
62
1
10
-19.288
20
26.783
30
0
11
-19.288
21
34.123
31
0
0
LINE
8
0
62
1
10
-19.288
20
34.123
30
0
11
-19.285
21
34.137
31
0
0
LINE
8
0
62
1
10
-19.285
20
34.137
30
0
11
-19.277
21
34.15
31
0
0
LINE
8
0
62
1
10
-19.277
20
34.15
30
0
11
-19.265
21
34.158
31
0
0
LINE
8
0
62
1
10
-19.265
20
34.158
30
0
11
-19.25
21
34.161
31
0
0
LINE
8
0
62
1
10
-19.25
20
34.161
30
0
11
75.99
21
34.161
31
0
0
LINE
8
0
62
1
10
75.99
20
34.161
30
0
11
76.401
21
34.157
31
0
0
LINE
8
0
62
1
10
76.401
20
34.157
30
0
11
76.812
21
34.145
31
0
0
LINE
8
0
62
1
10
76.812
20
34.145
30
0
11
77.223
21
34.125
31
0
0
LINE
8
0
62
1
10
77.223
20
34.125
30
0
11
77.633
21
34.097
31
0
0
LINE
8
0
62
1
10
77.633
20
34.097
30
0
11
78.043
21
34.061
31
0
0
LINE
8
0
62
1
10
78.043
20
34.061
30
0
11
78.452
21
34.017
31
0
0
LINE
8
0
62
1
10
78.452
20
34.017
30
0
11
78.86
21
33.966
31
0
0
LINE
8
0
62
1
10
78.86
20
33.966
30
0
11
79.267
21
33.906
31
0
0
LINE
8
0
62
1
10
79.267
20
33.906
30
0
11
79.672
21
33.839
31
0
0
LINE
8
0
62
1
10
79.672
20
33.839
30
0
11
80.076
21
33.763
31
0
0
LINE
8
0
62
1
10
80.076
20
33.763
30
0
11
80.479
21
33.68
31
0
0
LINE
8
0
62
1
10
80.479
20
33.68
30
0
11
80.88
21
33.589
31
0
0
LINE
8
0
62
1
10
80.88
20
33.589
30
0
11
81.279
21
33.491
31
0
0
LINE
8
0
62
1
10
81.279
20
33.491
30
0
11
81.677
21
33.384
31
0
0
LINE
8
0
62
1
10
81.677
20
33.384
30
0
11
82.072
21
33.27
31
0
0
LINE
8
0
62
1
10
82.072
20
33.27
30
0
11
82.464
21
33.148
31
0
0
LINE
8
0
62
1
10
82.464
20
33.148
30
0
11
82.855
21
33.019
31
0
0
LINE
8
0
62
1
10
82.855
20
33.019
30
0
11
83.242
21
32.882
31
0
0
LINE
8
0
62
1
10
83.242
20
32.882
30
0
11
83.627
21
32.738
31
0
0
LINE
8
0
62
1
10
83.627
20
32.738
30
0
11
84.01
21
32.586
31
0
0
LINE
8
0
62
1
10
84.01
20
32.586
30
0
11
84.389
21
32.427
31
0
0
LINE
8
0
62
1
10
84.389
20
32.427
30
0
11
84.765
21
32.26
31
0
0
LINE
8
0
62
1
10
84.765
20
32.26
30
0
11
85.137
21
32.086
31
0
0
LINE
8
0
62
1
10
85.137
20
32.086
30
0
11
85.507
21
31.905
31
0
0
LINE
8
0
62
1
10
85.507
20
31.905
30
0
11
85.872
21
31.717
31
0
0
LINE
8
0
62
1
10
85.872
20
31.717
30
0
11
86.234
21
31.522
31
0
0
LINE
8
0
62
1
10
86.234
20
31.522
30
0
11
86.592
21
31.32
31
0
0
LINE
8
0
62
1
10
86.592
20
31.32
30
0
11
86.947
21
31.111
31
0
0
LINE
8
0
62
1
10
86.947
20
31.111
30
0
11
87.296
21
30.895
31
0
0
LINE
8
0
62
1
10
87.296
20
30.895
30
0
11
87.642
21
30.672
31
0
0
LINE
8
0
62
1
10
87.642
20
30.672
30
0
11
87.984
21
30.443
31
0
0
LINE
8
0
62
1
10
87.984
20
30.443
30
0
11
88.32
21
30.207
31
0
0
LINE
8
0
62
1
10
88.32
20
30.207
30
0
11
88.653
21
29.965
31
0
0
LINE
8
0
62
1
10
88.653
20
29.965
30
0
11
88.98
21
29.716
31
0
0
LINE
8
0
62
1
10
88.98
20
29.716
30
0
11
89.303
21
29.461
31
0
0
LINE
8
0
62
1
10
89.303
20
29.461
30
0
11
89.62
21
29.2
31
0
0
LINE
8
0
62
1
10
89.62
20
29.2
30
0
11
89.933
21
28.932
31
0
0
LINE
8
0
62
1
10
89.933
20
28.932
30
0
11
90.24
21
28.659
31
0
0
LINE
8
0
62
1
10
90.24
20
28.659
30
0
11
90.542
21
28.38
31
0
0
LINE
8
0
62
1
10
90.542
20
28.38
30
0
11
90.838
21
28.095
31
0
0
LINE
8
0
62
1
10
90.838
20
28.095
30
0
11
91.129
21
27.804
31
0
0
LINE
8
0
62
1
10
91.129
20
27.804
30
0
11
91.414
21
27.508
31
0
0
LINE
8
0
62
1
10
91.414
20
27.508
30
0
11
91.693
21
27.206
31
0
0
LINE
8
0
62
1
10
91.693
20
27.206
30
0
11
91.966
21
26.899
31
0
0
LINE
8
0
62
1
10
91.966
20
26.899
30
0
11
92.234
21
26.586
31
0
0
LINE
8
0
62
1
10
92.234
20
26.586
30
0
11
92.495
21
26.269
31
0
0
LINE
8
0
62
1
10
92.495
20
26.269
30
0
11
92.75
21
25.946
31
0
0
LINE
8
0
62
1
10
92.75
20
25.946
30
0
11
92.999
21
25.619
31
0
0
LINE
8
0
62
1
10
92.999
20
25.619
30
0
11
93.241
21
25.286
31
0
0
LINE
8
0
62
1
10
93.241
20
25.286
30
0
11
93.477
21
24.95
31
0
0
LINE
8
0
62
1
10
93.477
20
24.95
30
0
11
93.706
21
24.608
31
0
0
LINE
8
0
62
1
10
93.706
20
24.608
30
0
11
93.929
21
24.262
31
0
0
LINE
8
0
62
1
10
93.929
20
24.262
30
0
11
94.145
21
23.913
31
0
0
LINE
8
0
62
1
10
94.145
20
23.913
30
0
11
94.354
21
23.558
31
0
0
LINE
8
0
62
1
10
94.354
20
23.558
30
0
11
94.556
21
23.2
31
0
0
LINE
8
0
62
1
10
94.556
20
23.2
30
0
11
94.751
21
22.838
31
0
0
LINE
8
0
62
1
10
94.751
20
22.838
30
0
11
94.939
21
22.473
31
0
0
LINE
8
0
62
1
10
94.939
20
22.473
30
0
11
95.12
21
22.103
31
0
0
LINE
8
0
62
1
10
95.12
20
22.103
30
0
11
95.294
21
21.731
31
0
0
LINE
8
0
62
1
10
95.294
20
21.731
30
0
11
95.461
21
21.355
31
0
0
LINE
8
0
62
1
10
95.461
20
21.355
30
0
11
95.62
21
20.976
31
0
0
LINE
8
0
62
1
10
95.62
20
20.976
30
0
11
95.772
21
20.593
31
0
0
LINE
8
0
62
1
10
95.772
20
20.593
30
0
11
95.916
21
20.208
31
0
0
LINE
8
0
62
1
10
95.916
20
20.208
30
0
11
96.053
21
19.821
31
0
0
LINE
8
0
62
1
10
96.053
20
19.821
30
0
11
96.182
21
19.43
31
0
0
LINE
8
0
62
1
10
96.182
20
19.43
30
0
11
96.304
21
19.038
31
0
0
LINE
8
0
62
1
10
96.304
20
19.038
30
0
11
96.418
21
18.643
31
0
0
LINE
8
0
62
1
10
96.418
20
18.643
30
0
11
96.525
21
18.245
31
0
0
LINE
8
0
62
1
10
96.525
20
18.245
30
0
11
96.623
21
17.846
31
0
0
LINE
8
0
62
1
10
96.623
20
17.846
30
0
11
96.714
21
17.445
31
0
0
LINE
8
0
62
1
10
96.714
20
17.445
30
0
11
96.797
21
17.042
31
0
0
LINE
8
0
62
1
10
96.797
20
17.042
30
0
11
96.873
21
16.638
31
0
0
LINE
8
0
62
1
10
96.873
20
16.638
30
0
11
96.94
21
16.233
31
0
0
LINE
8
0
62
1
10
96.94
20
16.233
30
0
11
97
21
15.826
31
0
0
LINE
8
0
62
1
10
97
20
15.826
30
0
11
97.051
21
15.418
31
0
0
LINE
8
0
62
1
10
97.051
20
15.418
30
0
11
97.095
21
15.009
31
0
0
LINE
8
0
62
1
10
97.095
20
15.009
30
0
11
97.131
21
14.599
31
0
0
LINE
8
0
62
1
10
97.131
20
14.599
30
0
11
97.159
21
14.189
31
0
0
LINE
8
0
62
1
10
97.159
20
14.189
30
0
11
97.179
21
13.778
31
0
0
LINE
8
0
62
1
10
97.179
20
13.778
30
0
11
97.191
21
13.367
31
0
0
LINE
8
0
62
1
10
97.191
20
13.367
30
0
11
97.195
21
12.956
31
0
0
LINE
8
0
62
1
10
97.195
20
12.956
30
0
11
97.195
21
-70.61
31
0
0
LINE
8
0
62
1
10
97.195
20
-70.61
30
0
11
97.192
21
-70.625
31
0
0
LINE
8
0
62
1
10
97.192
20
-70.625
30
0
11
97.184
21
-70.637
31
0
0
LINE
8
0
62
1
10
97.184
20
-70.637
30
0
11
97.171
21
-70.645
31
0
0
LINE
8
0
62
1
10
97.171
20
-70.645
30
0
11
97.157
21
-70.648
31
0
0
LINE
8
0
62
1
10
97.157
20
-70.648
30
0
11
89.817
21
-70.648
31
0
0
LINE
8
0
62
1
10
89.817
20
-70.648
30
0
11
89.802
21
-70.645
31
0
0
LINE
8
0
62
1
10
89.802
20
-70.645
30
0
11
89.79
21
-70.637
31
0
0
LINE
8
0
62
1
10
89.79
20
-70.637
30
0
11
89.782
21
-70.625
31
0
0
LINE
8
0
62
1
10
89.782
20
-70.625
30
0
11
89.779
21
-70.61
31
0
0
LINE
8
0
62
1
10
89.779
20
-70.61
30
0
11
89.779
21
-45.61
31
0
0
LINE
8
0
62
1
10
52.568
20
-9.823
30
0
11
52.553
21
-9.82
31
0
0
LINE
8
0
62
1
10
52.553
20
-9.82
30
0
11
52.541
21
-9.812
31
0
0
LINE
8
0
62
1
10
52.541
20
-9.812
30
0
11
52.533
21
-9.8
31
0
0
LINE
8
0
62
1
10
52.533
20
-9.8
30
0
11
52.53
21
-9.785
31
0
0
LINE
8
0
62
1
10
52.53
20
-9.785
30
0
11
52.53
21
7.265
31
0
0
LINE
8
0
62
1
10
52.53
20
7.265
30
0
11
52.533
21
7.28
31
0
0
LINE
8
0
62
1
10
52.533
20
7.28
30
0
11
52.541
21
7.292
31
0
0
LINE
8
0
62
1
10
52.541
20
7.292
30
0
11
52.553
21
7.3
31
0
0
LINE
8
0
62
1
10
52.553
20
7.3
30
0
11
52.568
21
7.303
31
0
0
LINE
8
0
62
1
10
52.568
20
7.303
30
0
11
62.144
21
7.303
31
0
0
LINE
8
0
62
1
10
62.144
20
7.303
30
0
11
62.159
21
7.3
31
0
0
LINE
8
0
62
1
10
62.159
20
7.3
30
0
11
62.171
21
7.292
31
0
0
LINE
8
0
62
1
10
62.171
20
7.292
30
0
11
62.179
21
7.28
31
0
0
LINE
8
0
62
1
10
62.179
20
7.28
30
0
11
62.182
21
7.265
31
0
0
LINE
8
0
62
1
10
62.182
20
7.265
30
0
11
62.182
21
-9.785
31
0
0
LINE
8
0
62
1
10
62.182
20
-9.785
30
0
11
62.179
21
-9.8
31
0
0
LINE
8
0
62
1
10
62.179
20
-9.8
30
0
11
62.171
21
-9.812
31
0
0
LINE
8
0
62
1
10
62.171
20
-9.812
30
0
11
62.159
21
-9.82
31
0
0
LINE
8
0
62
1
10
62.159
20
-9.82
30
0
11
62.144
21
-9.823
31
0
0
LINE
8
0
62
1
10
62.144
20
-9.823
30
0
11
52.568
21
-9.823
31
0
0
LINE
8
0
62
1
10
50.568
20
-9.823
30
0
11
40.992
21
-9.823
31
0
0
LINE
8
0
62
1
10
40.992
20
-9.823
30
0
11
40.977
21
-9.82
31
0
0
LINE
8
0
62
1
10
40.977
20
-9.82
30
0
11
40.965
21
-9.812
31
0
0
LINE
8
0
62
1
10
40.965
20
-9.812
30
0
11
40.957
21
-9.8
31
0
0
LINE
8
0
62
1
10
40.957
20
-9.8
30
0
11
40.954
21
-9.785
31
0
0
LINE
8
0
62
1
10
40.954
20
-9.785
30
0
11
40.954
21
7.265
31
0
0
LINE
8
0
62
1
10
40.954
20
7.265
30
0
11
40.957
21
7.28
31
0
0
LINE
8
0
62
1
10
40.957
20
7.28
30
0
11
40.965
21
7.292
31
0
0
LINE
8
0
62
1
10
40.965
20
7.292
30
0
11
40.977
21
7.3
31
0
0
LINE
8
0
62
1
10
40.977
20
7.3
30
0
11
40.992
21
7.303
31
0
0
LINE
8
0
62
1
10
40.992
20
7.303
30
0
11
50.568
21
7.303
31
0
0
LINE
8
0
62
1
10
50.568
20
7.303
30
0
11
50.582
21
7.3
31
0
0
LINE
8
0
62
1
10
50.582
20
7.3
30
0
11
50.595
21
7.292
31
0
0
LINE
8
0
62
1
10
50.595
20
7.292
30
0
11
50.603
21
7.28
31
0
0
LINE
8
0
62
1
10
50.603
20
7.28
30
0
11
50.606
21
7.265
31
0
0
LINE
8
0
62
1
10
50.606
20
7.265
30
0
11
50.606
21
-9.785
31
0
0
LINE
8
0
62
1
10
50.606
20
-9.785
30
0
11
50.603
21
-9.8
31
0
0
LINE
8
0
62
1
10
50.603
20
-9.8
30
0
11
50.595
21
-9.812
31
0
0
LINE
8
0
62
1
10
50.595
20
-9.812
30
0
11
50.582
21
-9.82
31
0
0
LINE
8
0
62
1
10
50.582
20
-9.82
30
0
11
50.568
21
-9.823
31
0
0
LINE
8
0
62
1
10
50.568
20
-11.747
30
0
11
50.582
21
-11.75
31
0
0
LINE
8
0
62
1
10
50.582
20
-11.75
30
0
11
50.595
21
-11.758
31
0
0
LINE
8
0
62
1
10
50.595
20
-11.758
30
0
11
50.603
21
-11.77
31
0
0
LINE
8
0
62
1
10
50.603
20
-11.77
30
0
11
50.606
21
-11.785
31
0
0
LINE
8
0
62
1
10
50.606
20
-11.785
30
0
11
50.606
21
-28.835
31
0
0
LINE
8
0
62
1
10
50.606
20
-28.835
30
0
11
50.603
21
-28.85
31
0
0
LINE
8
0
62
1
10
50.603
20
-28.85
30
0
11
50.595
21
-28.862
31
0
0
LINE
8
0
62
1
10
50.595
20
-28.862
30
0
11
50.582
21
-28.87
31
0
0
LINE
8
0
62
1
10
50.582
20
-28.87
30
0
11
50.568
21
-28.873
31
0
0
LINE
8
0
62
1
10
50.568
20
-28.873
30
0
11
40.992
21
-28.873
31
0
0
LINE
8
0
62
1
10
40.992
20
-28.873
30
0
11
40.977
21
-28.87
31
0
0
LINE
8
0
62
1
10
40.977
20
-28.87
30
0
11
40.965
21
-28.862
31
0
0
LINE
8
0
62
1
10
40.965
20
-28.862
30
0
11
40.957
21
-28.85
31
0
0
LINE
8
0
62
1
10
40.957
20
-28.85
30
0
11
40.954
21
-28.835
31
0
0
LINE
8
0
62
1
10
40.954
20
-28.835
30
0
11
40.954
21
-11.785
31
0
0
LINE
8
0
62
1
10
40.954
20
-11.785
30
0
11
40.957
21
-11.77
31
0
0
LINE
8
0
62
1
10
40.957
20
-11.77
30
0
11
40.965
21
-11.758
31
0
0
LINE
8
0
62
1
10
40.965
20
-11.758
30
0
11
40.977
21
-11.75
31
0
0
LINE
8
0
62
1
10
40.977
20
-11.75
30
0
11
40.992
21
-11.747
31
0
0
LINE
8
0
62
1
10
40.992
20
-11.747
30
0
11
50.568
21
-11.747
31
0
0
LINE
8
0
62
1
10
52.53
20
-11.784
30
0
11
52.533
21
-11.77
31
0
0
LINE
8
0
62
1
10
52.533
20
-11.77
30
0
11
52.541
21
-11.758
31
0
0
LINE
8
0
62
1
10
52.541
20
-11.758
30
0
11
52.553
21
-11.75
31
0
0
LINE
8
0
62
1
10
52.553
20
-11.75
30
0
11
52.568
21
-11.747
31
0
0
LINE
8
0
62
1
10
52.568
20
-11.747
30
0
11
62.144
21
-11.747
31
0
0
LINE
8
0
62
1
10
62.144
20
-11.747
30
0
11
62.159
21
-11.75
31
0
0
LINE
8
0
62
1
10
62.159
20
-11.75
30
0
11
62.171
21
-11.758
31
0
0
LINE
8
0
62
1
10
62.171
20
-11.758
30
0
11
62.179
21
-11.77
31
0
0
LINE
8
0
62
1
10
62.179
20
-11.77
30
0
11
62.182
21
-11.785
31
0
0
LINE
8
0
62
1
10
62.182
20
-11.785
30
0
11
62.182
21
-28.835
31
0
0
LINE
8
0
62
1
10
62.182
20
-28.835
30
0
11
62.179
21
-28.85
31
0
0
LINE
8
0
62
1
10
62.179
20
-28.85
30
0
11
62.171
21
-28.862
31
0
0
LINE
8
0
62
1
10
62.171
20
-28.862
30
0
11
62.159
21
-28.87
31
0
0
LINE
8
0
62
1
10
62.159
20
-28.87
30
0
11
62.144
21
-28.873
31
0
0
LINE
8
0
62
1
10
62.144
20
-28.873
30
0
11
52.568
21
-28.873
31
0
0
LINE
8
0
62
1
10
52.568
20
-28.873
30
0
11
52.553
21
-28.87
31
0
0
LINE
8
0
62
1
10
52.553
20
-28.87
30
0
11
52.541
21
-28.862
31
0
0
LINE
8
0
62
1
10
52.541
20
-28.862
30
0
11
52.533
21
-28.85
31
0
0
LINE
8
0
62
1
10
52.533
20
-28.85
30
0
11
52.53
21
-28.835
31
0
0
LINE
8
0
62
1
10
52.53
20
-28.835
30
0
11
52.53
21
-11.785
31
0
0
LINE
8
0
62
1
10
52.53
20
-11.785
30
0
11
52.53
21
-11.784
31
0
0
LINE
8
0
62
1
10
100.67
20
-7.462
30
0
11
106.667
21
-7.462
31
0
0
LINE
8
0
62
1
10
106.667
20
-7.462
30
0
11
106.682
21
-7.465
31
0
0
LINE
8
0
62
1
10
106.682
20
-7.465
30
0
11
106.694
21
-7.473
31
0
0
LINE
8
0
62
1
10
106.694
20
-7.473
30
0
11
106.702
21
-7.485
31
0
0
LINE
8
0
62
1
10
106.702
20
-7.485
30
0
11
106.705
21
-7.5
31
0
0
LINE
8
0
62
1
10
106.705
20
-7.5
30
0
11
106.705
21
-22.5
31
0
0
LINE
8
0
62
1
10
106.705
20
-22.5
30
0
11
106.702
21
-22.515
31
0
0
LINE
8
0
62
1
10
106.702
20
-22.515
30
0
11
106.694
21
-22.527
31
0
0
LINE
8
0
62
1
10
106.694
20
-22.527
30
0
11
106.682
21
-22.535
31
0
0
LINE
8
0
62
1
10
106.682
20
-22.535
30
0
11
106.667
21
-22.538
31
0
0
LINE
8
0
62
1
10
106.667
20
-22.538
30
0
11
100.365
21
-22.538
31
0
0
LINE
8
0
62
1
10
100.365
20
-22.538
30
0
11
100.365
21
-37.462
31
0
0
LINE
8
0
62
1
10
100.365
20
-37.462
30
0
11
106.667
21
-37.462
31
0
0
LINE
8
0
62
1
10
106.667
20
-37.462
30
0
11
106.682
21
-37.465
31
0
0
LINE
8
0
62
1
10
106.682
20
-37.465
30
0
11
106.694
21
-37.473
31
0
0
LINE
8
0
62
1
10
106.694
20
-37.473
30
0
11
106.702
21
-37.485
31
0
0
LINE
8
0
62
1
10
106.702
20
-37.485
30
0
11
106.705
21
-37.5
31
0
0
LINE
8
0
62
1
10
106.705
20
-37.5
30
0
11
106.705
21
-52.5
31
0
0
LINE
8
0
62
1
10
106.705
20
-52.5
30
0
11
106.702
21
-52.515
31
0
0
LINE
8
0
62
1
10
106.702
20
-52.515
30
0
11
106.694
21
-52.527
31
0
0
LINE
8
0
62
1
10
106.694
20
-52.527
30
0
11
106.682
21
-52.535
31
0
0
LINE
8
0
62
1
10
106.682
20
-52.535
30
0
11
106.667
21
-52.538
31
0
0
LINE
8
0
62
1
10
106.667
20
-52.538
30
0
11
100.365
21
-52.538
31
0
0
LINE
8
0
62
1
10
100.365
20
-52.538
30
0
11
100.365
21
-67.462
31
0
0
LINE
8
0
62
1
10
100.365
20
-67.462
30
0
11
106.667
21
-67.462
31
0
0
LINE
8
0
62
1
10
106.667
20
-67.462
30
0
11
106.682
21
-67.465
31
0
0
LINE
8
0
62
1
10
106.682
20
-67.465
30
0
11
106.694
21
-67.473
31
0
0
LINE
8
0
62
1
10
106.694
20
-67.473
30
0
11
106.702
21
-67.485
31
0
0
LINE
8
0
62
1
10
106.702
20
-67.485
30
0
11
106.705
21
-67.5
31
0
0
LINE
8
0
62
1
10
106.705
20
-67.5
30
0
11
106.705
21
-72.11
31
0
0
LINE
8
0
62
1
10
106.705
20
-72.11
30
0
11
106.702
21
-72.125
31
0
0
LINE
8
0
62
1
10
106.702
20
-72.125
30
0
11
106.694
21
-72.137
31
0
0
LINE
8
0
62
1
10
106.694
20
-72.137
30
0
11
106.682
21
-72.145
31
0
0
LINE
8
0
62
1
10
106.682
20
-72.145
30
0
11
106.667
21
-72.148
31
0
0
LINE
8
0
62
1
10
106.667
20
-72.148
30
0
11
97.538
21
-72.148
31
0
0
LINE
8
0
62
1
10
97.538
20
-72.148
30
0
11
97.538
21
-78.45
31
0
0
LINE
8
0
62
1
10
97.538
20
-78.45
30
0
11
97.535
21
-78.465
31
0
0
LINE
8
0
62
1
10
97.535
20
-78.465
30
0
11
97.527
21
-78.477
31
0
0
LINE
8
0
62
1
10
97.527
20
-78.477
30
0
11
97.515
21
-78.485
31
0
0
LINE
8
0
62
1
10
97.515
20
-78.485
30
0
11
97.5
21
-78.488
31
0
0
LINE
8
0
62
1
10
97.5
20
-78.488
30
0
11
82.5
21
-78.488
31
0
0
LINE
8
0
62
1
10
82.5
20
-78.488
30
0
11
82.485
21
-78.485
31
0
0
LINE
8
0
62
1
10
82.485
20
-78.485
30
0
11
82.473
21
-78.477
31
0
0
LINE
8
0
62
1
10
82.473
20
-78.477
30
0
11
82.465
21
-78.465
31
0
0
LINE
8
0
62
1
10
82.465
20
-78.465
30
0
11
82.462
21
-78.45
31
0
0
LINE
8
0
62
1
10
82.462
20
-78.45
30
0
11
82.462
21
-72.148
31
0
0
LINE
8
0
62
1
10
82.462
20
-72.148
30
0
11
67.538
21
-72.148
31
0
0
LINE
8
0
62
1
10
67.538
20
-72.148
30
0
11
67.538
21
-78.45
31
0
0
LINE
8
0
62
1
10
67.538
20
-78.45
30
0
11
67.535
21
-78.465
31
0
0
LINE
8
0
62
1
10
67.535
20
-78.465
30
0
11
67.527
21
-78.477
31
0
0
LINE
8
0
62
1
10
67.527
20
-78.477
30
0
11
67.515
21
-78.485
31
0
0
LINE
8
0
62
1
10
67.515
20
-78.485
30
0
11
67.5
21
-78.488
31
0
0
LINE
8
0
62
1
10
67.5
20
-78.488
30
0
11
52.5
21
-78.488
31
0
0
LINE
8
0
62
1
10
52.5
20
-78.488
30
0
11
52.485
21
-78.485
31
0
0
LINE
8
0
62
1
10
52.485
20
-78.485
30
0
11
52.473
21
-78.477
31
0
0
LINE
8
0
62
1
10
52.473
20
-78.477
30
0
11
52.465
21
-78.465
31
0
0
LINE
8
0
62
1
10
52.465
20
-78.465
30
0
11
52.462
21
-78.45
31
0
0
LINE
8
0
62
1
10
52.462
20
-78.45
30
0
11
52.462
21
-72.148
31
0
0
LINE
8
0
62
1
10
52.462
20
-72.148
30
0
11
37.538
21
-72.148
31
0
0
LINE
8
0
62
1
10
37.538
20
-72.148
30
0
11
37.538
21
-78.45
31
0
0
LINE
8
0
62
1
10
37.538
20
-78.45
30
0
11
37.535
21
-78.465
31
0
0
LINE
8
0
62
1
10
37.535
20
-78.465
30
0
11
37.527
21
-78.477
31
0
0
LINE
8
0
62
1
10
37.527
20
-78.477
30
0
11
37.515
21
-78.485
31
0
0
LINE
8
0
62
1
10
37.515
20
-78.485
30
0
11
37.5
21
-78.488
31
0
0
LINE
8
0
62
1
10
37.5
20
-78.488
30
0
11
22.5
21
-78.488
31
0
0
LINE
8
0
62
1
10
22.5
20
-78.488
30
0
11
22.485
21
-78.485
31
0
0
LINE
8
0
62
1
10
22.485
20
-78.485
30
0
11
22.473
21
-78.477
31
0
0
LINE
8
0
62
1
10
22.473
20
-78.477
30
0
11
22.465
21
-78.465
31
0
0
LINE
8
0
62
1
10
22.465
20
-78.465
30
0
11
22.462
21
-78.45
31
0
0
LINE
8
0
62
1
10
22.462
20
-78.45
30
0
11
22.462
21
-72.148
31
0
0
LINE
8
0
62
1
10
22.462
20
-72.148
30
0
11
7.538
21
-72.148
31
0
0
LINE
8
0
62
1
10
7.538
20
-72.148
30
0
11
7.538
21
-78.45
31
0
0
LINE
8
0
62
1
10
7.538
20
-78.45
30
0
11
7.535
21
-78.465
31
0
0
LINE
8
0
62
1
10
7.535
20
-78.465
30
0
11
7.527
21
-78.477
31
0
0
LINE
8
0
62
1
10
7.527
20
-78.477
30
0
11
7.515
21
-78.485
31
0
0
LINE
8
0
62
1
10
7.515
20
-78.485
30
0
11
7.5
21
-78.488
31
0
0
LINE
8
0
62
1
10
7.5
20
-78.488
30
0
11
-7.5
21
-78.488
31
0
0
LINE
8
0
62
1
10
-7.5
20
-78.488
30
0
11
-7.515
21
-78.485
31
0
0
LINE
8
0
62
1
10
-7.515
20
-78.485
30
0
11
-7.527
21
-78.477
31
0
0
LINE
8
0
62
1
10
-7.527
20
-78.477
30
0
11
-7.535
21
-78.465
31
0
0
LINE
8
0
62
1
10
-7.535
20
-78.465
30
0
11
-7.538
21
-78.45
31
0
0
LINE
8
0
62
1
10
-7.538
20
-78.45
30
0
11
-7.538
21
-72.148
31
0
0
LINE
8
0
62
1
10
-7.538
20
-72.148
30
0
11
-22.462
21
-72.148
31
0
0
LINE
8
0
62
1
10
-22.462
20
-72.148
30
0
11
-22.462
21
-78.45
31
0
0
LINE
8
0
62
1
10
-22.462
20
-78.45
30
0
11
-22.465
21
-78.465
31
0
0
LINE
8
0
62
1
10
-22.465
20
-78.465
30
0
11
-22.473
21
-78.477
31
0
0
LINE
8
0
62
1
10
-22.473
20
-78.477
30
0
11
-22.485
21
-78.485
31
0
0
LINE
8
0
62
1
10
-22.485
20
-78.485
30
0
11
-22.5
21
-78.488
31
0
0
LINE
8
0
62
1
10
-22.5
20
-78.488
30
0
11
-37.5
21
-78.488
31
0
0
LINE
8
0
62
1
10
-37.5
20
-78.488
30
0
11
-37.515
21
-78.485
31
0
0
LINE
8
0
62
1
10
-37.515
20
-78.485
30
0
11
-37.527
21
-78.477
31
0
0
LINE
8
0
62
1
10
-37.527
20
-78.477
30
0
11
-37.535
21
-78.465
31
0
0
LINE
8
0
62
1
10
-37.535
20
-78.465
30
0
11
-37.538
21
-78.45
31
0
0
LINE
8
0
62
1
10
-37.538
20
-78.45
30
0
11
-37.538
21
-72.148
31
0
0
LINE
8
0
62
1
10
-37.538
20
-72.148
30
0
11
-52.462
21
-72.148
31
0
0
LINE
8
0
62
1
10
-52.462
20
-72.148
30
0
11
-52.462
21
-78.45
31
0
0
LINE
8
0
62
1
10
-52.462
20
-78.45
30
0
11
-52.465
21
-78.465
31
0
0
LINE
8
0
62
1
10
-52.465
20
-78.465
30
0
11
-52.473
21
-78.477
31
0
0
LINE
8
0
62
1
10
-52.473
20
-78.477
30
0
11
-52.485
21
-78.485
31
0
0
LINE
8
0
62
1
10
-52.485
20
-78.485
30
0
11
-52.5
21
-78.488
31
0
0
LINE
8
0
62
1
10
-52.5
20
-78.488
30
0
11
-67.5
21
-78.488
31
0
0
LINE
8
0
62
1
10
-67.5
20
-78.488
30
0
11
-67.515
21
-78.485
31
0
0
LINE
8
0
62
1
10
-67.515
20
-78.485
30
0
11
-67.527
21
-78.477
31
0
0
LINE
8
0
62
1
10
-67.527
20
-78.477
30
0
11
-67.535
21
-78.465
31
0
0
LINE
8
0
62
1
10
-67.535
20
-78.465
30
0
11
-67.538
21
-78.45
31
0
0
LINE
8
0
62
1
10
-67.538
20
-78.45
30
0
11
-67.538
21
-72.148
31
0
0
LINE
8
0
62
1
10
-67.538
20
-72.148
30
0
11
-82.462
21
-72.148
31
0
0
LINE
8
0
62
1
10
-82.462
20
-72.148
30
0
11
-82.462
21
-78.45
31
0
0
LINE
8
0
62
1
10
-82.462
20
-78.45
30
0
11
-82.465
21
-78.465
31
0
0
LINE
8
0
62
1
10
-82.465
20
-78.465
30
0
11
-82.473
21
-78.477
31
0
0
LINE
8
0
62
1
10
-82.473
20
-78.477
30
0
11
-82.485
21
-78.485
31
0
0
LINE
8
0
62
1
10
-82.485
20
-78.485
30
0
11
-82.5
21
-78.488
31
0
0
LINE
8
0
62
1
10
-82.5
20
-78.488
30
0
11
-97.5
21
-78.488
31
0
0
LINE
8
0
62
1
10
-97.5
20
-78.488
30
0
11
-97.515
21
-78.485
31
0
0
LINE
8
0
62
1
10
-97.515
20
-78.485
30
0
11
-97.527
21
-78.477
31
0
0
LINE
8
0
62
1
10
-97.527
20
-78.477
30
0
11
-97.535
21
-78.465
31
0
0
LINE
8
0
62
1
10
-97.535
20
-78.465
30
0
11
-97.538
21
-78.45
31
0
0
LINE
8
0
62
1
10
-97.538
20
-78.45
30
0
11
-97.538
21
-72.148
31
0
0
LINE
8
0
62
1
10
-97.538
20
-72.148
30
0
11
-106.667
21
-72.148
31
0
0
LINE
8
0
62
1
10
-106.667
20
-72.148
30
0
11
-106.682
21
-72.145
31
0
0
LINE
8
0
62
1
10
-106.682
20
-72.145
30
0
11
-106.694
21
-72.137
31
0
0
LINE
8
0
62
1
10
-106.694
20
-72.137
30
0
11
-106.702
21
-72.125
31
0
0
LINE
8
0
62
1
10
-106.702
20
-72.125
30
0
11
-106.705
21
-72.11
31
0
0
LINE
8
0
62
1
10
-106.705
20
-72.11
30
0
11
-106.705
21
-67.5
31
0
0
LINE
8
0
62
1
10
-106.705
20
-67.5
30
0
11
-106.702
21
-67.485
31
0
0
LINE
8
0
62
1
10
-106.702
20
-67.485
30
0
11
-106.694
21
-67.473
31
0
0
LINE
8
0
62
1
10
-106.694
20
-67.473
30
0
11
-106.682
21
-67.465
31
0
0
LINE
8
0
62
1
10
-106.682
20
-67.465
30
0
11
-106.667
21
-67.462
31
0
0
LINE
8
0
62
1
10
-106.667
20
-67.462
30
0
11
-100.365
21
-67.462
31
0
0
LINE
8
0
62
1
10
-100.365
20
-67.462
30
0
11
-100.365
21
-52.538
31
0
0
LINE
8
0
62
1
10
-100.365
20
-52.538
30
0
11
-106.667
21
-52.538
31
0
0
LINE
8
0
62
1
10
-106.667
20
-52.538
30
0
11
-106.682
21
-52.535
31
0
0
LINE
8
0
62
1
10
-106.682
20
-52.535
30
0
11
-106.694
21
-52.527
31
0
0
LINE
8
0
62
1
10
-106.694
20
-52.527
30
0
11
-106.702
21
-52.515
31
0
0
LINE
8
0
62
1
10
-106.702
20
-52.515
30
0
11
-106.705
21
-52.5
31
0
0
LINE
8
0
62
1
10
-106.705
20
-52.5
30
0
11
-106.705
21
-37.5
31
0
0
LINE
8
0
62
1
10
-106.705
20
-37.5
30
0
11
-106.702
21
-37.485
31
0
0
LINE
8
0
62
1
10
-106.702
20
-37.485
30
0
11
-106.694
21
-37.473
31
0
0
LINE
8
0
62
1
10
-106.694
20
-37.473
30
0
11
-106.682
21
-37.465
31
0
0
LINE
8
0
62
1
10
-106.682
20
-37.465
30
0
11
-106.667
21
-37.462
31
0
0
LINE
8
0
62
1
10
-106.667
20
-37.462
30
0
11
-100.365
21
-37.462
31
0
0
LINE
8
0
62
1
10
-100.365
20
-37.462
30
0
11
-100.365
21
-22.538
31
0
0
LINE
8
0
62
1
10
-100.365
20
-22.538
30
0
11
-106.667
21
-22.538
31
0
0
LINE
8
0
62
1
10
-106.667
20
-22.538
30
0
11
-106.682
21
-22.535
31
0
0
LINE
8
0
62
1
10
-106.682
20
-22.535
30
0
11
-106.694
21
-22.527
31
0
0
LINE
8
0
62
1
10
-106.694
20
-22.527
30
0
11
-106.702
21
-22.515
31
0
0
LINE
8
0
62
1
10
-106.702
20
-22.515
30
0
11
-106.705
21
-22.5
31
0
0
LINE
8
0
62
1
10
-106.705
20
-22.5
30
0
11
-106.705
21
-7.5
31
0
0
LINE
8
0
62
1
10
-106.705
20
-7.5
30
0
11
-106.702
21
-7.485
31
0
0
LINE
8
0
62
1
10
-106.702
20
-7.485
30
0
11
-106.694
21
-7.473
31
0
0
LINE
8
0
62
1
10
-106.694
20
-7.473
30
0
11
-106.682
21
-7.465
31
0
0
LINE
8
0
62
1
10
-106.682
20
-7.465
30
0
11
-106.667
21
-7.462
31
0
0
LINE
8
0
62
1
10
-106.667
20
-7.462
30
0
11
-100.365
21
-7.462
31
0
0
LINE
8
0
62
1
10
-100.365
20
-7.462
30
0
11
-100.365
21
7.462
31
0
0
LINE
8
0
62
1
10
-100.365
20
7.462
30
0
11
-106.667
21
7.462
31
0
0
LINE
8
0
62
1
10
-106.667
20
7.462
30
0
11
-106.682
21
7.465
31
0
0
LINE
8
0
62
1
10
-106.682
20
7.465
30
0
11
-106.694
21
7.473
31
0
0
LINE
8
0
62
1
10
-106.694
20
7.473
30
0
11
-106.702
21
7.485
31
0
0
LINE
8
0
62
1
10
-106.702
20
7.485
30
0
11
-106.705
21
7.5
31
0
0
LINE
8
0
62
1
10
-106.705
20
7.5
30
0
11
-106.705
21
22.5
31
0
0
LINE
8
0
62
1
10
-106.705
20
22.5
30
0
11
-106.702
21
22.515
31
0
0
LINE
8
0
62
1
10
-106.702
20
22.515
30
0
11
-106.694
21
22.527
31
0
0
LINE
8
0
62
1
10
-106.694
20
22.527
30
0
11
-106.682
21
22.535
31
0
0
LINE
8
0
62
1
10
-106.682
20
22.535
30
0
11
-106.667
21
22.538
31
0
0
LINE
8
0
62
1
10
-106.667
20
22.538
30
0
11
-100.365
21
22.538
31
0
0
LINE
8
0
62
1
10
-100.365
20
22.538
30
0
11
-100.365
21
37.462
31
0
0
LINE
8
0
62
1
10
-100.365
20
37.462
30
0
11
-106.667
21
37.462
31
0
0
LINE
8
0
62
1
10
-106.667
20
37.462
30
0
11
-106.682
21
37.465
31
0
0
LINE
8
0
62
1
10
-106.682
20
37.465
30
0
11
-106.694
21
37.473
31
0
0
LINE
8
0
62
1
10
-106.694
20
37.473
30
0
11
-106.702
21
37.485
31
0
0
LINE
8
0
62
1
10
-106.702
20
37.485
30
0
11
-106.705
21
37.5
31
0
0
LINE
8
0
62
1
10
-106.705
20
37.5
30
0
11
-106.705
21
52.5
31
0
0
LINE
8
0
62
1
10
-106.705
20
52.5
30
0
11
-106.702
21
52.515
31
0
0
LINE
8
0
62
1
10
-106.702
20
52.515
30
0
11
-106.694
21
52.527
31
0
0
LINE
8
0
62
1
10
-106.694
20
52.527
30
0
11
-106.682
21
52.535
31
0
0
LINE
8
0
62
1
10
-106.682
20
52.535
30
0
11
-106.667
21
52.538
31
0
0
LINE
8
0
62
1
10
-106.667
20
52.538
30
0
11
-100.365
21
52.538
31
0
0
LINE
8
0
62
1
10
-100.365
20
52.538
30
0
11
-100.365
21
67.462
31
0
0
LINE
8
0
62
1
10
-100.365
20
67.462
30
0
11
-106.667
21
67.462
31
0
0
LINE
8
0
62
1
10
-106.667
20
67.462
30
0
11
-106.682
21
67.465
31
0
0
LINE
8
0
62
1
10
-106.682
20
67.465
30
0
11
-106.694
21
67.473
31
0
0
LINE
8
0
62
1
10
-106.694
20
67.473
30
0
11
-106.702
21
67.485
31
0
0
LINE
8
0
62
1
10
-106.702
20
67.485
30
0
11
-106.705
21
67.5
31
0
0
LINE
8
0
62
1
10
-106.705
20
67.5
30
0
11
-106.705
21
72.11
31
0
0
LINE
8
0
62
1
10
-106.705
20
72.11
30
0
11
-106.702
21
72.125
31
0
0
LINE
8
0
62
1
10
-106.702
20
72.125
30
0
11
-106.694
21
72.137
31
0
0
LINE
8
0
62
1
10
-106.694
20
72.137
30
0
11
-106.682
21
72.145
31
0
0
LINE
8
0
62
1
10
-106.682
20
72.145
30
0
11
-106.667
21
72.148
31
0
0
LINE
8
0
62
1
10
-106.667
20
72.148
30
0
11
-97.538
21
72.148
31
0
0
LINE
8
0
62
1
10
-97.538
20
72.148
30
0
11
-97.538
21
78.45
31
0
0
LINE
8
0
62
1
10
-97.538
20
78.45
30
0
11
-97.535
21
78.465
31
0
0
LINE
8
0
62
1
10
-97.535
20
78.465
30
0
11
-97.527
21
78.477
31
0
0
LINE
8
0
62
1
10
-97.527
20
78.477
30
0
11
-97.515
21
78.485
31
0
0
LINE
8
0
62
1
10
-97.515
20
78.485
30
0
11
-97.5
21
78.488
31
0
0
LINE
8
0
62
1
10
-97.5
20
78.488
30
0
11
-82.5
21
78.488
31
0
0
LINE
8
0
62
1
10
-82.5
20
78.488
30
0
11
-82.485
21
78.485
31
0
0
LINE
8
0
62
1
10
-82.485
20
78.485
30
0
11
-82.473
21
78.477
31
0
0
LINE
8
0
62
1
10
-82.473
20
78.477
30
0
11
-82.465
21
78.465
31
0
0
LINE
8
0
62
1
10
-82.465
20
78.465
30
0
11
-82.462
21
78.45
31
0
0
LINE
8
0
62
1
10
-82.462
20
78.45
30
0
11
-82.462
21
72.148
31
0
0
LINE
8
0
62
1
10
-82.462
20
72.148
30
0
11
-67.538
21
72.148
31
0
0
LINE
8
0
62
1
10
-67.538
20
72.148
30
0
11
-67.538
21
78.45
31
0
0
LINE
8
0
62
1
10
-67.538
20
78.45
30
0
11
-67.535
21
78.465
31
0
0
LINE
8
0
62
1
10
-67.535
20
78.465
30
0
11
-67.527
21
78.477
31
0
0
LINE
8
0
62
1
10
-67.527
20
78.477
30
0
11
-67.515
21
78.485
31
0
0
LINE
8
0
62
1
10
-67.515
20
78.485
30
0
11
-67.5
21
78.488
31
0
0
LINE
8
0
62
1
10
-67.5
20
78.488
30
0
11
-52.5
21
78.488
31
0
0
LINE
8
0
62
1
10
-52.5
20
78.488
30
0
11
-52.485
21
78.485
31
0
0
LINE
8
0
62
1
10
-52.485
20
78.485
30
0
11
-52.473
21
78.477
31
0
0
LINE
8
0
62
1
10
-52.473
20
78.477
30
0
11
-52.465
21
78.465
31
0
0
LINE
8
0
62
1
10
-52.465
20
78.465
30
0
11
-52.462
21
78.45
31
0
0
LINE
8
0
62
1
10
-52.462
20
78.45
30
0
11
-52.462
21
72.148
31
0
0
LINE
8
0
62
1
10
-52.462
20
72.148
30
0
11
-37.538
21
72.148
31
0
0
LINE
8
0
62
1
10
-37.538
20
72.148
30
0
11
-37.538
21
78.45
31
0
0
LINE
8
0
62
1
10
-37.538
20
78.45
30
0
11
-37.535
21
78.465
31
0
0
LINE
8
0
62
1
10
-37.535
20
78.465
30
0
11
-37.527
21
78.477
31
0
0
LINE
8
0
62
1
10
-37.527
20
78.477
30
0
11
-37.515
21
78.485
31
0
0
LINE
8
0
62
1
10
-37.515
20
78.485
30
0
11
-37.5
21
78.488
31
0
0
LINE
8
0
62
1
10
-37.5
20
78.488
30
0
11
-22.5
21
78.488
31
0
0
LINE
8
0
62
1
10
-22.5
20
78.488
30
0
11
-22.485
21
78.485
31
0
0
LINE
8
0
62
1
10
-22.485
20
78.485
30
0
11
-22.473
21
78.477
31
0
0
LINE
8
0
62
1
10
-22.473
20
78.477
30
0
11
-22.465
21
78.465
31
0
0
LINE
8
0
62
1
10
-22.465
20
78.465
30
0
11
-22.462
21
78.45
31
0
0
LINE
8
0
62
1
10
-22.462
20
78.45
30
0
11
-22.462
21
72.148
31
0
0
LINE
8
0
62
1
10
-22.462
20
72.148
30
0
11
-7.538
21
72.148
31
0
0
LINE
8
0
62
1
10
-7.538
20
72.148
30
0
11
-7.538
21
78.45
31
0
0
LINE
8
0
62
1
10
-7.538
20
78.45
30
0
11
-7.535
21
78.465
31
0
0
LINE
8
0
62
1
10
-7.535
20
78.465
30
0
11
-7.527
21
78.477
31
0
0
LINE
8
0
62
1
10
-7.527
20
78.477
30
0
11
-7.515
21
78.485
31
0
0
LINE
8
0
62
1
10
-7.515
20
78.485
30
0
11
-7.5
21
78.488
31
0
0
LINE
8
0
62
1
10
-7.5
20
78.488
30
0
11
7.5
21
78.488
31
0
0
LINE
8
0
62
1
10
7.5
20
78.488
30
0
11
7.515
21
78.485
31
0
0
LINE
8
0
62
1
10
7.515
20
78.485
30
0
11
7.527
21
78.477
31
0
0
LINE
8
0
62
1
10
7.527
20
78.477
30
0
11
7.535
21
78.465
31
0
0
LINE
8
0
62
1
10
7.535
20
78.465
30
0
11
7.538
21
78.45
31
0
0
LINE
8
0
62
1
10
7.538
20
78.45
30
0
11
7.538
21
72.148
31
0
0
LINE
8
0
62
1
10
7.538
20
72.148
30
0
11
22.462
21
72.148
31
0
0
LINE
8
0
62
1
10
22.462
20
72.148
30
0
11
22.462
21
78.45
31
0
0
LINE
8
0
62
1
10
22.462
20
78.45
30
0
11
22.465
21
78.465
31
0
0
LINE
8
0
62
1
10
22.465
20
78.465
30
0
11
22.473
21
78.477
31
0
0
LINE
8
0
62
1
10
22.473
20
78.477
30
0
11
22.485
21
78.485
31
0
0
LINE
8
0
62
1
10
22.485
20
78.485
30
0
11
22.5
21
78.488
31
0
0
LINE
8
0
62
1
10
22.5
20
78.488
30
0
11
37.5
21
78.488
31
0
0
LINE
8
0
62
1
10
37.5
20
78.488
30
0
11
37.515
21
78.485
31
0
0
LINE
8
0
62
1
10
37.515
20
78.485
30
0
11
37.527
21
78.477
31
0
0
LINE
8
0
62
1
10
37.527
20
78.477
30
0
11
37.535
21
78.465
31
0
0
LINE
8
0
62
1
10
37.535
20
78.465
30
0
11
37.538
21
78.45
31
0
0
LINE
8
0
62
1
10
37.538
20
78.45
30
0
11
37.538
21
72.148
31
0
0
LINE
8
0
62
1
10
37.538
20
72.148
30
0
11
52.462
21
72.148
31
0
0
LINE
8
0
62
1
10
52.462
20
72.148
30
0
11
52.462
21
78.45
31
0
0
LINE
8
0
62
1
10
52.462
20
78.45
30
0
11
52.465
21
78.465
31
0
0
LINE
8
0
62
1
10
52.465
20
78.465
30
0
11
52.473
21
78.477
31
0
0
LINE
8
0
62
1
10
52.473
20
78.477
30
0
11
52.485
21
78.485
31
0
0
LINE
8
0
62
1
10
52.485
20
78.485
30
0
11
52.5
21
78.488
31
0
0
LINE
8
0
62
1
10
52.5
20
78.488
30
0
11
67.5
21
78.488
31
0
0
LINE
8
0
62
1
10
67.5
20
78.488
30
0
11
67.515
21
78.485
31
0
0
LINE
8
0
62
1
10
67.515
20
78.485
30
0
11
67.527
21
78.477
31
0
0
LINE
8
0
62
1
10
67.527
20
78.477
30
0
11
67.535
21
78.465
31
0
0
LINE
8
0
62
1
10
67.535
20
78.465
30
0
11
67.538
21
78.45
31
0
0
LINE
8
0
62
1
10
67.538
20
78.45
30
0
11
67.538
21
72.148
31
0
0
LINE
8
0
62
1
10
67.538
20
72.148
30
0
11
82.462
21
72.148
31
0
0
LINE
8
0
62
1
10
82.462
20
72.148
30
0
11
82.462
21
78.45
31
0
0
LINE
8
0
62
1
10
82.462
20
78.45
30
0
11
82.465
21
78.465
31
0
0
LINE
8
0
62
1
10
82.465
20
78.465
30
0
11
82.473
21
78.477
31
0
0
LINE
8
0
62
1
10
82.473
20
78.477
30
0
11
82.485
21
78.485
31
0
0
LINE
8
0
62
1
10
82.485
20
78.485
30
0
11
82.5
21
78.488
31
0
0
LINE
8
0
62
1
10
82.5
20
78.488
30
0
11
97.5
21
78.488
31
0
0
LINE
8
0
62
1
10
97.5
20
78.488
30
0
11
97.515
21
78.485
31
0
0
LINE
8
0
62
1
10
97.515
20
78.485
30
0
11
97.527
21
78.477
31
0
0
LINE
8
0
62
1
10
97.527
20
78.477
30
0
11
97.535
21
78.465
31
0
0
LINE
8
0
62
1
10
97.535
20
78.465
30
0
11
97.538
21
78.45
31
0
0
LINE
8
0
62
1
10
97.538
20
78.45
30
0
11
97.538
21
72.148
31
0
0
LINE
8
0
62
1
10
97.538
20
72.148
30
0
11
106.667
21
72.148
31
0
0
LINE
8
0
62
1
10
106.667
20
72.148
30
0
11
106.682
21
72.145
31
0
0
LINE
8
0
62
1
10
106.682
20
72.145
30
0
11
106.694
21
72.137
31
0
0
LINE
8
0
62
1
10
106.694
20
72.137
30
0
11
106.702
21
72.125
31
0
0
LINE
8
0
62
1
10
106.702
20
72.125
30
0
11
106.705
21
72.11
31
0
0
LINE
8
0
62
1
10
106.705
20
72.11
30
0
11
106.705
21
67.5
31
0
0
LINE
8
0
62
1
10
106.705
20
67.5
30
0
11
106.702
21
67.485
31
0
0
LINE
8
0
62
1
10
106.702
20
67.485
30
0
11
106.694
21
67.473
31
0
0
LINE
8
0
62
1
10
106.694
20
67.473
30
0
11
106.682
21
67.465
31
0
0
LINE
8
0
62
1
10
106.682
20
67.465
30
0
11
106.667
21
67.462
31
0
0
LINE
8
0
62
1
10
106.667
20
67.462
30
0
11
100.365
21
67.462
31
0
0
LINE
8
0
62
1
10
100.365
20
67.462
30
0
11
100.365
21
52.538
31
0
0
LINE
8
0
62
1
10
100.365
20
52.538
30
0
11
106.667
21
52.538
31
0
0
LINE
8
0
62
1
10
106.667
20
52.538
30
0
11
106.682
21
52.535
31
0
0
LINE
8
0
62
1
10
106.682
20
52.535
30
0
11
106.694
21
52.527
31
0
0
LINE
8
0
62
1
10
106.694
20
52.527
30
0
11
106.702
21
52.515
31
0
0
LINE
8
0
62
1
10
106.702
20
52.515
30
0
11
106.705
21
52.5
31
0
0
LINE
8
0
62
1
10
106.705
20
52.5
30
0
11
106.705
21
37.5
31
0
0
LINE
8
0
62
1
10
106.705
20
37.5
30
0
11
106.702
21
37.485
31
0
0
LINE
8
0
62
1
10
106.702
20
37.485
30
0
11
106.694
21
37.473
31
0
0
LINE
8
0
62
1
10
106.694
20
37.473
30
0
11
106.682
21
37.465
31
0
0
LINE
8
0
62
1
10
106.682
20
37.465
30
0
11
106.667
21
37.462
31
0
0
LINE
8
0
62
1
10
106.667
20
37.462
30
0
11
100.365
21
37.462
31
0
0
LINE
8
0
62
1
10
100.365
20
37.462
30
0
11
100.365
21
22.538
31
0
0
LINE
8
0
62
1
10
100.365
20
22.538
30
0
11
106.667
21
22.538
31
0
0
LINE
8
0
62
1
10
106.667
20
22.538
30
0
11
106.682
21
22.535
31
0
0
LINE
8
0
62
1
10
106.682
20
22.535
30
0
11
106.694
21
22.527
31
0
0
LINE
8
0
62
1
10
106.694
20
22.527
30
0
11
106.702
21
22.515
31
0
0
LINE
8
0
62
1
10
106.702
20
22.515
30
0
11
106.705
21
22.5
31
0
0
LINE
8
0
62
1
10
106.705
20
22.5
30
0
11
106.705
21
7.5
31
0
0
LINE
8
0
62
1
10
106.705
20
7.5
30
0
11
106.702
21
7.485
31
0
0
LINE
8
0
62
1
10
106.702
20
7.485
30
0
11
106.694
21
7.473
31
0
0
LINE
8
0
62
1
10
106.694
20
7.473
30
0
11
106.682
21
7.465
31
0
0
LINE
8
0
62
1
10
106.682
20
7.465
30
0
11
106.667
21
7.462
31
0
0
LINE
8
0
62
1
10
106.667
20
7.462
30
0
11
100.365
21
7.462
31
0
0
LINE
8
0
62
1
10
100.365
20
7.462
30
0
11
100.365
21
-7.386
31
0
0
LINE
8
0
62
1
10
100.365
20
-7.386
30
0
11
100.365
21
-7.462
31
0
0
LINE
8
0
62
1
10
100.365
20
-7.462
30
0
11
100.67
21
-7.462
31
0
0
ENDSEC
0
EOF
