999
Generated by Autodesk CAM - http://cam.autodesk.com
999
UNIT = MM
999
THICKNESS = 7.34
0
SECTION
2
HEADER
9
$ACADVER
1
AC1006
9
$ANGBASE
50
0
9
$ANGDIR
70
0
0
ENDSEC
0
SECTION
2
BLOCKS
0
ENDSEC
9
$EXTMIN
10
-106.705
20
-13.038
30
0
9
$EXTMAX
10
106.705
20
13.038
30
15
0
SECTION
2
ENTITIES
0
ARC
8
0
62
1
10
-56.667
20
-8
30
0
40
2.062
50
180
51
0
0
ARC
8
0
62
1
10
-56.667
20
-8
30
0
40
2.062
50
0
51
180
0
ARC
8
0
62
1
10
-91.667
20
-8
30
0
40
2.062
50
0
51
180
0
ARC
8
0
62
1
10
-91.667
20
-8
30
0
40
2.062
50
180
51
0
0
ARC
8
0
62
1
10
-74.167
20
-8
30
0
40
13.962
50
180
51
-159.075164
0
LINE
8
0
62
1
10
-87.208
20
-12.986
30
0
11
-87.205
21
-13.001
31
0
0
LINE
8
0
62
1
10
-87.205
20
-13.001
30
0
11
-87.208
21
-13.015
31
0
0
LINE
8
0
62
1
10
-87.208
20
-13.015
30
0
11
-87.217
21
-13.027
31
0
0
LINE
8
0
62
1
10
-87.217
20
-13.027
30
0
11
-87.229
21
-13.035
31
0
0
LINE
8
0
62
1
10
-87.229
20
-13.035
30
0
11
-87.243
21
-13.038
31
0
0
LINE
8
0
62
1
10
-87.243
20
-13.038
30
0
11
-106.667
21
-13.038
31
0
0
LINE
8
0
62
1
10
-106.667
20
-13.038
30
0
11
-106.682
21
-13.035
31
0
0
LINE
8
0
62
1
10
-106.682
20
-13.035
30
0
11
-106.694
21
-13.027
31
0
0
LINE
8
0
62
1
10
-106.694
20
-13.027
30
0
11
-106.702
21
-13.015
31
0
0
LINE
8
0
62
1
10
-106.702
20
-13.015
30
0
11
-106.705
21
-13
31
0
0
LINE
8
0
62
1
10
-106.705
20
-13
30
0
11
-106.705
21
-7.5
31
0
0
LINE
8
0
62
1
10
-106.705
20
-7.5
30
0
11
-106.702
21
-7.485
31
0
0
LINE
8
0
62
1
10
-106.702
20
-7.485
30
0
11
-106.694
21
-7.473
31
0
0
LINE
8
0
62
1
10
-106.694
20
-7.473
30
0
11
-106.682
21
-7.465
31
0
0
LINE
8
0
62
1
10
-106.682
20
-7.465
30
0
11
-106.667
21
-7.462
31
0
0
LINE
8
0
62
1
10
-106.667
20
-7.462
30
0
11
-100.365
21
-7.462
31
0
0
LINE
8
0
62
1
10
-100.365
20
-7.462
30
0
11
-100.365
21
7.462
31
0
0
LINE
8
0
62
1
10
-100.365
20
7.462
30
0
11
-106.667
21
7.462
31
0
0
LINE
8
0
62
1
10
-106.667
20
7.462
30
0
11
-106.682
21
7.465
31
0
0
LINE
8
0
62
1
10
-106.682
20
7.465
30
0
11
-106.694
21
7.473
31
0
0
LINE
8
0
62
1
10
-106.694
20
7.473
30
0
11
-106.702
21
7.485
31
0
0
LINE
8
0
62
1
10
-106.702
20
7.485
30
0
11
-106.705
21
7.5
31
0
0
LINE
8
0
62
1
10
-106.705
20
7.5
30
0
11
-106.705
21
13
31
0
0
LINE
8
0
62
1
10
-106.705
20
13
30
0
11
-106.702
21
13.015
31
0
0
LINE
8
0
62
1
10
-106.702
20
13.015
30
0
11
-106.694
21
13.027
31
0
0
LINE
8
0
62
1
10
-106.694
20
13.027
30
0
11
-106.682
21
13.035
31
0
0
LINE
8
0
62
1
10
-106.682
20
13.035
30
0
11
-106.667
21
13.038
31
0
0
LINE
8
0
62
1
10
-106.667
20
13.038
30
0
11
106.667
21
13.038
31
0
0
LINE
8
0
62
1
10
106.667
20
13.038
30
0
11
106.682
21
13.035
31
0
0
LINE
8
0
62
1
10
106.682
20
13.035
30
0
11
106.694
21
13.027
31
0
0
LINE
8
0
62
1
10
106.694
20
13.027
30
0
11
106.702
21
13.015
31
0
0
LINE
8
0
62
1
10
106.702
20
13.015
30
0
11
106.705
21
13
31
0
0
LINE
8
0
62
1
10
106.705
20
13
30
0
11
106.705
21
7.5
31
0
0
LINE
8
0
62
1
10
106.705
20
7.5
30
0
11
106.702
21
7.485
31
0
0
LINE
8
0
62
1
10
106.702
20
7.485
30
0
11
106.694
21
7.473
31
0
0
LINE
8
0
62
1
10
106.694
20
7.473
30
0
11
106.682
21
7.465
31
0
0
LINE
8
0
62
1
10
106.682
20
7.465
30
0
11
106.667
21
7.462
31
0
0
LINE
8
0
62
1
10
106.667
20
7.462
30
0
11
100.365
21
7.462
31
0
0
LINE
8
0
62
1
10
100.365
20
7.462
30
0
11
100.365
21
-7.462
31
0
0
LINE
8
0
62
1
10
100.365
20
-7.462
30
0
11
106.667
21
-7.462
31
0
0
LINE
8
0
62
1
10
106.667
20
-7.462
30
0
11
106.682
21
-7.465
31
0
0
LINE
8
0
62
1
10
106.682
20
-7.465
30
0
11
106.694
21
-7.473
31
0
0
LINE
8
0
62
1
10
106.694
20
-7.473
30
0
11
106.702
21
-7.485
31
0
0
LINE
8
0
62
1
10
106.702
20
-7.485
30
0
11
106.705
21
-7.5
31
0
0
LINE
8
0
62
1
10
106.705
20
-7.5
30
0
11
106.705
21
-13
31
0
0
LINE
8
0
62
1
10
106.705
20
-13
30
0
11
106.702
21
-13.015
31
0
0
LINE
8
0
62
1
10
106.702
20
-13.015
30
0
11
106.694
21
-13.027
31
0
0
LINE
8
0
62
1
10
106.694
20
-13.027
30
0
11
106.682
21
-13.035
31
0
0
LINE
8
0
62
1
10
106.682
20
-13.035
30
0
11
106.667
21
-13.038
31
0
0
LINE
8
0
62
1
10
106.667
20
-13.038
30
0
11
-61.09
21
-13.038
31
0
0
LINE
8
0
62
1
10
-61.09
20
-13.038
30
0
11
-61.104
21
-13.035
31
0
0
LINE
8
0
62
1
10
-61.104
20
-13.035
30
0
11
-61.117
21
-13.027
31
0
0
LINE
8
0
62
1
10
-61.117
20
-13.027
30
0
11
-61.125
21
-13.015
31
0
0
LINE
8
0
62
1
10
-61.125
20
-13.015
30
0
11
-61.128
21
-13.001
31
0
0
LINE
8
0
62
1
10
-61.128
20
-13.001
30
0
11
-61.126
21
-12.986
31
0
0
ARC
8
0
62
1
10
-74.167
20
-8
30
0
40
13.962
50
-20.924825
51
159.075175
0
ARC
8
0
62
1
10
-74.167
20
-8
30
0
40
13.962
50
159.075175
51
180
0
LINE
8
0
62
1
10
83.389
20
-0.062
30
0
11
83.389
21
1.062
31
0
0
LINE
8
0
62
1
10
83.389
20
1.062
30
0
11
81.265
21
1.062
31
0
0
LINE
8
0
62
1
10
81.265
20
1.062
30
0
11
81.265
21
-1.062
31
0
0
LINE
8
0
62
1
10
81.265
20
-1.062
30
0
11
83.389
21
-1.062
31
0
0
LINE
8
0
62
1
10
83.389
20
-1.062
30
0
11
83.389
21
-0.062
31
0
0
ARC
8
0
62
1
10
88.327
20
0
30
0
40
3.462
50
-179.281824
51
0.718176
0
ARC
8
0
62
1
10
88.327
20
0
30
0
40
3.462
50
0.718176
51
-180
0
ARC
8
0
62
1
10
88.327
20
0
30
0
40
3.462
50
180
51
-179.281824
0
ARC
8
0
62
0
10
88.327
20
0
30
0
40
7.25
50
0
51
180
0
ARC
8
0
62
0
10
88.327
20
0
30
0
40
7.25
50
180
51
0
0
ENDSEC
0
EOF
