999
Generated by Autodesk CAM - http://cam.autodesk.com
999
UNIT = MM
999
THICKNESS = 7.35
0
SECTION
2
HEADER
9
$ACADVER
1
AC1006
9
$ANGBASE
50
0
9
$ANGDIR
70
0
0
ENDSEC
0
SECTION
2
BLOCKS
0
ENDSEC
9
$EXTMIN
10
-106.705
20
-78.488
30
0
9
$EXTMAX
10
106.705
20
78.488
30
15
0
SECTION
2
ENTITIES
0
LINE
8
0
62
1
10
48.175
20
-11.519
30
0
11
48.479
21
-11.519
31
0
0
LINE
8
0
62
1
10
48.479
20
-11.519
30
0
11
48.479
21
5.455
31
0
0
LINE
8
0
62
1
10
48.479
20
5.455
30
0
11
31.505
21
5.455
31
0
0
LINE
8
0
62
1
10
31.505
20
5.455
30
0
11
31.505
21
-11.519
31
0
0
LINE
8
0
62
1
10
31.505
20
-11.519
30
0
11
48.175
21
-11.519
31
0
0
LINE
8
0
62
1
10
50.858
20
5.455
30
0
11
50.555
21
5.455
31
0
0
LINE
8
0
62
1
10
50.555
20
5.455
30
0
11
50.555
21
-11.519
31
0
0
LINE
8
0
62
1
10
50.555
20
-11.519
30
0
11
67.529
21
-11.519
31
0
0
LINE
8
0
62
1
10
67.529
20
-11.519
30
0
11
67.529
21
5.455
31
0
0
LINE
8
0
62
1
10
67.529
20
5.455
30
0
11
50.858
21
5.455
31
0
0
LINE
8
0
62
1
10
50.555
20
7.83
30
0
11
50.555
21
7.531
31
0
0
LINE
8
0
62
1
10
50.555
20
7.531
30
0
11
67.529
21
7.531
31
0
0
LINE
8
0
62
1
10
67.529
20
7.531
30
0
11
67.529
21
24.505
31
0
0
LINE
8
0
62
1
10
67.529
20
24.505
30
0
11
50.555
21
24.505
31
0
0
LINE
8
0
62
1
10
50.555
20
24.505
30
0
11
50.555
21
7.83
31
0
0
LINE
8
0
62
1
10
31.505
20
7.83
30
0
11
31.505
21
7.531
31
0
0
LINE
8
0
62
1
10
31.505
20
7.531
30
0
11
48.479
21
7.531
31
0
0
LINE
8
0
62
1
10
48.479
20
7.531
30
0
11
48.479
21
24.505
31
0
0
LINE
8
0
62
1
10
48.479
20
24.505
30
0
11
31.505
21
24.505
31
0
0
LINE
8
0
62
1
10
31.505
20
24.505
30
0
11
31.505
21
7.83
31
0
0
LINE
8
0
62
1
10
8.221
20
7.835
30
0
11
8.221
21
7.531
31
0
0
LINE
8
0
62
1
10
8.221
20
7.531
30
0
11
25.195
21
7.531
31
0
0
LINE
8
0
62
1
10
25.195
20
7.531
30
0
11
25.195
21
24.505
31
0
0
LINE
8
0
62
1
10
25.195
20
24.505
30
0
11
8.221
21
24.505
31
0
0
LINE
8
0
62
1
10
8.221
20
24.505
30
0
11
8.221
21
7.835
31
0
0
LINE
8
0
62
1
10
5.842
20
7.531
30
0
11
6.145
21
7.531
31
0
0
LINE
8
0
62
1
10
6.145
20
7.531
30
0
11
6.145
21
24.505
31
0
0
LINE
8
0
62
1
10
6.145
20
24.505
30
0
11
-10.829
21
24.505
31
0
0
LINE
8
0
62
1
10
-10.829
20
24.505
30
0
11
-10.829
21
7.531
31
0
0
LINE
8
0
62
1
10
-10.829
20
7.531
30
0
11
5.842
21
7.531
31
0
0
LINE
8
0
62
1
10
6.145
20
5.152
30
0
11
6.145
21
5.455
31
0
0
LINE
8
0
62
1
10
6.145
20
5.455
30
0
11
-10.829
21
5.455
31
0
0
LINE
8
0
62
1
10
-10.829
20
5.455
30
0
11
-10.829
21
-11.519
31
0
0
LINE
8
0
62
1
10
-10.829
20
-11.519
30
0
11
6.145
21
-11.519
31
0
0
LINE
8
0
62
1
10
6.145
20
-11.519
30
0
11
6.145
21
5.152
31
0
0
LINE
8
0
62
1
10
8.525
20
5.455
30
0
11
8.221
21
5.455
31
0
0
LINE
8
0
62
1
10
8.221
20
5.455
30
0
11
8.221
21
-11.519
31
0
0
LINE
8
0
62
1
10
8.221
20
-11.519
30
0
11
25.195
21
-11.519
31
0
0
LINE
8
0
62
1
10
25.195
20
-11.519
30
0
11
25.195
21
5.455
31
0
0
LINE
8
0
62
1
10
25.195
20
5.455
30
0
11
8.525
21
5.455
31
0
0
LINE
8
0
62
1
10
-52.162
20
-72.148
30
0
11
-52.462
21
-72.148
31
0
0
LINE
8
0
62
1
10
-52.462
20
-72.148
30
0
11
-52.462
21
-78.45
31
0
0
LINE
8
0
62
1
10
-52.462
20
-78.45
30
0
11
-52.465
21
-78.465
31
0
0
LINE
8
0
62
1
10
-52.465
20
-78.465
30
0
11
-52.473
21
-78.477
31
0
0
LINE
8
0
62
1
10
-52.473
20
-78.477
30
0
11
-52.485
21
-78.485
31
0
0
LINE
8
0
62
1
10
-52.485
20
-78.485
30
0
11
-52.5
21
-78.488
31
0
0
LINE
8
0
62
1
10
-52.5
20
-78.488
30
0
11
-67.5
21
-78.488
31
0
0
LINE
8
0
62
1
10
-67.5
20
-78.488
30
0
11
-67.515
21
-78.485
31
0
0
LINE
8
0
62
1
10
-67.515
20
-78.485
30
0
11
-67.527
21
-78.477
31
0
0
LINE
8
0
62
1
10
-67.527
20
-78.477
30
0
11
-67.535
21
-78.465
31
0
0
LINE
8
0
62
1
10
-67.535
20
-78.465
30
0
11
-67.538
21
-78.45
31
0
0
LINE
8
0
62
1
10
-67.538
20
-78.45
30
0
11
-67.538
21
-72.148
31
0
0
LINE
8
0
62
1
10
-67.538
20
-72.148
30
0
11
-82.462
21
-72.148
31
0
0
LINE
8
0
62
1
10
-82.462
20
-72.148
30
0
11
-82.462
21
-78.45
31
0
0
LINE
8
0
62
1
10
-82.462
20
-78.45
30
0
11
-82.465
21
-78.465
31
0
0
LINE
8
0
62
1
10
-82.465
20
-78.465
30
0
11
-82.473
21
-78.477
31
0
0
LINE
8
0
62
1
10
-82.473
20
-78.477
30
0
11
-82.485
21
-78.485
31
0
0
LINE
8
0
62
1
10
-82.485
20
-78.485
30
0
11
-82.5
21
-78.488
31
0
0
LINE
8
0
62
1
10
-82.5
20
-78.488
30
0
11
-97.5
21
-78.488
31
0
0
LINE
8
0
62
1
10
-97.5
20
-78.488
30
0
11
-97.515
21
-78.485
31
0
0
LINE
8
0
62
1
10
-97.515
20
-78.485
30
0
11
-97.527
21
-78.477
31
0
0
LINE
8
0
62
1
10
-97.527
20
-78.477
30
0
11
-97.535
21
-78.465
31
0
0
LINE
8
0
62
1
10
-97.535
20
-78.465
30
0
11
-97.538
21
-78.45
31
0
0
LINE
8
0
62
1
10
-97.538
20
-78.45
30
0
11
-97.538
21
-72.148
31
0
0
LINE
8
0
62
1
10
-97.538
20
-72.148
30
0
11
-106.667
21
-72.148
31
0
0
LINE
8
0
62
1
10
-106.667
20
-72.148
30
0
11
-106.682
21
-72.145
31
0
0
LINE
8
0
62
1
10
-106.682
20
-72.145
30
0
11
-106.694
21
-72.137
31
0
0
LINE
8
0
62
1
10
-106.694
20
-72.137
30
0
11
-106.702
21
-72.125
31
0
0
LINE
8
0
62
1
10
-106.702
20
-72.125
30
0
11
-106.705
21
-72.11
31
0
0
LINE
8
0
62
1
10
-106.705
20
-72.11
30
0
11
-106.705
21
-67.5
31
0
0
LINE
8
0
62
1
10
-106.705
20
-67.5
30
0
11
-106.702
21
-67.485
31
0
0
LINE
8
0
62
1
10
-106.702
20
-67.485
30
0
11
-106.694
21
-67.473
31
0
0
LINE
8
0
62
1
10
-106.694
20
-67.473
30
0
11
-106.682
21
-67.465
31
0
0
LINE
8
0
62
1
10
-106.682
20
-67.465
30
0
11
-106.667
21
-67.462
31
0
0
LINE
8
0
62
1
10
-106.667
20
-67.462
30
0
11
-100.365
21
-67.462
31
0
0
LINE
8
0
62
1
10
-100.365
20
-67.462
30
0
11
-100.365
21
-52.538
31
0
0
LINE
8
0
62
1
10
-100.365
20
-52.538
30
0
11
-106.667
21
-52.538
31
0
0
LINE
8
0
62
1
10
-106.667
20
-52.538
30
0
11
-106.682
21
-52.535
31
0
0
LINE
8
0
62
1
10
-106.682
20
-52.535
30
0
11
-106.694
21
-52.527
31
0
0
LINE
8
0
62
1
10
-106.694
20
-52.527
30
0
11
-106.702
21
-52.515
31
0
0
LINE
8
0
62
1
10
-106.702
20
-52.515
30
0
11
-106.705
21
-52.5
31
0
0
LINE
8
0
62
1
10
-106.705
20
-52.5
30
0
11
-106.705
21
-37.5
31
0
0
LINE
8
0
62
1
10
-106.705
20
-37.5
30
0
11
-106.702
21
-37.485
31
0
0
LINE
8
0
62
1
10
-106.702
20
-37.485
30
0
11
-106.694
21
-37.473
31
0
0
LINE
8
0
62
1
10
-106.694
20
-37.473
30
0
11
-106.682
21
-37.465
31
0
0
LINE
8
0
62
1
10
-106.682
20
-37.465
30
0
11
-106.667
21
-37.462
31
0
0
LINE
8
0
62
1
10
-106.667
20
-37.462
30
0
11
-100.365
21
-37.462
31
0
0
LINE
8
0
62
1
10
-100.365
20
-37.462
30
0
11
-100.365
21
-22.538
31
0
0
LINE
8
0
62
1
10
-100.365
20
-22.538
30
0
11
-106.667
21
-22.538
31
0
0
LINE
8
0
62
1
10
-106.667
20
-22.538
30
0
11
-106.682
21
-22.535
31
0
0
LINE
8
0
62
1
10
-106.682
20
-22.535
30
0
11
-106.694
21
-22.527
31
0
0
LINE
8
0
62
1
10
-106.694
20
-22.527
30
0
11
-106.702
21
-22.515
31
0
0
LINE
8
0
62
1
10
-106.702
20
-22.515
30
0
11
-106.705
21
-22.5
31
0
0
LINE
8
0
62
1
10
-106.705
20
-22.5
30
0
11
-106.705
21
-7.5
31
0
0
LINE
8
0
62
1
10
-106.705
20
-7.5
30
0
11
-106.702
21
-7.485
31
0
0
LINE
8
0
62
1
10
-106.702
20
-7.485
30
0
11
-106.694
21
-7.473
31
0
0
LINE
8
0
62
1
10
-106.694
20
-7.473
30
0
11
-106.682
21
-7.465
31
0
0
LINE
8
0
62
1
10
-106.682
20
-7.465
30
0
11
-106.667
21
-7.462
31
0
0
LINE
8
0
62
1
10
-106.667
20
-7.462
30
0
11
-100.365
21
-7.462
31
0
0
LINE
8
0
62
1
10
-100.365
20
-7.462
30
0
11
-100.365
21
7.462
31
0
0
LINE
8
0
62
1
10
-100.365
20
7.462
30
0
11
-106.667
21
7.462
31
0
0
LINE
8
0
62
1
10
-106.667
20
7.462
30
0
11
-106.682
21
7.465
31
0
0
LINE
8
0
62
1
10
-106.682
20
7.465
30
0
11
-106.694
21
7.473
31
0
0
LINE
8
0
62
1
10
-106.694
20
7.473
30
0
11
-106.702
21
7.485
31
0
0
LINE
8
0
62
1
10
-106.702
20
7.485
30
0
11
-106.705
21
7.5
31
0
0
LINE
8
0
62
1
10
-106.705
20
7.5
30
0
11
-106.705
21
22.5
31
0
0
LINE
8
0
62
1
10
-106.705
20
22.5
30
0
11
-106.702
21
22.515
31
0
0
LINE
8
0
62
1
10
-106.702
20
22.515
30
0
11
-106.694
21
22.527
31
0
0
LINE
8
0
62
1
10
-106.694
20
22.527
30
0
11
-106.682
21
22.535
31
0
0
LINE
8
0
62
1
10
-106.682
20
22.535
30
0
11
-106.667
21
22.538
31
0
0
LINE
8
0
62
1
10
-106.667
20
22.538
30
0
11
-100.365
21
22.538
31
0
0
LINE
8
0
62
1
10
-100.365
20
22.538
30
0
11
-100.365
21
37.462
31
0
0
LINE
8
0
62
1
10
-100.365
20
37.462
30
0
11
-106.667
21
37.462
31
0
0
LINE
8
0
62
1
10
-106.667
20
37.462
30
0
11
-106.682
21
37.465
31
0
0
LINE
8
0
62
1
10
-106.682
20
37.465
30
0
11
-106.694
21
37.473
31
0
0
LINE
8
0
62
1
10
-106.694
20
37.473
30
0
11
-106.702
21
37.485
31
0
0
LINE
8
0
62
1
10
-106.702
20
37.485
30
0
11
-106.705
21
37.5
31
0
0
LINE
8
0
62
1
10
-106.705
20
37.5
30
0
11
-106.705
21
52.5
31
0
0
LINE
8
0
62
1
10
-106.705
20
52.5
30
0
11
-106.702
21
52.515
31
0
0
LINE
8
0
62
1
10
-106.702
20
52.515
30
0
11
-106.694
21
52.527
31
0
0
LINE
8
0
62
1
10
-106.694
20
52.527
30
0
11
-106.682
21
52.535
31
0
0
LINE
8
0
62
1
10
-106.682
20
52.535
30
0
11
-106.667
21
52.538
31
0
0
LINE
8
0
62
1
10
-106.667
20
52.538
30
0
11
-100.365
21
52.538
31
0
0
LINE
8
0
62
1
10
-100.365
20
52.538
30
0
11
-100.365
21
67.462
31
0
0
LINE
8
0
62
1
10
-100.365
20
67.462
30
0
11
-106.667
21
67.462
31
0
0
LINE
8
0
62
1
10
-106.667
20
67.462
30
0
11
-106.682
21
67.465
31
0
0
LINE
8
0
62
1
10
-106.682
20
67.465
30
0
11
-106.694
21
67.473
31
0
0
LINE
8
0
62
1
10
-106.694
20
67.473
30
0
11
-106.702
21
67.485
31
0
0
LINE
8
0
62
1
10
-106.702
20
67.485
30
0
11
-106.705
21
67.5
31
0
0
LINE
8
0
62
1
10
-106.705
20
67.5
30
0
11
-106.705
21
72.11
31
0
0
LINE
8
0
62
1
10
-106.705
20
72.11
30
0
11
-106.702
21
72.125
31
0
0
LINE
8
0
62
1
10
-106.702
20
72.125
30
0
11
-106.694
21
72.137
31
0
0
LINE
8
0
62
1
10
-106.694
20
72.137
30
0
11
-106.682
21
72.145
31
0
0
LINE
8
0
62
1
10
-106.682
20
72.145
30
0
11
-106.667
21
72.148
31
0
0
LINE
8
0
62
1
10
-106.667
20
72.148
30
0
11
-97.538
21
72.148
31
0
0
LINE
8
0
62
1
10
-97.538
20
72.148
30
0
11
-97.538
21
78.45
31
0
0
LINE
8
0
62
1
10
-97.538
20
78.45
30
0
11
-97.535
21
78.465
31
0
0
LINE
8
0
62
1
10
-97.535
20
78.465
30
0
11
-97.527
21
78.477
31
0
0
LINE
8
0
62
1
10
-97.527
20
78.477
30
0
11
-97.515
21
78.485
31
0
0
LINE
8
0
62
1
10
-97.515
20
78.485
30
0
11
-97.5
21
78.488
31
0
0
LINE
8
0
62
1
10
-97.5
20
78.488
30
0
11
-82.5
21
78.488
31
0
0
LINE
8
0
62
1
10
-82.5
20
78.488
30
0
11
-82.485
21
78.485
31
0
0
LINE
8
0
62
1
10
-82.485
20
78.485
30
0
11
-82.473
21
78.477
31
0
0
LINE
8
0
62
1
10
-82.473
20
78.477
30
0
11
-82.465
21
78.465
31
0
0
LINE
8
0
62
1
10
-82.465
20
78.465
30
0
11
-82.462
21
78.45
31
0
0
LINE
8
0
62
1
10
-82.462
20
78.45
30
0
11
-82.462
21
72.148
31
0
0
LINE
8
0
62
1
10
-82.462
20
72.148
30
0
11
-67.538
21
72.148
31
0
0
LINE
8
0
62
1
10
-67.538
20
72.148
30
0
11
-67.538
21
78.45
31
0
0
LINE
8
0
62
1
10
-67.538
20
78.45
30
0
11
-67.535
21
78.465
31
0
0
LINE
8
0
62
1
10
-67.535
20
78.465
30
0
11
-67.527
21
78.477
31
0
0
LINE
8
0
62
1
10
-67.527
20
78.477
30
0
11
-67.515
21
78.485
31
0
0
LINE
8
0
62
1
10
-67.515
20
78.485
30
0
11
-67.5
21
78.488
31
0
0
LINE
8
0
62
1
10
-67.5
20
78.488
30
0
11
-52.5
21
78.488
31
0
0
LINE
8
0
62
1
10
-52.5
20
78.488
30
0
11
-52.485
21
78.485
31
0
0
LINE
8
0
62
1
10
-52.485
20
78.485
30
0
11
-52.473
21
78.477
31
0
0
LINE
8
0
62
1
10
-52.473
20
78.477
30
0
11
-52.465
21
78.465
31
0
0
LINE
8
0
62
1
10
-52.465
20
78.465
30
0
11
-52.462
21
78.45
31
0
0
LINE
8
0
62
1
10
-52.462
20
78.45
30
0
11
-52.462
21
72.148
31
0
0
LINE
8
0
62
1
10
-52.462
20
72.148
30
0
11
-37.538
21
72.148
31
0
0
LINE
8
0
62
1
10
-37.538
20
72.148
30
0
11
-37.538
21
78.45
31
0
0
LINE
8
0
62
1
10
-37.538
20
78.45
30
0
11
-37.535
21
78.465
31
0
0
LINE
8
0
62
1
10
-37.535
20
78.465
30
0
11
-37.527
21
78.477
31
0
0
LINE
8
0
62
1
10
-37.527
20
78.477
30
0
11
-37.515
21
78.485
31
0
0
LINE
8
0
62
1
10
-37.515
20
78.485
30
0
11
-37.5
21
78.488
31
0
0
LINE
8
0
62
1
10
-37.5
20
78.488
30
0
11
-22.5
21
78.488
31
0
0
LINE
8
0
62
1
10
-22.5
20
78.488
30
0
11
-22.485
21
78.485
31
0
0
LINE
8
0
62
1
10
-22.485
20
78.485
30
0
11
-22.473
21
78.477
31
0
0
LINE
8
0
62
1
10
-22.473
20
78.477
30
0
11
-22.465
21
78.465
31
0
0
LINE
8
0
62
1
10
-22.465
20
78.465
30
0
11
-22.462
21
78.45
31
0
0
LINE
8
0
62
1
10
-22.462
20
78.45
30
0
11
-22.462
21
72.148
31
0
0
LINE
8
0
62
1
10
-22.462
20
72.148
30
0
11
-7.538
21
72.148
31
0
0
LINE
8
0
62
1
10
-7.538
20
72.148
30
0
11
-7.538
21
78.45
31
0
0
LINE
8
0
62
1
10
-7.538
20
78.45
30
0
11
-7.535
21
78.465
31
0
0
LINE
8
0
62
1
10
-7.535
20
78.465
30
0
11
-7.527
21
78.477
31
0
0
LINE
8
0
62
1
10
-7.527
20
78.477
30
0
11
-7.515
21
78.485
31
0
0
LINE
8
0
62
1
10
-7.515
20
78.485
30
0
11
-7.5
21
78.488
31
0
0
LINE
8
0
62
1
10
-7.5
20
78.488
30
0
11
7.5
21
78.488
31
0
0
LINE
8
0
62
1
10
7.5
20
78.488
30
0
11
7.515
21
78.485
31
0
0
LINE
8
0
62
1
10
7.515
20
78.485
30
0
11
7.527
21
78.477
31
0
0
LINE
8
0
62
1
10
7.527
20
78.477
30
0
11
7.535
21
78.465
31
0
0
LINE
8
0
62
1
10
7.535
20
78.465
30
0
11
7.538
21
78.45
31
0
0
LINE
8
0
62
1
10
7.538
20
78.45
30
0
11
7.538
21
72.148
31
0
0
LINE
8
0
62
1
10
7.538
20
72.148
30
0
11
22.462
21
72.148
31
0
0
LINE
8
0
62
1
10
22.462
20
72.148
30
0
11
22.462
21
78.45
31
0
0
LINE
8
0
62
1
10
22.462
20
78.45
30
0
11
22.465
21
78.465
31
0
0
LINE
8
0
62
1
10
22.465
20
78.465
30
0
11
22.473
21
78.477
31
0
0
LINE
8
0
62
1
10
22.473
20
78.477
30
0
11
22.485
21
78.485
31
0
0
LINE
8
0
62
1
10
22.485
20
78.485
30
0
11
22.5
21
78.488
31
0
0
LINE
8
0
62
1
10
22.5
20
78.488
30
0
11
37.5
21
78.488
31
0
0
LINE
8
0
62
1
10
37.5
20
78.488
30
0
11
37.515
21
78.485
31
0
0
LINE
8
0
62
1
10
37.515
20
78.485
30
0
11
37.527
21
78.477
31
0
0
LINE
8
0
62
1
10
37.527
20
78.477
30
0
11
37.535
21
78.465
31
0
0
LINE
8
0
62
1
10
37.535
20
78.465
30
0
11
37.538
21
78.45
31
0
0
LINE
8
0
62
1
10
37.538
20
78.45
30
0
11
37.538
21
72.148
31
0
0
LINE
8
0
62
1
10
37.538
20
72.148
30
0
11
52.462
21
72.148
31
0
0
LINE
8
0
62
1
10
52.462
20
72.148
30
0
11
52.462
21
78.45
31
0
0
LINE
8
0
62
1
10
52.462
20
78.45
30
0
11
52.465
21
78.465
31
0
0
LINE
8
0
62
1
10
52.465
20
78.465
30
0
11
52.473
21
78.477
31
0
0
LINE
8
0
62
1
10
52.473
20
78.477
30
0
11
52.485
21
78.485
31
0
0
LINE
8
0
62
1
10
52.485
20
78.485
30
0
11
52.5
21
78.488
31
0
0
LINE
8
0
62
1
10
52.5
20
78.488
30
0
11
67.5
21
78.488
31
0
0
LINE
8
0
62
1
10
67.5
20
78.488
30
0
11
67.515
21
78.485
31
0
0
LINE
8
0
62
1
10
67.515
20
78.485
30
0
11
67.527
21
78.477
31
0
0
LINE
8
0
62
1
10
67.527
20
78.477
30
0
11
67.535
21
78.465
31
0
0
LINE
8
0
62
1
10
67.535
20
78.465
30
0
11
67.538
21
78.45
31
0
0
LINE
8
0
62
1
10
67.538
20
78.45
30
0
11
67.538
21
72.148
31
0
0
LINE
8
0
62
1
10
67.538
20
72.148
30
0
11
82.462
21
72.148
31
0
0
LINE
8
0
62
1
10
82.462
20
72.148
30
0
11
82.462
21
78.45
31
0
0
LINE
8
0
62
1
10
82.462
20
78.45
30
0
11
82.465
21
78.465
31
0
0
LINE
8
0
62
1
10
82.465
20
78.465
30
0
11
82.473
21
78.477
31
0
0
LINE
8
0
62
1
10
82.473
20
78.477
30
0
11
82.485
21
78.485
31
0
0
LINE
8
0
62
1
10
82.485
20
78.485
30
0
11
82.5
21
78.488
31
0
0
LINE
8
0
62
1
10
82.5
20
78.488
30
0
11
97.5
21
78.488
31
0
0
LINE
8
0
62
1
10
97.5
20
78.488
30
0
11
97.515
21
78.485
31
0
0
LINE
8
0
62
1
10
97.515
20
78.485
30
0
11
97.527
21
78.477
31
0
0
LINE
8
0
62
1
10
97.527
20
78.477
30
0
11
97.535
21
78.465
31
0
0
LINE
8
0
62
1
10
97.535
20
78.465
30
0
11
97.538
21
78.45
31
0
0
LINE
8
0
62
1
10
97.538
20
78.45
30
0
11
97.538
21
72.148
31
0
0
LINE
8
0
62
1
10
97.538
20
72.148
30
0
11
106.667
21
72.148
31
0
0
LINE
8
0
62
1
10
106.667
20
72.148
30
0
11
106.682
21
72.145
31
0
0
LINE
8
0
62
1
10
106.682
20
72.145
30
0
11
106.694
21
72.137
31
0
0
LINE
8
0
62
1
10
106.694
20
72.137
30
0
11
106.702
21
72.125
31
0
0
LINE
8
0
62
1
10
106.702
20
72.125
30
0
11
106.705
21
72.11
31
0
0
LINE
8
0
62
1
10
106.705
20
72.11
30
0
11
106.705
21
67.5
31
0
0
LINE
8
0
62
1
10
106.705
20
67.5
30
0
11
106.702
21
67.485
31
0
0
LINE
8
0
62
1
10
106.702
20
67.485
30
0
11
106.694
21
67.473
31
0
0
LINE
8
0
62
1
10
106.694
20
67.473
30
0
11
106.682
21
67.465
31
0
0
LINE
8
0
62
1
10
106.682
20
67.465
30
0
11
106.667
21
67.462
31
0
0
LINE
8
0
62
1
10
106.667
20
67.462
30
0
11
100.365
21
67.462
31
0
0
LINE
8
0
62
1
10
100.365
20
67.462
30
0
11
100.365
21
52.538
31
0
0
LINE
8
0
62
1
10
100.365
20
52.538
30
0
11
106.667
21
52.538
31
0
0
LINE
8
0
62
1
10
106.667
20
52.538
30
0
11
106.682
21
52.535
31
0
0
LINE
8
0
62
1
10
106.682
20
52.535
30
0
11
106.694
21
52.527
31
0
0
LINE
8
0
62
1
10
106.694
20
52.527
30
0
11
106.702
21
52.515
31
0
0
LINE
8
0
62
1
10
106.702
20
52.515
30
0
11
106.705
21
52.5
31
0
0
LINE
8
0
62
1
10
106.705
20
52.5
30
0
11
106.705
21
37.5
31
0
0
LINE
8
0
62
1
10
106.705
20
37.5
30
0
11
106.702
21
37.485
31
0
0
LINE
8
0
62
1
10
106.702
20
37.485
30
0
11
106.694
21
37.473
31
0
0
LINE
8
0
62
1
10
106.694
20
37.473
30
0
11
106.682
21
37.465
31
0
0
LINE
8
0
62
1
10
106.682
20
37.465
30
0
11
106.667
21
37.462
31
0
0
LINE
8
0
62
1
10
106.667
20
37.462
30
0
11
100.365
21
37.462
31
0
0
LINE
8
0
62
1
10
100.365
20
37.462
30
0
11
100.365
21
22.538
31
0
0
LINE
8
0
62
1
10
100.365
20
22.538
30
0
11
106.667
21
22.538
31
0
0
LINE
8
0
62
1
10
106.667
20
22.538
30
0
11
106.682
21
22.535
31
0
0
LINE
8
0
62
1
10
106.682
20
22.535
30
0
11
106.694
21
22.527
31
0
0
LINE
8
0
62
1
10
106.694
20
22.527
30
0
11
106.702
21
22.515
31
0
0
LINE
8
0
62
1
10
106.702
20
22.515
30
0
11
106.705
21
22.5
31
0
0
LINE
8
0
62
1
10
106.705
20
22.5
30
0
11
106.705
21
7.5
31
0
0
LINE
8
0
62
1
10
106.705
20
7.5
30
0
11
106.702
21
7.485
31
0
0
LINE
8
0
62
1
10
106.702
20
7.485
30
0
11
106.694
21
7.473
31
0
0
LINE
8
0
62
1
10
106.694
20
7.473
30
0
11
106.682
21
7.465
31
0
0
LINE
8
0
62
1
10
106.682
20
7.465
30
0
11
106.667
21
7.462
31
0
0
LINE
8
0
62
1
10
106.667
20
7.462
30
0
11
100.365
21
7.462
31
0
0
LINE
8
0
62
1
10
100.365
20
7.462
30
0
11
100.365
21
-7.462
31
0
0
LINE
8
0
62
1
10
100.365
20
-7.462
30
0
11
106.667
21
-7.462
31
0
0
LINE
8
0
62
1
10
106.667
20
-7.462
30
0
11
106.682
21
-7.465
31
0
0
LINE
8
0
62
1
10
106.682
20
-7.465
30
0
11
106.694
21
-7.473
31
0
0
LINE
8
0
62
1
10
106.694
20
-7.473
30
0
11
106.702
21
-7.485
31
0
0
LINE
8
0
62
1
10
106.702
20
-7.485
30
0
11
106.705
21
-7.5
31
0
0
LINE
8
0
62
1
10
106.705
20
-7.5
30
0
11
106.705
21
-22.5
31
0
0
LINE
8
0
62
1
10
106.705
20
-22.5
30
0
11
106.702
21
-22.515
31
0
0
LINE
8
0
62
1
10
106.702
20
-22.515
30
0
11
106.694
21
-22.527
31
0
0
LINE
8
0
62
1
10
106.694
20
-22.527
30
0
11
106.682
21
-22.535
31
0
0
LINE
8
0
62
1
10
106.682
20
-22.535
30
0
11
106.667
21
-22.538
31
0
0
LINE
8
0
62
1
10
106.667
20
-22.538
30
0
11
100.365
21
-22.538
31
0
0
LINE
8
0
62
1
10
100.365
20
-22.538
30
0
11
100.365
21
-37.462
31
0
0
LINE
8
0
62
1
10
100.365
20
-37.462
30
0
11
106.667
21
-37.462
31
0
0
LINE
8
0
62
1
10
106.667
20
-37.462
30
0
11
106.682
21
-37.465
31
0
0
LINE
8
0
62
1
10
106.682
20
-37.465
30
0
11
106.694
21
-37.473
31
0
0
LINE
8
0
62
1
10
106.694
20
-37.473
30
0
11
106.702
21
-37.485
31
0
0
LINE
8
0
62
1
10
106.702
20
-37.485
30
0
11
106.705
21
-37.5
31
0
0
LINE
8
0
62
1
10
106.705
20
-37.5
30
0
11
106.705
21
-52.5
31
0
0
LINE
8
0
62
1
10
106.705
20
-52.5
30
0
11
106.702
21
-52.515
31
0
0
LINE
8
0
62
1
10
106.702
20
-52.515
30
0
11
106.694
21
-52.527
31
0
0
LINE
8
0
62
1
10
106.694
20
-52.527
30
0
11
106.682
21
-52.535
31
0
0
LINE
8
0
62
1
10
106.682
20
-52.535
30
0
11
106.667
21
-52.538
31
0
0
LINE
8
0
62
1
10
106.667
20
-52.538
30
0
11
100.365
21
-52.538
31
0
0
LINE
8
0
62
1
10
100.365
20
-52.538
30
0
11
100.365
21
-67.462
31
0
0
LINE
8
0
62
1
10
100.365
20
-67.462
30
0
11
106.667
21
-67.462
31
0
0
LINE
8
0
62
1
10
106.667
20
-67.462
30
0
11
106.682
21
-67.465
31
0
0
LINE
8
0
62
1
10
106.682
20
-67.465
30
0
11
106.694
21
-67.473
31
0
0
LINE
8
0
62
1
10
106.694
20
-67.473
30
0
11
106.702
21
-67.485
31
0
0
LINE
8
0
62
1
10
106.702
20
-67.485
30
0
11
106.705
21
-67.5
31
0
0
LINE
8
0
62
1
10
106.705
20
-67.5
30
0
11
106.705
21
-72.11
31
0
0
LINE
8
0
62
1
10
106.705
20
-72.11
30
0
11
106.702
21
-72.125
31
0
0
LINE
8
0
62
1
10
106.702
20
-72.125
30
0
11
106.694
21
-72.137
31
0
0
LINE
8
0
62
1
10
106.694
20
-72.137
30
0
11
106.682
21
-72.145
31
0
0
LINE
8
0
62
1
10
106.682
20
-72.145
30
0
11
106.667
21
-72.148
31
0
0
LINE
8
0
62
1
10
106.667
20
-72.148
30
0
11
97.538
21
-72.148
31
0
0
LINE
8
0
62
1
10
97.538
20
-72.148
30
0
11
97.538
21
-78.45
31
0
0
LINE
8
0
62
1
10
97.538
20
-78.45
30
0
11
97.535
21
-78.465
31
0
0
LINE
8
0
62
1
10
97.535
20
-78.465
30
0
11
97.527
21
-78.477
31
0
0
LINE
8
0
62
1
10
97.527
20
-78.477
30
0
11
97.515
21
-78.485
31
0
0
LINE
8
0
62
1
10
97.515
20
-78.485
30
0
11
97.5
21
-78.488
31
0
0
LINE
8
0
62
1
10
97.5
20
-78.488
30
0
11
82.5
21
-78.488
31
0
0
LINE
8
0
62
1
10
82.5
20
-78.488
30
0
11
82.485
21
-78.485
31
0
0
LINE
8
0
62
1
10
82.485
20
-78.485
30
0
11
82.473
21
-78.477
31
0
0
LINE
8
0
62
1
10
82.473
20
-78.477
30
0
11
82.465
21
-78.465
31
0
0
LINE
8
0
62
1
10
82.465
20
-78.465
30
0
11
82.462
21
-78.45
31
0
0
LINE
8
0
62
1
10
82.462
20
-78.45
30
0
11
82.462
21
-72.148
31
0
0
LINE
8
0
62
1
10
82.462
20
-72.148
30
0
11
67.538
21
-72.148
31
0
0
LINE
8
0
62
1
10
67.538
20
-72.148
30
0
11
67.538
21
-78.45
31
0
0
LINE
8
0
62
1
10
67.538
20
-78.45
30
0
11
67.535
21
-78.465
31
0
0
LINE
8
0
62
1
10
67.535
20
-78.465
30
0
11
67.527
21
-78.477
31
0
0
LINE
8
0
62
1
10
67.527
20
-78.477
30
0
11
67.515
21
-78.485
31
0
0
LINE
8
0
62
1
10
67.515
20
-78.485
30
0
11
67.5
21
-78.488
31
0
0
LINE
8
0
62
1
10
67.5
20
-78.488
30
0
11
52.5
21
-78.488
31
0
0
LINE
8
0
62
1
10
52.5
20
-78.488
30
0
11
52.485
21
-78.485
31
0
0
LINE
8
0
62
1
10
52.485
20
-78.485
30
0
11
52.473
21
-78.477
31
0
0
LINE
8
0
62
1
10
52.473
20
-78.477
30
0
11
52.465
21
-78.465
31
0
0
LINE
8
0
62
1
10
52.465
20
-78.465
30
0
11
52.462
21
-78.45
31
0
0
LINE
8
0
62
1
10
52.462
20
-78.45
30
0
11
52.462
21
-72.148
31
0
0
LINE
8
0
62
1
10
52.462
20
-72.148
30
0
11
37.538
21
-72.148
31
0
0
LINE
8
0
62
1
10
37.538
20
-72.148
30
0
11
37.538
21
-78.45
31
0
0
LINE
8
0
62
1
10
37.538
20
-78.45
30
0
11
37.535
21
-78.465
31
0
0
LINE
8
0
62
1
10
37.535
20
-78.465
30
0
11
37.527
21
-78.477
31
0
0
LINE
8
0
62
1
10
37.527
20
-78.477
30
0
11
37.515
21
-78.485
31
0
0
LINE
8
0
62
1
10
37.515
20
-78.485
30
0
11
37.5
21
-78.488
31
0
0
LINE
8
0
62
1
10
37.5
20
-78.488
30
0
11
22.5
21
-78.488
31
0
0
LINE
8
0
62
1
10
22.5
20
-78.488
30
0
11
22.485
21
-78.485
31
0
0
LINE
8
0
62
1
10
22.485
20
-78.485
30
0
11
22.473
21
-78.477
31
0
0
LINE
8
0
62
1
10
22.473
20
-78.477
30
0
11
22.465
21
-78.465
31
0
0
LINE
8
0
62
1
10
22.465
20
-78.465
30
0
11
22.462
21
-78.45
31
0
0
LINE
8
0
62
1
10
22.462
20
-78.45
30
0
11
22.462
21
-72.148
31
0
0
LINE
8
0
62
1
10
22.462
20
-72.148
30
0
11
7.538
21
-72.148
31
0
0
LINE
8
0
62
1
10
7.538
20
-72.148
30
0
11
7.538
21
-78.45
31
0
0
LINE
8
0
62
1
10
7.538
20
-78.45
30
0
11
7.535
21
-78.465
31
0
0
LINE
8
0
62
1
10
7.535
20
-78.465
30
0
11
7.527
21
-78.477
31
0
0
LINE
8
0
62
1
10
7.527
20
-78.477
30
0
11
7.515
21
-78.485
31
0
0
LINE
8
0
62
1
10
7.515
20
-78.485
30
0
11
7.5
21
-78.488
31
0
0
LINE
8
0
62
1
10
7.5
20
-78.488
30
0
11
-7.5
21
-78.488
31
0
0
LINE
8
0
62
1
10
-7.5
20
-78.488
30
0
11
-7.515
21
-78.485
31
0
0
LINE
8
0
62
1
10
-7.515
20
-78.485
30
0
11
-7.527
21
-78.477
31
0
0
LINE
8
0
62
1
10
-7.527
20
-78.477
30
0
11
-7.535
21
-78.465
31
0
0
LINE
8
0
62
1
10
-7.535
20
-78.465
30
0
11
-7.538
21
-78.45
31
0
0
LINE
8
0
62
1
10
-7.538
20
-78.45
30
0
11
-7.538
21
-72.148
31
0
0
LINE
8
0
62
1
10
-7.538
20
-72.148
30
0
11
-22.462
21
-72.148
31
0
0
LINE
8
0
62
1
10
-22.462
20
-72.148
30
0
11
-22.462
21
-78.45
31
0
0
LINE
8
0
62
1
10
-22.462
20
-78.45
30
0
11
-22.465
21
-78.465
31
0
0
LINE
8
0
62
1
10
-22.465
20
-78.465
30
0
11
-22.473
21
-78.477
31
0
0
LINE
8
0
62
1
10
-22.473
20
-78.477
30
0
11
-22.485
21
-78.485
31
0
0
LINE
8
0
62
1
10
-22.485
20
-78.485
30
0
11
-22.5
21
-78.488
31
0
0
LINE
8
0
62
1
10
-22.5
20
-78.488
30
0
11
-37.5
21
-78.488
31
0
0
LINE
8
0
62
1
10
-37.5
20
-78.488
30
0
11
-37.515
21
-78.485
31
0
0
LINE
8
0
62
1
10
-37.515
20
-78.485
30
0
11
-37.527
21
-78.477
31
0
0
LINE
8
0
62
1
10
-37.527
20
-78.477
30
0
11
-37.535
21
-78.465
31
0
0
LINE
8
0
62
1
10
-37.535
20
-78.465
30
0
11
-37.538
21
-78.45
31
0
0
LINE
8
0
62
1
10
-37.538
20
-78.45
30
0
11
-37.538
21
-72.148
31
0
0
LINE
8
0
62
1
10
-37.538
20
-72.148
30
0
11
-52.162
21
-72.148
31
0
0
LINE
8
0
62
5
10
-11.867
20
-12.595
30
0
11
-11.881
21
-12.592
31
0
0
LINE
8
0
62
5
10
-11.881
20
-12.592
30
0
11
-11.894
21
-12.584
31
0
0
LINE
8
0
62
5
10
-11.894
20
-12.584
30
0
11
-11.902
21
-12.571
31
0
0
LINE
8
0
62
5
10
-11.902
20
-12.571
30
0
11
-11.905
21
-12.557
31
0
0
LINE
8
0
62
5
10
-11.905
20
-12.557
30
0
11
-11.905
21
25.543
31
0
0
LINE
8
0
62
5
10
-11.905
20
25.543
30
0
11
-11.902
21
25.558
31
0
0
LINE
8
0
62
5
10
-11.902
20
25.558
30
0
11
-11.894
21
25.57
31
0
0
LINE
8
0
62
5
10
-11.894
20
25.57
30
0
11
-11.881
21
25.579
31
0
0
LINE
8
0
62
5
10
-11.881
20
25.579
30
0
11
-11.867
21
25.581
31
0
0
LINE
8
0
62
5
10
-11.867
20
25.581
30
0
11
68.567
21
25.581
31
0
0
LINE
8
0
62
5
10
68.567
20
25.581
30
0
11
68.581
21
25.578
31
0
0
LINE
8
0
62
5
10
68.581
20
25.578
30
0
11
68.594
21
25.57
31
0
0
LINE
8
0
62
5
10
68.594
20
25.57
30
0
11
68.602
21
25.558
31
0
0
LINE
8
0
62
5
10
68.602
20
25.558
30
0
11
68.605
21
25.543
31
0
0
LINE
8
0
62
5
10
68.605
20
25.543
30
0
11
68.605
21
-12.557
31
0
0
LINE
8
0
62
5
10
68.605
20
-12.557
30
0
11
68.602
21
-12.571
31
0
0
LINE
8
0
62
5
10
68.602
20
-12.571
30
0
11
68.594
21
-12.584
31
0
0
LINE
8
0
62
5
10
68.594
20
-12.584
30
0
11
68.581
21
-12.592
31
0
0
LINE
8
0
62
5
10
68.581
20
-12.592
30
0
11
68.567
21
-12.595
31
0
0
LINE
8
0
62
5
10
68.567
20
-12.595
30
0
11
-11.867
21
-12.595
31
0
0
ENDSEC
0
EOF
