999
Generated by Autodesk CAM - http://cam.autodesk.com
999
UNIT = MM
999
THICKNESS = 7.34
0
SECTION
2
HEADER
9
$ACADVER
1
AC1006
9
$ANGBASE
50
0
9
$ANGDIR
70
0
0
ENDSEC
0
SECTION
2
BLOCKS
0
ENDSEC
9
$EXTMIN
10
-106.705
20
-78.488
30
0
9
$EXTMAX
10
106.705
20
78.488
30
15
0
SECTION
2
ENTITIES
0
LINE
8
0
62
1
10
8.145
20
7.493
30
0
11
8.145
21
24.543
31
0
0
LINE
8
0
62
1
10
8.145
20
24.543
30
0
11
8.148
21
24.558
31
0
0
LINE
8
0
62
1
10
8.148
20
24.558
30
0
11
8.156
21
24.57
31
0
0
LINE
8
0
62
1
10
8.156
20
24.57
30
0
11
8.169
21
24.578
31
0
0
LINE
8
0
62
1
10
8.169
20
24.578
30
0
11
8.183
21
24.581
31
0
0
LINE
8
0
62
1
10
8.183
20
24.581
30
0
11
25.233
21
24.581
31
0
0
LINE
8
0
62
1
10
25.233
20
24.581
30
0
11
25.248
21
24.579
31
0
0
LINE
8
0
62
1
10
25.248
20
24.579
30
0
11
25.26
21
24.57
31
0
0
LINE
8
0
62
1
10
25.26
20
24.57
30
0
11
25.268
21
24.558
31
0
0
LINE
8
0
62
1
10
25.268
20
24.558
30
0
11
25.271
21
24.543
31
0
0
LINE
8
0
62
1
10
25.271
20
24.543
30
0
11
25.271
21
7.493
31
0
0
LINE
8
0
62
1
10
25.271
20
7.493
30
0
11
25.268
21
7.479
31
0
0
LINE
8
0
62
1
10
25.268
20
7.479
30
0
11
25.26
21
7.466
31
0
0
LINE
8
0
62
1
10
25.26
20
7.466
30
0
11
25.248
21
7.458
31
0
0
LINE
8
0
62
1
10
25.248
20
7.458
30
0
11
25.233
21
7.455
31
0
0
LINE
8
0
62
1
10
25.233
20
7.455
30
0
11
8.183
21
7.455
31
0
0
LINE
8
0
62
1
10
8.183
20
7.455
30
0
11
8.169
21
7.458
31
0
0
LINE
8
0
62
1
10
8.169
20
7.458
30
0
11
8.156
21
7.466
31
0
0
LINE
8
0
62
1
10
8.156
20
7.466
30
0
11
8.148
21
7.479
31
0
0
LINE
8
0
62
1
10
8.148
20
7.479
30
0
11
8.145
21
7.493
31
0
0
LINE
8
0
62
1
10
6.221
20
7.493
30
0
11
6.219
21
7.479
31
0
0
LINE
8
0
62
1
10
6.219
20
7.479
30
0
11
6.21
21
7.466
31
0
0
LINE
8
0
62
1
10
6.21
20
7.466
30
0
11
6.198
21
7.458
31
0
0
LINE
8
0
62
1
10
6.198
20
7.458
30
0
11
6.183
21
7.455
31
0
0
LINE
8
0
62
1
10
6.183
20
7.455
30
0
11
-10.867
21
7.455
31
0
0
LINE
8
0
62
1
10
-10.867
20
7.455
30
0
11
-10.881
21
7.458
31
0
0
LINE
8
0
62
1
10
-10.881
20
7.458
30
0
11
-10.894
21
7.466
31
0
0
LINE
8
0
62
1
10
-10.894
20
7.466
30
0
11
-10.902
21
7.479
31
0
0
LINE
8
0
62
1
10
-10.902
20
7.479
30
0
11
-10.905
21
7.493
31
0
0
LINE
8
0
62
1
10
-10.905
20
7.493
30
0
11
-10.905
21
24.543
31
0
0
LINE
8
0
62
1
10
-10.905
20
24.543
30
0
11
-10.902
21
24.558
31
0
0
LINE
8
0
62
1
10
-10.902
20
24.558
30
0
11
-10.894
21
24.57
31
0
0
LINE
8
0
62
1
10
-10.894
20
24.57
30
0
11
-10.881
21
24.579
31
0
0
LINE
8
0
62
1
10
-10.881
20
24.579
30
0
11
-10.867
21
24.581
31
0
0
LINE
8
0
62
1
10
-10.867
20
24.581
30
0
11
6.183
21
24.581
31
0
0
LINE
8
0
62
1
10
6.183
20
24.581
30
0
11
6.198
21
24.578
31
0
0
LINE
8
0
62
1
10
6.198
20
24.578
30
0
11
6.21
21
24.57
31
0
0
LINE
8
0
62
1
10
6.21
20
24.57
30
0
11
6.219
21
24.558
31
0
0
LINE
8
0
62
1
10
6.219
20
24.558
30
0
11
6.221
21
24.543
31
0
0
LINE
8
0
62
1
10
6.221
20
24.543
30
0
11
6.221
21
7.493
31
0
0
LINE
8
0
62
1
10
6.221
20
5.493
30
0
11
6.221
21
-11.557
31
0
0
LINE
8
0
62
1
10
6.221
20
-11.557
30
0
11
6.219
21
-11.571
31
0
0
LINE
8
0
62
1
10
6.219
20
-11.571
30
0
11
6.21
21
-11.584
31
0
0
LINE
8
0
62
1
10
6.21
20
-11.584
30
0
11
6.198
21
-11.592
31
0
0
LINE
8
0
62
1
10
6.198
20
-11.592
30
0
11
6.183
21
-11.595
31
0
0
LINE
8
0
62
1
10
6.183
20
-11.595
30
0
11
-10.867
21
-11.595
31
0
0
LINE
8
0
62
1
10
-10.867
20
-11.595
30
0
11
-10.881
21
-11.592
31
0
0
LINE
8
0
62
1
10
-10.881
20
-11.592
30
0
11
-10.894
21
-11.584
31
0
0
LINE
8
0
62
1
10
-10.894
20
-11.584
30
0
11
-10.902
21
-11.571
31
0
0
LINE
8
0
62
1
10
-10.902
20
-11.571
30
0
11
-10.905
21
-11.557
31
0
0
LINE
8
0
62
1
10
-10.905
20
-11.557
30
0
11
-10.905
21
5.493
31
0
0
LINE
8
0
62
1
10
-10.905
20
5.493
30
0
11
-10.902
21
5.508
31
0
0
LINE
8
0
62
1
10
-10.902
20
5.508
30
0
11
-10.894
21
5.52
31
0
0
LINE
8
0
62
1
10
-10.894
20
5.52
30
0
11
-10.881
21
5.529
31
0
0
LINE
8
0
62
1
10
-10.881
20
5.529
30
0
11
-10.867
21
5.531
31
0
0
LINE
8
0
62
1
10
-10.867
20
5.531
30
0
11
6.183
21
5.531
31
0
0
LINE
8
0
62
1
10
6.183
20
5.531
30
0
11
6.198
21
5.529
31
0
0
LINE
8
0
62
1
10
6.198
20
5.529
30
0
11
6.21
21
5.52
31
0
0
LINE
8
0
62
1
10
6.21
20
5.52
30
0
11
6.219
21
5.508
31
0
0
LINE
8
0
62
1
10
6.219
20
5.508
30
0
11
6.221
21
5.493
31
0
0
LINE
8
0
62
1
10
25.271
20
5.493
30
0
11
25.271
21
-11.557
31
0
0
LINE
8
0
62
1
10
25.271
20
-11.557
30
0
11
25.268
21
-11.571
31
0
0
LINE
8
0
62
1
10
25.268
20
-11.571
30
0
11
25.26
21
-11.584
31
0
0
LINE
8
0
62
1
10
25.26
20
-11.584
30
0
11
25.248
21
-11.592
31
0
0
LINE
8
0
62
1
10
25.248
20
-11.592
30
0
11
25.233
21
-11.595
31
0
0
LINE
8
0
62
1
10
25.233
20
-11.595
30
0
11
8.183
21
-11.595
31
0
0
LINE
8
0
62
1
10
8.183
20
-11.595
30
0
11
8.169
21
-11.592
31
0
0
LINE
8
0
62
1
10
8.169
20
-11.592
30
0
11
8.156
21
-11.584
31
0
0
LINE
8
0
62
1
10
8.156
20
-11.584
30
0
11
8.148
21
-11.571
31
0
0
LINE
8
0
62
1
10
8.148
20
-11.571
30
0
11
8.145
21
-11.557
31
0
0
LINE
8
0
62
1
10
8.145
20
-11.557
30
0
11
8.145
21
5.493
31
0
0
LINE
8
0
62
1
10
8.145
20
5.493
30
0
11
8.148
21
5.508
31
0
0
LINE
8
0
62
1
10
8.148
20
5.508
30
0
11
8.156
21
5.52
31
0
0
LINE
8
0
62
1
10
8.156
20
5.52
30
0
11
8.169
21
5.529
31
0
0
LINE
8
0
62
1
10
8.169
20
5.529
30
0
11
8.183
21
5.531
31
0
0
LINE
8
0
62
1
10
8.183
20
5.531
30
0
11
25.233
21
5.531
31
0
0
LINE
8
0
62
1
10
25.233
20
5.531
30
0
11
25.248
21
5.529
31
0
0
LINE
8
0
62
1
10
25.248
20
5.529
30
0
11
25.26
21
5.52
31
0
0
LINE
8
0
62
1
10
25.26
20
5.52
30
0
11
25.268
21
5.508
31
0
0
LINE
8
0
62
1
10
25.268
20
5.508
30
0
11
25.271
21
5.493
31
0
0
LINE
8
0
62
1
10
31.467
20
5.531
30
0
11
48.517
21
5.531
31
0
0
LINE
8
0
62
1
10
48.517
20
5.531
30
0
11
48.531
21
5.529
31
0
0
LINE
8
0
62
1
10
48.531
20
5.529
30
0
11
48.544
21
5.52
31
0
0
LINE
8
0
62
1
10
48.544
20
5.52
30
0
11
48.552
21
5.508
31
0
0
LINE
8
0
62
1
10
48.552
20
5.508
30
0
11
48.555
21
5.493
31
0
0
LINE
8
0
62
1
10
48.555
20
5.493
30
0
11
48.555
21
-11.557
31
0
0
LINE
8
0
62
1
10
48.555
20
-11.557
30
0
11
48.552
21
-11.571
31
0
0
LINE
8
0
62
1
10
48.552
20
-11.571
30
0
11
48.544
21
-11.584
31
0
0
LINE
8
0
62
1
10
48.544
20
-11.584
30
0
11
48.531
21
-11.592
31
0
0
LINE
8
0
62
1
10
48.531
20
-11.592
30
0
11
48.517
21
-11.595
31
0
0
LINE
8
0
62
1
10
48.517
20
-11.595
30
0
11
31.467
21
-11.595
31
0
0
LINE
8
0
62
1
10
31.467
20
-11.595
30
0
11
31.452
21
-11.592
31
0
0
LINE
8
0
62
1
10
31.452
20
-11.592
30
0
11
31.44
21
-11.584
31
0
0
LINE
8
0
62
1
10
31.44
20
-11.584
30
0
11
31.432
21
-11.571
31
0
0
LINE
8
0
62
1
10
31.432
20
-11.571
30
0
11
31.429
21
-11.557
31
0
0
LINE
8
0
62
1
10
31.429
20
-11.557
30
0
11
31.429
21
5.493
31
0
0
LINE
8
0
62
1
10
31.429
20
5.493
30
0
11
31.432
21
5.508
31
0
0
LINE
8
0
62
1
10
31.432
20
5.508
30
0
11
31.44
21
5.52
31
0
0
LINE
8
0
62
1
10
31.44
20
5.52
30
0
11
31.452
21
5.529
31
0
0
LINE
8
0
62
1
10
31.452
20
5.529
30
0
11
31.467
21
5.531
31
0
0
LINE
8
0
62
1
10
48.517
20
7.455
30
0
11
31.467
21
7.455
31
0
0
LINE
8
0
62
1
10
31.467
20
7.455
30
0
11
31.452
21
7.458
31
0
0
LINE
8
0
62
1
10
31.452
20
7.458
30
0
11
31.44
21
7.466
31
0
0
LINE
8
0
62
1
10
31.44
20
7.466
30
0
11
31.432
21
7.479
31
0
0
LINE
8
0
62
1
10
31.432
20
7.479
30
0
11
31.429
21
7.493
31
0
0
LINE
8
0
62
1
10
31.429
20
7.493
30
0
11
31.429
21
24.543
31
0
0
LINE
8
0
62
1
10
31.429
20
24.543
30
0
11
31.432
21
24.558
31
0
0
LINE
8
0
62
1
10
31.432
20
24.558
30
0
11
31.44
21
24.57
31
0
0
LINE
8
0
62
1
10
31.44
20
24.57
30
0
11
31.452
21
24.578
31
0
0
LINE
8
0
62
1
10
31.452
20
24.578
30
0
11
31.467
21
24.581
31
0
0
LINE
8
0
62
1
10
31.467
20
24.581
30
0
11
48.517
21
24.581
31
0
0
LINE
8
0
62
1
10
48.517
20
24.581
30
0
11
48.531
21
24.578
31
0
0
LINE
8
0
62
1
10
48.531
20
24.578
30
0
11
48.544
21
24.57
31
0
0
LINE
8
0
62
1
10
48.544
20
24.57
30
0
11
48.552
21
24.558
31
0
0
LINE
8
0
62
1
10
48.552
20
24.558
30
0
11
48.555
21
24.543
31
0
0
LINE
8
0
62
1
10
48.555
20
24.543
30
0
11
48.555
21
7.493
31
0
0
LINE
8
0
62
1
10
48.555
20
7.493
30
0
11
48.552
21
7.479
31
0
0
LINE
8
0
62
1
10
48.552
20
7.479
30
0
11
48.544
21
7.466
31
0
0
LINE
8
0
62
1
10
48.544
20
7.466
30
0
11
48.531
21
7.458
31
0
0
LINE
8
0
62
1
10
48.531
20
7.458
30
0
11
48.517
21
7.455
31
0
0
LINE
8
0
62
1
10
50.517
20
7.455
30
0
11
50.502
21
7.458
31
0
0
LINE
8
0
62
1
10
50.502
20
7.458
30
0
11
50.49
21
7.466
31
0
0
LINE
8
0
62
1
10
50.49
20
7.466
30
0
11
50.482
21
7.479
31
0
0
LINE
8
0
62
1
10
50.482
20
7.479
30
0
11
50.479
21
7.493
31
0
0
LINE
8
0
62
1
10
50.479
20
7.493
30
0
11
50.479
21
24.543
31
0
0
LINE
8
0
62
1
10
50.479
20
24.543
30
0
11
50.482
21
24.558
31
0
0
LINE
8
0
62
1
10
50.482
20
24.558
30
0
11
50.49
21
24.57
31
0
0
LINE
8
0
62
1
10
50.49
20
24.57
30
0
11
50.502
21
24.579
31
0
0
LINE
8
0
62
1
10
50.502
20
24.579
30
0
11
50.517
21
24.581
31
0
0
LINE
8
0
62
1
10
50.517
20
24.581
30
0
11
67.567
21
24.581
31
0
0
LINE
8
0
62
1
10
67.567
20
24.581
30
0
11
67.581
21
24.578
31
0
0
LINE
8
0
62
1
10
67.581
20
24.578
30
0
11
67.594
21
24.57
31
0
0
LINE
8
0
62
1
10
67.594
20
24.57
30
0
11
67.602
21
24.558
31
0
0
LINE
8
0
62
1
10
67.602
20
24.558
30
0
11
67.605
21
24.543
31
0
0
LINE
8
0
62
1
10
67.605
20
24.543
30
0
11
67.605
21
7.493
31
0
0
LINE
8
0
62
1
10
67.605
20
7.493
30
0
11
67.602
21
7.479
31
0
0
LINE
8
0
62
1
10
67.602
20
7.479
30
0
11
67.594
21
7.466
31
0
0
LINE
8
0
62
1
10
67.594
20
7.466
30
0
11
67.581
21
7.458
31
0
0
LINE
8
0
62
1
10
67.581
20
7.458
30
0
11
67.567
21
7.455
31
0
0
LINE
8
0
62
1
10
67.567
20
7.455
30
0
11
50.517
21
7.455
31
0
0
LINE
8
0
62
1
10
50.517
20
-11.595
30
0
11
50.502
21
-11.592
31
0
0
LINE
8
0
62
1
10
50.502
20
-11.592
30
0
11
50.49
21
-11.584
31
0
0
LINE
8
0
62
1
10
50.49
20
-11.584
30
0
11
50.482
21
-11.571
31
0
0
LINE
8
0
62
1
10
50.482
20
-11.571
30
0
11
50.479
21
-11.557
31
0
0
LINE
8
0
62
1
10
50.479
20
-11.557
30
0
11
50.479
21
5.493
31
0
0
LINE
8
0
62
1
10
50.479
20
5.493
30
0
11
50.482
21
5.508
31
0
0
LINE
8
0
62
1
10
50.482
20
5.508
30
0
11
50.49
21
5.52
31
0
0
LINE
8
0
62
1
10
50.49
20
5.52
30
0
11
50.502
21
5.529
31
0
0
LINE
8
0
62
1
10
50.502
20
5.529
30
0
11
50.517
21
5.531
31
0
0
LINE
8
0
62
1
10
50.517
20
5.531
30
0
11
67.567
21
5.531
31
0
0
LINE
8
0
62
1
10
67.567
20
5.531
30
0
11
67.581
21
5.529
31
0
0
LINE
8
0
62
1
10
67.581
20
5.529
30
0
11
67.594
21
5.52
31
0
0
LINE
8
0
62
1
10
67.594
20
5.52
30
0
11
67.602
21
5.508
31
0
0
LINE
8
0
62
1
10
67.602
20
5.508
30
0
11
67.605
21
5.493
31
0
0
LINE
8
0
62
1
10
67.605
20
5.493
30
0
11
67.605
21
-11.557
31
0
0
LINE
8
0
62
1
10
67.605
20
-11.557
30
0
11
67.602
21
-11.571
31
0
0
LINE
8
0
62
1
10
67.602
20
-11.571
30
0
11
67.594
21
-11.584
31
0
0
LINE
8
0
62
1
10
67.594
20
-11.584
30
0
11
67.581
21
-11.592
31
0
0
LINE
8
0
62
1
10
67.581
20
-11.592
30
0
11
67.567
21
-11.595
31
0
0
LINE
8
0
62
1
10
67.567
20
-11.595
30
0
11
50.517
21
-11.595
31
0
0
LINE
8
0
62
1
10
89.779
20
45.044
30
0
11
89.779
21
70.61
31
0
0
LINE
8
0
62
1
10
89.779
20
70.61
30
0
11
89.782
21
70.625
31
0
0
LINE
8
0
62
1
10
89.782
20
70.625
30
0
11
89.79
21
70.637
31
0
0
LINE
8
0
62
1
10
89.79
20
70.637
30
0
11
89.802
21
70.645
31
0
0
LINE
8
0
62
1
10
89.802
20
70.645
30
0
11
89.817
21
70.648
31
0
0
LINE
8
0
62
1
10
89.817
20
70.648
30
0
11
97.157
21
70.648
31
0
0
LINE
8
0
62
1
10
97.157
20
70.648
30
0
11
97.171
21
70.645
31
0
0
LINE
8
0
62
1
10
97.171
20
70.645
30
0
11
97.184
21
70.637
31
0
0
LINE
8
0
62
1
10
97.184
20
70.637
30
0
11
97.192
21
70.625
31
0
0
LINE
8
0
62
1
10
97.192
20
70.625
30
0
11
97.195
21
70.61
31
0
0
LINE
8
0
62
1
10
97.195
20
70.61
30
0
11
97.195
21
-12.956
31
0
0
LINE
8
0
62
1
10
97.195
20
-12.956
30
0
11
97.191
21
-13.367
31
0
0
LINE
8
0
62
1
10
97.191
20
-13.367
30
0
11
97.179
21
-13.778
31
0
0
LINE
8
0
62
1
10
97.179
20
-13.778
30
0
11
97.159
21
-14.189
31
0
0
LINE
8
0
62
1
10
97.159
20
-14.189
30
0
11
97.131
21
-14.599
31
0
0
LINE
8
0
62
1
10
97.131
20
-14.599
30
0
11
97.095
21
-15.009
31
0
0
LINE
8
0
62
1
10
97.095
20
-15.009
30
0
11
97.051
21
-15.418
31
0
0
LINE
8
0
62
1
10
97.051
20
-15.418
30
0
11
97
21
-15.826
31
0
0
LINE
8
0
62
1
10
97
20
-15.826
30
0
11
96.94
21
-16.233
31
0
0
LINE
8
0
62
1
10
96.94
20
-16.233
30
0
11
96.873
21
-16.638
31
0
0
LINE
8
0
62
1
10
96.873
20
-16.638
30
0
11
96.797
21
-17.042
31
0
0
LINE
8
0
62
1
10
96.797
20
-17.042
30
0
11
96.714
21
-17.445
31
0
0
LINE
8
0
62
1
10
96.714
20
-17.445
30
0
11
96.623
21
-17.846
31
0
0
LINE
8
0
62
1
10
96.623
20
-17.846
30
0
11
96.525
21
-18.245
31
0
0
LINE
8
0
62
1
10
96.525
20
-18.245
30
0
11
96.418
21
-18.643
31
0
0
LINE
8
0
62
1
10
96.418
20
-18.643
30
0
11
96.304
21
-19.038
31
0
0
LINE
8
0
62
1
10
96.304
20
-19.038
30
0
11
96.182
21
-19.43
31
0
0
LINE
8
0
62
1
10
96.182
20
-19.43
30
0
11
96.053
21
-19.821
31
0
0
LINE
8
0
62
1
10
96.053
20
-19.821
30
0
11
95.916
21
-20.208
31
0
0
LINE
8
0
62
1
10
95.916
20
-20.208
30
0
11
95.772
21
-20.593
31
0
0
LINE
8
0
62
1
10
95.772
20
-20.593
30
0
11
95.62
21
-20.976
31
0
0
LINE
8
0
62
1
10
95.62
20
-20.976
30
0
11
95.461
21
-21.355
31
0
0
LINE
8
0
62
1
10
95.461
20
-21.355
30
0
11
95.294
21
-21.731
31
0
0
LINE
8
0
62
1
10
95.294
20
-21.731
30
0
11
95.12
21
-22.103
31
0
0
LINE
8
0
62
1
10
95.12
20
-22.103
30
0
11
94.939
21
-22.473
31
0
0
LINE
8
0
62
1
10
94.939
20
-22.473
30
0
11
94.751
21
-22.838
31
0
0
LINE
8
0
62
1
10
94.751
20
-22.838
30
0
11
94.556
21
-23.2
31
0
0
LINE
8
0
62
1
10
94.556
20
-23.2
30
0
11
94.354
21
-23.558
31
0
0
LINE
8
0
62
1
10
94.354
20
-23.558
30
0
11
94.145
21
-23.913
31
0
0
LINE
8
0
62
1
10
94.145
20
-23.913
30
0
11
93.929
21
-24.262
31
0
0
LINE
8
0
62
1
10
93.929
20
-24.262
30
0
11
93.706
21
-24.608
31
0
0
LINE
8
0
62
1
10
93.706
20
-24.608
30
0
11
93.477
21
-24.95
31
0
0
LINE
8
0
62
1
10
93.477
20
-24.95
30
0
11
93.241
21
-25.286
31
0
0
LINE
8
0
62
1
10
93.241
20
-25.286
30
0
11
92.999
21
-25.619
31
0
0
LINE
8
0
62
1
10
92.999
20
-25.619
30
0
11
92.75
21
-25.946
31
0
0
LINE
8
0
62
1
10
92.75
20
-25.946
30
0
11
92.495
21
-26.269
31
0
0
LINE
8
0
62
1
10
92.495
20
-26.269
30
0
11
92.234
21
-26.586
31
0
0
LINE
8
0
62
1
10
92.234
20
-26.586
30
0
11
91.966
21
-26.899
31
0
0
LINE
8
0
62
1
10
91.966
20
-26.899
30
0
11
91.693
21
-27.206
31
0
0
LINE
8
0
62
1
10
91.693
20
-27.206
30
0
11
91.414
21
-27.508
31
0
0
LINE
8
0
62
1
10
91.414
20
-27.508
30
0
11
91.129
21
-27.804
31
0
0
LINE
8
0
62
1
10
91.129
20
-27.804
30
0
11
90.838
21
-28.095
31
0
0
LINE
8
0
62
1
10
90.838
20
-28.095
30
0
11
90.542
21
-28.38
31
0
0
LINE
8
0
62
1
10
90.542
20
-28.38
30
0
11
90.24
21
-28.659
31
0
0
LINE
8
0
62
1
10
90.24
20
-28.659
30
0
11
89.933
21
-28.932
31
0
0
LINE
8
0
62
1
10
89.933
20
-28.932
30
0
11
89.62
21
-29.2
31
0
0
LINE
8
0
62
1
10
89.62
20
-29.2
30
0
11
89.303
21
-29.461
31
0
0
LINE
8
0
62
1
10
89.303
20
-29.461
30
0
11
88.98
21
-29.716
31
0
0
LINE
8
0
62
1
10
88.98
20
-29.716
30
0
11
88.653
21
-29.965
31
0
0
LINE
8
0
62
1
10
88.653
20
-29.965
30
0
11
88.32
21
-30.207
31
0
0
LINE
8
0
62
1
10
88.32
20
-30.207
30
0
11
87.984
21
-30.443
31
0
0
LINE
8
0
62
1
10
87.984
20
-30.443
30
0
11
87.642
21
-30.672
31
0
0
LINE
8
0
62
1
10
87.642
20
-30.672
30
0
11
87.296
21
-30.895
31
0
0
LINE
8
0
62
1
10
87.296
20
-30.895
30
0
11
86.947
21
-31.111
31
0
0
LINE
8
0
62
1
10
86.947
20
-31.111
30
0
11
86.592
21
-31.32
31
0
0
LINE
8
0
62
1
10
86.592
20
-31.32
30
0
11
86.234
21
-31.522
31
0
0
LINE
8
0
62
1
10
86.234
20
-31.522
30
0
11
85.872
21
-31.717
31
0
0
LINE
8
0
62
1
10
85.872
20
-31.717
30
0
11
85.507
21
-31.905
31
0
0
LINE
8
0
62
1
10
85.507
20
-31.905
30
0
11
85.137
21
-32.086
31
0
0
LINE
8
0
62
1
10
85.137
20
-32.086
30
0
11
84.765
21
-32.26
31
0
0
LINE
8
0
62
1
10
84.765
20
-32.26
30
0
11
84.389
21
-32.427
31
0
0
LINE
8
0
62
1
10
84.389
20
-32.427
30
0
11
84.01
21
-32.586
31
0
0
LINE
8
0
62
1
10
84.01
20
-32.586
30
0
11
83.627
21
-32.738
31
0
0
LINE
8
0
62
1
10
83.627
20
-32.738
30
0
11
83.242
21
-32.882
31
0
0
LINE
8
0
62
1
10
83.242
20
-32.882
30
0
11
82.855
21
-33.019
31
0
0
LINE
8
0
62
1
10
82.855
20
-33.019
30
0
11
82.464
21
-33.148
31
0
0
LINE
8
0
62
1
10
82.464
20
-33.148
30
0
11
82.072
21
-33.27
31
0
0
LINE
8
0
62
1
10
82.072
20
-33.27
30
0
11
81.677
21
-33.384
31
0
0
LINE
8
0
62
1
10
81.677
20
-33.384
30
0
11
81.279
21
-33.491
31
0
0
LINE
8
0
62
1
10
81.279
20
-33.491
30
0
11
80.88
21
-33.589
31
0
0
LINE
8
0
62
1
10
80.88
20
-33.589
30
0
11
80.479
21
-33.68
31
0
0
LINE
8
0
62
1
10
80.479
20
-33.68
30
0
11
80.076
21
-33.763
31
0
0
LINE
8
0
62
1
10
80.076
20
-33.763
30
0
11
79.672
21
-33.839
31
0
0
LINE
8
0
62
1
10
79.672
20
-33.839
30
0
11
79.267
21
-33.906
31
0
0
LINE
8
0
62
1
10
79.267
20
-33.906
30
0
11
78.86
21
-33.966
31
0
0
LINE
8
0
62
1
10
78.86
20
-33.966
30
0
11
78.452
21
-34.017
31
0
0
LINE
8
0
62
1
10
78.452
20
-34.017
30
0
11
78.043
21
-34.061
31
0
0
LINE
8
0
62
1
10
78.043
20
-34.061
30
0
11
77.633
21
-34.097
31
0
0
LINE
8
0
62
1
10
77.633
20
-34.097
30
0
11
77.223
21
-34.125
31
0
0
LINE
8
0
62
1
10
77.223
20
-34.125
30
0
11
76.812
21
-34.145
31
0
0
LINE
8
0
62
1
10
76.812
20
-34.145
30
0
11
76.401
21
-34.157
31
0
0
LINE
8
0
62
1
10
76.401
20
-34.157
30
0
11
75.99
21
-34.161
31
0
0
LINE
8
0
62
1
10
75.99
20
-34.161
30
0
11
-19.25
21
-34.161
31
0
0
LINE
8
0
62
1
10
-19.25
20
-34.161
30
0
11
-19.265
21
-34.158
31
0
0
LINE
8
0
62
1
10
-19.265
20
-34.158
30
0
11
-19.277
21
-34.15
31
0
0
LINE
8
0
62
1
10
-19.277
20
-34.15
30
0
11
-19.285
21
-34.137
31
0
0
LINE
8
0
62
1
10
-19.285
20
-34.137
30
0
11
-19.288
21
-34.123
31
0
0
LINE
8
0
62
1
10
-19.288
20
-34.123
30
0
11
-19.288
21
-26.783
31
0
0
LINE
8
0
62
1
10
-19.288
20
-26.783
30
0
11
-19.285
21
-26.768
31
0
0
LINE
8
0
62
1
10
-19.285
20
-26.768
30
0
11
-19.277
21
-26.756
31
0
0
LINE
8
0
62
1
10
-19.277
20
-26.756
30
0
11
-19.265
21
-26.748
31
0
0
LINE
8
0
62
1
10
-19.265
20
-26.748
30
0
11
-19.25
21
-26.745
31
0
0
LINE
8
0
62
1
10
-19.25
20
-26.745
30
0
11
75.99
21
-26.745
31
0
0
ARC
8
0
62
1
10
75.99
20
-12.956
30
0
40
13.789
50
-90
51
0
0
LINE
8
0
62
1
10
89.779
20
-12.956
30
0
11
89.779
21
45.044
31
0
0
LINE
8
0
62
1
10
81.791
20
56.144
30
0
11
81.671
21
56.062
31
0
0
LINE
8
0
62
1
10
81.671
20
56.062
30
0
11
81.547
21
55.985
31
0
0
LINE
8
0
62
1
10
81.547
20
55.985
30
0
11
81.419
21
55.915
31
0
0
LINE
8
0
62
1
10
81.419
20
55.915
30
0
11
81.288
21
55.851
31
0
0
LINE
8
0
62
1
10
81.288
20
55.851
30
0
11
81.155
21
55.793
31
0
0
LINE
8
0
62
1
10
81.155
20
55.793
30
0
11
81.018
21
55.742
31
0
0
LINE
8
0
62
1
10
81.018
20
55.742
30
0
11
80.879
21
55.697
31
0
0
LINE
8
0
62
1
10
80.879
20
55.697
30
0
11
80.739
21
55.659
31
0
0
LINE
8
0
62
1
10
80.739
20
55.659
30
0
11
80.596
21
55.628
31
0
0
LINE
8
0
62
1
10
80.596
20
55.628
30
0
11
80.453
21
55.603
31
0
0
LINE
8
0
62
1
10
80.453
20
55.603
30
0
11
80.308
21
55.586
31
0
0
LINE
8
0
62
1
10
80.308
20
55.586
30
0
11
80.162
21
55.575
31
0
0
LINE
8
0
62
1
10
80.162
20
55.575
30
0
11
80.017
21
55.572
31
0
0
LINE
8
0
62
1
10
80.017
20
55.572
30
0
11
79.864
21
55.576
31
0
0
LINE
8
0
62
1
10
79.864
20
55.576
30
0
11
79.712
21
55.587
31
0
0
LINE
8
0
62
1
10
79.712
20
55.587
30
0
11
79.56
21
55.606
31
0
0
LINE
8
0
62
1
10
79.56
20
55.606
30
0
11
79.41
21
55.633
31
0
0
LINE
8
0
62
1
10
79.41
20
55.633
30
0
11
79.261
21
55.667
31
0
0
LINE
8
0
62
1
10
79.261
20
55.667
30
0
11
79.114
21
55.709
31
0
0
LINE
8
0
62
1
10
79.114
20
55.709
30
0
11
78.97
21
55.758
31
0
0
LINE
8
0
62
1
10
78.97
20
55.758
30
0
11
78.828
21
55.814
31
0
0
LINE
8
0
62
1
10
78.828
20
55.814
30
0
11
78.689
21
55.877
31
0
0
LINE
8
0
62
1
10
78.689
20
55.877
30
0
11
78.553
21
55.948
31
0
0
LINE
8
0
62
1
10
78.553
20
55.948
30
0
11
78.421
21
56.025
31
0
0
LINE
8
0
62
1
10
78.421
20
56.025
30
0
11
78.293
21
56.108
31
0
0
LINE
8
0
62
1
10
78.293
20
56.108
30
0
11
78.17
21
56.198
31
0
0
LINE
8
0
62
1
10
78.17
20
56.198
30
0
11
78.051
21
56.294
31
0
0
LINE
8
0
62
1
10
78.051
20
56.294
30
0
11
77.937
21
56.395
31
0
0
LINE
8
0
62
1
10
77.937
20
56.395
30
0
11
77.828
21
56.503
31
0
0
LINE
8
0
62
1
10
77.828
20
56.503
30
0
11
77.725
21
56.615
31
0
0
LINE
8
0
62
1
10
77.725
20
56.615
30
0
11
77.628
21
56.733
31
0
0
LINE
8
0
62
1
10
77.628
20
56.733
30
0
11
77.536
21
56.855
31
0
0
LINE
8
0
62
1
10
77.536
20
56.855
30
0
11
77.451
21
56.982
31
0
0
LINE
8
0
62
1
10
77.451
20
56.982
30
0
11
77.373
21
57.113
31
0
0
LINE
8
0
62
1
10
77.373
20
57.113
30
0
11
77.301
21
57.248
31
0
0
LINE
8
0
62
1
10
77.301
20
57.248
30
0
11
77.236
21
57.386
31
0
0
LINE
8
0
62
1
10
77.236
20
57.386
30
0
11
77.178
21
57.527
31
0
0
LINE
8
0
62
1
10
77.178
20
57.527
30
0
11
77.127
21
57.671
31
0
0
LINE
8
0
62
1
10
77.127
20
57.671
30
0
11
77.084
21
57.818
31
0
0
LINE
8
0
62
1
10
77.084
20
57.818
30
0
11
77.047
21
57.966
31
0
0
LINE
8
0
62
1
10
77.047
20
57.966
30
0
11
77.019
21
58.116
31
0
0
LINE
8
0
62
1
10
77.019
20
58.116
30
0
11
76.998
21
58.267
31
0
0
LINE
8
0
62
1
10
76.998
20
58.267
30
0
11
76.984
21
58.419
31
0
0
LINE
8
0
62
1
10
76.984
20
58.419
30
0
11
76.979
21
58.572
31
0
0
LINE
8
0
62
1
10
76.979
20
58.572
30
0
11
76.517
21
58.572
31
0
0
LINE
8
0
62
1
10
76.517
20
58.572
30
0
11
76.502
21
58.575
31
0
0
LINE
8
0
62
1
10
76.502
20
58.575
30
0
11
76.49
21
58.583
31
0
0
LINE
8
0
62
1
10
76.49
20
58.583
30
0
11
76.481
21
58.595
31
0
0
LINE
8
0
62
1
10
76.481
20
58.595
30
0
11
76.479
21
58.61
31
0
0
LINE
8
0
62
1
10
76.479
20
58.61
30
0
11
76.479
21
61.61
31
0
0
LINE
8
0
62
1
10
76.479
20
61.61
30
0
11
76.481
21
61.625
31
0
0
LINE
8
0
62
1
10
76.481
20
61.625
30
0
11
76.49
21
61.637
31
0
0
LINE
8
0
62
1
10
76.49
20
61.637
30
0
11
76.502
21
61.645
31
0
0
LINE
8
0
62
1
10
76.502
20
61.645
30
0
11
76.517
21
61.648
31
0
0
LINE
8
0
62
1
10
76.517
20
61.648
30
0
11
83.517
21
61.648
31
0
0
LINE
8
0
62
1
10
83.517
20
61.648
30
0
11
83.531
21
61.645
31
0
0
LINE
8
0
62
1
10
83.531
20
61.645
30
0
11
83.544
21
61.637
31
0
0
LINE
8
0
62
1
10
83.544
20
61.637
30
0
11
83.552
21
61.625
31
0
0
LINE
8
0
62
1
10
83.552
20
61.625
30
0
11
83.555
21
61.61
31
0
0
LINE
8
0
62
1
10
83.555
20
61.61
30
0
11
83.555
21
58.61
31
0
0
LINE
8
0
62
1
10
83.555
20
58.61
30
0
11
83.552
21
58.595
31
0
0
LINE
8
0
62
1
10
83.552
20
58.595
30
0
11
83.544
21
58.583
31
0
0
LINE
8
0
62
1
10
83.544
20
58.583
30
0
11
83.531
21
58.575
31
0
0
LINE
8
0
62
1
10
83.531
20
58.575
30
0
11
83.517
21
58.572
31
0
0
LINE
8
0
62
1
10
83.517
20
58.572
30
0
11
83.055
21
58.572
31
0
0
LINE
8
0
62
1
10
83.055
20
58.572
30
0
11
83.049
21
58.423
31
0
0
LINE
8
0
62
1
10
83.049
20
58.423
30
0
11
83.036
21
58.274
31
0
0
LINE
8
0
62
1
10
83.036
20
58.274
30
0
11
83.016
21
58.126
31
0
0
LINE
8
0
62
1
10
83.016
20
58.126
30
0
11
82.989
21
57.979
31
0
0
LINE
8
0
62
1
10
82.989
20
57.979
30
0
11
82.954
21
57.833
31
0
0
LINE
8
0
62
1
10
82.954
20
57.833
30
0
11
82.912
21
57.69
31
0
0
LINE
8
0
62
1
10
82.912
20
57.69
30
0
11
82.864
21
57.549
31
0
0
LINE
8
0
62
1
10
82.864
20
57.549
30
0
11
82.808
21
57.41
31
0
0
LINE
8
0
62
1
10
82.808
20
57.41
30
0
11
82.746
21
57.274
31
0
0
LINE
8
0
62
1
10
82.746
20
57.274
30
0
11
82.677
21
57.142
31
0
0
LINE
8
0
62
1
10
82.677
20
57.142
30
0
11
82.601
21
57.013
31
0
0
LINE
8
0
62
1
10
82.601
20
57.013
30
0
11
82.52
21
56.888
31
0
0
LINE
8
0
62
1
10
82.52
20
56.888
30
0
11
82.432
21
56.767
31
0
0
LINE
8
0
62
1
10
82.432
20
56.767
30
0
11
82.338
21
56.65
31
0
0
LINE
8
0
62
1
10
82.338
20
56.65
30
0
11
82.239
21
56.538
31
0
0
LINE
8
0
62
1
10
82.239
20
56.538
30
0
11
82.135
21
56.432
31
0
0
LINE
8
0
62
1
10
82.135
20
56.432
30
0
11
82.025
21
56.33
31
0
0
LINE
8
0
62
1
10
82.025
20
56.33
30
0
11
81.91
21
56.234
31
0
0
LINE
8
0
62
1
10
81.91
20
56.234
30
0
11
81.791
21
56.144
31
0
0
LINE
8
0
62
1
10
81.791
20
72.148
30
0
11
82.462
21
72.148
31
0
0
LINE
8
0
62
1
10
82.462
20
72.148
30
0
11
82.462
21
78.45
31
0
0
LINE
8
0
62
1
10
82.462
20
78.45
30
0
11
82.465
21
78.465
31
0
0
LINE
8
0
62
1
10
82.465
20
78.465
30
0
11
82.473
21
78.477
31
0
0
LINE
8
0
62
1
10
82.473
20
78.477
30
0
11
82.485
21
78.485
31
0
0
LINE
8
0
62
1
10
82.485
20
78.485
30
0
11
82.5
21
78.488
31
0
0
LINE
8
0
62
1
10
82.5
20
78.488
30
0
11
97.5
21
78.488
31
0
0
LINE
8
0
62
1
10
97.5
20
78.488
30
0
11
97.515
21
78.485
31
0
0
LINE
8
0
62
1
10
97.515
20
78.485
30
0
11
97.527
21
78.477
31
0
0
LINE
8
0
62
1
10
97.527
20
78.477
30
0
11
97.535
21
78.465
31
0
0
LINE
8
0
62
1
10
97.535
20
78.465
30
0
11
97.538
21
78.45
31
0
0
LINE
8
0
62
1
10
97.538
20
78.45
30
0
11
97.538
21
72.148
31
0
0
LINE
8
0
62
1
10
97.538
20
72.148
30
0
11
106.667
21
72.148
31
0
0
LINE
8
0
62
1
10
106.667
20
72.148
30
0
11
106.682
21
72.145
31
0
0
LINE
8
0
62
1
10
106.682
20
72.145
30
0
11
106.694
21
72.137
31
0
0
LINE
8
0
62
1
10
106.694
20
72.137
30
0
11
106.702
21
72.125
31
0
0
LINE
8
0
62
1
10
106.702
20
72.125
30
0
11
106.705
21
72.11
31
0
0
LINE
8
0
62
1
10
106.705
20
72.11
30
0
11
106.705
21
67.5
31
0
0
LINE
8
0
62
1
10
106.705
20
67.5
30
0
11
106.702
21
67.485
31
0
0
LINE
8
0
62
1
10
106.702
20
67.485
30
0
11
106.694
21
67.473
31
0
0
LINE
8
0
62
1
10
106.694
20
67.473
30
0
11
106.682
21
67.465
31
0
0
LINE
8
0
62
1
10
106.682
20
67.465
30
0
11
106.667
21
67.462
31
0
0
LINE
8
0
62
1
10
106.667
20
67.462
30
0
11
100.365
21
67.462
31
0
0
LINE
8
0
62
1
10
100.365
20
67.462
30
0
11
100.365
21
52.538
31
0
0
LINE
8
0
62
1
10
100.365
20
52.538
30
0
11
106.667
21
52.538
31
0
0
LINE
8
0
62
1
10
106.667
20
52.538
30
0
11
106.682
21
52.535
31
0
0
LINE
8
0
62
1
10
106.682
20
52.535
30
0
11
106.694
21
52.527
31
0
0
LINE
8
0
62
1
10
106.694
20
52.527
30
0
11
106.702
21
52.515
31
0
0
LINE
8
0
62
1
10
106.702
20
52.515
30
0
11
106.705
21
52.5
31
0
0
LINE
8
0
62
1
10
106.705
20
52.5
30
0
11
106.705
21
37.5
31
0
0
LINE
8
0
62
1
10
106.705
20
37.5
30
0
11
106.702
21
37.485
31
0
0
LINE
8
0
62
1
10
106.702
20
37.485
30
0
11
106.694
21
37.473
31
0
0
LINE
8
0
62
1
10
106.694
20
37.473
30
0
11
106.682
21
37.465
31
0
0
LINE
8
0
62
1
10
106.682
20
37.465
30
0
11
106.667
21
37.462
31
0
0
LINE
8
0
62
1
10
106.667
20
37.462
30
0
11
100.365
21
37.462
31
0
0
LINE
8
0
62
1
10
100.365
20
37.462
30
0
11
100.365
21
22.538
31
0
0
LINE
8
0
62
1
10
100.365
20
22.538
30
0
11
106.667
21
22.538
31
0
0
LINE
8
0
62
1
10
106.667
20
22.538
30
0
11
106.682
21
22.535
31
0
0
LINE
8
0
62
1
10
106.682
20
22.535
30
0
11
106.694
21
22.527
31
0
0
LINE
8
0
62
1
10
106.694
20
22.527
30
0
11
106.702
21
22.515
31
0
0
LINE
8
0
62
1
10
106.702
20
22.515
30
0
11
106.705
21
22.5
31
0
0
LINE
8
0
62
1
10
106.705
20
22.5
30
0
11
106.705
21
7.5
31
0
0
LINE
8
0
62
1
10
106.705
20
7.5
30
0
11
106.702
21
7.485
31
0
0
LINE
8
0
62
1
10
106.702
20
7.485
30
0
11
106.694
21
7.473
31
0
0
LINE
8
0
62
1
10
106.694
20
7.473
30
0
11
106.682
21
7.465
31
0
0
LINE
8
0
62
1
10
106.682
20
7.465
30
0
11
106.667
21
7.462
31
0
0
LINE
8
0
62
1
10
106.667
20
7.462
30
0
11
100.365
21
7.462
31
0
0
LINE
8
0
62
1
10
100.365
20
7.462
30
0
11
100.365
21
-7.462
31
0
0
LINE
8
0
62
1
10
100.365
20
-7.462
30
0
11
106.667
21
-7.462
31
0
0
LINE
8
0
62
1
10
106.667
20
-7.462
30
0
11
106.682
21
-7.465
31
0
0
LINE
8
0
62
1
10
106.682
20
-7.465
30
0
11
106.694
21
-7.473
31
0
0
LINE
8
0
62
1
10
106.694
20
-7.473
30
0
11
106.702
21
-7.485
31
0
0
LINE
8
0
62
1
10
106.702
20
-7.485
30
0
11
106.705
21
-7.5
31
0
0
LINE
8
0
62
1
10
106.705
20
-7.5
30
0
11
106.705
21
-22.5
31
0
0
LINE
8
0
62
1
10
106.705
20
-22.5
30
0
11
106.702
21
-22.515
31
0
0
LINE
8
0
62
1
10
106.702
20
-22.515
30
0
11
106.694
21
-22.527
31
0
0
LINE
8
0
62
1
10
106.694
20
-22.527
30
0
11
106.682
21
-22.535
31
0
0
LINE
8
0
62
1
10
106.682
20
-22.535
30
0
11
106.667
21
-22.538
31
0
0
LINE
8
0
62
1
10
106.667
20
-22.538
30
0
11
100.365
21
-22.538
31
0
0
LINE
8
0
62
1
10
100.365
20
-22.538
30
0
11
100.365
21
-37.462
31
0
0
LINE
8
0
62
1
10
100.365
20
-37.462
30
0
11
106.667
21
-37.462
31
0
0
LINE
8
0
62
1
10
106.667
20
-37.462
30
0
11
106.682
21
-37.465
31
0
0
LINE
8
0
62
1
10
106.682
20
-37.465
30
0
11
106.694
21
-37.473
31
0
0
LINE
8
0
62
1
10
106.694
20
-37.473
30
0
11
106.702
21
-37.485
31
0
0
LINE
8
0
62
1
10
106.702
20
-37.485
30
0
11
106.705
21
-37.5
31
0
0
LINE
8
0
62
1
10
106.705
20
-37.5
30
0
11
106.705
21
-52.5
31
0
0
LINE
8
0
62
1
10
106.705
20
-52.5
30
0
11
106.702
21
-52.515
31
0
0
LINE
8
0
62
1
10
106.702
20
-52.515
30
0
11
106.694
21
-52.527
31
0
0
LINE
8
0
62
1
10
106.694
20
-52.527
30
0
11
106.682
21
-52.535
31
0
0
LINE
8
0
62
1
10
106.682
20
-52.535
30
0
11
106.667
21
-52.538
31
0
0
LINE
8
0
62
1
10
106.667
20
-52.538
30
0
11
100.365
21
-52.538
31
0
0
LINE
8
0
62
1
10
100.365
20
-52.538
30
0
11
100.365
21
-67.462
31
0
0
LINE
8
0
62
1
10
100.365
20
-67.462
30
0
11
106.667
21
-67.462
31
0
0
LINE
8
0
62
1
10
106.667
20
-67.462
30
0
11
106.682
21
-67.465
31
0
0
LINE
8
0
62
1
10
106.682
20
-67.465
30
0
11
106.694
21
-67.473
31
0
0
LINE
8
0
62
1
10
106.694
20
-67.473
30
0
11
106.702
21
-67.485
31
0
0
LINE
8
0
62
1
10
106.702
20
-67.485
30
0
11
106.705
21
-67.5
31
0
0
LINE
8
0
62
1
10
106.705
20
-67.5
30
0
11
106.705
21
-72.11
31
0
0
LINE
8
0
62
1
10
106.705
20
-72.11
30
0
11
106.702
21
-72.125
31
0
0
LINE
8
0
62
1
10
106.702
20
-72.125
30
0
11
106.694
21
-72.137
31
0
0
LINE
8
0
62
1
10
106.694
20
-72.137
30
0
11
106.682
21
-72.145
31
0
0
LINE
8
0
62
1
10
106.682
20
-72.145
30
0
11
106.667
21
-72.148
31
0
0
LINE
8
0
62
1
10
106.667
20
-72.148
30
0
11
97.538
21
-72.148
31
0
0
LINE
8
0
62
1
10
97.538
20
-72.148
30
0
11
97.538
21
-78.45
31
0
0
LINE
8
0
62
1
10
97.538
20
-78.45
30
0
11
97.535
21
-78.465
31
0
0
LINE
8
0
62
1
10
97.535
20
-78.465
30
0
11
97.527
21
-78.477
31
0
0
LINE
8
0
62
1
10
97.527
20
-78.477
30
0
11
97.515
21
-78.485
31
0
0
LINE
8
0
62
1
10
97.515
20
-78.485
30
0
11
97.5
21
-78.488
31
0
0
LINE
8
0
62
1
10
97.5
20
-78.488
30
0
11
82.5
21
-78.488
31
0
0
LINE
8
0
62
1
10
82.5
20
-78.488
30
0
11
82.485
21
-78.485
31
0
0
LINE
8
0
62
1
10
82.485
20
-78.485
30
0
11
82.473
21
-78.477
31
0
0
LINE
8
0
62
1
10
82.473
20
-78.477
30
0
11
82.465
21
-78.465
31
0
0
LINE
8
0
62
1
10
82.465
20
-78.465
30
0
11
82.462
21
-78.45
31
0
0
LINE
8
0
62
1
10
82.462
20
-78.45
30
0
11
82.462
21
-72.148
31
0
0
LINE
8
0
62
1
10
82.462
20
-72.148
30
0
11
67.538
21
-72.148
31
0
0
LINE
8
0
62
1
10
67.538
20
-72.148
30
0
11
67.538
21
-78.45
31
0
0
LINE
8
0
62
1
10
67.538
20
-78.45
30
0
11
67.535
21
-78.465
31
0
0
LINE
8
0
62
1
10
67.535
20
-78.465
30
0
11
67.527
21
-78.477
31
0
0
LINE
8
0
62
1
10
67.527
20
-78.477
30
0
11
67.515
21
-78.485
31
0
0
LINE
8
0
62
1
10
67.515
20
-78.485
30
0
11
67.5
21
-78.488
31
0
0
LINE
8
0
62
1
10
67.5
20
-78.488
30
0
11
52.5
21
-78.488
31
0
0
LINE
8
0
62
1
10
52.5
20
-78.488
30
0
11
52.485
21
-78.485
31
0
0
LINE
8
0
62
1
10
52.485
20
-78.485
30
0
11
52.473
21
-78.477
31
0
0
LINE
8
0
62
1
10
52.473
20
-78.477
30
0
11
52.465
21
-78.465
31
0
0
LINE
8
0
62
1
10
52.465
20
-78.465
30
0
11
52.462
21
-78.45
31
0
0
LINE
8
0
62
1
10
52.462
20
-78.45
30
0
11
52.462
21
-72.148
31
0
0
LINE
8
0
62
1
10
52.462
20
-72.148
30
0
11
37.538
21
-72.148
31
0
0
LINE
8
0
62
1
10
37.538
20
-72.148
30
0
11
37.538
21
-78.45
31
0
0
LINE
8
0
62
1
10
37.538
20
-78.45
30
0
11
37.535
21
-78.465
31
0
0
LINE
8
0
62
1
10
37.535
20
-78.465
30
0
11
37.527
21
-78.477
31
0
0
LINE
8
0
62
1
10
37.527
20
-78.477
30
0
11
37.515
21
-78.485
31
0
0
LINE
8
0
62
1
10
37.515
20
-78.485
30
0
11
37.5
21
-78.488
31
0
0
LINE
8
0
62
1
10
37.5
20
-78.488
30
0
11
22.5
21
-78.488
31
0
0
LINE
8
0
62
1
10
22.5
20
-78.488
30
0
11
22.485
21
-78.485
31
0
0
LINE
8
0
62
1
10
22.485
20
-78.485
30
0
11
22.473
21
-78.477
31
0
0
LINE
8
0
62
1
10
22.473
20
-78.477
30
0
11
22.465
21
-78.465
31
0
0
LINE
8
0
62
1
10
22.465
20
-78.465
30
0
11
22.462
21
-78.45
31
0
0
LINE
8
0
62
1
10
22.462
20
-78.45
30
0
11
22.462
21
-72.148
31
0
0
LINE
8
0
62
1
10
22.462
20
-72.148
30
0
11
7.538
21
-72.148
31
0
0
LINE
8
0
62
1
10
7.538
20
-72.148
30
0
11
7.538
21
-78.45
31
0
0
LINE
8
0
62
1
10
7.538
20
-78.45
30
0
11
7.535
21
-78.465
31
0
0
LINE
8
0
62
1
10
7.535
20
-78.465
30
0
11
7.527
21
-78.477
31
0
0
LINE
8
0
62
1
10
7.527
20
-78.477
30
0
11
7.515
21
-78.485
31
0
0
LINE
8
0
62
1
10
7.515
20
-78.485
30
0
11
7.5
21
-78.488
31
0
0
LINE
8
0
62
1
10
7.5
20
-78.488
30
0
11
-7.5
21
-78.488
31
0
0
LINE
8
0
62
1
10
-7.5
20
-78.488
30
0
11
-7.515
21
-78.485
31
0
0
LINE
8
0
62
1
10
-7.515
20
-78.485
30
0
11
-7.527
21
-78.477
31
0
0
LINE
8
0
62
1
10
-7.527
20
-78.477
30
0
11
-7.535
21
-78.465
31
0
0
LINE
8
0
62
1
10
-7.535
20
-78.465
30
0
11
-7.538
21
-78.45
31
0
0
LINE
8
0
62
1
10
-7.538
20
-78.45
30
0
11
-7.538
21
-72.148
31
0
0
LINE
8
0
62
1
10
-7.538
20
-72.148
30
0
11
-22.462
21
-72.148
31
0
0
LINE
8
0
62
1
10
-22.462
20
-72.148
30
0
11
-22.462
21
-78.45
31
0
0
LINE
8
0
62
1
10
-22.462
20
-78.45
30
0
11
-22.465
21
-78.465
31
0
0
LINE
8
0
62
1
10
-22.465
20
-78.465
30
0
11
-22.473
21
-78.477
31
0
0
LINE
8
0
62
1
10
-22.473
20
-78.477
30
0
11
-22.485
21
-78.485
31
0
0
LINE
8
0
62
1
10
-22.485
20
-78.485
30
0
11
-22.5
21
-78.488
31
0
0
LINE
8
0
62
1
10
-22.5
20
-78.488
30
0
11
-37.5
21
-78.488
31
0
0
LINE
8
0
62
1
10
-37.5
20
-78.488
30
0
11
-37.515
21
-78.485
31
0
0
LINE
8
0
62
1
10
-37.515
20
-78.485
30
0
11
-37.527
21
-78.477
31
0
0
LINE
8
0
62
1
10
-37.527
20
-78.477
30
0
11
-37.535
21
-78.465
31
0
0
LINE
8
0
62
1
10
-37.535
20
-78.465
30
0
11
-37.538
21
-78.45
31
0
0
LINE
8
0
62
1
10
-37.538
20
-78.45
30
0
11
-37.538
21
-72.148
31
0
0
LINE
8
0
62
1
10
-37.538
20
-72.148
30
0
11
-52.462
21
-72.148
31
0
0
LINE
8
0
62
1
10
-52.462
20
-72.148
30
0
11
-52.462
21
-78.45
31
0
0
LINE
8
0
62
1
10
-52.462
20
-78.45
30
0
11
-52.465
21
-78.465
31
0
0
LINE
8
0
62
1
10
-52.465
20
-78.465
30
0
11
-52.473
21
-78.477
31
0
0
LINE
8
0
62
1
10
-52.473
20
-78.477
30
0
11
-52.485
21
-78.485
31
0
0
LINE
8
0
62
1
10
-52.485
20
-78.485
30
0
11
-52.5
21
-78.488
31
0
0
LINE
8
0
62
1
10
-52.5
20
-78.488
30
0
11
-67.5
21
-78.488
31
0
0
LINE
8
0
62
1
10
-67.5
20
-78.488
30
0
11
-67.515
21
-78.485
31
0
0
LINE
8
0
62
1
10
-67.515
20
-78.485
30
0
11
-67.527
21
-78.477
31
0
0
LINE
8
0
62
1
10
-67.527
20
-78.477
30
0
11
-67.535
21
-78.465
31
0
0
LINE
8
0
62
1
10
-67.535
20
-78.465
30
0
11
-67.538
21
-78.45
31
0
0
LINE
8
0
62
1
10
-67.538
20
-78.45
30
0
11
-67.538
21
-72.148
31
0
0
LINE
8
0
62
1
10
-67.538
20
-72.148
30
0
11
-82.462
21
-72.148
31
0
0
LINE
8
0
62
1
10
-82.462
20
-72.148
30
0
11
-82.462
21
-78.45
31
0
0
LINE
8
0
62
1
10
-82.462
20
-78.45
30
0
11
-82.465
21
-78.465
31
0
0
LINE
8
0
62
1
10
-82.465
20
-78.465
30
0
11
-82.473
21
-78.477
31
0
0
LINE
8
0
62
1
10
-82.473
20
-78.477
30
0
11
-82.485
21
-78.485
31
0
0
LINE
8
0
62
1
10
-82.485
20
-78.485
30
0
11
-82.5
21
-78.488
31
0
0
LINE
8
0
62
1
10
-82.5
20
-78.488
30
0
11
-97.5
21
-78.488
31
0
0
LINE
8
0
62
1
10
-97.5
20
-78.488
30
0
11
-97.515
21
-78.485
31
0
0
LINE
8
0
62
1
10
-97.515
20
-78.485
30
0
11
-97.527
21
-78.477
31
0
0
LINE
8
0
62
1
10
-97.527
20
-78.477
30
0
11
-97.535
21
-78.465
31
0
0
LINE
8
0
62
1
10
-97.535
20
-78.465
30
0
11
-97.538
21
-78.45
31
0
0
LINE
8
0
62
1
10
-97.538
20
-78.45
30
0
11
-97.538
21
-72.148
31
0
0
LINE
8
0
62
1
10
-97.538
20
-72.148
30
0
11
-106.667
21
-72.148
31
0
0
LINE
8
0
62
1
10
-106.667
20
-72.148
30
0
11
-106.682
21
-72.145
31
0
0
LINE
8
0
62
1
10
-106.682
20
-72.145
30
0
11
-106.694
21
-72.137
31
0
0
LINE
8
0
62
1
10
-106.694
20
-72.137
30
0
11
-106.702
21
-72.125
31
0
0
LINE
8
0
62
1
10
-106.702
20
-72.125
30
0
11
-106.705
21
-72.11
31
0
0
LINE
8
0
62
1
10
-106.705
20
-72.11
30
0
11
-106.705
21
-67.5
31
0
0
LINE
8
0
62
1
10
-106.705
20
-67.5
30
0
11
-106.702
21
-67.485
31
0
0
LINE
8
0
62
1
10
-106.702
20
-67.485
30
0
11
-106.694
21
-67.473
31
0
0
LINE
8
0
62
1
10
-106.694
20
-67.473
30
0
11
-106.682
21
-67.465
31
0
0
LINE
8
0
62
1
10
-106.682
20
-67.465
30
0
11
-106.667
21
-67.462
31
0
0
LINE
8
0
62
1
10
-106.667
20
-67.462
30
0
11
-100.365
21
-67.462
31
0
0
LINE
8
0
62
1
10
-100.365
20
-67.462
30
0
11
-100.365
21
-52.538
31
0
0
LINE
8
0
62
1
10
-100.365
20
-52.538
30
0
11
-106.667
21
-52.538
31
0
0
LINE
8
0
62
1
10
-106.667
20
-52.538
30
0
11
-106.682
21
-52.535
31
0
0
LINE
8
0
62
1
10
-106.682
20
-52.535
30
0
11
-106.694
21
-52.527
31
0
0
LINE
8
0
62
1
10
-106.694
20
-52.527
30
0
11
-106.702
21
-52.515
31
0
0
LINE
8
0
62
1
10
-106.702
20
-52.515
30
0
11
-106.705
21
-52.5
31
0
0
LINE
8
0
62
1
10
-106.705
20
-52.5
30
0
11
-106.705
21
-37.5
31
0
0
LINE
8
0
62
1
10
-106.705
20
-37.5
30
0
11
-106.702
21
-37.485
31
0
0
LINE
8
0
62
1
10
-106.702
20
-37.485
30
0
11
-106.694
21
-37.473
31
0
0
LINE
8
0
62
1
10
-106.694
20
-37.473
30
0
11
-106.682
21
-37.465
31
0
0
LINE
8
0
62
1
10
-106.682
20
-37.465
30
0
11
-106.667
21
-37.462
31
0
0
LINE
8
0
62
1
10
-106.667
20
-37.462
30
0
11
-100.365
21
-37.462
31
0
0
LINE
8
0
62
1
10
-100.365
20
-37.462
30
0
11
-100.365
21
-22.538
31
0
0
LINE
8
0
62
1
10
-100.365
20
-22.538
30
0
11
-106.667
21
-22.538
31
0
0
LINE
8
0
62
1
10
-106.667
20
-22.538
30
0
11
-106.682
21
-22.535
31
0
0
LINE
8
0
62
1
10
-106.682
20
-22.535
30
0
11
-106.694
21
-22.527
31
0
0
LINE
8
0
62
1
10
-106.694
20
-22.527
30
0
11
-106.702
21
-22.515
31
0
0
LINE
8
0
62
1
10
-106.702
20
-22.515
30
0
11
-106.705
21
-22.5
31
0
0
LINE
8
0
62
1
10
-106.705
20
-22.5
30
0
11
-106.705
21
-7.5
31
0
0
LINE
8
0
62
1
10
-106.705
20
-7.5
30
0
11
-106.702
21
-7.485
31
0
0
LINE
8
0
62
1
10
-106.702
20
-7.485
30
0
11
-106.694
21
-7.473
31
0
0
LINE
8
0
62
1
10
-106.694
20
-7.473
30
0
11
-106.682
21
-7.465
31
0
0
LINE
8
0
62
1
10
-106.682
20
-7.465
30
0
11
-106.667
21
-7.462
31
0
0
LINE
8
0
62
1
10
-106.667
20
-7.462
30
0
11
-100.365
21
-7.462
31
0
0
LINE
8
0
62
1
10
-100.365
20
-7.462
30
0
11
-100.365
21
7.462
31
0
0
LINE
8
0
62
1
10
-100.365
20
7.462
30
0
11
-106.667
21
7.462
31
0
0
LINE
8
0
62
1
10
-106.667
20
7.462
30
0
11
-106.682
21
7.465
31
0
0
LINE
8
0
62
1
10
-106.682
20
7.465
30
0
11
-106.694
21
7.473
31
0
0
LINE
8
0
62
1
10
-106.694
20
7.473
30
0
11
-106.702
21
7.485
31
0
0
LINE
8
0
62
1
10
-106.702
20
7.485
30
0
11
-106.705
21
7.5
31
0
0
LINE
8
0
62
1
10
-106.705
20
7.5
30
0
11
-106.705
21
22.5
31
0
0
LINE
8
0
62
1
10
-106.705
20
22.5
30
0
11
-106.702
21
22.515
31
0
0
LINE
8
0
62
1
10
-106.702
20
22.515
30
0
11
-106.694
21
22.527
31
0
0
LINE
8
0
62
1
10
-106.694
20
22.527
30
0
11
-106.682
21
22.535
31
0
0
LINE
8
0
62
1
10
-106.682
20
22.535
30
0
11
-106.667
21
22.538
31
0
0
LINE
8
0
62
1
10
-106.667
20
22.538
30
0
11
-100.365
21
22.538
31
0
0
LINE
8
0
62
1
10
-100.365
20
22.538
30
0
11
-100.365
21
37.462
31
0
0
LINE
8
0
62
1
10
-100.365
20
37.462
30
0
11
-106.667
21
37.462
31
0
0
LINE
8
0
62
1
10
-106.667
20
37.462
30
0
11
-106.682
21
37.465
31
0
0
LINE
8
0
62
1
10
-106.682
20
37.465
30
0
11
-106.694
21
37.473
31
0
0
LINE
8
0
62
1
10
-106.694
20
37.473
30
0
11
-106.702
21
37.485
31
0
0
LINE
8
0
62
1
10
-106.702
20
37.485
30
0
11
-106.705
21
37.5
31
0
0
LINE
8
0
62
1
10
-106.705
20
37.5
30
0
11
-106.705
21
52.5
31
0
0
LINE
8
0
62
1
10
-106.705
20
52.5
30
0
11
-106.702
21
52.515
31
0
0
LINE
8
0
62
1
10
-106.702
20
52.515
30
0
11
-106.694
21
52.527
31
0
0
LINE
8
0
62
1
10
-106.694
20
52.527
30
0
11
-106.682
21
52.535
31
0
0
LINE
8
0
62
1
10
-106.682
20
52.535
30
0
11
-106.667
21
52.538
31
0
0
LINE
8
0
62
1
10
-106.667
20
52.538
30
0
11
-100.365
21
52.538
31
0
0
LINE
8
0
62
1
10
-100.365
20
52.538
30
0
11
-100.365
21
67.462
31
0
0
LINE
8
0
62
1
10
-100.365
20
67.462
30
0
11
-106.667
21
67.462
31
0
0
LINE
8
0
62
1
10
-106.667
20
67.462
30
0
11
-106.682
21
67.465
31
0
0
LINE
8
0
62
1
10
-106.682
20
67.465
30
0
11
-106.694
21
67.473
31
0
0
LINE
8
0
62
1
10
-106.694
20
67.473
30
0
11
-106.702
21
67.485
31
0
0
LINE
8
0
62
1
10
-106.702
20
67.485
30
0
11
-106.705
21
67.5
31
0
0
LINE
8
0
62
1
10
-106.705
20
67.5
30
0
11
-106.705
21
72.11
31
0
0
LINE
8
0
62
1
10
-106.705
20
72.11
30
0
11
-106.702
21
72.125
31
0
0
LINE
8
0
62
1
10
-106.702
20
72.125
30
0
11
-106.694
21
72.137
31
0
0
LINE
8
0
62
1
10
-106.694
20
72.137
30
0
11
-106.682
21
72.145
31
0
0
LINE
8
0
62
1
10
-106.682
20
72.145
30
0
11
-106.667
21
72.148
31
0
0
LINE
8
0
62
1
10
-106.667
20
72.148
30
0
11
-97.538
21
72.148
31
0
0
LINE
8
0
62
1
10
-97.538
20
72.148
30
0
11
-97.538
21
78.45
31
0
0
LINE
8
0
62
1
10
-97.538
20
78.45
30
0
11
-97.535
21
78.465
31
0
0
LINE
8
0
62
1
10
-97.535
20
78.465
30
0
11
-97.527
21
78.477
31
0
0
LINE
8
0
62
1
10
-97.527
20
78.477
30
0
11
-97.515
21
78.485
31
0
0
LINE
8
0
62
1
10
-97.515
20
78.485
30
0
11
-97.5
21
78.488
31
0
0
LINE
8
0
62
1
10
-97.5
20
78.488
30
0
11
-82.5
21
78.488
31
0
0
LINE
8
0
62
1
10
-82.5
20
78.488
30
0
11
-82.485
21
78.485
31
0
0
LINE
8
0
62
1
10
-82.485
20
78.485
30
0
11
-82.473
21
78.477
31
0
0
LINE
8
0
62
1
10
-82.473
20
78.477
30
0
11
-82.465
21
78.465
31
0
0
LINE
8
0
62
1
10
-82.465
20
78.465
30
0
11
-82.462
21
78.45
31
0
0
LINE
8
0
62
1
10
-82.462
20
78.45
30
0
11
-82.462
21
72.148
31
0
0
LINE
8
0
62
1
10
-82.462
20
72.148
30
0
11
-67.538
21
72.148
31
0
0
LINE
8
0
62
1
10
-67.538
20
72.148
30
0
11
-67.538
21
78.45
31
0
0
LINE
8
0
62
1
10
-67.538
20
78.45
30
0
11
-67.535
21
78.465
31
0
0
LINE
8
0
62
1
10
-67.535
20
78.465
30
0
11
-67.527
21
78.477
31
0
0
LINE
8
0
62
1
10
-67.527
20
78.477
30
0
11
-67.515
21
78.485
31
0
0
LINE
8
0
62
1
10
-67.515
20
78.485
30
0
11
-67.5
21
78.488
31
0
0
LINE
8
0
62
1
10
-67.5
20
78.488
30
0
11
-52.5
21
78.488
31
0
0
LINE
8
0
62
1
10
-52.5
20
78.488
30
0
11
-52.485
21
78.485
31
0
0
LINE
8
0
62
1
10
-52.485
20
78.485
30
0
11
-52.473
21
78.477
31
0
0
LINE
8
0
62
1
10
-52.473
20
78.477
30
0
11
-52.465
21
78.465
31
0
0
LINE
8
0
62
1
10
-52.465
20
78.465
30
0
11
-52.462
21
78.45
31
0
0
LINE
8
0
62
1
10
-52.462
20
78.45
30
0
11
-52.462
21
72.148
31
0
0
LINE
8
0
62
1
10
-52.462
20
72.148
30
0
11
-37.538
21
72.148
31
0
0
LINE
8
0
62
1
10
-37.538
20
72.148
30
0
11
-37.538
21
78.45
31
0
0
LINE
8
0
62
1
10
-37.538
20
78.45
30
0
11
-37.535
21
78.465
31
0
0
LINE
8
0
62
1
10
-37.535
20
78.465
30
0
11
-37.527
21
78.477
31
0
0
LINE
8
0
62
1
10
-37.527
20
78.477
30
0
11
-37.515
21
78.485
31
0
0
LINE
8
0
62
1
10
-37.515
20
78.485
30
0
11
-37.5
21
78.488
31
0
0
LINE
8
0
62
1
10
-37.5
20
78.488
30
0
11
-22.5
21
78.488
31
0
0
LINE
8
0
62
1
10
-22.5
20
78.488
30
0
11
-22.485
21
78.485
31
0
0
LINE
8
0
62
1
10
-22.485
20
78.485
30
0
11
-22.473
21
78.477
31
0
0
LINE
8
0
62
1
10
-22.473
20
78.477
30
0
11
-22.465
21
78.465
31
0
0
LINE
8
0
62
1
10
-22.465
20
78.465
30
0
11
-22.462
21
78.45
31
0
0
LINE
8
0
62
1
10
-22.462
20
78.45
30
0
11
-22.462
21
72.148
31
0
0
LINE
8
0
62
1
10
-22.462
20
72.148
30
0
11
-7.538
21
72.148
31
0
0
LINE
8
0
62
1
10
-7.538
20
72.148
30
0
11
-7.538
21
78.45
31
0
0
LINE
8
0
62
1
10
-7.538
20
78.45
30
0
11
-7.535
21
78.465
31
0
0
LINE
8
0
62
1
10
-7.535
20
78.465
30
0
11
-7.527
21
78.477
31
0
0
LINE
8
0
62
1
10
-7.527
20
78.477
30
0
11
-7.515
21
78.485
31
0
0
LINE
8
0
62
1
10
-7.515
20
78.485
30
0
11
-7.5
21
78.488
31
0
0
LINE
8
0
62
1
10
-7.5
20
78.488
30
0
11
7.5
21
78.488
31
0
0
LINE
8
0
62
1
10
7.5
20
78.488
30
0
11
7.515
21
78.485
31
0
0
LINE
8
0
62
1
10
7.515
20
78.485
30
0
11
7.527
21
78.477
31
0
0
LINE
8
0
62
1
10
7.527
20
78.477
30
0
11
7.535
21
78.465
31
0
0
LINE
8
0
62
1
10
7.535
20
78.465
30
0
11
7.538
21
78.45
31
0
0
LINE
8
0
62
1
10
7.538
20
78.45
30
0
11
7.538
21
72.148
31
0
0
LINE
8
0
62
1
10
7.538
20
72.148
30
0
11
22.462
21
72.148
31
0
0
LINE
8
0
62
1
10
22.462
20
72.148
30
0
11
22.462
21
78.45
31
0
0
LINE
8
0
62
1
10
22.462
20
78.45
30
0
11
22.465
21
78.465
31
0
0
LINE
8
0
62
1
10
22.465
20
78.465
30
0
11
22.473
21
78.477
31
0
0
LINE
8
0
62
1
10
22.473
20
78.477
30
0
11
22.485
21
78.485
31
0
0
LINE
8
0
62
1
10
22.485
20
78.485
30
0
11
22.5
21
78.488
31
0
0
LINE
8
0
62
1
10
22.5
20
78.488
30
0
11
37.5
21
78.488
31
0
0
LINE
8
0
62
1
10
37.5
20
78.488
30
0
11
37.515
21
78.485
31
0
0
LINE
8
0
62
1
10
37.515
20
78.485
30
0
11
37.527
21
78.477
31
0
0
LINE
8
0
62
1
10
37.527
20
78.477
30
0
11
37.535
21
78.465
31
0
0
LINE
8
0
62
1
10
37.535
20
78.465
30
0
11
37.538
21
78.45
31
0
0
LINE
8
0
62
1
10
37.538
20
78.45
30
0
11
37.538
21
72.148
31
0
0
LINE
8
0
62
1
10
37.538
20
72.148
30
0
11
52.462
21
72.148
31
0
0
LINE
8
0
62
1
10
52.462
20
72.148
30
0
11
52.462
21
78.45
31
0
0
LINE
8
0
62
1
10
52.462
20
78.45
30
0
11
52.465
21
78.465
31
0
0
LINE
8
0
62
1
10
52.465
20
78.465
30
0
11
52.473
21
78.477
31
0
0
LINE
8
0
62
1
10
52.473
20
78.477
30
0
11
52.485
21
78.485
31
0
0
LINE
8
0
62
1
10
52.485
20
78.485
30
0
11
52.5
21
78.488
31
0
0
LINE
8
0
62
1
10
52.5
20
78.488
30
0
11
67.5
21
78.488
31
0
0
LINE
8
0
62
1
10
67.5
20
78.488
30
0
11
67.515
21
78.485
31
0
0
LINE
8
0
62
1
10
67.515
20
78.485
30
0
11
67.527
21
78.477
31
0
0
LINE
8
0
62
1
10
67.527
20
78.477
30
0
11
67.535
21
78.465
31
0
0
LINE
8
0
62
1
10
67.535
20
78.465
30
0
11
67.538
21
78.45
31
0
0
LINE
8
0
62
1
10
67.538
20
78.45
30
0
11
67.538
21
72.148
31
0
0
LINE
8
0
62
1
10
67.538
20
72.148
30
0
11
81.791
21
72.148
31
0
0
ENDSEC
0
EOF
