999
Generated by Autodesk CAM - http://cam.autodesk.com
999
UNIT = MM
999
THICKNESS = 7.34
0
SECTION
2
HEADER
9
$ACADVER
1
AC1006
9
$ANGBASE
50
0
9
$ANGDIR
70
0
0
ENDSEC
0
SECTION
2
BLOCKS
0
ENDSEC
9
$EXTMIN
10
-106.705
20
-7.538
30
0
9
$EXTMAX
10
106.705
20
7.868
30
15
0
SECTION
2
ENTITIES
0
LINE
8
0
62
1
10
-88.242
20
4.3
30
0
11
-88.242
21
-2.2
31
0
0
LINE
8
0
62
1
10
-88.242
20
-2.2
30
0
11
-88.246
21
-2.301
31
0
0
LINE
8
0
62
1
10
-88.246
20
-2.301
30
0
11
-88.258
21
-2.402
31
0
0
LINE
8
0
62
1
10
-88.258
20
-2.402
30
0
11
-88.278
21
-2.501
31
0
0
LINE
8
0
62
1
10
-88.278
20
-2.501
30
0
11
-88.305
21
-2.598
31
0
0
LINE
8
0
62
1
10
-88.305
20
-2.598
30
0
11
-88.34
21
-2.693
31
0
0
LINE
8
0
62
1
10
-88.34
20
-2.693
30
0
11
-88.383
21
-2.785
31
0
0
LINE
8
0
62
1
10
-88.383
20
-2.785
30
0
11
-88.432
21
-2.873
31
0
0
LINE
8
0
62
1
10
-88.432
20
-2.873
30
0
11
-88.488
21
-2.957
31
0
0
LINE
8
0
62
1
10
-88.488
20
-2.957
30
0
11
-88.551
21
-3.037
31
0
0
LINE
8
0
62
1
10
-88.551
20
-3.037
30
0
11
-88.619
21
-3.111
31
0
0
LINE
8
0
62
1
10
-88.619
20
-3.111
30
0
11
-88.694
21
-3.179
31
0
0
LINE
8
0
62
1
10
-88.694
20
-3.179
30
0
11
-88.773
21
-3.242
31
0
0
LINE
8
0
62
1
10
-88.773
20
-3.242
30
0
11
-88.857
21
-3.298
31
0
0
LINE
8
0
62
1
10
-88.857
20
-3.298
30
0
11
-88.946
21
-3.348
31
0
0
LINE
8
0
62
1
10
-88.946
20
-3.348
30
0
11
-89.037
21
-3.39
31
0
0
LINE
8
0
62
1
10
-89.037
20
-3.39
30
0
11
-89.132
21
-3.425
31
0
0
LINE
8
0
62
1
10
-89.132
20
-3.425
30
0
11
-89.23
21
-3.453
31
0
0
LINE
8
0
62
1
10
-89.23
20
-3.453
30
0
11
-89.329
21
-3.472
31
0
0
LINE
8
0
62
1
10
-89.329
20
-3.472
30
0
11
-89.429
21
-3.484
31
0
0
LINE
8
0
62
1
10
-89.429
20
-3.484
30
0
11
-89.53
21
-3.488
31
0
0
LINE
8
0
62
1
10
-89.53
20
-3.488
30
0
11
-89.631
21
-3.484
31
0
0
LINE
8
0
62
1
10
-89.631
20
-3.484
30
0
11
-89.732
21
-3.472
31
0
0
LINE
8
0
62
1
10
-89.732
20
-3.472
30
0
11
-89.831
21
-3.453
31
0
0
LINE
8
0
62
1
10
-89.831
20
-3.453
30
0
11
-89.928
21
-3.425
31
0
0
LINE
8
0
62
1
10
-89.928
20
-3.425
30
0
11
-90.023
21
-3.39
31
0
0
LINE
8
0
62
1
10
-90.023
20
-3.39
30
0
11
-90.115
21
-3.348
31
0
0
LINE
8
0
62
1
10
-90.115
20
-3.348
30
0
11
-90.203
21
-3.298
31
0
0
LINE
8
0
62
1
10
-90.203
20
-3.298
30
0
11
-90.287
21
-3.242
31
0
0
LINE
8
0
62
1
10
-90.287
20
-3.242
30
0
11
-90.367
21
-3.179
31
0
0
LINE
8
0
62
1
10
-90.367
20
-3.179
30
0
11
-90.441
21
-3.111
31
0
0
LINE
8
0
62
1
10
-90.441
20
-3.111
30
0
11
-90.51
21
-3.037
31
0
0
LINE
8
0
62
1
10
-90.51
20
-3.037
30
0
11
-90.572
21
-2.957
31
0
0
LINE
8
0
62
1
10
-90.572
20
-2.957
30
0
11
-90.629
21
-2.873
31
0
0
LINE
8
0
62
1
10
-90.629
20
-2.873
30
0
11
-90.678
21
-2.785
31
0
0
LINE
8
0
62
1
10
-90.678
20
-2.785
30
0
11
-90.72
21
-2.693
31
0
0
LINE
8
0
62
1
10
-90.72
20
-2.693
30
0
11
-90.755
21
-2.598
31
0
0
LINE
8
0
62
1
10
-90.755
20
-2.598
30
0
11
-90.783
21
-2.501
31
0
0
LINE
8
0
62
1
10
-90.783
20
-2.501
30
0
11
-90.803
21
-2.402
31
0
0
LINE
8
0
62
1
10
-90.803
20
-2.402
30
0
11
-90.814
21
-2.301
31
0
0
LINE
8
0
62
1
10
-90.814
20
-2.301
30
0
11
-90.818
21
-2.2
31
0
0
LINE
8
0
62
1
10
-90.818
20
-2.2
30
0
11
-90.818
21
4.3
31
0
0
LINE
8
0
62
1
10
-90.818
20
4.3
30
0
11
-90.814
21
4.401
31
0
0
LINE
8
0
62
1
10
-90.814
20
4.401
30
0
11
-90.803
21
4.502
31
0
0
LINE
8
0
62
1
10
-90.803
20
4.502
30
0
11
-90.783
21
4.601
31
0
0
LINE
8
0
62
1
10
-90.783
20
4.601
30
0
11
-90.755
21
4.698
31
0
0
LINE
8
0
62
1
10
-90.755
20
4.698
30
0
11
-90.72
21
4.793
31
0
0
LINE
8
0
62
1
10
-90.72
20
4.793
30
0
11
-90.678
21
4.885
31
0
0
LINE
8
0
62
1
10
-90.678
20
4.885
30
0
11
-90.629
21
4.973
31
0
0
LINE
8
0
62
1
10
-90.629
20
4.973
30
0
11
-90.572
21
5.057
31
0
0
LINE
8
0
62
1
10
-90.572
20
5.057
30
0
11
-90.51
21
5.137
31
0
0
LINE
8
0
62
1
10
-90.51
20
5.137
30
0
11
-90.441
21
5.211
31
0
0
LINE
8
0
62
1
10
-90.441
20
5.211
30
0
11
-90.367
21
5.279
31
0
0
LINE
8
0
62
1
10
-90.367
20
5.279
30
0
11
-90.287
21
5.342
31
0
0
LINE
8
0
62
1
10
-90.287
20
5.342
30
0
11
-90.203
21
5.398
31
0
0
LINE
8
0
62
1
10
-90.203
20
5.398
30
0
11
-90.115
21
5.448
31
0
0
LINE
8
0
62
1
10
-90.115
20
5.448
30
0
11
-90.023
21
5.49
31
0
0
LINE
8
0
62
1
10
-90.023
20
5.49
30
0
11
-89.928
21
5.525
31
0
0
LINE
8
0
62
1
10
-89.928
20
5.525
30
0
11
-89.831
21
5.553
31
0
0
LINE
8
0
62
1
10
-89.831
20
5.553
30
0
11
-89.732
21
5.572
31
0
0
LINE
8
0
62
1
10
-89.732
20
5.572
30
0
11
-89.631
21
5.584
31
0
0
LINE
8
0
62
1
10
-89.631
20
5.584
30
0
11
-89.53
21
5.588
31
0
0
LINE
8
0
62
1
10
-89.53
20
5.588
30
0
11
-89.429
21
5.584
31
0
0
LINE
8
0
62
1
10
-89.429
20
5.584
30
0
11
-89.329
21
5.572
31
0
0
LINE
8
0
62
1
10
-89.329
20
5.572
30
0
11
-89.23
21
5.553
31
0
0
LINE
8
0
62
1
10
-89.23
20
5.553
30
0
11
-89.132
21
5.525
31
0
0
LINE
8
0
62
1
10
-89.132
20
5.525
30
0
11
-89.037
21
5.49
31
0
0
LINE
8
0
62
1
10
-89.037
20
5.49
30
0
11
-88.946
21
5.448
31
0
0
LINE
8
0
62
1
10
-88.946
20
5.448
30
0
11
-88.857
21
5.398
31
0
0
LINE
8
0
62
1
10
-88.857
20
5.398
30
0
11
-88.773
21
5.342
31
0
0
LINE
8
0
62
1
10
-88.773
20
5.342
30
0
11
-88.694
21
5.279
31
0
0
LINE
8
0
62
1
10
-88.694
20
5.279
30
0
11
-88.619
21
5.211
31
0
0
LINE
8
0
62
1
10
-88.619
20
5.211
30
0
11
-88.551
21
5.137
31
0
0
LINE
8
0
62
1
10
-88.551
20
5.137
30
0
11
-88.488
21
5.057
31
0
0
LINE
8
0
62
1
10
-88.488
20
5.057
30
0
11
-88.432
21
4.973
31
0
0
LINE
8
0
62
1
10
-88.432
20
4.973
30
0
11
-88.383
21
4.885
31
0
0
LINE
8
0
62
1
10
-88.383
20
4.885
30
0
11
-88.34
21
4.793
31
0
0
LINE
8
0
62
1
10
-88.34
20
4.793
30
0
11
-88.305
21
4.698
31
0
0
LINE
8
0
62
1
10
-88.305
20
4.698
30
0
11
-88.278
21
4.601
31
0
0
LINE
8
0
62
1
10
-88.278
20
4.601
30
0
11
-88.258
21
4.502
31
0
0
LINE
8
0
62
1
10
-88.258
20
4.502
30
0
11
-88.246
21
4.401
31
0
0
LINE
8
0
62
1
10
-88.246
20
4.401
30
0
11
-88.242
21
4.3
31
0
0
LINE
8
0
62
1
10
-79.818
20
1.8
30
0
11
-79.818
21
4.3
31
0
0
LINE
8
0
62
1
10
-79.818
20
4.3
30
0
11
-79.814
21
4.401
31
0
0
LINE
8
0
62
1
10
-79.814
20
4.401
30
0
11
-79.803
21
4.502
31
0
0
LINE
8
0
62
1
10
-79.803
20
4.502
30
0
11
-79.783
21
4.601
31
0
0
LINE
8
0
62
1
10
-79.783
20
4.601
30
0
11
-79.755
21
4.698
31
0
0
LINE
8
0
62
1
10
-79.755
20
4.698
30
0
11
-79.72
21
4.793
31
0
0
LINE
8
0
62
1
10
-79.72
20
4.793
30
0
11
-79.678
21
4.885
31
0
0
LINE
8
0
62
1
10
-79.678
20
4.885
30
0
11
-79.629
21
4.973
31
0
0
LINE
8
0
62
1
10
-79.629
20
4.973
30
0
11
-79.572
21
5.057
31
0
0
LINE
8
0
62
1
10
-79.572
20
5.057
30
0
11
-79.51
21
5.137
31
0
0
LINE
8
0
62
1
10
-79.51
20
5.137
30
0
11
-79.441
21
5.211
31
0
0
LINE
8
0
62
1
10
-79.441
20
5.211
30
0
11
-79.367
21
5.279
31
0
0
LINE
8
0
62
1
10
-79.367
20
5.279
30
0
11
-79.287
21
5.342
31
0
0
LINE
8
0
62
1
10
-79.287
20
5.342
30
0
11
-79.203
21
5.398
31
0
0
LINE
8
0
62
1
10
-79.203
20
5.398
30
0
11
-79.115
21
5.448
31
0
0
LINE
8
0
62
1
10
-79.115
20
5.448
30
0
11
-79.023
21
5.49
31
0
0
LINE
8
0
62
1
10
-79.023
20
5.49
30
0
11
-78.928
21
5.525
31
0
0
LINE
8
0
62
1
10
-78.928
20
5.525
30
0
11
-78.831
21
5.553
31
0
0
LINE
8
0
62
1
10
-78.831
20
5.553
30
0
11
-78.732
21
5.572
31
0
0
LINE
8
0
62
1
10
-78.732
20
5.572
30
0
11
-78.631
21
5.584
31
0
0
LINE
8
0
62
1
10
-78.631
20
5.584
30
0
11
-78.53
21
5.588
31
0
0
LINE
8
0
62
1
10
-78.53
20
5.588
30
0
11
-78.429
21
5.584
31
0
0
LINE
8
0
62
1
10
-78.429
20
5.584
30
0
11
-78.329
21
5.572
31
0
0
LINE
8
0
62
1
10
-78.329
20
5.572
30
0
11
-78.23
21
5.553
31
0
0
LINE
8
0
62
1
10
-78.23
20
5.553
30
0
11
-78.132
21
5.525
31
0
0
LINE
8
0
62
1
10
-78.132
20
5.525
30
0
11
-78.037
21
5.49
31
0
0
LINE
8
0
62
1
10
-78.037
20
5.49
30
0
11
-77.946
21
5.448
31
0
0
LINE
8
0
62
1
10
-77.946
20
5.448
30
0
11
-77.857
21
5.398
31
0
0
LINE
8
0
62
1
10
-77.857
20
5.398
30
0
11
-77.773
21
5.342
31
0
0
LINE
8
0
62
1
10
-77.773
20
5.342
30
0
11
-77.694
21
5.279
31
0
0
LINE
8
0
62
1
10
-77.694
20
5.279
30
0
11
-77.619
21
5.211
31
0
0
LINE
8
0
62
1
10
-77.619
20
5.211
30
0
11
-77.551
21
5.137
31
0
0
LINE
8
0
62
1
10
-77.551
20
5.137
30
0
11
-77.488
21
5.057
31
0
0
LINE
8
0
62
1
10
-77.488
20
5.057
30
0
11
-77.432
21
4.973
31
0
0
LINE
8
0
62
1
10
-77.432
20
4.973
30
0
11
-77.383
21
4.885
31
0
0
LINE
8
0
62
1
10
-77.383
20
4.885
30
0
11
-77.34
21
4.793
31
0
0
LINE
8
0
62
1
10
-77.34
20
4.793
30
0
11
-77.305
21
4.698
31
0
0
LINE
8
0
62
1
10
-77.305
20
4.698
30
0
11
-77.278
21
4.601
31
0
0
LINE
8
0
62
1
10
-77.278
20
4.601
30
0
11
-77.258
21
4.502
31
0
0
LINE
8
0
62
1
10
-77.258
20
4.502
30
0
11
-77.246
21
4.401
31
0
0
LINE
8
0
62
1
10
-77.246
20
4.401
30
0
11
-77.242
21
4.3
31
0
0
LINE
8
0
62
1
10
-77.242
20
4.3
30
0
11
-77.242
21
-2.2
31
0
0
LINE
8
0
62
1
10
-77.242
20
-2.2
30
0
11
-77.246
21
-2.301
31
0
0
LINE
8
0
62
1
10
-77.246
20
-2.301
30
0
11
-77.258
21
-2.402
31
0
0
LINE
8
0
62
1
10
-77.258
20
-2.402
30
0
11
-77.278
21
-2.501
31
0
0
LINE
8
0
62
1
10
-77.278
20
-2.501
30
0
11
-77.305
21
-2.598
31
0
0
LINE
8
0
62
1
10
-77.305
20
-2.598
30
0
11
-77.34
21
-2.693
31
0
0
LINE
8
0
62
1
10
-77.34
20
-2.693
30
0
11
-77.383
21
-2.785
31
0
0
LINE
8
0
62
1
10
-77.383
20
-2.785
30
0
11
-77.432
21
-2.873
31
0
0
LINE
8
0
62
1
10
-77.432
20
-2.873
30
0
11
-77.488
21
-2.957
31
0
0
LINE
8
0
62
1
10
-77.488
20
-2.957
30
0
11
-77.551
21
-3.037
31
0
0
LINE
8
0
62
1
10
-77.551
20
-3.037
30
0
11
-77.619
21
-3.111
31
0
0
LINE
8
0
62
1
10
-77.619
20
-3.111
30
0
11
-77.694
21
-3.179
31
0
0
LINE
8
0
62
1
10
-77.694
20
-3.179
30
0
11
-77.773
21
-3.242
31
0
0
LINE
8
0
62
1
10
-77.773
20
-3.242
30
0
11
-77.857
21
-3.298
31
0
0
LINE
8
0
62
1
10
-77.857
20
-3.298
30
0
11
-77.946
21
-3.348
31
0
0
LINE
8
0
62
1
10
-77.946
20
-3.348
30
0
11
-78.037
21
-3.39
31
0
0
LINE
8
0
62
1
10
-78.037
20
-3.39
30
0
11
-78.132
21
-3.425
31
0
0
LINE
8
0
62
1
10
-78.132
20
-3.425
30
0
11
-78.23
21
-3.453
31
0
0
LINE
8
0
62
1
10
-78.23
20
-3.453
30
0
11
-78.329
21
-3.472
31
0
0
LINE
8
0
62
1
10
-78.329
20
-3.472
30
0
11
-78.429
21
-3.484
31
0
0
LINE
8
0
62
1
10
-78.429
20
-3.484
30
0
11
-78.53
21
-3.488
31
0
0
LINE
8
0
62
1
10
-78.53
20
-3.488
30
0
11
-78.631
21
-3.484
31
0
0
LINE
8
0
62
1
10
-78.631
20
-3.484
30
0
11
-78.732
21
-3.472
31
0
0
LINE
8
0
62
1
10
-78.732
20
-3.472
30
0
11
-78.831
21
-3.453
31
0
0
LINE
8
0
62
1
10
-78.831
20
-3.453
30
0
11
-78.928
21
-3.425
31
0
0
LINE
8
0
62
1
10
-78.928
20
-3.425
30
0
11
-79.023
21
-3.39
31
0
0
LINE
8
0
62
1
10
-79.023
20
-3.39
30
0
11
-79.115
21
-3.348
31
0
0
LINE
8
0
62
1
10
-79.115
20
-3.348
30
0
11
-79.203
21
-3.298
31
0
0
LINE
8
0
62
1
10
-79.203
20
-3.298
30
0
11
-79.287
21
-3.242
31
0
0
LINE
8
0
62
1
10
-79.287
20
-3.242
30
0
11
-79.367
21
-3.179
31
0
0
LINE
8
0
62
1
10
-79.367
20
-3.179
30
0
11
-79.441
21
-3.111
31
0
0
LINE
8
0
62
1
10
-79.441
20
-3.111
30
0
11
-79.51
21
-3.037
31
0
0
LINE
8
0
62
1
10
-79.51
20
-3.037
30
0
11
-79.572
21
-2.957
31
0
0
LINE
8
0
62
1
10
-79.572
20
-2.957
30
0
11
-79.629
21
-2.873
31
0
0
LINE
8
0
62
1
10
-79.629
20
-2.873
30
0
11
-79.678
21
-2.785
31
0
0
LINE
8
0
62
1
10
-79.678
20
-2.785
30
0
11
-79.72
21
-2.693
31
0
0
LINE
8
0
62
1
10
-79.72
20
-2.693
30
0
11
-79.755
21
-2.598
31
0
0
LINE
8
0
62
1
10
-79.755
20
-2.598
30
0
11
-79.783
21
-2.501
31
0
0
LINE
8
0
62
1
10
-79.783
20
-2.501
30
0
11
-79.803
21
-2.402
31
0
0
LINE
8
0
62
1
10
-79.803
20
-2.402
30
0
11
-79.814
21
-2.301
31
0
0
LINE
8
0
62
1
10
-79.814
20
-2.301
30
0
11
-79.818
21
-2.2
31
0
0
LINE
8
0
62
1
10
-79.818
20
-2.2
30
0
11
-79.818
21
1.8
31
0
0
LINE
8
0
62
1
10
-68.449
20
-1.297
30
0
11
-68.382
21
-1.233
31
0
0
LINE
8
0
62
1
10
-68.382
20
-1.233
30
0
11
-68.31
21
-1.175
31
0
0
LINE
8
0
62
1
10
-68.31
20
-1.175
30
0
11
-68.234
21
-1.121
31
0
0
LINE
8
0
62
1
10
-68.234
20
-1.121
30
0
11
-68.154
21
-1.073
31
0
0
LINE
8
0
62
1
10
-68.154
20
-1.073
30
0
11
-68.071
21
-1.031
31
0
0
LINE
8
0
62
1
10
-68.071
20
-1.031
30
0
11
-67.985
21
-0.995
31
0
0
LINE
8
0
62
1
10
-67.985
20
-0.995
30
0
11
-67.897
21
-0.965
31
0
0
LINE
8
0
62
1
10
-67.897
20
-0.965
30
0
11
-67.807
21
-0.942
31
0
0
LINE
8
0
62
1
10
-67.807
20
-0.942
30
0
11
-67.716
21
-0.925
31
0
0
LINE
8
0
62
1
10
-67.716
20
-0.925
30
0
11
-67.623
21
-0.915
31
0
0
LINE
8
0
62
1
10
-67.623
20
-0.915
30
0
11
-67.53
21
-0.912
31
0
0
LINE
8
0
62
1
10
-67.53
20
-0.912
30
0
11
-37.53
21
-0.912
31
0
0
LINE
8
0
62
1
10
-37.53
20
-0.912
30
0
11
-37.429
21
-0.916
31
0
0
LINE
8
0
62
1
10
-37.429
20
-0.916
30
0
11
-37.329
21
-0.928
31
0
0
LINE
8
0
62
1
10
-37.329
20
-0.928
30
0
11
-37.23
21
-0.947
31
0
0
LINE
8
0
62
1
10
-37.23
20
-0.947
30
0
11
-37.132
21
-0.975
31
0
0
LINE
8
0
62
1
10
-37.132
20
-0.975
30
0
11
-37.037
21
-1.01
31
0
0
LINE
8
0
62
1
10
-37.037
20
-1.01
30
0
11
-36.946
21
-1.052
31
0
0
LINE
8
0
62
1
10
-36.946
20
-1.052
30
0
11
-36.857
21
-1.102
31
0
0
LINE
8
0
62
1
10
-36.857
20
-1.102
30
0
11
-36.773
21
-1.158
31
0
0
LINE
8
0
62
1
10
-36.773
20
-1.158
30
0
11
-36.694
21
-1.221
31
0
0
LINE
8
0
62
1
10
-36.694
20
-1.221
30
0
11
-36.619
21
-1.289
31
0
0
LINE
8
0
62
1
10
-36.619
20
-1.289
30
0
11
-36.551
21
-1.363
31
0
0
LINE
8
0
62
1
10
-36.551
20
-1.363
30
0
11
-36.488
21
-1.443
31
0
0
LINE
8
0
62
1
10
-36.488
20
-1.443
30
0
11
-36.432
21
-1.527
31
0
0
LINE
8
0
62
1
10
-36.432
20
-1.527
30
0
11
-36.383
21
-1.615
31
0
0
LINE
8
0
62
1
10
-36.383
20
-1.615
30
0
11
-36.34
21
-1.707
31
0
0
LINE
8
0
62
1
10
-36.34
20
-1.707
30
0
11
-36.305
21
-1.802
31
0
0
LINE
8
0
62
1
10
-36.305
20
-1.802
30
0
11
-36.278
21
-1.899
31
0
0
LINE
8
0
62
1
10
-36.278
20
-1.899
30
0
11
-36.258
21
-1.998
31
0
0
LINE
8
0
62
1
10
-36.258
20
-1.998
30
0
11
-36.246
21
-2.099
31
0
0
LINE
8
0
62
1
10
-36.246
20
-2.099
30
0
11
-36.242
21
-2.2
31
0
0
LINE
8
0
62
1
10
-36.242
20
-2.2
30
0
11
-36.246
21
-2.301
31
0
0
LINE
8
0
62
1
10
-36.246
20
-2.301
30
0
11
-36.258
21
-2.402
31
0
0
LINE
8
0
62
1
10
-36.258
20
-2.402
30
0
11
-36.278
21
-2.501
31
0
0
LINE
8
0
62
1
10
-36.278
20
-2.501
30
0
11
-36.305
21
-2.598
31
0
0
LINE
8
0
62
1
10
-36.305
20
-2.598
30
0
11
-36.34
21
-2.693
31
0
0
LINE
8
0
62
1
10
-36.34
20
-2.693
30
0
11
-36.383
21
-2.785
31
0
0
LINE
8
0
62
1
10
-36.383
20
-2.785
30
0
11
-36.432
21
-2.873
31
0
0
LINE
8
0
62
1
10
-36.432
20
-2.873
30
0
11
-36.488
21
-2.957
31
0
0
LINE
8
0
62
1
10
-36.488
20
-2.957
30
0
11
-36.551
21
-3.037
31
0
0
LINE
8
0
62
1
10
-36.551
20
-3.037
30
0
11
-36.619
21
-3.111
31
0
0
LINE
8
0
62
1
10
-36.619
20
-3.111
30
0
11
-36.694
21
-3.179
31
0
0
LINE
8
0
62
1
10
-36.694
20
-3.179
30
0
11
-36.773
21
-3.242
31
0
0
LINE
8
0
62
1
10
-36.773
20
-3.242
30
0
11
-36.857
21
-3.298
31
0
0
LINE
8
0
62
1
10
-36.857
20
-3.298
30
0
11
-36.946
21
-3.348
31
0
0
LINE
8
0
62
1
10
-36.946
20
-3.348
30
0
11
-37.037
21
-3.39
31
0
0
LINE
8
0
62
1
10
-37.037
20
-3.39
30
0
11
-37.132
21
-3.425
31
0
0
LINE
8
0
62
1
10
-37.132
20
-3.425
30
0
11
-37.23
21
-3.453
31
0
0
LINE
8
0
62
1
10
-37.23
20
-3.453
30
0
11
-37.329
21
-3.472
31
0
0
LINE
8
0
62
1
10
-37.329
20
-3.472
30
0
11
-37.429
21
-3.484
31
0
0
LINE
8
0
62
1
10
-37.429
20
-3.484
30
0
11
-37.53
21
-3.488
31
0
0
LINE
8
0
62
1
10
-37.53
20
-3.488
30
0
11
-67.53
21
-3.488
31
0
0
LINE
8
0
62
1
10
-67.53
20
-3.488
30
0
11
-67.631
21
-3.484
31
0
0
LINE
8
0
62
1
10
-67.631
20
-3.484
30
0
11
-67.731
21
-3.472
31
0
0
LINE
8
0
62
1
10
-67.731
20
-3.472
30
0
11
-67.83
21
-3.453
31
0
0
LINE
8
0
62
1
10
-67.83
20
-3.453
30
0
11
-67.927
21
-3.426
31
0
0
LINE
8
0
62
1
10
-67.927
20
-3.426
30
0
11
-68.021
21
-3.391
31
0
0
LINE
8
0
62
1
10
-68.021
20
-3.391
30
0
11
-68.113
21
-3.349
31
0
0
LINE
8
0
62
1
10
-68.113
20
-3.349
30
0
11
-68.201
21
-3.3
31
0
0
LINE
8
0
62
1
10
-68.201
20
-3.3
30
0
11
-68.285
21
-3.244
31
0
0
LINE
8
0
62
1
10
-68.285
20
-3.244
30
0
11
-68.364
21
-3.182
31
0
0
LINE
8
0
62
1
10
-68.364
20
-3.182
30
0
11
-68.438
21
-3.114
31
0
0
LINE
8
0
62
1
10
-68.438
20
-3.114
30
0
11
-68.507
21
-3.04
31
0
0
LINE
8
0
62
1
10
-68.507
20
-3.04
30
0
11
-68.57
21
-2.961
31
0
0
LINE
8
0
62
1
10
-68.57
20
-2.961
30
0
11
-68.626
21
-2.877
31
0
0
LINE
8
0
62
1
10
-68.626
20
-2.877
30
0
11
-68.676
21
-2.79
31
0
0
LINE
8
0
62
1
10
-68.676
20
-2.79
30
0
11
-68.718
21
-2.698
31
0
0
LINE
8
0
62
1
10
-68.718
20
-2.698
30
0
11
-68.753
21
-2.604
31
0
0
LINE
8
0
62
1
10
-68.753
20
-2.604
30
0
11
-68.781
21
-2.507
31
0
0
LINE
8
0
62
1
10
-68.781
20
-2.507
30
0
11
-68.801
21
-2.408
31
0
0
LINE
8
0
62
1
10
-68.801
20
-2.408
30
0
11
-68.814
21
-2.308
31
0
0
LINE
8
0
62
1
10
-68.814
20
-2.308
30
0
11
-68.818
21
-2.208
31
0
0
LINE
8
0
62
1
10
-68.818
20
-2.208
30
0
11
-68.815
21
-2.107
31
0
0
LINE
8
0
62
1
10
-68.815
20
-2.107
30
0
11
-68.804
21
-2.007
31
0
0
LINE
8
0
62
1
10
-68.804
20
-2.007
30
0
11
-68.785
21
-1.908
31
0
0
LINE
8
0
62
1
10
-68.785
20
-1.908
30
0
11
-68.758
21
-1.811
31
0
0
LINE
8
0
62
1
10
-68.758
20
-1.811
30
0
11
-68.724
21
-1.716
31
0
0
LINE
8
0
62
1
10
-68.724
20
-1.716
30
0
11
-68.683
21
-1.624
31
0
0
LINE
8
0
62
1
10
-68.683
20
-1.624
30
0
11
-68.634
21
-1.536
31
0
0
LINE
8
0
62
1
10
-68.634
20
-1.536
30
0
11
-68.579
21
-1.452
31
0
0
LINE
8
0
62
1
10
-68.579
20
-1.452
30
0
11
-68.517
21
-1.372
31
0
0
LINE
8
0
62
1
10
-68.517
20
-1.372
30
0
11
-68.449
21
-1.297
31
0
0
LINE
8
0
62
1
10
-37.507
20
3.012
30
0
11
-37.53
21
3.012
31
0
0
LINE
8
0
62
1
10
-37.53
20
3.012
30
0
11
-67.53
21
3.012
31
0
0
LINE
8
0
62
1
10
-67.53
20
3.012
30
0
11
-67.631
21
3.016
31
0
0
LINE
8
0
62
1
10
-67.631
20
3.016
30
0
11
-67.732
21
3.028
31
0
0
LINE
8
0
62
1
10
-67.732
20
3.028
30
0
11
-67.831
21
3.047
31
0
0
LINE
8
0
62
1
10
-67.831
20
3.047
30
0
11
-67.928
21
3.075
31
0
0
LINE
8
0
62
1
10
-67.928
20
3.075
30
0
11
-68.023
21
3.11
31
0
0
LINE
8
0
62
1
10
-68.023
20
3.11
30
0
11
-68.115
21
3.152
31
0
0
LINE
8
0
62
1
10
-68.115
20
3.152
30
0
11
-68.203
21
3.202
31
0
0
LINE
8
0
62
1
10
-68.203
20
3.202
30
0
11
-68.287
21
3.258
31
0
0
LINE
8
0
62
1
10
-68.287
20
3.258
30
0
11
-68.367
21
3.321
31
0
0
LINE
8
0
62
1
10
-68.367
20
3.321
30
0
11
-68.441
21
3.389
31
0
0
LINE
8
0
62
1
10
-68.441
20
3.389
30
0
11
-68.51
21
3.463
31
0
0
LINE
8
0
62
1
10
-68.51
20
3.463
30
0
11
-68.572
21
3.543
31
0
0
LINE
8
0
62
1
10
-68.572
20
3.543
30
0
11
-68.629
21
3.627
31
0
0
LINE
8
0
62
1
10
-68.629
20
3.627
30
0
11
-68.678
21
3.715
31
0
0
LINE
8
0
62
1
10
-68.678
20
3.715
30
0
11
-68.72
21
3.807
31
0
0
LINE
8
0
62
1
10
-68.72
20
3.807
30
0
11
-68.755
21
3.902
31
0
0
LINE
8
0
62
1
10
-68.755
20
3.902
30
0
11
-68.783
21
3.999
31
0
0
LINE
8
0
62
1
10
-68.783
20
3.999
30
0
11
-68.803
21
4.098
31
0
0
LINE
8
0
62
1
10
-68.803
20
4.098
30
0
11
-68.814
21
4.199
31
0
0
LINE
8
0
62
1
10
-68.814
20
4.199
30
0
11
-68.818
21
4.3
31
0
0
LINE
8
0
62
1
10
-68.818
20
4.3
30
0
11
-68.814
21
4.401
31
0
0
LINE
8
0
62
1
10
-68.814
20
4.401
30
0
11
-68.803
21
4.502
31
0
0
LINE
8
0
62
1
10
-68.803
20
4.502
30
0
11
-68.783
21
4.601
31
0
0
LINE
8
0
62
1
10
-68.783
20
4.601
30
0
11
-68.755
21
4.698
31
0
0
LINE
8
0
62
1
10
-68.755
20
4.698
30
0
11
-68.72
21
4.793
31
0
0
LINE
8
0
62
1
10
-68.72
20
4.793
30
0
11
-68.678
21
4.885
31
0
0
LINE
8
0
62
1
10
-68.678
20
4.885
30
0
11
-68.629
21
4.973
31
0
0
LINE
8
0
62
1
10
-68.629
20
4.973
30
0
11
-68.572
21
5.057
31
0
0
LINE
8
0
62
1
10
-68.572
20
5.057
30
0
11
-68.51
21
5.137
31
0
0
LINE
8
0
62
1
10
-68.51
20
5.137
30
0
11
-68.441
21
5.211
31
0
0
LINE
8
0
62
1
10
-68.441
20
5.211
30
0
11
-68.367
21
5.279
31
0
0
LINE
8
0
62
1
10
-68.367
20
5.279
30
0
11
-68.287
21
5.342
31
0
0
LINE
8
0
62
1
10
-68.287
20
5.342
30
0
11
-68.203
21
5.398
31
0
0
LINE
8
0
62
1
10
-68.203
20
5.398
30
0
11
-68.115
21
5.448
31
0
0
LINE
8
0
62
1
10
-68.115
20
5.448
30
0
11
-68.023
21
5.49
31
0
0
LINE
8
0
62
1
10
-68.023
20
5.49
30
0
11
-67.928
21
5.525
31
0
0
LINE
8
0
62
1
10
-67.928
20
5.525
30
0
11
-67.831
21
5.553
31
0
0
LINE
8
0
62
1
10
-67.831
20
5.553
30
0
11
-67.732
21
5.572
31
0
0
LINE
8
0
62
1
10
-67.732
20
5.572
30
0
11
-67.631
21
5.584
31
0
0
LINE
8
0
62
1
10
-67.631
20
5.584
30
0
11
-67.53
21
5.588
31
0
0
LINE
8
0
62
1
10
-67.53
20
5.588
30
0
11
-37.53
21
5.588
31
0
0
LINE
8
0
62
1
10
-37.53
20
5.588
30
0
11
-37.43
21
5.584
31
0
0
LINE
8
0
62
1
10
-37.43
20
5.584
30
0
11
-37.33
21
5.572
31
0
0
LINE
8
0
62
1
10
-37.33
20
5.572
30
0
11
-37.231
21
5.553
31
0
0
LINE
8
0
62
1
10
-37.231
20
5.553
30
0
11
-37.134
21
5.526
31
0
0
LINE
8
0
62
1
10
-37.134
20
5.526
30
0
11
-37.04
21
5.491
31
0
0
LINE
8
0
62
1
10
-37.04
20
5.491
30
0
11
-36.949
21
5.449
31
0
0
LINE
8
0
62
1
10
-36.949
20
5.449
30
0
11
-36.861
21
5.4
31
0
0
LINE
8
0
62
1
10
-36.861
20
5.4
30
0
11
-36.777
21
5.345
31
0
0
LINE
8
0
62
1
10
-36.777
20
5.345
30
0
11
-36.698
21
5.283
31
0
0
LINE
8
0
62
1
10
-36.698
20
5.283
30
0
11
-36.624
21
5.215
31
0
0
LINE
8
0
62
1
10
-36.624
20
5.215
30
0
11
-36.555
21
5.141
31
0
0
LINE
8
0
62
1
10
-36.555
20
5.141
30
0
11
-36.492
21
5.063
31
0
0
LINE
8
0
62
1
10
-36.492
20
5.063
30
0
11
-36.436
21
4.979
31
0
0
LINE
8
0
62
1
10
-36.436
20
4.979
30
0
11
-36.386
21
4.892
31
0
0
LINE
8
0
62
1
10
-36.386
20
4.892
30
0
11
-36.344
21
4.801
31
0
0
LINE
8
0
62
1
10
-36.344
20
4.801
30
0
11
-36.308
21
4.707
31
0
0
LINE
8
0
62
1
10
-36.308
20
4.707
30
0
11
-36.28
21
4.61
31
0
0
LINE
8
0
62
1
10
-36.28
20
4.61
30
0
11
-36.26
21
4.512
31
0
0
LINE
8
0
62
1
10
-36.26
20
4.512
30
0
11
-36.247
21
4.412
31
0
0
LINE
8
0
62
1
10
-36.247
20
4.412
30
0
11
-36.242
21
4.312
31
0
0
LINE
8
0
62
1
10
-36.242
20
4.312
30
0
11
-36.245
21
4.211
31
0
0
LINE
8
0
62
1
10
-36.245
20
4.211
30
0
11
-36.256
21
4.111
31
0
0
LINE
8
0
62
1
10
-36.256
20
4.111
30
0
11
-36.275
21
4.012
31
0
0
LINE
8
0
62
1
10
-36.275
20
4.012
30
0
11
-36.301
21
3.915
31
0
0
LINE
8
0
62
1
10
-36.301
20
3.915
30
0
11
-36.335
21
3.821
31
0
0
LINE
8
0
62
1
10
-36.335
20
3.821
30
0
11
-36.376
21
3.729
31
0
0
LINE
8
0
62
1
10
-36.376
20
3.729
30
0
11
-36.424
21
3.64
31
0
0
LINE
8
0
62
1
10
-36.424
20
3.64
30
0
11
-36.479
21
3.556
31
0
0
LINE
8
0
62
1
10
-36.479
20
3.556
30
0
11
-36.54
21
3.476
31
0
0
LINE
8
0
62
1
10
-36.54
20
3.476
30
0
11
-36.607
21
3.402
31
0
0
LINE
8
0
62
1
10
-36.607
20
3.402
30
0
11
-36.68
21
3.332
31
0
0
LINE
8
0
62
1
10
-36.68
20
3.332
30
0
11
-36.758
21
3.269
31
0
0
LINE
8
0
62
1
10
-36.758
20
3.269
30
0
11
-36.841
21
3.212
31
0
0
LINE
8
0
62
1
10
-36.841
20
3.212
30
0
11
-36.928
21
3.161
31
0
0
LINE
8
0
62
1
10
-36.928
20
3.161
30
0
11
-37.019
21
3.118
31
0
0
LINE
8
0
62
1
10
-37.019
20
3.118
30
0
11
-37.112
21
3.082
31
0
0
LINE
8
0
62
1
10
-37.112
20
3.082
30
0
11
-37.209
21
3.053
31
0
0
LINE
8
0
62
1
10
-37.209
20
3.053
30
0
11
-37.307
21
3.031
31
0
0
LINE
8
0
62
1
10
-37.307
20
3.031
30
0
11
-37.407
21
3.018
31
0
0
LINE
8
0
62
1
10
-37.407
20
3.018
30
0
11
-37.507
21
3.012
31
0
0
LINE
8
0
62
1
10
-29.618
20
2.8
30
0
11
-29.618
21
4.3
31
0
0
LINE
8
0
62
1
10
-29.618
20
4.3
30
0
11
-29.614
21
4.401
31
0
0
LINE
8
0
62
1
10
-29.614
20
4.401
30
0
11
-29.603
21
4.502
31
0
0
LINE
8
0
62
1
10
-29.603
20
4.502
30
0
11
-29.583
21
4.601
31
0
0
LINE
8
0
62
1
10
-29.583
20
4.601
30
0
11
-29.555
21
4.698
31
0
0
LINE
8
0
62
1
10
-29.555
20
4.698
30
0
11
-29.52
21
4.793
31
0
0
LINE
8
0
62
1
10
-29.52
20
4.793
30
0
11
-29.478
21
4.885
31
0
0
LINE
8
0
62
1
10
-29.478
20
4.885
30
0
11
-29.429
21
4.973
31
0
0
LINE
8
0
62
1
10
-29.429
20
4.973
30
0
11
-29.372
21
5.057
31
0
0
LINE
8
0
62
1
10
-29.372
20
5.057
30
0
11
-29.31
21
5.137
31
0
0
LINE
8
0
62
1
10
-29.31
20
5.137
30
0
11
-29.241
21
5.211
31
0
0
LINE
8
0
62
1
10
-29.241
20
5.211
30
0
11
-29.167
21
5.279
31
0
0
LINE
8
0
62
1
10
-29.167
20
5.279
30
0
11
-29.087
21
5.342
31
0
0
LINE
8
0
62
1
10
-29.087
20
5.342
30
0
11
-29.003
21
5.398
31
0
0
LINE
8
0
62
1
10
-29.003
20
5.398
30
0
11
-28.915
21
5.448
31
0
0
LINE
8
0
62
1
10
-28.915
20
5.448
30
0
11
-28.823
21
5.49
31
0
0
LINE
8
0
62
1
10
-28.823
20
5.49
30
0
11
-28.728
21
5.525
31
0
0
LINE
8
0
62
1
10
-28.728
20
5.525
30
0
11
-28.631
21
5.553
31
0
0
LINE
8
0
62
1
10
-28.631
20
5.553
30
0
11
-28.532
21
5.572
31
0
0
LINE
8
0
62
1
10
-28.532
20
5.572
30
0
11
-28.431
21
5.584
31
0
0
LINE
8
0
62
1
10
-28.431
20
5.584
30
0
11
-28.33
21
5.588
31
0
0
LINE
8
0
62
1
10
-28.33
20
5.588
30
0
11
-28.229
21
5.584
31
0
0
LINE
8
0
62
1
10
-28.229
20
5.584
30
0
11
-28.129
21
5.572
31
0
0
LINE
8
0
62
1
10
-28.129
20
5.572
30
0
11
-28.03
21
5.553
31
0
0
LINE
8
0
62
1
10
-28.03
20
5.553
30
0
11
-27.932
21
5.525
31
0
0
LINE
8
0
62
1
10
-27.932
20
5.525
30
0
11
-27.837
21
5.49
31
0
0
LINE
8
0
62
1
10
-27.837
20
5.49
30
0
11
-27.746
21
5.448
31
0
0
LINE
8
0
62
1
10
-27.746
20
5.448
30
0
11
-27.657
21
5.398
31
0
0
LINE
8
0
62
1
10
-27.657
20
5.398
30
0
11
-27.573
21
5.342
31
0
0
LINE
8
0
62
1
10
-27.573
20
5.342
30
0
11
-27.494
21
5.279
31
0
0
LINE
8
0
62
1
10
-27.494
20
5.279
30
0
11
-27.419
21
5.211
31
0
0
LINE
8
0
62
1
10
-27.419
20
5.211
30
0
11
-27.351
21
5.137
31
0
0
LINE
8
0
62
1
10
-27.351
20
5.137
30
0
11
-27.288
21
5.057
31
0
0
LINE
8
0
62
1
10
-27.288
20
5.057
30
0
11
-27.232
21
4.973
31
0
0
LINE
8
0
62
1
10
-27.232
20
4.973
30
0
11
-27.183
21
4.885
31
0
0
LINE
8
0
62
1
10
-27.183
20
4.885
30
0
11
-27.14
21
4.793
31
0
0
LINE
8
0
62
1
10
-27.14
20
4.793
30
0
11
-27.105
21
4.698
31
0
0
LINE
8
0
62
1
10
-27.105
20
4.698
30
0
11
-27.078
21
4.601
31
0
0
LINE
8
0
62
1
10
-27.078
20
4.601
30
0
11
-27.058
21
4.502
31
0
0
LINE
8
0
62
1
10
-27.058
20
4.502
30
0
11
-27.046
21
4.401
31
0
0
LINE
8
0
62
1
10
-27.046
20
4.401
30
0
11
-27.042
21
4.3
31
0
0
LINE
8
0
62
1
10
-27.042
20
4.3
30
0
11
-27.042
21
-2.2
31
0
0
LINE
8
0
62
1
10
-27.042
20
-2.2
30
0
11
-27.046
21
-2.301
31
0
0
LINE
8
0
62
1
10
-27.046
20
-2.301
30
0
11
-27.058
21
-2.402
31
0
0
LINE
8
0
62
1
10
-27.058
20
-2.402
30
0
11
-27.078
21
-2.501
31
0
0
LINE
8
0
62
1
10
-27.078
20
-2.501
30
0
11
-27.105
21
-2.598
31
0
0
LINE
8
0
62
1
10
-27.105
20
-2.598
30
0
11
-27.14
21
-2.693
31
0
0
LINE
8
0
62
1
10
-27.14
20
-2.693
30
0
11
-27.183
21
-2.785
31
0
0
LINE
8
0
62
1
10
-27.183
20
-2.785
30
0
11
-27.232
21
-2.873
31
0
0
LINE
8
0
62
1
10
-27.232
20
-2.873
30
0
11
-27.288
21
-2.957
31
0
0
LINE
8
0
62
1
10
-27.288
20
-2.957
30
0
11
-27.351
21
-3.037
31
0
0
LINE
8
0
62
1
10
-27.351
20
-3.037
30
0
11
-27.419
21
-3.111
31
0
0
LINE
8
0
62
1
10
-27.419
20
-3.111
30
0
11
-27.494
21
-3.179
31
0
0
LINE
8
0
62
1
10
-27.494
20
-3.179
30
0
11
-27.573
21
-3.242
31
0
0
LINE
8
0
62
1
10
-27.573
20
-3.242
30
0
11
-27.657
21
-3.298
31
0
0
LINE
8
0
62
1
10
-27.657
20
-3.298
30
0
11
-27.746
21
-3.348
31
0
0
LINE
8
0
62
1
10
-27.746
20
-3.348
30
0
11
-27.837
21
-3.39
31
0
0
LINE
8
0
62
1
10
-27.837
20
-3.39
30
0
11
-27.932
21
-3.425
31
0
0
LINE
8
0
62
1
10
-27.932
20
-3.425
30
0
11
-28.03
21
-3.453
31
0
0
LINE
8
0
62
1
10
-28.03
20
-3.453
30
0
11
-28.129
21
-3.472
31
0
0
LINE
8
0
62
1
10
-28.129
20
-3.472
30
0
11
-28.229
21
-3.484
31
0
0
LINE
8
0
62
1
10
-28.229
20
-3.484
30
0
11
-28.33
21
-3.488
31
0
0
LINE
8
0
62
1
10
-28.33
20
-3.488
30
0
11
-28.431
21
-3.484
31
0
0
LINE
8
0
62
1
10
-28.431
20
-3.484
30
0
11
-28.532
21
-3.472
31
0
0
LINE
8
0
62
1
10
-28.532
20
-3.472
30
0
11
-28.631
21
-3.453
31
0
0
LINE
8
0
62
1
10
-28.631
20
-3.453
30
0
11
-28.728
21
-3.425
31
0
0
LINE
8
0
62
1
10
-28.728
20
-3.425
30
0
11
-28.823
21
-3.39
31
0
0
LINE
8
0
62
1
10
-28.823
20
-3.39
30
0
11
-28.915
21
-3.348
31
0
0
LINE
8
0
62
1
10
-28.915
20
-3.348
30
0
11
-29.003
21
-3.298
31
0
0
LINE
8
0
62
1
10
-29.003
20
-3.298
30
0
11
-29.087
21
-3.242
31
0
0
LINE
8
0
62
1
10
-29.087
20
-3.242
30
0
11
-29.167
21
-3.179
31
0
0
LINE
8
0
62
1
10
-29.167
20
-3.179
30
0
11
-29.241
21
-3.111
31
0
0
LINE
8
0
62
1
10
-29.241
20
-3.111
30
0
11
-29.31
21
-3.037
31
0
0
LINE
8
0
62
1
10
-29.31
20
-3.037
30
0
11
-29.372
21
-2.957
31
0
0
LINE
8
0
62
1
10
-29.372
20
-2.957
30
0
11
-29.429
21
-2.873
31
0
0
LINE
8
0
62
1
10
-29.429
20
-2.873
30
0
11
-29.478
21
-2.785
31
0
0
LINE
8
0
62
1
10
-29.478
20
-2.785
30
0
11
-29.52
21
-2.693
31
0
0
LINE
8
0
62
1
10
-29.52
20
-2.693
30
0
11
-29.555
21
-2.598
31
0
0
LINE
8
0
62
1
10
-29.555
20
-2.598
30
0
11
-29.583
21
-2.501
31
0
0
LINE
8
0
62
1
10
-29.583
20
-2.501
30
0
11
-29.603
21
-2.402
31
0
0
LINE
8
0
62
1
10
-29.603
20
-2.402
30
0
11
-29.614
21
-2.301
31
0
0
LINE
8
0
62
1
10
-29.614
20
-2.301
30
0
11
-29.618
21
-2.2
31
0
0
LINE
8
0
62
1
10
-29.618
20
-2.2
30
0
11
-29.618
21
2.8
31
0
0
LINE
8
0
62
1
10
-9.618
20
2.8
30
0
11
-9.618
21
4.3
31
0
0
LINE
8
0
62
1
10
-9.618
20
4.3
30
0
11
-9.614
21
4.401
31
0
0
LINE
8
0
62
1
10
-9.614
20
4.401
30
0
11
-9.603
21
4.502
31
0
0
LINE
8
0
62
1
10
-9.603
20
4.502
30
0
11
-9.583
21
4.601
31
0
0
LINE
8
0
62
1
10
-9.583
20
4.601
30
0
11
-9.555
21
4.698
31
0
0
LINE
8
0
62
1
10
-9.555
20
4.698
30
0
11
-9.52
21
4.793
31
0
0
LINE
8
0
62
1
10
-9.52
20
4.793
30
0
11
-9.478
21
4.885
31
0
0
LINE
8
0
62
1
10
-9.478
20
4.885
30
0
11
-9.429
21
4.973
31
0
0
LINE
8
0
62
1
10
-9.429
20
4.973
30
0
11
-9.372
21
5.057
31
0
0
LINE
8
0
62
1
10
-9.372
20
5.057
30
0
11
-9.31
21
5.137
31
0
0
LINE
8
0
62
1
10
-9.31
20
5.137
30
0
11
-9.241
21
5.211
31
0
0
LINE
8
0
62
1
10
-9.241
20
5.211
30
0
11
-9.167
21
5.279
31
0
0
LINE
8
0
62
1
10
-9.167
20
5.279
30
0
11
-9.087
21
5.342
31
0
0
LINE
8
0
62
1
10
-9.087
20
5.342
30
0
11
-9.003
21
5.398
31
0
0
LINE
8
0
62
1
10
-9.003
20
5.398
30
0
11
-8.915
21
5.448
31
0
0
LINE
8
0
62
1
10
-8.915
20
5.448
30
0
11
-8.823
21
5.49
31
0
0
LINE
8
0
62
1
10
-8.823
20
5.49
30
0
11
-8.728
21
5.525
31
0
0
LINE
8
0
62
1
10
-8.728
20
5.525
30
0
11
-8.631
21
5.553
31
0
0
LINE
8
0
62
1
10
-8.631
20
5.553
30
0
11
-8.532
21
5.572
31
0
0
LINE
8
0
62
1
10
-8.532
20
5.572
30
0
11
-8.431
21
5.584
31
0
0
LINE
8
0
62
1
10
-8.431
20
5.584
30
0
11
-8.33
21
5.588
31
0
0
LINE
8
0
62
1
10
-8.33
20
5.588
30
0
11
-8.229
21
5.584
31
0
0
LINE
8
0
62
1
10
-8.229
20
5.584
30
0
11
-8.129
21
5.572
31
0
0
LINE
8
0
62
1
10
-8.129
20
5.572
30
0
11
-8.03
21
5.553
31
0
0
LINE
8
0
62
1
10
-8.03
20
5.553
30
0
11
-7.932
21
5.525
31
0
0
LINE
8
0
62
1
10
-7.932
20
5.525
30
0
11
-7.837
21
5.49
31
0
0
LINE
8
0
62
1
10
-7.837
20
5.49
30
0
11
-7.746
21
5.448
31
0
0
LINE
8
0
62
1
10
-7.746
20
5.448
30
0
11
-7.657
21
5.398
31
0
0
LINE
8
0
62
1
10
-7.657
20
5.398
30
0
11
-7.573
21
5.342
31
0
0
LINE
8
0
62
1
10
-7.573
20
5.342
30
0
11
-7.494
21
5.279
31
0
0
LINE
8
0
62
1
10
-7.494
20
5.279
30
0
11
-7.419
21
5.211
31
0
0
LINE
8
0
62
1
10
-7.419
20
5.211
30
0
11
-7.351
21
5.137
31
0
0
LINE
8
0
62
1
10
-7.351
20
5.137
30
0
11
-7.288
21
5.057
31
0
0
LINE
8
0
62
1
10
-7.288
20
5.057
30
0
11
-7.232
21
4.973
31
0
0
LINE
8
0
62
1
10
-7.232
20
4.973
30
0
11
-7.183
21
4.885
31
0
0
LINE
8
0
62
1
10
-7.183
20
4.885
30
0
11
-7.14
21
4.793
31
0
0
LINE
8
0
62
1
10
-7.14
20
4.793
30
0
11
-7.105
21
4.698
31
0
0
LINE
8
0
62
1
10
-7.105
20
4.698
30
0
11
-7.078
21
4.601
31
0
0
LINE
8
0
62
1
10
-7.078
20
4.601
30
0
11
-7.058
21
4.502
31
0
0
LINE
8
0
62
1
10
-7.058
20
4.502
30
0
11
-7.046
21
4.401
31
0
0
LINE
8
0
62
1
10
-7.046
20
4.401
30
0
11
-7.042
21
4.3
31
0
0
LINE
8
0
62
1
10
-7.042
20
4.3
30
0
11
-7.042
21
-2.2
31
0
0
LINE
8
0
62
1
10
-7.042
20
-2.2
30
0
11
-7.046
21
-2.301
31
0
0
LINE
8
0
62
1
10
-7.046
20
-2.301
30
0
11
-7.058
21
-2.402
31
0
0
LINE
8
0
62
1
10
-7.058
20
-2.402
30
0
11
-7.078
21
-2.501
31
0
0
LINE
8
0
62
1
10
-7.078
20
-2.501
30
0
11
-7.105
21
-2.598
31
0
0
LINE
8
0
62
1
10
-7.105
20
-2.598
30
0
11
-7.14
21
-2.693
31
0
0
LINE
8
0
62
1
10
-7.14
20
-2.693
30
0
11
-7.183
21
-2.785
31
0
0
LINE
8
0
62
1
10
-7.183
20
-2.785
30
0
11
-7.232
21
-2.873
31
0
0
LINE
8
0
62
1
10
-7.232
20
-2.873
30
0
11
-7.288
21
-2.957
31
0
0
LINE
8
0
62
1
10
-7.288
20
-2.957
30
0
11
-7.351
21
-3.037
31
0
0
LINE
8
0
62
1
10
-7.351
20
-3.037
30
0
11
-7.419
21
-3.111
31
0
0
LINE
8
0
62
1
10
-7.419
20
-3.111
30
0
11
-7.494
21
-3.179
31
0
0
LINE
8
0
62
1
10
-7.494
20
-3.179
30
0
11
-7.573
21
-3.242
31
0
0
LINE
8
0
62
1
10
-7.573
20
-3.242
30
0
11
-7.657
21
-3.298
31
0
0
LINE
8
0
62
1
10
-7.657
20
-3.298
30
0
11
-7.746
21
-3.348
31
0
0
LINE
8
0
62
1
10
-7.746
20
-3.348
30
0
11
-7.837
21
-3.39
31
0
0
LINE
8
0
62
1
10
-7.837
20
-3.39
30
0
11
-7.932
21
-3.425
31
0
0
LINE
8
0
62
1
10
-7.932
20
-3.425
30
0
11
-8.03
21
-3.453
31
0
0
LINE
8
0
62
1
10
-8.03
20
-3.453
30
0
11
-8.129
21
-3.472
31
0
0
LINE
8
0
62
1
10
-8.129
20
-3.472
30
0
11
-8.229
21
-3.484
31
0
0
LINE
8
0
62
1
10
-8.229
20
-3.484
30
0
11
-8.33
21
-3.488
31
0
0
LINE
8
0
62
1
10
-8.33
20
-3.488
30
0
11
-8.431
21
-3.484
31
0
0
LINE
8
0
62
1
10
-8.431
20
-3.484
30
0
11
-8.532
21
-3.472
31
0
0
LINE
8
0
62
1
10
-8.532
20
-3.472
30
0
11
-8.631
21
-3.453
31
0
0
LINE
8
0
62
1
10
-8.631
20
-3.453
30
0
11
-8.728
21
-3.425
31
0
0
LINE
8
0
62
1
10
-8.728
20
-3.425
30
0
11
-8.823
21
-3.39
31
0
0
LINE
8
0
62
1
10
-8.823
20
-3.39
30
0
11
-8.915
21
-3.348
31
0
0
LINE
8
0
62
1
10
-8.915
20
-3.348
30
0
11
-9.003
21
-3.298
31
0
0
LINE
8
0
62
1
10
-9.003
20
-3.298
30
0
11
-9.087
21
-3.242
31
0
0
LINE
8
0
62
1
10
-9.087
20
-3.242
30
0
11
-9.167
21
-3.179
31
0
0
LINE
8
0
62
1
10
-9.167
20
-3.179
30
0
11
-9.241
21
-3.111
31
0
0
LINE
8
0
62
1
10
-9.241
20
-3.111
30
0
11
-9.31
21
-3.037
31
0
0
LINE
8
0
62
1
10
-9.31
20
-3.037
30
0
11
-9.372
21
-2.957
31
0
0
LINE
8
0
62
1
10
-9.372
20
-2.957
30
0
11
-9.429
21
-2.873
31
0
0
LINE
8
0
62
1
10
-9.429
20
-2.873
30
0
11
-9.478
21
-2.785
31
0
0
LINE
8
0
62
1
10
-9.478
20
-2.785
30
0
11
-9.52
21
-2.693
31
0
0
LINE
8
0
62
1
10
-9.52
20
-2.693
30
0
11
-9.555
21
-2.598
31
0
0
LINE
8
0
62
1
10
-9.555
20
-2.598
30
0
11
-9.583
21
-2.501
31
0
0
LINE
8
0
62
1
10
-9.583
20
-2.501
30
0
11
-9.603
21
-2.402
31
0
0
LINE
8
0
62
1
10
-9.603
20
-2.402
30
0
11
-9.614
21
-2.301
31
0
0
LINE
8
0
62
1
10
-9.614
20
-2.301
30
0
11
-9.618
21
-2.2
31
0
0
LINE
8
0
62
1
10
-9.618
20
-2.2
30
0
11
-9.618
21
2.8
31
0
0
LINE
8
0
62
1
10
10.382
20
2.8
30
0
11
10.382
21
4.3
31
0
0
LINE
8
0
62
1
10
10.382
20
4.3
30
0
11
10.386
21
4.401
31
0
0
LINE
8
0
62
1
10
10.386
20
4.401
30
0
11
10.397
21
4.502
31
0
0
LINE
8
0
62
1
10
10.397
20
4.502
30
0
11
10.417
21
4.601
31
0
0
LINE
8
0
62
1
10
10.417
20
4.601
30
0
11
10.445
21
4.698
31
0
0
LINE
8
0
62
1
10
10.445
20
4.698
30
0
11
10.48
21
4.793
31
0
0
LINE
8
0
62
1
10
10.48
20
4.793
30
0
11
10.522
21
4.885
31
0
0
LINE
8
0
62
1
10
10.522
20
4.885
30
0
11
10.571
21
4.973
31
0
0
LINE
8
0
62
1
10
10.571
20
4.973
30
0
11
10.628
21
5.057
31
0
0
LINE
8
0
62
1
10
10.628
20
5.057
30
0
11
10.69
21
5.137
31
0
0
LINE
8
0
62
1
10
10.69
20
5.137
30
0
11
10.759
21
5.211
31
0
0
LINE
8
0
62
1
10
10.759
20
5.211
30
0
11
10.833
21
5.279
31
0
0
LINE
8
0
62
1
10
10.833
20
5.279
30
0
11
10.913
21
5.342
31
0
0
LINE
8
0
62
1
10
10.913
20
5.342
30
0
11
10.997
21
5.398
31
0
0
LINE
8
0
62
1
10
10.997
20
5.398
30
0
11
11.085
21
5.448
31
0
0
LINE
8
0
62
1
10
11.085
20
5.448
30
0
11
11.177
21
5.49
31
0
0
LINE
8
0
62
1
10
11.177
20
5.49
30
0
11
11.272
21
5.525
31
0
0
LINE
8
0
62
1
10
11.272
20
5.525
30
0
11
11.369
21
5.553
31
0
0
LINE
8
0
62
1
10
11.369
20
5.553
30
0
11
11.468
21
5.572
31
0
0
LINE
8
0
62
1
10
11.468
20
5.572
30
0
11
11.569
21
5.584
31
0
0
LINE
8
0
62
1
10
11.569
20
5.584
30
0
11
11.67
21
5.588
31
0
0
LINE
8
0
62
1
10
11.67
20
5.588
30
0
11
11.771
21
5.584
31
0
0
LINE
8
0
62
1
10
11.771
20
5.584
30
0
11
11.871
21
5.572
31
0
0
LINE
8
0
62
1
10
11.871
20
5.572
30
0
11
11.97
21
5.553
31
0
0
LINE
8
0
62
1
10
11.97
20
5.553
30
0
11
12.068
21
5.525
31
0
0
LINE
8
0
62
1
10
12.068
20
5.525
30
0
11
12.163
21
5.49
31
0
0
LINE
8
0
62
1
10
12.163
20
5.49
30
0
11
12.254
21
5.448
31
0
0
LINE
8
0
62
1
10
12.254
20
5.448
30
0
11
12.343
21
5.398
31
0
0
LINE
8
0
62
1
10
12.343
20
5.398
30
0
11
12.427
21
5.342
31
0
0
LINE
8
0
62
1
10
12.427
20
5.342
30
0
11
12.506
21
5.279
31
0
0
LINE
8
0
62
1
10
12.506
20
5.279
30
0
11
12.581
21
5.211
31
0
0
LINE
8
0
62
1
10
12.581
20
5.211
30
0
11
12.649
21
5.137
31
0
0
LINE
8
0
62
1
10
12.649
20
5.137
30
0
11
12.712
21
5.057
31
0
0
LINE
8
0
62
1
10
12.712
20
5.057
30
0
11
12.768
21
4.973
31
0
0
LINE
8
0
62
1
10
12.768
20
4.973
30
0
11
12.817
21
4.885
31
0
0
LINE
8
0
62
1
10
12.817
20
4.885
30
0
11
12.86
21
4.793
31
0
0
LINE
8
0
62
1
10
12.86
20
4.793
30
0
11
12.895
21
4.698
31
0
0
LINE
8
0
62
1
10
12.895
20
4.698
30
0
11
12.922
21
4.601
31
0
0
LINE
8
0
62
1
10
12.922
20
4.601
30
0
11
12.942
21
4.502
31
0
0
LINE
8
0
62
1
10
12.942
20
4.502
30
0
11
12.954
21
4.401
31
0
0
LINE
8
0
62
1
10
12.954
20
4.401
30
0
11
12.958
21
4.3
31
0
0
LINE
8
0
62
1
10
12.958
20
4.3
30
0
11
12.958
21
-2.2
31
0
0
LINE
8
0
62
1
10
12.958
20
-2.2
30
0
11
12.954
21
-2.301
31
0
0
LINE
8
0
62
1
10
12.954
20
-2.301
30
0
11
12.942
21
-2.402
31
0
0
LINE
8
0
62
1
10
12.942
20
-2.402
30
0
11
12.922
21
-2.501
31
0
0
LINE
8
0
62
1
10
12.922
20
-2.501
30
0
11
12.895
21
-2.598
31
0
0
LINE
8
0
62
1
10
12.895
20
-2.598
30
0
11
12.86
21
-2.693
31
0
0
LINE
8
0
62
1
10
12.86
20
-2.693
30
0
11
12.817
21
-2.785
31
0
0
LINE
8
0
62
1
10
12.817
20
-2.785
30
0
11
12.768
21
-2.873
31
0
0
LINE
8
0
62
1
10
12.768
20
-2.873
30
0
11
12.712
21
-2.957
31
0
0
LINE
8
0
62
1
10
12.712
20
-2.957
30
0
11
12.649
21
-3.037
31
0
0
LINE
8
0
62
1
10
12.649
20
-3.037
30
0
11
12.581
21
-3.111
31
0
0
LINE
8
0
62
1
10
12.581
20
-3.111
30
0
11
12.506
21
-3.179
31
0
0
LINE
8
0
62
1
10
12.506
20
-3.179
30
0
11
12.427
21
-3.242
31
0
0
LINE
8
0
62
1
10
12.427
20
-3.242
30
0
11
12.343
21
-3.298
31
0
0
LINE
8
0
62
1
10
12.343
20
-3.298
30
0
11
12.254
21
-3.348
31
0
0
LINE
8
0
62
1
10
12.254
20
-3.348
30
0
11
12.163
21
-3.39
31
0
0
LINE
8
0
62
1
10
12.163
20
-3.39
30
0
11
12.068
21
-3.425
31
0
0
LINE
8
0
62
1
10
12.068
20
-3.425
30
0
11
11.97
21
-3.453
31
0
0
LINE
8
0
62
1
10
11.97
20
-3.453
30
0
11
11.871
21
-3.472
31
0
0
LINE
8
0
62
1
10
11.871
20
-3.472
30
0
11
11.771
21
-3.484
31
0
0
LINE
8
0
62
1
10
11.771
20
-3.484
30
0
11
11.67
21
-3.488
31
0
0
LINE
8
0
62
1
10
11.67
20
-3.488
30
0
11
11.569
21
-3.484
31
0
0
LINE
8
0
62
1
10
11.569
20
-3.484
30
0
11
11.468
21
-3.472
31
0
0
LINE
8
0
62
1
10
11.468
20
-3.472
30
0
11
11.369
21
-3.453
31
0
0
LINE
8
0
62
1
10
11.369
20
-3.453
30
0
11
11.272
21
-3.425
31
0
0
LINE
8
0
62
1
10
11.272
20
-3.425
30
0
11
11.177
21
-3.39
31
0
0
LINE
8
0
62
1
10
11.177
20
-3.39
30
0
11
11.085
21
-3.348
31
0
0
LINE
8
0
62
1
10
11.085
20
-3.348
30
0
11
10.997
21
-3.298
31
0
0
LINE
8
0
62
1
10
10.997
20
-3.298
30
0
11
10.913
21
-3.242
31
0
0
LINE
8
0
62
1
10
10.913
20
-3.242
30
0
11
10.833
21
-3.179
31
0
0
LINE
8
0
62
1
10
10.833
20
-3.179
30
0
11
10.759
21
-3.111
31
0
0
LINE
8
0
62
1
10
10.759
20
-3.111
30
0
11
10.69
21
-3.037
31
0
0
LINE
8
0
62
1
10
10.69
20
-3.037
30
0
11
10.628
21
-2.957
31
0
0
LINE
8
0
62
1
10
10.628
20
-2.957
30
0
11
10.571
21
-2.873
31
0
0
LINE
8
0
62
1
10
10.571
20
-2.873
30
0
11
10.522
21
-2.785
31
0
0
LINE
8
0
62
1
10
10.522
20
-2.785
30
0
11
10.48
21
-2.693
31
0
0
LINE
8
0
62
1
10
10.48
20
-2.693
30
0
11
10.445
21
-2.598
31
0
0
LINE
8
0
62
1
10
10.445
20
-2.598
30
0
11
10.417
21
-2.501
31
0
0
LINE
8
0
62
1
10
10.417
20
-2.501
30
0
11
10.397
21
-2.402
31
0
0
LINE
8
0
62
1
10
10.397
20
-2.402
30
0
11
10.386
21
-2.301
31
0
0
LINE
8
0
62
1
10
10.386
20
-2.301
30
0
11
10.382
21
-2.2
31
0
0
LINE
8
0
62
1
10
10.382
20
-2.2
30
0
11
10.382
21
2.8
31
0
0
LINE
8
0
62
1
10
30.382
20
2.8
30
0
11
30.382
21
4.3
31
0
0
LINE
8
0
62
1
10
30.382
20
4.3
30
0
11
30.386
21
4.401
31
0
0
LINE
8
0
62
1
10
30.386
20
4.401
30
0
11
30.397
21
4.502
31
0
0
LINE
8
0
62
1
10
30.397
20
4.502
30
0
11
30.417
21
4.601
31
0
0
LINE
8
0
62
1
10
30.417
20
4.601
30
0
11
30.445
21
4.698
31
0
0
LINE
8
0
62
1
10
30.445
20
4.698
30
0
11
30.48
21
4.793
31
0
0
LINE
8
0
62
1
10
30.48
20
4.793
30
0
11
30.522
21
4.885
31
0
0
LINE
8
0
62
1
10
30.522
20
4.885
30
0
11
30.571
21
4.973
31
0
0
LINE
8
0
62
1
10
30.571
20
4.973
30
0
11
30.628
21
5.057
31
0
0
LINE
8
0
62
1
10
30.628
20
5.057
30
0
11
30.69
21
5.137
31
0
0
LINE
8
0
62
1
10
30.69
20
5.137
30
0
11
30.759
21
5.211
31
0
0
LINE
8
0
62
1
10
30.759
20
5.211
30
0
11
30.833
21
5.279
31
0
0
LINE
8
0
62
1
10
30.833
20
5.279
30
0
11
30.913
21
5.342
31
0
0
LINE
8
0
62
1
10
30.913
20
5.342
30
0
11
30.997
21
5.398
31
0
0
LINE
8
0
62
1
10
30.997
20
5.398
30
0
11
31.085
21
5.448
31
0
0
LINE
8
0
62
1
10
31.085
20
5.448
30
0
11
31.177
21
5.49
31
0
0
LINE
8
0
62
1
10
31.177
20
5.49
30
0
11
31.272
21
5.525
31
0
0
LINE
8
0
62
1
10
31.272
20
5.525
30
0
11
31.369
21
5.553
31
0
0
LINE
8
0
62
1
10
31.369
20
5.553
30
0
11
31.468
21
5.572
31
0
0
LINE
8
0
62
1
10
31.468
20
5.572
30
0
11
31.569
21
5.584
31
0
0
LINE
8
0
62
1
10
31.569
20
5.584
30
0
11
31.67
21
5.588
31
0
0
LINE
8
0
62
1
10
31.67
20
5.588
30
0
11
31.771
21
5.584
31
0
0
LINE
8
0
62
1
10
31.771
20
5.584
30
0
11
31.871
21
5.572
31
0
0
LINE
8
0
62
1
10
31.871
20
5.572
30
0
11
31.97
21
5.553
31
0
0
LINE
8
0
62
1
10
31.97
20
5.553
30
0
11
32.068
21
5.525
31
0
0
LINE
8
0
62
1
10
32.068
20
5.525
30
0
11
32.163
21
5.49
31
0
0
LINE
8
0
62
1
10
32.163
20
5.49
30
0
11
32.254
21
5.448
31
0
0
LINE
8
0
62
1
10
32.254
20
5.448
30
0
11
32.343
21
5.398
31
0
0
LINE
8
0
62
1
10
32.343
20
5.398
30
0
11
32.427
21
5.342
31
0
0
LINE
8
0
62
1
10
32.427
20
5.342
30
0
11
32.506
21
5.279
31
0
0
LINE
8
0
62
1
10
32.506
20
5.279
30
0
11
32.581
21
5.211
31
0
0
LINE
8
0
62
1
10
32.581
20
5.211
30
0
11
32.649
21
5.137
31
0
0
LINE
8
0
62
1
10
32.649
20
5.137
30
0
11
32.712
21
5.057
31
0
0
LINE
8
0
62
1
10
32.712
20
5.057
30
0
11
32.768
21
4.973
31
0
0
LINE
8
0
62
1
10
32.768
20
4.973
30
0
11
32.817
21
4.885
31
0
0
LINE
8
0
62
1
10
32.817
20
4.885
30
0
11
32.86
21
4.793
31
0
0
LINE
8
0
62
1
10
32.86
20
4.793
30
0
11
32.895
21
4.698
31
0
0
LINE
8
0
62
1
10
32.895
20
4.698
30
0
11
32.922
21
4.601
31
0
0
LINE
8
0
62
1
10
32.922
20
4.601
30
0
11
32.942
21
4.502
31
0
0
LINE
8
0
62
1
10
32.942
20
4.502
30
0
11
32.954
21
4.401
31
0
0
LINE
8
0
62
1
10
32.954
20
4.401
30
0
11
32.958
21
4.3
31
0
0
LINE
8
0
62
1
10
32.958
20
4.3
30
0
11
32.958
21
-2.2
31
0
0
LINE
8
0
62
1
10
32.958
20
-2.2
30
0
11
32.954
21
-2.301
31
0
0
LINE
8
0
62
1
10
32.954
20
-2.301
30
0
11
32.942
21
-2.402
31
0
0
LINE
8
0
62
1
10
32.942
20
-2.402
30
0
11
32.922
21
-2.501
31
0
0
LINE
8
0
62
1
10
32.922
20
-2.501
30
0
11
32.895
21
-2.598
31
0
0
LINE
8
0
62
1
10
32.895
20
-2.598
30
0
11
32.86
21
-2.693
31
0
0
LINE
8
0
62
1
10
32.86
20
-2.693
30
0
11
32.817
21
-2.785
31
0
0
LINE
8
0
62
1
10
32.817
20
-2.785
30
0
11
32.768
21
-2.873
31
0
0
LINE
8
0
62
1
10
32.768
20
-2.873
30
0
11
32.712
21
-2.957
31
0
0
LINE
8
0
62
1
10
32.712
20
-2.957
30
0
11
32.649
21
-3.037
31
0
0
LINE
8
0
62
1
10
32.649
20
-3.037
30
0
11
32.581
21
-3.111
31
0
0
LINE
8
0
62
1
10
32.581
20
-3.111
30
0
11
32.506
21
-3.179
31
0
0
LINE
8
0
62
1
10
32.506
20
-3.179
30
0
11
32.427
21
-3.242
31
0
0
LINE
8
0
62
1
10
32.427
20
-3.242
30
0
11
32.343
21
-3.298
31
0
0
LINE
8
0
62
1
10
32.343
20
-3.298
30
0
11
32.254
21
-3.348
31
0
0
LINE
8
0
62
1
10
32.254
20
-3.348
30
0
11
32.163
21
-3.39
31
0
0
LINE
8
0
62
1
10
32.163
20
-3.39
30
0
11
32.068
21
-3.425
31
0
0
LINE
8
0
62
1
10
32.068
20
-3.425
30
0
11
31.97
21
-3.453
31
0
0
LINE
8
0
62
1
10
31.97
20
-3.453
30
0
11
31.871
21
-3.472
31
0
0
LINE
8
0
62
1
10
31.871
20
-3.472
30
0
11
31.771
21
-3.484
31
0
0
LINE
8
0
62
1
10
31.771
20
-3.484
30
0
11
31.67
21
-3.488
31
0
0
LINE
8
0
62
1
10
31.67
20
-3.488
30
0
11
31.569
21
-3.484
31
0
0
LINE
8
0
62
1
10
31.569
20
-3.484
30
0
11
31.468
21
-3.472
31
0
0
LINE
8
0
62
1
10
31.468
20
-3.472
30
0
11
31.369
21
-3.453
31
0
0
LINE
8
0
62
1
10
31.369
20
-3.453
30
0
11
31.272
21
-3.425
31
0
0
LINE
8
0
62
1
10
31.272
20
-3.425
30
0
11
31.177
21
-3.39
31
0
0
LINE
8
0
62
1
10
31.177
20
-3.39
30
0
11
31.085
21
-3.348
31
0
0
LINE
8
0
62
1
10
31.085
20
-3.348
30
0
11
30.997
21
-3.298
31
0
0
LINE
8
0
62
1
10
30.997
20
-3.298
30
0
11
30.913
21
-3.242
31
0
0
LINE
8
0
62
1
10
30.913
20
-3.242
30
0
11
30.833
21
-3.179
31
0
0
LINE
8
0
62
1
10
30.833
20
-3.179
30
0
11
30.759
21
-3.111
31
0
0
LINE
8
0
62
1
10
30.759
20
-3.111
30
0
11
30.69
21
-3.037
31
0
0
LINE
8
0
62
1
10
30.69
20
-3.037
30
0
11
30.628
21
-2.957
31
0
0
LINE
8
0
62
1
10
30.628
20
-2.957
30
0
11
30.571
21
-2.873
31
0
0
LINE
8
0
62
1
10
30.571
20
-2.873
30
0
11
30.522
21
-2.785
31
0
0
LINE
8
0
62
1
10
30.522
20
-2.785
30
0
11
30.48
21
-2.693
31
0
0
LINE
8
0
62
1
10
30.48
20
-2.693
30
0
11
30.445
21
-2.598
31
0
0
LINE
8
0
62
1
10
30.445
20
-2.598
30
0
11
30.417
21
-2.501
31
0
0
LINE
8
0
62
1
10
30.417
20
-2.501
30
0
11
30.397
21
-2.402
31
0
0
LINE
8
0
62
1
10
30.397
20
-2.402
30
0
11
30.386
21
-2.301
31
0
0
LINE
8
0
62
1
10
30.386
20
-2.301
30
0
11
30.382
21
-2.2
31
0
0
LINE
8
0
62
1
10
30.382
20
-2.2
30
0
11
30.382
21
2.8
31
0
0
LINE
8
0
62
1
10
52.958
20
-0.7
30
0
11
52.958
21
-2.2
31
0
0
LINE
8
0
62
1
10
52.958
20
-2.2
30
0
11
52.954
21
-2.301
31
0
0
LINE
8
0
62
1
10
52.954
20
-2.301
30
0
11
52.942
21
-2.402
31
0
0
LINE
8
0
62
1
10
52.942
20
-2.402
30
0
11
52.922
21
-2.501
31
0
0
LINE
8
0
62
1
10
52.922
20
-2.501
30
0
11
52.895
21
-2.598
31
0
0
LINE
8
0
62
1
10
52.895
20
-2.598
30
0
11
52.86
21
-2.693
31
0
0
LINE
8
0
62
1
10
52.86
20
-2.693
30
0
11
52.817
21
-2.785
31
0
0
LINE
8
0
62
1
10
52.817
20
-2.785
30
0
11
52.768
21
-2.873
31
0
0
LINE
8
0
62
1
10
52.768
20
-2.873
30
0
11
52.712
21
-2.957
31
0
0
LINE
8
0
62
1
10
52.712
20
-2.957
30
0
11
52.649
21
-3.037
31
0
0
LINE
8
0
62
1
10
52.649
20
-3.037
30
0
11
52.581
21
-3.111
31
0
0
LINE
8
0
62
1
10
52.581
20
-3.111
30
0
11
52.506
21
-3.179
31
0
0
LINE
8
0
62
1
10
52.506
20
-3.179
30
0
11
52.427
21
-3.242
31
0
0
LINE
8
0
62
1
10
52.427
20
-3.242
30
0
11
52.343
21
-3.298
31
0
0
LINE
8
0
62
1
10
52.343
20
-3.298
30
0
11
52.254
21
-3.348
31
0
0
LINE
8
0
62
1
10
52.254
20
-3.348
30
0
11
52.163
21
-3.39
31
0
0
LINE
8
0
62
1
10
52.163
20
-3.39
30
0
11
52.068
21
-3.425
31
0
0
LINE
8
0
62
1
10
52.068
20
-3.425
30
0
11
51.97
21
-3.453
31
0
0
LINE
8
0
62
1
10
51.97
20
-3.453
30
0
11
51.871
21
-3.472
31
0
0
LINE
8
0
62
1
10
51.871
20
-3.472
30
0
11
51.771
21
-3.484
31
0
0
LINE
8
0
62
1
10
51.771
20
-3.484
30
0
11
51.67
21
-3.488
31
0
0
LINE
8
0
62
1
10
51.67
20
-3.488
30
0
11
51.569
21
-3.484
31
0
0
LINE
8
0
62
1
10
51.569
20
-3.484
30
0
11
51.468
21
-3.472
31
0
0
LINE
8
0
62
1
10
51.468
20
-3.472
30
0
11
51.369
21
-3.453
31
0
0
LINE
8
0
62
1
10
51.369
20
-3.453
30
0
11
51.272
21
-3.425
31
0
0
LINE
8
0
62
1
10
51.272
20
-3.425
30
0
11
51.177
21
-3.39
31
0
0
LINE
8
0
62
1
10
51.177
20
-3.39
30
0
11
51.085
21
-3.348
31
0
0
LINE
8
0
62
1
10
51.085
20
-3.348
30
0
11
50.997
21
-3.298
31
0
0
LINE
8
0
62
1
10
50.997
20
-3.298
30
0
11
50.913
21
-3.242
31
0
0
LINE
8
0
62
1
10
50.913
20
-3.242
30
0
11
50.833
21
-3.179
31
0
0
LINE
8
0
62
1
10
50.833
20
-3.179
30
0
11
50.759
21
-3.111
31
0
0
LINE
8
0
62
1
10
50.759
20
-3.111
30
0
11
50.69
21
-3.037
31
0
0
LINE
8
0
62
1
10
50.69
20
-3.037
30
0
11
50.628
21
-2.957
31
0
0
LINE
8
0
62
1
10
50.628
20
-2.957
30
0
11
50.571
21
-2.873
31
0
0
LINE
8
0
62
1
10
50.571
20
-2.873
30
0
11
50.522
21
-2.785
31
0
0
LINE
8
0
62
1
10
50.522
20
-2.785
30
0
11
50.48
21
-2.693
31
0
0
LINE
8
0
62
1
10
50.48
20
-2.693
30
0
11
50.445
21
-2.598
31
0
0
LINE
8
0
62
1
10
50.445
20
-2.598
30
0
11
50.417
21
-2.501
31
0
0
LINE
8
0
62
1
10
50.417
20
-2.501
30
0
11
50.397
21
-2.402
31
0
0
LINE
8
0
62
1
10
50.397
20
-2.402
30
0
11
50.386
21
-2.301
31
0
0
LINE
8
0
62
1
10
50.386
20
-2.301
30
0
11
50.382
21
-2.2
31
0
0
LINE
8
0
62
1
10
50.382
20
-2.2
30
0
11
50.382
21
4.3
31
0
0
LINE
8
0
62
1
10
50.382
20
4.3
30
0
11
50.386
21
4.401
31
0
0
LINE
8
0
62
1
10
50.386
20
4.401
30
0
11
50.397
21
4.502
31
0
0
LINE
8
0
62
1
10
50.397
20
4.502
30
0
11
50.417
21
4.601
31
0
0
LINE
8
0
62
1
10
50.417
20
4.601
30
0
11
50.445
21
4.698
31
0
0
LINE
8
0
62
1
10
50.445
20
4.698
30
0
11
50.48
21
4.793
31
0
0
LINE
8
0
62
1
10
50.48
20
4.793
30
0
11
50.522
21
4.885
31
0
0
LINE
8
0
62
1
10
50.522
20
4.885
30
0
11
50.571
21
4.973
31
0
0
LINE
8
0
62
1
10
50.571
20
4.973
30
0
11
50.628
21
5.057
31
0
0
LINE
8
0
62
1
10
50.628
20
5.057
30
0
11
50.69
21
5.137
31
0
0
LINE
8
0
62
1
10
50.69
20
5.137
30
0
11
50.759
21
5.211
31
0
0
LINE
8
0
62
1
10
50.759
20
5.211
30
0
11
50.833
21
5.279
31
0
0
LINE
8
0
62
1
10
50.833
20
5.279
30
0
11
50.913
21
5.342
31
0
0
LINE
8
0
62
1
10
50.913
20
5.342
30
0
11
50.997
21
5.398
31
0
0
LINE
8
0
62
1
10
50.997
20
5.398
30
0
11
51.085
21
5.448
31
0
0
LINE
8
0
62
1
10
51.085
20
5.448
30
0
11
51.177
21
5.49
31
0
0
LINE
8
0
62
1
10
51.177
20
5.49
30
0
11
51.272
21
5.525
31
0
0
LINE
8
0
62
1
10
51.272
20
5.525
30
0
11
51.369
21
5.553
31
0
0
LINE
8
0
62
1
10
51.369
20
5.553
30
0
11
51.468
21
5.572
31
0
0
LINE
8
0
62
1
10
51.468
20
5.572
30
0
11
51.569
21
5.584
31
0
0
LINE
8
0
62
1
10
51.569
20
5.584
30
0
11
51.67
21
5.588
31
0
0
LINE
8
0
62
1
10
51.67
20
5.588
30
0
11
51.771
21
5.584
31
0
0
LINE
8
0
62
1
10
51.771
20
5.584
30
0
11
51.871
21
5.572
31
0
0
LINE
8
0
62
1
10
51.871
20
5.572
30
0
11
51.97
21
5.553
31
0
0
LINE
8
0
62
1
10
51.97
20
5.553
30
0
11
52.068
21
5.525
31
0
0
LINE
8
0
62
1
10
52.068
20
5.525
30
0
11
52.163
21
5.49
31
0
0
LINE
8
0
62
1
10
52.163
20
5.49
30
0
11
52.254
21
5.448
31
0
0
LINE
8
0
62
1
10
52.254
20
5.448
30
0
11
52.343
21
5.398
31
0
0
LINE
8
0
62
1
10
52.343
20
5.398
30
0
11
52.427
21
5.342
31
0
0
LINE
8
0
62
1
10
52.427
20
5.342
30
0
11
52.506
21
5.279
31
0
0
LINE
8
0
62
1
10
52.506
20
5.279
30
0
11
52.581
21
5.211
31
0
0
LINE
8
0
62
1
10
52.581
20
5.211
30
0
11
52.649
21
5.137
31
0
0
LINE
8
0
62
1
10
52.649
20
5.137
30
0
11
52.712
21
5.057
31
0
0
LINE
8
0
62
1
10
52.712
20
5.057
30
0
11
52.768
21
4.973
31
0
0
LINE
8
0
62
1
10
52.768
20
4.973
30
0
11
52.817
21
4.885
31
0
0
LINE
8
0
62
1
10
52.817
20
4.885
30
0
11
52.86
21
4.793
31
0
0
LINE
8
0
62
1
10
52.86
20
4.793
30
0
11
52.895
21
4.698
31
0
0
LINE
8
0
62
1
10
52.895
20
4.698
30
0
11
52.922
21
4.601
31
0
0
LINE
8
0
62
1
10
52.922
20
4.601
30
0
11
52.942
21
4.502
31
0
0
LINE
8
0
62
1
10
52.942
20
4.502
30
0
11
52.954
21
4.401
31
0
0
LINE
8
0
62
1
10
52.954
20
4.401
30
0
11
52.958
21
4.3
31
0
0
LINE
8
0
62
1
10
52.958
20
4.3
30
0
11
52.958
21
-0.7
31
0
0
LINE
8
0
62
1
10
90.969
20
-0.912
30
0
11
91.07
21
-0.916
31
0
0
LINE
8
0
62
1
10
91.07
20
-0.916
30
0
11
91.171
21
-0.928
31
0
0
LINE
8
0
62
1
10
91.171
20
-0.928
30
0
11
91.27
21
-0.947
31
0
0
LINE
8
0
62
1
10
91.27
20
-0.947
30
0
11
91.367
21
-0.975
31
0
0
LINE
8
0
62
1
10
91.367
20
-0.975
30
0
11
91.462
21
-1.01
31
0
0
LINE
8
0
62
1
10
91.462
20
-1.01
30
0
11
91.554
21
-1.052
31
0
0
LINE
8
0
62
1
10
91.554
20
-1.052
30
0
11
91.642
21
-1.102
31
0
0
LINE
8
0
62
1
10
91.642
20
-1.102
30
0
11
91.726
21
-1.158
31
0
0
LINE
8
0
62
1
10
91.726
20
-1.158
30
0
11
91.806
21
-1.221
31
0
0
LINE
8
0
62
1
10
91.806
20
-1.221
30
0
11
91.88
21
-1.289
31
0
0
LINE
8
0
62
1
10
91.88
20
-1.289
30
0
11
91.949
21
-1.363
31
0
0
LINE
8
0
62
1
10
91.949
20
-1.363
30
0
11
92.011
21
-1.443
31
0
0
LINE
8
0
62
1
10
92.011
20
-1.443
30
0
11
92.068
21
-1.527
31
0
0
LINE
8
0
62
1
10
92.068
20
-1.527
30
0
11
92.117
21
-1.615
31
0
0
LINE
8
0
62
1
10
92.117
20
-1.615
30
0
11
92.159
21
-1.707
31
0
0
LINE
8
0
62
1
10
92.159
20
-1.707
30
0
11
92.194
21
-1.802
31
0
0
LINE
8
0
62
1
10
92.194
20
-1.802
30
0
11
92.222
21
-1.899
31
0
0
LINE
8
0
62
1
10
92.222
20
-1.899
30
0
11
92.242
21
-1.998
31
0
0
LINE
8
0
62
1
10
92.242
20
-1.998
30
0
11
92.253
21
-2.099
31
0
0
LINE
8
0
62
1
10
92.253
20
-2.099
30
0
11
92.257
21
-2.2
31
0
0
LINE
8
0
62
1
10
92.257
20
-2.2
30
0
11
92.253
21
-2.301
31
0
0
LINE
8
0
62
1
10
92.253
20
-2.301
30
0
11
92.242
21
-2.402
31
0
0
LINE
8
0
62
1
10
92.242
20
-2.402
30
0
11
92.222
21
-2.501
31
0
0
LINE
8
0
62
1
10
92.222
20
-2.501
30
0
11
92.194
21
-2.598
31
0
0
LINE
8
0
62
1
10
92.194
20
-2.598
30
0
11
92.159
21
-2.693
31
0
0
LINE
8
0
62
1
10
92.159
20
-2.693
30
0
11
92.117
21
-2.785
31
0
0
LINE
8
0
62
1
10
92.117
20
-2.785
30
0
11
92.068
21
-2.873
31
0
0
LINE
8
0
62
1
10
92.068
20
-2.873
30
0
11
92.011
21
-2.957
31
0
0
LINE
8
0
62
1
10
92.011
20
-2.957
30
0
11
91.949
21
-3.037
31
0
0
LINE
8
0
62
1
10
91.949
20
-3.037
30
0
11
91.88
21
-3.111
31
0
0
LINE
8
0
62
1
10
91.88
20
-3.111
30
0
11
91.806
21
-3.179
31
0
0
LINE
8
0
62
1
10
91.806
20
-3.179
30
0
11
91.726
21
-3.242
31
0
0
LINE
8
0
62
1
10
91.726
20
-3.242
30
0
11
91.642
21
-3.298
31
0
0
LINE
8
0
62
1
10
91.642
20
-3.298
30
0
11
91.554
21
-3.348
31
0
0
LINE
8
0
62
1
10
91.554
20
-3.348
30
0
11
91.462
21
-3.39
31
0
0
LINE
8
0
62
1
10
91.462
20
-3.39
30
0
11
91.367
21
-3.425
31
0
0
LINE
8
0
62
1
10
91.367
20
-3.425
30
0
11
91.27
21
-3.453
31
0
0
LINE
8
0
62
1
10
91.27
20
-3.453
30
0
11
91.171
21
-3.472
31
0
0
LINE
8
0
62
1
10
91.171
20
-3.472
30
0
11
91.07
21
-3.484
31
0
0
LINE
8
0
62
1
10
91.07
20
-3.484
30
0
11
90.969
21
-3.488
31
0
0
LINE
8
0
62
1
10
90.969
20
-3.488
30
0
11
60.969
21
-3.488
31
0
0
LINE
8
0
62
1
10
60.969
20
-3.488
30
0
11
60.868
21
-3.484
31
0
0
LINE
8
0
62
1
10
60.868
20
-3.484
30
0
11
60.768
21
-3.472
31
0
0
LINE
8
0
62
1
10
60.768
20
-3.472
30
0
11
60.669
21
-3.453
31
0
0
LINE
8
0
62
1
10
60.669
20
-3.453
30
0
11
60.571
21
-3.425
31
0
0
LINE
8
0
62
1
10
60.571
20
-3.425
30
0
11
60.476
21
-3.39
31
0
0
LINE
8
0
62
1
10
60.476
20
-3.39
30
0
11
60.385
21
-3.348
31
0
0
LINE
8
0
62
1
10
60.385
20
-3.348
30
0
11
60.296
21
-3.298
31
0
0
LINE
8
0
62
1
10
60.296
20
-3.298
30
0
11
60.212
21
-3.242
31
0
0
LINE
8
0
62
1
10
60.212
20
-3.242
30
0
11
60.133
21
-3.179
31
0
0
LINE
8
0
62
1
10
60.133
20
-3.179
30
0
11
60.058
21
-3.111
31
0
0
LINE
8
0
62
1
10
60.058
20
-3.111
30
0
11
59.99
21
-3.037
31
0
0
LINE
8
0
62
1
10
59.99
20
-3.037
30
0
11
59.927
21
-2.957
31
0
0
LINE
8
0
62
1
10
59.927
20
-2.957
30
0
11
59.871
21
-2.873
31
0
0
LINE
8
0
62
1
10
59.871
20
-2.873
30
0
11
59.822
21
-2.785
31
0
0
LINE
8
0
62
1
10
59.822
20
-2.785
30
0
11
59.779
21
-2.693
31
0
0
LINE
8
0
62
1
10
59.779
20
-2.693
30
0
11
59.744
21
-2.598
31
0
0
LINE
8
0
62
1
10
59.744
20
-2.598
30
0
11
59.717
21
-2.501
31
0
0
LINE
8
0
62
1
10
59.717
20
-2.501
30
0
11
59.697
21
-2.402
31
0
0
LINE
8
0
62
1
10
59.697
20
-2.402
30
0
11
59.685
21
-2.301
31
0
0
LINE
8
0
62
1
10
59.685
20
-2.301
30
0
11
59.681
21
-2.2
31
0
0
LINE
8
0
62
1
10
59.681
20
-2.2
30
0
11
59.685
21
-2.099
31
0
0
LINE
8
0
62
1
10
59.685
20
-2.099
30
0
11
59.697
21
-1.998
31
0
0
LINE
8
0
62
1
10
59.697
20
-1.998
30
0
11
59.717
21
-1.899
31
0
0
LINE
8
0
62
1
10
59.717
20
-1.899
30
0
11
59.744
21
-1.802
31
0
0
LINE
8
0
62
1
10
59.744
20
-1.802
30
0
11
59.779
21
-1.707
31
0
0
LINE
8
0
62
1
10
59.779
20
-1.707
30
0
11
59.822
21
-1.615
31
0
0
LINE
8
0
62
1
10
59.822
20
-1.615
30
0
11
59.871
21
-1.527
31
0
0
LINE
8
0
62
1
10
59.871
20
-1.527
30
0
11
59.927
21
-1.443
31
0
0
LINE
8
0
62
1
10
59.927
20
-1.443
30
0
11
59.99
21
-1.363
31
0
0
LINE
8
0
62
1
10
59.99
20
-1.363
30
0
11
60.058
21
-1.289
31
0
0
LINE
8
0
62
1
10
60.058
20
-1.289
30
0
11
60.133
21
-1.221
31
0
0
LINE
8
0
62
1
10
60.133
20
-1.221
30
0
11
60.212
21
-1.158
31
0
0
LINE
8
0
62
1
10
60.212
20
-1.158
30
0
11
60.296
21
-1.102
31
0
0
LINE
8
0
62
1
10
60.296
20
-1.102
30
0
11
60.385
21
-1.052
31
0
0
LINE
8
0
62
1
10
60.385
20
-1.052
30
0
11
60.476
21
-1.01
31
0
0
LINE
8
0
62
1
10
60.476
20
-1.01
30
0
11
60.571
21
-0.975
31
0
0
LINE
8
0
62
1
10
60.571
20
-0.975
30
0
11
60.669
21
-0.947
31
0
0
LINE
8
0
62
1
10
60.669
20
-0.947
30
0
11
60.768
21
-0.928
31
0
0
LINE
8
0
62
1
10
60.768
20
-0.928
30
0
11
60.868
21
-0.916
31
0
0
LINE
8
0
62
1
10
60.868
20
-0.916
30
0
11
60.969
21
-0.912
31
0
0
LINE
8
0
62
1
10
60.969
20
-0.912
30
0
11
90.969
21
-0.912
31
0
0
LINE
8
0
62
1
10
95.109
20
1.825
30
0
11
95.109
21
4.3
31
0
0
LINE
8
0
62
1
10
95.109
20
4.3
30
0
11
95.113
21
4.401
31
0
0
LINE
8
0
62
1
10
95.113
20
4.401
30
0
11
95.125
21
4.502
31
0
0
LINE
8
0
62
1
10
95.125
20
4.502
30
0
11
95.145
21
4.601
31
0
0
LINE
8
0
62
1
10
95.145
20
4.601
30
0
11
95.172
21
4.698
31
0
0
LINE
8
0
62
1
10
95.172
20
4.698
30
0
11
95.207
21
4.793
31
0
0
LINE
8
0
62
1
10
95.207
20
4.793
30
0
11
95.25
21
4.885
31
0
0
LINE
8
0
62
1
10
95.25
20
4.885
30
0
11
95.299
21
4.973
31
0
0
LINE
8
0
62
1
10
95.299
20
4.973
30
0
11
95.355
21
5.057
31
0
0
LINE
8
0
62
1
10
95.355
20
5.057
30
0
11
95.418
21
5.137
31
0
0
LINE
8
0
62
1
10
95.418
20
5.137
30
0
11
95.487
21
5.211
31
0
0
LINE
8
0
62
1
10
95.487
20
5.211
30
0
11
95.561
21
5.279
31
0
0
LINE
8
0
62
1
10
95.561
20
5.279
30
0
11
95.64
21
5.342
31
0
0
LINE
8
0
62
1
10
95.64
20
5.342
30
0
11
95.724
21
5.398
31
0
0
LINE
8
0
62
1
10
95.724
20
5.398
30
0
11
95.813
21
5.448
31
0
0
LINE
8
0
62
1
10
95.813
20
5.448
30
0
11
95.905
21
5.49
31
0
0
LINE
8
0
62
1
10
95.905
20
5.49
30
0
11
95.999
21
5.525
31
0
0
LINE
8
0
62
1
10
95.999
20
5.525
30
0
11
96.097
21
5.553
31
0
0
LINE
8
0
62
1
10
96.097
20
5.553
30
0
11
96.196
21
5.572
31
0
0
LINE
8
0
62
1
10
96.196
20
5.572
30
0
11
96.296
21
5.584
31
0
0
LINE
8
0
62
1
10
96.296
20
5.584
30
0
11
96.397
21
5.588
31
0
0
LINE
8
0
62
1
10
96.397
20
5.588
30
0
11
96.499
21
5.584
31
0
0
LINE
8
0
62
1
10
96.499
20
5.584
30
0
11
96.599
21
5.572
31
0
0
LINE
8
0
62
1
10
96.599
20
5.572
30
0
11
96.698
21
5.553
31
0
0
LINE
8
0
62
1
10
96.698
20
5.553
30
0
11
96.796
21
5.525
31
0
0
LINE
8
0
62
1
10
96.796
20
5.525
30
0
11
96.89
21
5.49
31
0
0
LINE
8
0
62
1
10
96.89
20
5.49
30
0
11
96.982
21
5.448
31
0
0
LINE
8
0
62
1
10
96.982
20
5.448
30
0
11
97.071
21
5.398
31
0
0
LINE
8
0
62
1
10
97.071
20
5.398
30
0
11
97.155
21
5.342
31
0
0
LINE
8
0
62
1
10
97.155
20
5.342
30
0
11
97.234
21
5.279
31
0
0
LINE
8
0
62
1
10
97.234
20
5.279
30
0
11
97.308
21
5.211
31
0
0
LINE
8
0
62
1
10
97.308
20
5.211
30
0
11
97.377
21
5.137
31
0
0
LINE
8
0
62
1
10
97.377
20
5.137
30
0
11
97.44
21
5.057
31
0
0
LINE
8
0
62
1
10
97.44
20
5.057
30
0
11
97.496
21
4.973
31
0
0
LINE
8
0
62
1
10
97.496
20
4.973
30
0
11
97.545
21
4.885
31
0
0
LINE
8
0
62
1
10
97.545
20
4.885
30
0
11
97.588
21
4.793
31
0
0
LINE
8
0
62
1
10
97.588
20
4.793
30
0
11
97.623
21
4.698
31
0
0
LINE
8
0
62
1
10
97.623
20
4.698
30
0
11
97.65
21
4.601
31
0
0
LINE
8
0
62
1
10
97.65
20
4.601
30
0
11
97.67
21
4.502
31
0
0
LINE
8
0
62
1
10
97.67
20
4.502
30
0
11
97.682
21
4.401
31
0
0
LINE
8
0
62
1
10
97.682
20
4.401
30
0
11
97.686
21
4.3
31
0
0
LINE
8
0
62
1
10
97.686
20
4.3
30
0
11
97.686
21
-2.2
31
0
0
LINE
8
0
62
1
10
97.686
20
-2.2
30
0
11
97.682
21
-2.301
31
0
0
LINE
8
0
62
1
10
97.682
20
-2.301
30
0
11
97.67
21
-2.402
31
0
0
LINE
8
0
62
1
10
97.67
20
-2.402
30
0
11
97.65
21
-2.501
31
0
0
LINE
8
0
62
1
10
97.65
20
-2.501
30
0
11
97.623
21
-2.598
31
0
0
LINE
8
0
62
1
10
97.623
20
-2.598
30
0
11
97.588
21
-2.693
31
0
0
LINE
8
0
62
1
10
97.588
20
-2.693
30
0
11
97.545
21
-2.785
31
0
0
LINE
8
0
62
1
10
97.545
20
-2.785
30
0
11
97.496
21
-2.873
31
0
0
LINE
8
0
62
1
10
97.496
20
-2.873
30
0
11
97.44
21
-2.957
31
0
0
LINE
8
0
62
1
10
97.44
20
-2.957
30
0
11
97.377
21
-3.037
31
0
0
LINE
8
0
62
1
10
97.377
20
-3.037
30
0
11
97.308
21
-3.111
31
0
0
LINE
8
0
62
1
10
97.308
20
-3.111
30
0
11
97.234
21
-3.179
31
0
0
LINE
8
0
62
1
10
97.234
20
-3.179
30
0
11
97.155
21
-3.242
31
0
0
LINE
8
0
62
1
10
97.155
20
-3.242
30
0
11
97.071
21
-3.298
31
0
0
LINE
8
0
62
1
10
97.071
20
-3.298
30
0
11
96.982
21
-3.348
31
0
0
LINE
8
0
62
1
10
96.982
20
-3.348
30
0
11
96.89
21
-3.39
31
0
0
LINE
8
0
62
1
10
96.89
20
-3.39
30
0
11
96.796
21
-3.425
31
0
0
LINE
8
0
62
1
10
96.796
20
-3.425
30
0
11
96.698
21
-3.453
31
0
0
LINE
8
0
62
1
10
96.698
20
-3.453
30
0
11
96.599
21
-3.472
31
0
0
LINE
8
0
62
1
10
96.599
20
-3.472
30
0
11
96.499
21
-3.484
31
0
0
LINE
8
0
62
1
10
96.499
20
-3.484
30
0
11
96.397
21
-3.488
31
0
0
LINE
8
0
62
1
10
96.397
20
-3.488
30
0
11
96.296
21
-3.484
31
0
0
LINE
8
0
62
1
10
96.296
20
-3.484
30
0
11
96.196
21
-3.472
31
0
0
LINE
8
0
62
1
10
96.196
20
-3.472
30
0
11
96.097
21
-3.453
31
0
0
LINE
8
0
62
1
10
96.097
20
-3.453
30
0
11
95.999
21
-3.425
31
0
0
LINE
8
0
62
1
10
95.999
20
-3.425
30
0
11
95.905
21
-3.39
31
0
0
LINE
8
0
62
1
10
95.905
20
-3.39
30
0
11
95.813
21
-3.348
31
0
0
LINE
8
0
62
1
10
95.813
20
-3.348
30
0
11
95.724
21
-3.298
31
0
0
LINE
8
0
62
1
10
95.724
20
-3.298
30
0
11
95.64
21
-3.242
31
0
0
LINE
8
0
62
1
10
95.64
20
-3.242
30
0
11
95.561
21
-3.179
31
0
0
LINE
8
0
62
1
10
95.561
20
-3.179
30
0
11
95.487
21
-3.111
31
0
0
LINE
8
0
62
1
10
95.487
20
-3.111
30
0
11
95.418
21
-3.037
31
0
0
LINE
8
0
62
1
10
95.418
20
-3.037
30
0
11
95.355
21
-2.957
31
0
0
LINE
8
0
62
1
10
95.355
20
-2.957
30
0
11
95.299
21
-2.873
31
0
0
LINE
8
0
62
1
10
95.299
20
-2.873
30
0
11
95.25
21
-2.785
31
0
0
LINE
8
0
62
1
10
95.25
20
-2.785
30
0
11
95.207
21
-2.693
31
0
0
LINE
8
0
62
1
10
95.207
20
-2.693
30
0
11
95.172
21
-2.598
31
0
0
LINE
8
0
62
1
10
95.172
20
-2.598
30
0
11
95.145
21
-2.501
31
0
0
LINE
8
0
62
1
10
95.145
20
-2.501
30
0
11
95.125
21
-2.402
31
0
0
LINE
8
0
62
1
10
95.125
20
-2.402
30
0
11
95.113
21
-2.301
31
0
0
LINE
8
0
62
1
10
95.113
20
-2.301
30
0
11
95.109
21
-2.2
31
0
0
LINE
8
0
62
1
10
95.109
20
-2.2
30
0
11
95.109
21
1.825
31
0
0
LINE
8
0
62
1
10
92.111
20
3.634
30
0
11
92.059
21
3.555
31
0
0
LINE
8
0
62
1
10
92.059
20
3.555
30
0
11
92.002
21
3.48
31
0
0
LINE
8
0
62
1
10
92.002
20
3.48
30
0
11
91.939
21
3.41
31
0
0
LINE
8
0
62
1
10
91.939
20
3.41
30
0
11
91.871
21
3.344
31
0
0
LINE
8
0
62
1
10
91.871
20
3.344
30
0
11
91.799
21
3.283
31
0
0
LINE
8
0
62
1
10
91.799
20
3.283
30
0
11
91.722
21
3.228
31
0
0
LINE
8
0
62
1
10
91.722
20
3.228
30
0
11
91.641
21
3.178
31
0
0
LINE
8
0
62
1
10
91.641
20
3.178
30
0
11
91.557
21
3.135
31
0
0
LINE
8
0
62
1
10
91.557
20
3.135
30
0
11
91.471
21
3.098
31
0
0
LINE
8
0
62
1
10
91.471
20
3.098
30
0
11
91.381
21
3.067
31
0
0
LINE
8
0
62
1
10
91.381
20
3.067
30
0
11
91.29
21
3.043
31
0
0
LINE
8
0
62
1
10
91.29
20
3.043
30
0
11
91.197
21
3.026
31
0
0
LINE
8
0
62
1
10
91.197
20
3.026
30
0
11
91.103
21
3.015
31
0
0
LINE
8
0
62
1
10
91.103
20
3.015
30
0
11
91.008
21
3.012
31
0
0
LINE
8
0
62
1
10
91.008
20
3.012
30
0
11
61.008
21
3.012
31
0
0
LINE
8
0
62
1
10
61.008
20
3.012
30
0
11
60.907
21
3.016
31
0
0
LINE
8
0
62
1
10
60.907
20
3.016
30
0
11
60.807
21
3.028
31
0
0
LINE
8
0
62
1
10
60.807
20
3.028
30
0
11
60.708
21
3.047
31
0
0
LINE
8
0
62
1
10
60.708
20
3.047
30
0
11
60.61
21
3.075
31
0
0
LINE
8
0
62
1
10
60.61
20
3.075
30
0
11
60.515
21
3.11
31
0
0
LINE
8
0
62
1
10
60.515
20
3.11
30
0
11
60.423
21
3.152
31
0
0
LINE
8
0
62
1
10
60.423
20
3.152
30
0
11
60.335
21
3.202
31
0
0
LINE
8
0
62
1
10
60.335
20
3.202
30
0
11
60.251
21
3.258
31
0
0
LINE
8
0
62
1
10
60.251
20
3.258
30
0
11
60.172
21
3.321
31
0
0
LINE
8
0
62
1
10
60.172
20
3.321
30
0
11
60.097
21
3.389
31
0
0
LINE
8
0
62
1
10
60.097
20
3.389
30
0
11
60.029
21
3.463
31
0
0
LINE
8
0
62
1
10
60.029
20
3.463
30
0
11
59.966
21
3.543
31
0
0
LINE
8
0
62
1
10
59.966
20
3.543
30
0
11
59.91
21
3.627
31
0
0
LINE
8
0
62
1
10
59.91
20
3.627
30
0
11
59.86
21
3.715
31
0
0
LINE
8
0
62
1
10
59.86
20
3.715
30
0
11
59.818
21
3.807
31
0
0
LINE
8
0
62
1
10
59.818
20
3.807
30
0
11
59.783
21
3.902
31
0
0
LINE
8
0
62
1
10
59.783
20
3.902
30
0
11
59.756
21
3.999
31
0
0
LINE
8
0
62
1
10
59.756
20
3.999
30
0
11
59.736
21
4.098
31
0
0
LINE
8
0
62
1
10
59.736
20
4.098
30
0
11
59.724
21
4.199
31
0
0
LINE
8
0
62
1
10
59.724
20
4.199
30
0
11
59.72
21
4.3
31
0
0
LINE
8
0
62
1
10
59.72
20
4.3
30
0
11
59.724
21
4.401
31
0
0
LINE
8
0
62
1
10
59.724
20
4.401
30
0
11
59.736
21
4.502
31
0
0
LINE
8
0
62
1
10
59.736
20
4.502
30
0
11
59.756
21
4.601
31
0
0
LINE
8
0
62
1
10
59.756
20
4.601
30
0
11
59.783
21
4.698
31
0
0
LINE
8
0
62
1
10
59.783
20
4.698
30
0
11
59.818
21
4.793
31
0
0
LINE
8
0
62
1
10
59.818
20
4.793
30
0
11
59.86
21
4.885
31
0
0
LINE
8
0
62
1
10
59.86
20
4.885
30
0
11
59.91
21
4.973
31
0
0
LINE
8
0
62
1
10
59.91
20
4.973
30
0
11
59.966
21
5.057
31
0
0
LINE
8
0
62
1
10
59.966
20
5.057
30
0
11
60.029
21
5.137
31
0
0
LINE
8
0
62
1
10
60.029
20
5.137
30
0
11
60.097
21
5.211
31
0
0
LINE
8
0
62
1
10
60.097
20
5.211
30
0
11
60.172
21
5.279
31
0
0
LINE
8
0
62
1
10
60.172
20
5.279
30
0
11
60.251
21
5.342
31
0
0
LINE
8
0
62
1
10
60.251
20
5.342
30
0
11
60.335
21
5.398
31
0
0
LINE
8
0
62
1
10
60.335
20
5.398
30
0
11
60.423
21
5.448
31
0
0
LINE
8
0
62
1
10
60.423
20
5.448
30
0
11
60.515
21
5.49
31
0
0
LINE
8
0
62
1
10
60.515
20
5.49
30
0
11
60.61
21
5.525
31
0
0
LINE
8
0
62
1
10
60.61
20
5.525
30
0
11
60.708
21
5.553
31
0
0
LINE
8
0
62
1
10
60.708
20
5.553
30
0
11
60.807
21
5.572
31
0
0
LINE
8
0
62
1
10
60.807
20
5.572
30
0
11
60.907
21
5.584
31
0
0
LINE
8
0
62
1
10
60.907
20
5.584
30
0
11
61.008
21
5.588
31
0
0
LINE
8
0
62
1
10
61.008
20
5.588
30
0
11
91.008
21
5.588
31
0
0
LINE
8
0
62
1
10
91.008
20
5.588
30
0
11
91.109
21
5.584
31
0
0
LINE
8
0
62
1
10
91.109
20
5.584
30
0
11
91.209
21
5.572
31
0
0
LINE
8
0
62
1
10
91.209
20
5.572
30
0
11
91.308
21
5.553
31
0
0
LINE
8
0
62
1
10
91.308
20
5.553
30
0
11
91.405
21
5.525
31
0
0
LINE
8
0
62
1
10
91.405
20
5.525
30
0
11
91.5
21
5.491
31
0
0
LINE
8
0
62
1
10
91.5
20
5.491
30
0
11
91.591
21
5.449
31
0
0
LINE
8
0
62
1
10
91.591
20
5.449
30
0
11
91.679
21
5.399
31
0
0
LINE
8
0
62
1
10
91.679
20
5.399
30
0
11
91.763
21
5.344
31
0
0
LINE
8
0
62
1
10
91.763
20
5.344
30
0
11
91.843
21
5.281
31
0
0
LINE
8
0
62
1
10
91.843
20
5.281
30
0
11
91.917
21
5.213
31
0
0
LINE
8
0
62
1
10
91.917
20
5.213
30
0
11
91.985
21
5.139
31
0
0
LINE
8
0
62
1
10
91.985
20
5.139
30
0
11
92.048
21
5.06
31
0
0
LINE
8
0
62
1
10
92.048
20
5.06
30
0
11
92.104
21
4.977
31
0
0
LINE
8
0
62
1
10
92.104
20
4.977
30
0
11
92.154
21
4.889
31
0
0
LINE
8
0
62
1
10
92.154
20
4.889
30
0
11
92.196
21
4.797
31
0
0
LINE
8
0
62
1
10
92.196
20
4.797
30
0
11
92.232
21
4.703
31
0
0
LINE
8
0
62
1
10
92.232
20
4.703
30
0
11
92.259
21
4.606
31
0
0
LINE
8
0
62
1
10
92.259
20
4.606
30
0
11
92.28
21
4.507
31
0
0
LINE
8
0
62
1
10
92.28
20
4.507
30
0
11
92.292
21
4.407
31
0
0
LINE
8
0
62
1
10
92.292
20
4.407
30
0
11
92.296
21
4.307
31
0
0
LINE
8
0
62
1
10
92.296
20
4.307
30
0
11
92.293
21
4.206
31
0
0
LINE
8
0
62
1
10
92.293
20
4.206
30
0
11
92.282
21
4.106
31
0
0
LINE
8
0
62
1
10
92.282
20
4.106
30
0
11
92.262
21
4.007
31
0
0
LINE
8
0
62
1
10
92.262
20
4.007
30
0
11
92.236
21
3.909
31
0
0
LINE
8
0
62
1
10
92.236
20
3.909
30
0
11
92.201
21
3.815
31
0
0
LINE
8
0
62
1
10
92.201
20
3.815
30
0
11
92.16
21
3.723
31
0
0
LINE
8
0
62
1
10
92.16
20
3.723
30
0
11
92.111
21
3.634
31
0
0
LINE
8
0
62
1
10
92.111
20
7.538
30
0
11
106.667
21
7.538
31
0
0
LINE
8
0
62
1
10
106.667
20
7.538
30
0
11
106.682
21
7.535
31
0
0
LINE
8
0
62
1
10
106.682
20
7.535
30
0
11
106.694
21
7.527
31
0
0
LINE
8
0
62
1
10
106.694
20
7.527
30
0
11
106.702
21
7.515
31
0
0
LINE
8
0
62
1
10
106.702
20
7.515
30
0
11
106.705
21
7.5
31
0
0
LINE
8
0
62
1
10
106.705
20
7.5
30
0
11
106.705
21
3.75
31
0
0
LINE
8
0
62
1
10
106.705
20
3.75
30
0
11
106.702
21
3.735
31
0
0
LINE
8
0
62
1
10
106.702
20
3.735
30
0
11
106.694
21
3.723
31
0
0
LINE
8
0
62
1
10
106.694
20
3.723
30
0
11
106.682
21
3.715
31
0
0
LINE
8
0
62
1
10
106.682
20
3.715
30
0
11
106.667
21
3.712
31
0
0
LINE
8
0
62
1
10
106.667
20
3.712
30
0
11
100.365
21
3.712
31
0
0
LINE
8
0
62
1
10
100.365
20
3.712
30
0
11
100.365
21
-3.712
31
0
0
LINE
8
0
62
1
10
100.365
20
-3.712
30
0
11
106.667
21
-3.712
31
0
0
LINE
8
0
62
1
10
106.667
20
-3.712
30
0
11
106.682
21
-3.715
31
0
0
LINE
8
0
62
1
10
106.682
20
-3.715
30
0
11
106.694
21
-3.723
31
0
0
LINE
8
0
62
1
10
106.694
20
-3.723
30
0
11
106.702
21
-3.735
31
0
0
LINE
8
0
62
1
10
106.702
20
-3.735
30
0
11
106.705
21
-3.75
31
0
0
LINE
8
0
62
1
10
106.705
20
-3.75
30
0
11
106.705
21
-7.5
31
0
0
LINE
8
0
62
1
10
106.705
20
-7.5
30
0
11
106.702
21
-7.515
31
0
0
LINE
8
0
62
1
10
106.702
20
-7.515
30
0
11
106.694
21
-7.527
31
0
0
LINE
8
0
62
1
10
106.694
20
-7.527
30
0
11
106.682
21
-7.535
31
0
0
LINE
8
0
62
1
10
106.682
20
-7.535
30
0
11
106.667
21
-7.538
31
0
0
LINE
8
0
62
1
10
106.667
20
-7.538
30
0
11
-106.667
21
-7.538
31
0
0
LINE
8
0
62
1
10
-106.667
20
-7.538
30
0
11
-106.682
21
-7.535
31
0
0
LINE
8
0
62
1
10
-106.682
20
-7.535
30
0
11
-106.694
21
-7.527
31
0
0
LINE
8
0
62
1
10
-106.694
20
-7.527
30
0
11
-106.702
21
-7.515
31
0
0
LINE
8
0
62
1
10
-106.702
20
-7.515
30
0
11
-106.705
21
-7.5
31
0
0
LINE
8
0
62
1
10
-106.705
20
-7.5
30
0
11
-106.705
21
-3.75
31
0
0
LINE
8
0
62
1
10
-106.705
20
-3.75
30
0
11
-106.702
21
-3.735
31
0
0
LINE
8
0
62
1
10
-106.702
20
-3.735
30
0
11
-106.694
21
-3.723
31
0
0
LINE
8
0
62
1
10
-106.694
20
-3.723
30
0
11
-106.682
21
-3.715
31
0
0
LINE
8
0
62
1
10
-106.682
20
-3.715
30
0
11
-106.667
21
-3.712
31
0
0
LINE
8
0
62
1
10
-106.667
20
-3.712
30
0
11
-100.365
21
-3.712
31
0
0
LINE
8
0
62
1
10
-100.365
20
-3.712
30
0
11
-100.365
21
3.712
31
0
0
LINE
8
0
62
1
10
-100.365
20
3.712
30
0
11
-106.667
21
3.712
31
0
0
LINE
8
0
62
1
10
-106.667
20
3.712
30
0
11
-106.682
21
3.715
31
0
0
LINE
8
0
62
1
10
-106.682
20
3.715
30
0
11
-106.694
21
3.723
31
0
0
LINE
8
0
62
1
10
-106.694
20
3.723
30
0
11
-106.702
21
3.735
31
0
0
LINE
8
0
62
1
10
-106.702
20
3.735
30
0
11
-106.705
21
3.75
31
0
0
LINE
8
0
62
1
10
-106.705
20
3.75
30
0
11
-106.705
21
7.5
31
0
0
LINE
8
0
62
1
10
-106.705
20
7.5
30
0
11
-106.702
21
7.515
31
0
0
LINE
8
0
62
1
10
-106.702
20
7.515
30
0
11
-106.694
21
7.527
31
0
0
LINE
8
0
62
1
10
-106.694
20
7.527
30
0
11
-106.682
21
7.535
31
0
0
LINE
8
0
62
1
10
-106.682
20
7.535
30
0
11
-106.667
21
7.538
31
0
0
LINE
8
0
62
1
10
-106.667
20
7.538
30
0
11
92.111
21
7.538
31
0
0
ENDSEC
0
EOF
