999
Generated by Autodesk CAM - http://cam.autodesk.com
999
UNIT = MM
999
THICKNESS = 7.34
0
SECTION
2
HEADER
9
$ACADVER
1
AC1006
9
$ANGBASE
50
0
9
$ANGDIR
70
0
0
ENDSEC
0
SECTION
2
BLOCKS
0
ENDSEC
9
$EXTMIN
10
-106.705
20
-64.018
30
0
9
$EXTMAX
10
106.705
20
64.171
30
15
0
SECTION
2
ENTITIES
0
LINE
8
0
62
1
10
-22.538
20
63.98
30
0
11
-22.535
21
63.995
31
0
0
LINE
8
0
62
1
10
-22.535
20
63.995
30
0
11
-22.527
21
64.007
31
0
0
LINE
8
0
62
1
10
-22.527
20
64.007
30
0
11
-22.515
21
64.015
31
0
0
LINE
8
0
62
1
10
-22.515
20
64.015
30
0
11
-22.5
21
64.018
31
0
0
LINE
8
0
62
1
10
-22.5
20
64.018
30
0
11
-7.5
21
64.018
31
0
0
LINE
8
0
62
1
10
-7.5
20
64.018
30
0
11
-7.485
21
64.015
31
0
0
LINE
8
0
62
1
10
-7.485
20
64.015
30
0
11
-7.473
21
64.007
31
0
0
LINE
8
0
62
1
10
-7.473
20
64.007
30
0
11
-7.465
21
63.995
31
0
0
LINE
8
0
62
1
10
-7.465
20
63.995
30
0
11
-7.462
21
63.98
31
0
0
LINE
8
0
62
1
10
-7.462
20
63.98
30
0
11
-7.462
21
51.338
31
0
0
LINE
8
0
62
1
10
-7.462
20
51.338
30
0
11
7.462
21
51.338
31
0
0
LINE
8
0
62
1
10
7.462
20
51.338
30
0
11
7.462
21
63.98
31
0
0
LINE
8
0
62
1
10
7.462
20
63.98
30
0
11
7.465
21
63.995
31
0
0
LINE
8
0
62
1
10
7.465
20
63.995
30
0
11
7.473
21
64.007
31
0
0
LINE
8
0
62
1
10
7.473
20
64.007
30
0
11
7.485
21
64.015
31
0
0
LINE
8
0
62
1
10
7.485
20
64.015
30
0
11
7.5
21
64.018
31
0
0
LINE
8
0
62
1
10
7.5
20
64.018
30
0
11
22.5
21
64.018
31
0
0
LINE
8
0
62
1
10
22.5
20
64.018
30
0
11
22.515
21
64.015
31
0
0
LINE
8
0
62
1
10
22.515
20
64.015
30
0
11
22.527
21
64.007
31
0
0
LINE
8
0
62
1
10
22.527
20
64.007
30
0
11
22.535
21
63.995
31
0
0
LINE
8
0
62
1
10
22.535
20
63.995
30
0
11
22.538
21
63.98
31
0
0
LINE
8
0
62
1
10
22.538
20
63.98
30
0
11
22.538
21
51.338
31
0
0
LINE
8
0
62
1
10
22.538
20
51.338
30
0
11
37.462
21
51.338
31
0
0
LINE
8
0
62
1
10
37.462
20
51.338
30
0
11
37.462
21
63.98
31
0
0
LINE
8
0
62
1
10
37.462
20
63.98
30
0
11
37.465
21
63.995
31
0
0
LINE
8
0
62
1
10
37.465
20
63.995
30
0
11
37.473
21
64.007
31
0
0
LINE
8
0
62
1
10
37.473
20
64.007
30
0
11
37.485
21
64.015
31
0
0
LINE
8
0
62
1
10
37.485
20
64.015
30
0
11
37.5
21
64.018
31
0
0
LINE
8
0
62
1
10
37.5
20
64.018
30
0
11
52.5
21
64.018
31
0
0
LINE
8
0
62
1
10
52.5
20
64.018
30
0
11
52.515
21
64.015
31
0
0
LINE
8
0
62
1
10
52.515
20
64.015
30
0
11
52.527
21
64.007
31
0
0
LINE
8
0
62
1
10
52.527
20
64.007
30
0
11
52.535
21
63.995
31
0
0
LINE
8
0
62
1
10
52.535
20
63.995
30
0
11
52.538
21
63.98
31
0
0
LINE
8
0
62
1
10
52.538
20
63.98
30
0
11
52.538
21
51.338
31
0
0
LINE
8
0
62
1
10
52.538
20
51.338
30
0
11
67.462
21
51.338
31
0
0
LINE
8
0
62
1
10
67.462
20
51.338
30
0
11
67.462
21
63.98
31
0
0
LINE
8
0
62
1
10
67.462
20
63.98
30
0
11
67.465
21
63.995
31
0
0
LINE
8
0
62
1
10
67.465
20
63.995
30
0
11
67.473
21
64.007
31
0
0
LINE
8
0
62
1
10
67.473
20
64.007
30
0
11
67.485
21
64.015
31
0
0
LINE
8
0
62
1
10
67.485
20
64.015
30
0
11
67.5
21
64.018
31
0
0
LINE
8
0
62
1
10
67.5
20
64.018
30
0
11
82.5
21
64.018
31
0
0
LINE
8
0
62
1
10
82.5
20
64.018
30
0
11
82.515
21
64.015
31
0
0
LINE
8
0
62
1
10
82.515
20
64.015
30
0
11
82.527
21
64.007
31
0
0
LINE
8
0
62
1
10
82.527
20
64.007
30
0
11
82.535
21
63.995
31
0
0
LINE
8
0
62
1
10
82.535
20
63.995
30
0
11
82.538
21
63.98
31
0
0
LINE
8
0
62
1
10
82.538
20
63.98
30
0
11
82.538
21
51.338
31
0
0
LINE
8
0
62
1
10
82.538
20
51.338
30
0
11
97.462
21
51.338
31
0
0
LINE
8
0
62
1
10
97.462
20
51.338
30
0
11
97.462
21
63.98
31
0
0
LINE
8
0
62
1
10
97.462
20
63.98
30
0
11
97.465
21
63.995
31
0
0
LINE
8
0
62
1
10
97.465
20
63.995
30
0
11
97.473
21
64.007
31
0
0
LINE
8
0
62
1
10
97.473
20
64.007
30
0
11
97.485
21
64.015
31
0
0
LINE
8
0
62
1
10
97.485
20
64.015
30
0
11
97.5
21
64.018
31
0
0
LINE
8
0
62
1
10
97.5
20
64.018
30
0
11
106.667
21
64.018
31
0
0
LINE
8
0
62
1
10
106.667
20
64.018
30
0
11
106.682
21
64.015
31
0
0
LINE
8
0
62
1
10
106.682
20
64.015
30
0
11
106.694
21
64.007
31
0
0
LINE
8
0
62
1
10
106.694
20
64.007
30
0
11
106.702
21
63.995
31
0
0
LINE
8
0
62
1
10
106.702
20
63.995
30
0
11
106.705
21
63.98
31
0
0
LINE
8
0
62
1
10
106.705
20
63.98
30
0
11
106.705
21
37.5
31
0
0
LINE
8
0
62
1
10
106.705
20
37.5
30
0
11
106.702
21
37.485
31
0
0
LINE
8
0
62
1
10
106.702
20
37.485
30
0
11
106.694
21
37.473
31
0
0
LINE
8
0
62
1
10
106.694
20
37.473
30
0
11
106.682
21
37.465
31
0
0
LINE
8
0
62
1
10
106.682
20
37.465
30
0
11
106.667
21
37.462
31
0
0
LINE
8
0
62
1
10
106.667
20
37.462
30
0
11
100.365
21
37.462
31
0
0
LINE
8
0
62
1
10
100.365
20
37.462
30
0
11
100.365
21
22.538
31
0
0
LINE
8
0
62
1
10
100.365
20
22.538
30
0
11
106.667
21
22.538
31
0
0
LINE
8
0
62
1
10
106.667
20
22.538
30
0
11
106.682
21
22.535
31
0
0
LINE
8
0
62
1
10
106.682
20
22.535
30
0
11
106.694
21
22.527
31
0
0
LINE
8
0
62
1
10
106.694
20
22.527
30
0
11
106.702
21
22.515
31
0
0
LINE
8
0
62
1
10
106.702
20
22.515
30
0
11
106.705
21
22.5
31
0
0
LINE
8
0
62
1
10
106.705
20
22.5
30
0
11
106.705
21
7.5
31
0
0
LINE
8
0
62
1
10
106.705
20
7.5
30
0
11
106.702
21
7.485
31
0
0
LINE
8
0
62
1
10
106.702
20
7.485
30
0
11
106.694
21
7.473
31
0
0
LINE
8
0
62
1
10
106.694
20
7.473
30
0
11
106.682
21
7.465
31
0
0
LINE
8
0
62
1
10
106.682
20
7.465
30
0
11
106.667
21
7.462
31
0
0
LINE
8
0
62
1
10
106.667
20
7.462
30
0
11
100.365
21
7.462
31
0
0
LINE
8
0
62
1
10
100.365
20
7.462
30
0
11
100.365
21
-7.462
31
0
0
LINE
8
0
62
1
10
100.365
20
-7.462
30
0
11
106.667
21
-7.462
31
0
0
LINE
8
0
62
1
10
106.667
20
-7.462
30
0
11
106.682
21
-7.465
31
0
0
LINE
8
0
62
1
10
106.682
20
-7.465
30
0
11
106.694
21
-7.473
31
0
0
LINE
8
0
62
1
10
106.694
20
-7.473
30
0
11
106.702
21
-7.485
31
0
0
LINE
8
0
62
1
10
106.702
20
-7.485
30
0
11
106.705
21
-7.5
31
0
0
LINE
8
0
62
1
10
106.705
20
-7.5
30
0
11
106.705
21
-22.5
31
0
0
LINE
8
0
62
1
10
106.705
20
-22.5
30
0
11
106.702
21
-22.515
31
0
0
LINE
8
0
62
1
10
106.702
20
-22.515
30
0
11
106.694
21
-22.527
31
0
0
LINE
8
0
62
1
10
106.694
20
-22.527
30
0
11
106.682
21
-22.535
31
0
0
LINE
8
0
62
1
10
106.682
20
-22.535
30
0
11
106.667
21
-22.538
31
0
0
LINE
8
0
62
1
10
106.667
20
-22.538
30
0
11
100.365
21
-22.538
31
0
0
LINE
8
0
62
1
10
100.365
20
-22.538
30
0
11
100.365
21
-37.462
31
0
0
LINE
8
0
62
1
10
100.365
20
-37.462
30
0
11
106.667
21
-37.462
31
0
0
LINE
8
0
62
1
10
106.667
20
-37.462
30
0
11
106.682
21
-37.465
31
0
0
LINE
8
0
62
1
10
106.682
20
-37.465
30
0
11
106.694
21
-37.473
31
0
0
LINE
8
0
62
1
10
106.694
20
-37.473
30
0
11
106.702
21
-37.485
31
0
0
LINE
8
0
62
1
10
106.702
20
-37.485
30
0
11
106.705
21
-37.5
31
0
0
LINE
8
0
62
1
10
106.705
20
-37.5
30
0
11
106.705
21
-63.98
31
0
0
LINE
8
0
62
1
10
106.705
20
-63.98
30
0
11
106.702
21
-63.995
31
0
0
LINE
8
0
62
1
10
106.702
20
-63.995
30
0
11
106.694
21
-64.007
31
0
0
LINE
8
0
62
1
10
106.694
20
-64.007
30
0
11
106.682
21
-64.015
31
0
0
LINE
8
0
62
1
10
106.682
20
-64.015
30
0
11
106.667
21
-64.018
31
0
0
LINE
8
0
62
1
10
106.667
20
-64.018
30
0
11
97.5
21
-64.018
31
0
0
LINE
8
0
62
1
10
97.5
20
-64.018
30
0
11
97.485
21
-64.015
31
0
0
LINE
8
0
62
1
10
97.485
20
-64.015
30
0
11
97.473
21
-64.007
31
0
0
LINE
8
0
62
1
10
97.473
20
-64.007
30
0
11
97.465
21
-63.995
31
0
0
LINE
8
0
62
1
10
97.465
20
-63.995
30
0
11
97.462
21
-63.98
31
0
0
LINE
8
0
62
1
10
97.462
20
-63.98
30
0
11
97.462
21
-51.338
31
0
0
LINE
8
0
62
1
10
97.462
20
-51.338
30
0
11
82.538
21
-51.338
31
0
0
LINE
8
0
62
1
10
82.538
20
-51.338
30
0
11
82.538
21
-63.98
31
0
0
LINE
8
0
62
1
10
82.538
20
-63.98
30
0
11
82.535
21
-63.995
31
0
0
LINE
8
0
62
1
10
82.535
20
-63.995
30
0
11
82.527
21
-64.007
31
0
0
LINE
8
0
62
1
10
82.527
20
-64.007
30
0
11
82.515
21
-64.015
31
0
0
LINE
8
0
62
1
10
82.515
20
-64.015
30
0
11
82.5
21
-64.018
31
0
0
LINE
8
0
62
1
10
82.5
20
-64.018
30
0
11
67.5
21
-64.018
31
0
0
LINE
8
0
62
1
10
67.5
20
-64.018
30
0
11
67.485
21
-64.015
31
0
0
LINE
8
0
62
1
10
67.485
20
-64.015
30
0
11
67.473
21
-64.007
31
0
0
LINE
8
0
62
1
10
67.473
20
-64.007
30
0
11
67.465
21
-63.995
31
0
0
LINE
8
0
62
1
10
67.465
20
-63.995
30
0
11
67.462
21
-63.98
31
0
0
LINE
8
0
62
1
10
67.462
20
-63.98
30
0
11
67.462
21
-51.338
31
0
0
LINE
8
0
62
1
10
67.462
20
-51.338
30
0
11
52.538
21
-51.338
31
0
0
LINE
8
0
62
1
10
52.538
20
-51.338
30
0
11
52.538
21
-63.98
31
0
0
LINE
8
0
62
1
10
52.538
20
-63.98
30
0
11
52.535
21
-63.995
31
0
0
LINE
8
0
62
1
10
52.535
20
-63.995
30
0
11
52.527
21
-64.007
31
0
0
LINE
8
0
62
1
10
52.527
20
-64.007
30
0
11
52.515
21
-64.015
31
0
0
LINE
8
0
62
1
10
52.515
20
-64.015
30
0
11
52.5
21
-64.018
31
0
0
LINE
8
0
62
1
10
52.5
20
-64.018
30
0
11
37.5
21
-64.018
31
0
0
LINE
8
0
62
1
10
37.5
20
-64.018
30
0
11
37.485
21
-64.015
31
0
0
LINE
8
0
62
1
10
37.485
20
-64.015
30
0
11
37.473
21
-64.007
31
0
0
LINE
8
0
62
1
10
37.473
20
-64.007
30
0
11
37.465
21
-63.995
31
0
0
LINE
8
0
62
1
10
37.465
20
-63.995
30
0
11
37.462
21
-63.98
31
0
0
LINE
8
0
62
1
10
37.462
20
-63.98
30
0
11
37.462
21
-51.338
31
0
0
LINE
8
0
62
1
10
37.462
20
-51.338
30
0
11
22.538
21
-51.338
31
0
0
LINE
8
0
62
1
10
22.538
20
-51.338
30
0
11
22.538
21
-63.98
31
0
0
LINE
8
0
62
1
10
22.538
20
-63.98
30
0
11
22.535
21
-63.995
31
0
0
LINE
8
0
62
1
10
22.535
20
-63.995
30
0
11
22.527
21
-64.007
31
0
0
LINE
8
0
62
1
10
22.527
20
-64.007
30
0
11
22.515
21
-64.015
31
0
0
LINE
8
0
62
1
10
22.515
20
-64.015
30
0
11
22.5
21
-64.018
31
0
0
LINE
8
0
62
1
10
22.5
20
-64.018
30
0
11
7.5
21
-64.018
31
0
0
LINE
8
0
62
1
10
7.5
20
-64.018
30
0
11
7.485
21
-64.015
31
0
0
LINE
8
0
62
1
10
7.485
20
-64.015
30
0
11
7.473
21
-64.007
31
0
0
LINE
8
0
62
1
10
7.473
20
-64.007
30
0
11
7.465
21
-63.995
31
0
0
LINE
8
0
62
1
10
7.465
20
-63.995
30
0
11
7.462
21
-63.98
31
0
0
LINE
8
0
62
1
10
7.462
20
-63.98
30
0
11
7.462
21
-51.338
31
0
0
LINE
8
0
62
1
10
7.462
20
-51.338
30
0
11
-7.462
21
-51.338
31
0
0
LINE
8
0
62
1
10
-7.462
20
-51.338
30
0
11
-7.462
21
-63.98
31
0
0
LINE
8
0
62
1
10
-7.462
20
-63.98
30
0
11
-7.465
21
-63.995
31
0
0
LINE
8
0
62
1
10
-7.465
20
-63.995
30
0
11
-7.473
21
-64.007
31
0
0
LINE
8
0
62
1
10
-7.473
20
-64.007
30
0
11
-7.485
21
-64.015
31
0
0
LINE
8
0
62
1
10
-7.485
20
-64.015
30
0
11
-7.5
21
-64.018
31
0
0
LINE
8
0
62
1
10
-7.5
20
-64.018
30
0
11
-22.5
21
-64.018
31
0
0
LINE
8
0
62
1
10
-22.5
20
-64.018
30
0
11
-22.515
21
-64.015
31
0
0
LINE
8
0
62
1
10
-22.515
20
-64.015
30
0
11
-22.527
21
-64.007
31
0
0
LINE
8
0
62
1
10
-22.527
20
-64.007
30
0
11
-22.535
21
-63.995
31
0
0
LINE
8
0
62
1
10
-22.535
20
-63.995
30
0
11
-22.538
21
-63.98
31
0
0
LINE
8
0
62
1
10
-22.538
20
-63.98
30
0
11
-22.538
21
-51.338
31
0
0
LINE
8
0
62
1
10
-22.538
20
-51.338
30
0
11
-37.462
21
-51.338
31
0
0
LINE
8
0
62
1
10
-37.462
20
-51.338
30
0
11
-37.462
21
-63.98
31
0
0
LINE
8
0
62
1
10
-37.462
20
-63.98
30
0
11
-37.465
21
-63.995
31
0
0
LINE
8
0
62
1
10
-37.465
20
-63.995
30
0
11
-37.473
21
-64.007
31
0
0
LINE
8
0
62
1
10
-37.473
20
-64.007
30
0
11
-37.485
21
-64.015
31
0
0
LINE
8
0
62
1
10
-37.485
20
-64.015
30
0
11
-37.5
21
-64.018
31
0
0
LINE
8
0
62
1
10
-37.5
20
-64.018
30
0
11
-52.5
21
-64.018
31
0
0
LINE
8
0
62
1
10
-52.5
20
-64.018
30
0
11
-52.515
21
-64.015
31
0
0
LINE
8
0
62
1
10
-52.515
20
-64.015
30
0
11
-52.527
21
-64.007
31
0
0
LINE
8
0
62
1
10
-52.527
20
-64.007
30
0
11
-52.535
21
-63.995
31
0
0
LINE
8
0
62
1
10
-52.535
20
-63.995
30
0
11
-52.538
21
-63.98
31
0
0
LINE
8
0
62
1
10
-52.538
20
-63.98
30
0
11
-52.538
21
-51.338
31
0
0
LINE
8
0
62
1
10
-52.538
20
-51.338
30
0
11
-67.462
21
-51.338
31
0
0
LINE
8
0
62
1
10
-67.462
20
-51.338
30
0
11
-67.462
21
-63.98
31
0
0
LINE
8
0
62
1
10
-67.462
20
-63.98
30
0
11
-67.465
21
-63.995
31
0
0
LINE
8
0
62
1
10
-67.465
20
-63.995
30
0
11
-67.473
21
-64.007
31
0
0
LINE
8
0
62
1
10
-67.473
20
-64.007
30
0
11
-67.485
21
-64.015
31
0
0
LINE
8
0
62
1
10
-67.485
20
-64.015
30
0
11
-67.5
21
-64.018
31
0
0
LINE
8
0
62
1
10
-67.5
20
-64.018
30
0
11
-82.5
21
-64.018
31
0
0
LINE
8
0
62
1
10
-82.5
20
-64.018
30
0
11
-82.515
21
-64.015
31
0
0
LINE
8
0
62
1
10
-82.515
20
-64.015
30
0
11
-82.527
21
-64.007
31
0
0
LINE
8
0
62
1
10
-82.527
20
-64.007
30
0
11
-82.535
21
-63.995
31
0
0
LINE
8
0
62
1
10
-82.535
20
-63.995
30
0
11
-82.538
21
-63.98
31
0
0
LINE
8
0
62
1
10
-82.538
20
-63.98
30
0
11
-82.538
21
-51.338
31
0
0
LINE
8
0
62
1
10
-82.538
20
-51.338
30
0
11
-97.462
21
-51.338
31
0
0
LINE
8
0
62
1
10
-97.462
20
-51.338
30
0
11
-97.462
21
-63.98
31
0
0
LINE
8
0
62
1
10
-97.462
20
-63.98
30
0
11
-97.465
21
-63.995
31
0
0
LINE
8
0
62
1
10
-97.465
20
-63.995
30
0
11
-97.473
21
-64.007
31
0
0
LINE
8
0
62
1
10
-97.473
20
-64.007
30
0
11
-97.485
21
-64.015
31
0
0
LINE
8
0
62
1
10
-97.485
20
-64.015
30
0
11
-97.5
21
-64.018
31
0
0
LINE
8
0
62
1
10
-97.5
20
-64.018
30
0
11
-106.667
21
-64.018
31
0
0
LINE
8
0
62
1
10
-106.667
20
-64.018
30
0
11
-106.682
21
-64.015
31
0
0
LINE
8
0
62
1
10
-106.682
20
-64.015
30
0
11
-106.694
21
-64.007
31
0
0
LINE
8
0
62
1
10
-106.694
20
-64.007
30
0
11
-106.702
21
-63.995
31
0
0
LINE
8
0
62
1
10
-106.702
20
-63.995
30
0
11
-106.705
21
-63.98
31
0
0
LINE
8
0
62
1
10
-106.705
20
-63.98
30
0
11
-106.705
21
-37.5
31
0
0
LINE
8
0
62
1
10
-106.705
20
-37.5
30
0
11
-106.702
21
-37.485
31
0
0
LINE
8
0
62
1
10
-106.702
20
-37.485
30
0
11
-106.694
21
-37.473
31
0
0
LINE
8
0
62
1
10
-106.694
20
-37.473
30
0
11
-106.682
21
-37.465
31
0
0
LINE
8
0
62
1
10
-106.682
20
-37.465
30
0
11
-106.667
21
-37.462
31
0
0
LINE
8
0
62
1
10
-106.667
20
-37.462
30
0
11
-100.365
21
-37.462
31
0
0
LINE
8
0
62
1
10
-100.365
20
-37.462
30
0
11
-100.365
21
-22.538
31
0
0
LINE
8
0
62
1
10
-100.365
20
-22.538
30
0
11
-106.667
21
-22.538
31
0
0
LINE
8
0
62
1
10
-106.667
20
-22.538
30
0
11
-106.682
21
-22.535
31
0
0
LINE
8
0
62
1
10
-106.682
20
-22.535
30
0
11
-106.694
21
-22.527
31
0
0
LINE
8
0
62
1
10
-106.694
20
-22.527
30
0
11
-106.702
21
-22.515
31
0
0
LINE
8
0
62
1
10
-106.702
20
-22.515
30
0
11
-106.705
21
-22.5
31
0
0
LINE
8
0
62
1
10
-106.705
20
-22.5
30
0
11
-106.705
21
-7.5
31
0
0
LINE
8
0
62
1
10
-106.705
20
-7.5
30
0
11
-106.702
21
-7.485
31
0
0
LINE
8
0
62
1
10
-106.702
20
-7.485
30
0
11
-106.694
21
-7.473
31
0
0
LINE
8
0
62
1
10
-106.694
20
-7.473
30
0
11
-106.682
21
-7.465
31
0
0
LINE
8
0
62
1
10
-106.682
20
-7.465
30
0
11
-106.667
21
-7.462
31
0
0
LINE
8
0
62
1
10
-106.667
20
-7.462
30
0
11
-100.365
21
-7.462
31
0
0
LINE
8
0
62
1
10
-100.365
20
-7.462
30
0
11
-100.365
21
7.462
31
0
0
LINE
8
0
62
1
10
-100.365
20
7.462
30
0
11
-106.667
21
7.462
31
0
0
LINE
8
0
62
1
10
-106.667
20
7.462
30
0
11
-106.682
21
7.465
31
0
0
LINE
8
0
62
1
10
-106.682
20
7.465
30
0
11
-106.694
21
7.473
31
0
0
LINE
8
0
62
1
10
-106.694
20
7.473
30
0
11
-106.702
21
7.485
31
0
0
LINE
8
0
62
1
10
-106.702
20
7.485
30
0
11
-106.705
21
7.5
31
0
0
LINE
8
0
62
1
10
-106.705
20
7.5
30
0
11
-106.705
21
22.5
31
0
0
LINE
8
0
62
1
10
-106.705
20
22.5
30
0
11
-106.702
21
22.515
31
0
0
LINE
8
0
62
1
10
-106.702
20
22.515
30
0
11
-106.694
21
22.527
31
0
0
LINE
8
0
62
1
10
-106.694
20
22.527
30
0
11
-106.682
21
22.535
31
0
0
LINE
8
0
62
1
10
-106.682
20
22.535
30
0
11
-106.667
21
22.538
31
0
0
LINE
8
0
62
1
10
-106.667
20
22.538
30
0
11
-100.365
21
22.538
31
0
0
LINE
8
0
62
1
10
-100.365
20
22.538
30
0
11
-100.365
21
37.462
31
0
0
LINE
8
0
62
1
10
-100.365
20
37.462
30
0
11
-106.667
21
37.462
31
0
0
LINE
8
0
62
1
10
-106.667
20
37.462
30
0
11
-106.682
21
37.465
31
0
0
LINE
8
0
62
1
10
-106.682
20
37.465
30
0
11
-106.694
21
37.473
31
0
0
LINE
8
0
62
1
10
-106.694
20
37.473
30
0
11
-106.702
21
37.485
31
0
0
LINE
8
0
62
1
10
-106.702
20
37.485
30
0
11
-106.705
21
37.5
31
0
0
LINE
8
0
62
1
10
-106.705
20
37.5
30
0
11
-106.705
21
63.98
31
0
0
LINE
8
0
62
1
10
-106.705
20
63.98
30
0
11
-106.702
21
63.995
31
0
0
LINE
8
0
62
1
10
-106.702
20
63.995
30
0
11
-106.694
21
64.007
31
0
0
LINE
8
0
62
1
10
-106.694
20
64.007
30
0
11
-106.682
21
64.015
31
0
0
LINE
8
0
62
1
10
-106.682
20
64.015
30
0
11
-106.667
21
64.018
31
0
0
LINE
8
0
62
1
10
-106.667
20
64.018
30
0
11
-97.5
21
64.018
31
0
0
LINE
8
0
62
1
10
-97.5
20
64.018
30
0
11
-97.485
21
64.015
31
0
0
LINE
8
0
62
1
10
-97.485
20
64.015
30
0
11
-97.473
21
64.007
31
0
0
LINE
8
0
62
1
10
-97.473
20
64.007
30
0
11
-97.465
21
63.995
31
0
0
LINE
8
0
62
1
10
-97.465
20
63.995
30
0
11
-97.462
21
63.98
31
0
0
LINE
8
0
62
1
10
-97.462
20
63.98
30
0
11
-97.462
21
51.338
31
0
0
LINE
8
0
62
1
10
-97.462
20
51.338
30
0
11
-82.538
21
51.338
31
0
0
LINE
8
0
62
1
10
-82.538
20
51.338
30
0
11
-82.538
21
63.98
31
0
0
LINE
8
0
62
1
10
-82.538
20
63.98
30
0
11
-82.535
21
63.995
31
0
0
LINE
8
0
62
1
10
-82.535
20
63.995
30
0
11
-82.527
21
64.007
31
0
0
LINE
8
0
62
1
10
-82.527
20
64.007
30
0
11
-82.515
21
64.015
31
0
0
LINE
8
0
62
1
10
-82.515
20
64.015
30
0
11
-82.5
21
64.018
31
0
0
LINE
8
0
62
1
10
-82.5
20
64.018
30
0
11
-67.5
21
64.018
31
0
0
LINE
8
0
62
1
10
-67.5
20
64.018
30
0
11
-67.485
21
64.015
31
0
0
LINE
8
0
62
1
10
-67.485
20
64.015
30
0
11
-67.473
21
64.007
31
0
0
LINE
8
0
62
1
10
-67.473
20
64.007
30
0
11
-67.465
21
63.995
31
0
0
LINE
8
0
62
1
10
-67.465
20
63.995
30
0
11
-67.462
21
63.98
31
0
0
LINE
8
0
62
1
10
-67.462
20
63.98
30
0
11
-67.462
21
51.338
31
0
0
LINE
8
0
62
1
10
-67.462
20
51.338
30
0
11
-52.538
21
51.338
31
0
0
LINE
8
0
62
1
10
-52.538
20
51.338
30
0
11
-52.538
21
63.98
31
0
0
LINE
8
0
62
1
10
-52.538
20
63.98
30
0
11
-52.535
21
63.995
31
0
0
LINE
8
0
62
1
10
-52.535
20
63.995
30
0
11
-52.527
21
64.007
31
0
0
LINE
8
0
62
1
10
-52.527
20
64.007
30
0
11
-52.515
21
64.015
31
0
0
LINE
8
0
62
1
10
-52.515
20
64.015
30
0
11
-52.5
21
64.018
31
0
0
LINE
8
0
62
1
10
-52.5
20
64.018
30
0
11
-37.5
21
64.018
31
0
0
LINE
8
0
62
1
10
-37.5
20
64.018
30
0
11
-37.485
21
64.015
31
0
0
LINE
8
0
62
1
10
-37.485
20
64.015
30
0
11
-37.473
21
64.007
31
0
0
LINE
8
0
62
1
10
-37.473
20
64.007
30
0
11
-37.465
21
63.995
31
0
0
LINE
8
0
62
1
10
-37.465
20
63.995
30
0
11
-37.462
21
63.98
31
0
0
LINE
8
0
62
1
10
-37.462
20
63.98
30
0
11
-37.462
21
51.338
31
0
0
LINE
8
0
62
1
10
-37.462
20
51.338
30
0
11
-22.538
21
51.338
31
0
0
LINE
8
0
62
1
10
-22.538
20
51.338
30
0
11
-22.538
21
63.98
31
0
0
ENDSEC
0
EOF
